<?xml version="1.0" standalone="no"?>
<!DOCTYPE svg PUBLIC "-//W3C//DTD SVG 1.1//EN" "http://www.w3.org/Graphics/SVG/1.1/DTD/svg11.dtd" >
<svg xmlns="http://www.w3.org/2000/svg" xmlns:xlink="http://www.w3.org/1999/xlink" version="1.1">
<metadata>
Created by Christoph Koeberlin (http://christoph.koe.berlin)
Copyright (c) 2014 Swiss Typefaces Sa`rl. All rights reserved.
</metadata>
<defs>
<font id="Font" horiz-adv-x="646" >
  <font-face 
    font-family="Font"
    font-weight="275"
    font-stretch="normal"
    units-per-em="1000"
    panose-1="2 11 4 9 0 0 0 0 0 0"
    ascent="800"
    descent="-200"
    x-height="538"
    cap-height="725"
    bbox="-23 -194 647 920"
    underline-thickness="35"
    underline-position="-76"
    unicode-range="U+0020-FB02"
  />
<missing-glyph 
d="M73 725h500v-725h-500v725zM92 696v-667l220 333zM554 29v667l-221 -334zM106 19h433l-216 327zM323 378l216 328h-433z" />
    <glyph glyph-name=".notdef" 
d="M73 725h500v-725h-500v725zM92 696v-667l220 333zM554 29v667l-221 -334zM106 19h433l-216 327zM323 378l216 328h-433z" />
    <glyph glyph-name=".null" 
 />
    <glyph glyph-name="nonmarkingreturn" 
 />
    <glyph glyph-name="space" unicode=" " 
 />
    <glyph glyph-name="exclam" unicode="!" 
d="M311 174l-9 338v213h42v-213l-9 -338h-24zM303 0v104h39v-104h-39z" />
    <glyph glyph-name="quotedbl" unicode="&#x22;" 
d="M268 725l-12 -240h-22l-11 240h45zM423 725l-12 -240h-22l-11 240h45z" />
    <glyph glyph-name="numbersign" unicode="#" 
d="M222 510l30 215h39l-30 -215h160l31 215h38l-30 -215h154l-6 -37h-153l-29 -212h152l-5 -37h-152l-30 -224h-40l31 224h-160l-31 -224h-39l31 224h-153l6 37h152l29 212h-152l6 37h151zM227 261h160l29 212h-160z" />
    <glyph glyph-name="dollar" unicode="$" 
d="M102 560q0 47 19.5 81t50 55.5t68.5 31.5q32 8 65 10v88h34v-89q32 -2 60 -12q39 -12 70 -36.5t52.5 -61t31.5 -83.5h-43q-21 78 -73 116q-43 32 -98 38v-302l11 -3q36 -10 74.5 -24t70.5 -37t52.5 -57t20.5 -84q0 -51 -19.5 -89.5t-52.5 -64t-76 -37.5q-39 -12 -81 -13
v-89h-34v91q-84 7 -143 57q-68 59 -86 171h44q9 -51 29 -87.5t47.5 -59.5t61.5 -34q22 -7 47 -9v337l-22 6q-37 9 -70 24.5t-57.5 38t-39 54t-14.5 73.5zM395 33q35 8 63.5 26t47 49t18.5 78q0 37 -14.5 64t-39 46.5t-57.5 33t-70 23.5l-4 1v-328q27 1 56 7zM256 691
q-29 -7 -53.5 -23t-40.5 -42t-16 -63q0 -64 39.5 -100t109.5 -55l10 -3v294q-24 -1 -49 -8z" />
    <glyph glyph-name="percent" unicode="%" 
d="M165 382q-70 0 -102.5 49t-32.5 129q0 81 32.5 129.5t102.5 48.5q68 0 101 -49t33 -129t-33 -129t-101 -49zM165 412q45 0 72.5 36.5t27.5 111.5t-27.5 111.5t-72.5 36.5q-47 0 -74.5 -36.5t-27.5 -111.5t27.5 -111.5t74.5 -36.5zM54 0l500 725h40l-501 -725h-39z
M482 -13q-70 0 -102.5 49.5t-32.5 129.5t32.5 128.5t102.5 48.5q34 0 59.5 -13t42 -36t24.5 -55.5t8 -72.5q0 -80 -33 -129.5t-101 -49.5zM482 17q45 0 72.5 37t27.5 112t-27.5 111t-72.5 36q-46 0 -73.5 -36t-27.5 -111t27.5 -112t73.5 -37z" />
    <glyph glyph-name="ampersand" unicode="&#x26;" 
d="M254 -13q-47 0 -85 16t-65.5 44.5t-42.5 67.5t-15 85q0 81 45.5 135.5t126.5 84.5q-33 46 -50.5 90t-17.5 87q0 32 11 58t30 44.5t44 28.5t54 10q23 0 47 -9t43.5 -27t32 -45.5t12.5 -64.5q0 -68 -40 -113t-105 -74l183 -219q21 44 35 93t21 100h40q-10 -61 -27.5 -117.5
t-43.5 -104.5l131 -157h-53l-100 120q-41 -61 -93.5 -97t-117.5 -36zM255 23q59 0 105.5 34.5t80.5 91.5l-192 233l-9 10q-69 -26 -110.5 -72.5t-41.5 -118.5q0 -40 13 -72.5t35.5 -56t53 -36.5t65.5 -13zM191 598q0 -23 5.5 -46.5t14.5 -45t21 -40.5t24 -34q57 24 92.5 61
t35.5 98q0 52 -29 82t-70 30q-38 0 -66 -26.5t-28 -78.5z" />
    <glyph glyph-name="quotesingle" unicode="'" 
d="M345 725l-12 -240h-22l-11 240h45z" />
    <glyph glyph-name="parenleft" unicode="(" 
d="M244 275q0 70 10.5 136t28 124t39 106.5t44.5 84.5h35q-49 -86 -84 -198t-35 -253q0 -71 9.5 -134t25.5 -119t38 -105t46 -92h-35q-23 36 -44.5 84.5t-39 106.5t-28 123.5t-10.5 135.5z" />
    <glyph glyph-name="parenright" unicode=")" 
d="M401 275q0 -70 -11 -135.5t-28.5 -123.5t-40 -106.5t-44.5 -84.5h-33q48 85 82.5 197t34.5 253q0 70 -9.5 133.5t-25 119.5t-37 105t-45.5 92h33q22 -36 44.5 -84.5t40 -106.5t28.5 -123.5t11 -135.5z" />
    <glyph glyph-name="asterisk" unicode="*" 
d="M340 598l129 42l9 -32l-128 -42l79 -107l-27 -21l-80 108l-77 -108l-28 20l77 107l-126 44l9 34l128 -45v127h35v-127z" />
    <glyph glyph-name="plus" unicode="+" 
d="M303 0v251h-251v37h251v250h40v-250h251v-37h-251v-251h-40z" />
    <glyph glyph-name="comma" unicode="," 
d="M342 104v-104q0 -33 -1.5 -59.5t-9 -46.5t-22 -32t-40.5 -15v39q11 3 18 9.5t10.5 19t4.5 32.5t1 52v105h39z" />
    <glyph glyph-name="hyphen" unicode="-" 
d="M183 251v42h280v-42h-280z" />
    <glyph glyph-name="period" unicode="." 
d="M303 0v104h39v-104h-39z" />
    <glyph glyph-name="slash" unicode="/" 
d="M158 0l291 725h39l-290 -725h-40z" />
    <glyph glyph-name="zero" unicode="0" 
d="M323 -13q-72 0 -120.5 27.5t-78 77.5t-42 119t-12.5 152t12.5 152t42 118.5t78 77t120.5 27.5t120 -27.5t77.5 -77t42 -118.5t12.5 -152t-12.5 -152t-42 -119t-77.5 -77.5t-120 -27.5zM323 23q109 0 159.5 85t50.5 255q0 40 -3 76l-412 -189q15 -114 65 -170.5t140 -56.5
zM112 363q0 -41 3 -78l411 192q-15 113 -64.5 169.5t-138.5 56.5q-109 0 -160 -85t-51 -255z" />
    <glyph glyph-name="one" unicode="1" 
d="M118 588v34h51q49 0 78 3.5t44.5 14.5t22.5 31t12 54h29v-691h205v-34h-448v34h204v554h-198z" />
    <glyph glyph-name="two" unicode="2" 
d="M329 738q47 0 86 -13t66.5 -38t43 -61t15.5 -82q0 -59 -26 -117.5t-77 -120t-127.5 -127.5t-178.5 -141h434v-38h-490v39q106 79 185.5 147t132.5 128.5t79 116t26 110.5q0 40 -14 70t-37 50.5t-53.5 31t-64.5 10.5q-36 0 -70 -10t-61 -34t-44 -63t-20 -96h-41
q3 59 21.5 103.5t50 74.5t73 45t91.5 15z" />
    <glyph glyph-name="three" unicode="3" 
d="M319 23q44 0 80.5 12t63 34t41 53.5t14.5 71.5q0 45 -16.5 77t-46.5 53t-72 30.5t-93 9.5h-11v35h7q111 0 163 43t52 114q0 66 -47.5 106.5t-128.5 40.5q-75 0 -128.5 -42t-67.5 -123l-41 4q17 90 76.5 143t162.5 53q48 0 87.5 -12t68 -35.5t44.5 -56.5t16 -75
q0 -36 -11.5 -65.5t-31.5 -51.5t-46.5 -37t-56.5 -21q34 -5 64 -19t52 -37t34.5 -55.5t12.5 -75.5q0 -51 -19 -90t-51.5 -66t-76.5 -40.5t-94 -13.5q-53 0 -94.5 15.5t-72.5 43t-50.5 65.5t-27.5 83l41 4q18 -89 71.5 -132t132.5 -43z" />
    <glyph glyph-name="four" unicode="4" 
d="M89 237h337v434zM602 200h-137v-200h-39v200h-381v35l382 490h38v-488h137v-37z" />
    <glyph glyph-name="five" unicode="5" 
d="M324 23q43 0 80 14t63 41t41 66t15 89q0 49 -14 88.5t-40 67.5t-62.5 42.5t-80.5 14.5q-69 0 -114.5 -30t-68.5 -78l-37 5l51 382h377v-37h-344l-40 -288q26 32 70.5 57t113.5 25q52 0 94.5 -17.5t73 -49.5t47 -78.5t16.5 -103.5q0 -59 -18.5 -104.5t-51 -77t-76.5 -48
t-95 -16.5q-53 0 -94.5 15t-72 42t-49.5 65t-27 83l41 5q18 -89 69.5 -131.5t132.5 -42.5z" />
    <glyph glyph-name="six" unicode="6" 
d="M128 239q0 -52 16 -92t43.5 -67.5t64 -42t78.5 -14.5q46 0 83.5 15.5t64 43t41 65.5t14.5 82q0 49 -14 88.5t-40 68t-63.5 44t-83.5 15.5q-50 0 -88.5 -17t-64 -45.5t-38.5 -66t-13 -77.5zM340 703q-50 0 -92 -22.5t-71.5 -69t-45.5 -118t-15 -170.5q10 33 29 62
t46.5 50.5t63.5 33.5t81 12q54 0 98 -18.5t75 -51.5t48 -79t17 -101q0 -50 -16.5 -94.5t-48 -77.5t-77 -52.5t-102.5 -19.5q-56 0 -102.5 18.5t-80 59.5t-52.5 105.5t-19 156.5q0 94 16.5 170.5t50 129.5t84.5 82t120 29q48 0 84.5 -12.5t62.5 -34.5t41.5 -51.5t23.5 -62.5
l-43 -4q-14 67 -59 98.5t-117 31.5z" />
    <glyph glyph-name="seven" unicode="7" 
d="M87 725h493v-37q-75 -57 -136 -127.5t-105 -156.5t-70.5 -186.5t-31.5 -217.5h-44q9 122 36.5 224.5t71 187t101.5 153.5t129 123h-444v37z" />
    <glyph glyph-name="eight" unicode="8" 
d="M323 738q55 0 98 -13.5t72.5 -37t45 -56.5t15.5 -72q0 -60 -33.5 -106.5t-93.5 -62.5q29 -9 56 -24t47.5 -38t33 -55t12.5 -75q0 -50 -18.5 -89t-52 -66t-80 -41.5t-102.5 -14.5t-102 14.5t-80 41.5t-52.5 66t-18.5 89q0 43 12.5 75t33.5 55t48 38t56 24q-61 16 -94 62.5
t-33 106.5q0 39 15.5 72t45 56.5t72.5 37t97 13.5zM323 373q-99 0 -155 -47t-56 -128t56 -128t155 -47q100 0 155.5 47t55.5 128t-55.5 128t-155.5 47zM513 555q0 69 -50 108.5t-140 39.5q-89 0 -139 -39.5t-50 -108.5q0 -30 11 -57.5t34.5 -48t59 -33t84.5 -12.5t85 12.5
t59 33t34.5 48t11.5 57.5z" />
    <glyph glyph-name="nine" unicode="9" 
d="M513 487q0 52 -14.5 92t-41 67.5t-62.5 42t-78 14.5q-46 0 -82 -15.5t-61 -43t-38.5 -65.5t-13.5 -82q0 -49 13 -89t37.5 -68.5t61 -44t83.5 -15.5q49 0 86 17t61.5 45.5t36.5 66t12 78.5zM307 23q51 0 91.5 22t69 68.5t43 118.5t13.5 171q-10 -33 -27.5 -62t-43.5 -50.5
t-61.5 -33.5t-80.5 -12q-54 0 -97 18t-72.5 51t-45.5 79t-16 101q0 51 15.5 95.5t45.5 77.5t74.5 52t101.5 19q55 0 101 -18.5t78 -59t50 -105t18 -156.5q0 -86 -13 -161.5t-43.5 -131t-81 -87.5t-125.5 -32q-49 0 -84 12.5t-59.5 34.5t-39.5 51.5t-22 62.5l42 5
q14 -68 56 -99t113 -31z" />
    <glyph glyph-name="colon" unicode=":" 
d="M303 0v104h39v-104h-39zM303 434v104h39v-104h-39z" />
    <glyph glyph-name="semicolon" unicode=";" 
d="M303 434v104h39v-104h-39zM342 104v-104q0 -33 -1.5 -59.5t-9 -46.5t-22 -32t-40.5 -15v39q11 3 18 9.5t10.5 19t4.5 32.5t1 52v105h39z" />
    <glyph glyph-name="equal" unicode="=" 
d="M89 362v37h468v-37h-468zM89 139v37h468v-37h-468z" />
    <glyph glyph-name="question" unicode="?" 
d="M329 738q43 0 82.5 -11t68.5 -32.5t46.5 -54t17.5 -74.5q0 -35 -11.5 -63t-30 -51t-42.5 -42.5t-48 -36.5q-23 -17 -42.5 -32t-33.5 -33.5t-21.5 -41.5t-7.5 -54v-38h-40v38q0 36 8.5 62.5t24 48t38.5 40t52 39.5q21 15 41 31.5t36 35.5t25.5 42.5t9.5 52.5
q0 33 -13.5 59t-37 44t-55.5 27t-70 9q-84 0 -138 -47.5t-59 -146.5h-40q2 60 21.5 103t51.5 71t75 41.5t92 13.5zM268 0v104h39v-104h-39z" />
    <glyph glyph-name="at" unicode="@" 
d="M483 165q-21 0 -36 11t-24.5 28.5t-13.5 40t-2 46.5q-14 -55 -49.5 -86.5t-81.5 -31.5q-22 0 -42 10.5t-35 31.5t-24 52.5t-9 73.5q0 48 12.5 91t34 75.5t51 52t63.5 19.5q23 0 40.5 -10t29.5 -25t19 -32.5t9 -33.5l7 82h35l-29 -236q-3 -23 -2 -45t6 -39.5t16 -28.5
t28 -11q19 0 36 14.5t29.5 42t20 67.5t7.5 90q0 72 -18.5 126.5t-50.5 91t-76.5 55t-96.5 18.5q-61 0 -110.5 -28t-85 -76t-55 -112t-19.5 -136q0 -71 17.5 -131.5t50.5 -105.5t80.5 -70.5t107.5 -25.5q39 0 74.5 12t65.5 28l13 -32q-32 -17 -72 -29t-85 -12
q-68 0 -121.5 28t-90.5 77.5t-56.5 117t-19.5 145.5q0 81 22.5 150.5t63.5 121.5t97 81.5t124 29.5q62 0 113 -21.5t87 -63t56 -101.5t20 -136q0 -59 -11.5 -106t-30 -79t-42 -49t-47.5 -17zM326 545q-26 0 -49 -16.5t-39.5 -44t-26 -64.5t-9.5 -78q0 -69 23 -102.5
t58 -33.5q28 0 51.5 18t40 47.5t25.5 67.5t9 78q0 63 -20.5 95.5t-62.5 32.5z" />
    <glyph glyph-name="A" unicode="A" 
d="M301 725h43l249 -725h-46l-66 197h-317l-66 -197h-45zM177 236h291l-145 435z" />
    <glyph glyph-name="B" unicode="B" 
d="M114 725h182q50 0 93.5 -8t75.5 -28.5t50.5 -55t18.5 -87.5q0 -60 -24.5 -102.5t-86.5 -63.5q70 -13 106 -54t36 -122q0 -54 -18 -93t-50.5 -63.5t-77 -36t-97.5 -11.5h-208v725zM155 39h166q101 0 150.5 42.5t49.5 121.5q0 84 -50.5 120t-156.5 36h-159v-320zM155 395
h156q41 0 74 8t56.5 25.5t36.5 46t13 69.5q0 40 -14 67.5t-39 44t-60 23.5t-77 7h-146v-291z" />
    <glyph glyph-name="C" unicode="C" 
d="M581 213q-23 -109 -84.5 -167.5t-164.5 -58.5q-70 0 -121 28.5t-84 78.5t-48.5 119t-15.5 149q0 81 16 149.5t49 119t84 79t122 28.5q100 0 160.5 -58t83.5 -168h-43q-23 96 -74 142t-128 46q-55 0 -97 -23.5t-70.5 -67.5t-43.5 -106.5t-15 -140.5q0 -76 14.5 -138
t43 -106t70.5 -68t97 -24q88 0 137 50t69 137h43z" />
    <glyph glyph-name="D" unicode="D" 
d="M534 363q0 71 -15.5 122.5t-42 87t-61.5 58t-74.5 34.5t-81 16.5t-79.5 4.5h-38v-647h38q58 0 120.5 11t114.5 45t85.5 98t33.5 170zM184 725q79 0 150.5 -17t125.5 -59t86 -111.5t32 -174.5t-32 -175t-86 -111.5t-125.5 -59t-150.5 -17.5h-83v725h83z" />
    <glyph glyph-name="E" unicode="E" 
d="M127 725h412v-39h-371v-289h346v-39h-346v-319h371v-39h-412v725z" />
    <glyph glyph-name="F" unicode="F" 
d="M127 725h428v-39h-387v-289h363v-39h-363v-358h-41v725z" />
    <glyph glyph-name="G" unicode="G" 
d="M325 26q39 0 77 12.5t68 41t48.5 76t18.5 117.5v39h-166v38h205v-350h-37l-1 114q-14 -27 -33 -50t-45 -40.5t-59.5 -27t-75.5 -9.5q-70 0 -122.5 28.5t-87 79t-51.5 119.5t-17 149q0 81 17.5 149.5t52.5 118.5t87.5 78.5t122.5 28.5q100 0 165 -60.5t89 -171.5h-43
q-23 97 -79 145t-133 48q-55 0 -98.5 -23.5t-74 -67t-46.5 -105.5t-16 -140q0 -76 16 -138t46 -106.5t73.5 -68.5t98.5 -24z" />
    <glyph glyph-name="H" unicode="H" 
d="M549 725v-725h-41v351h-370v-351h-41v725h41v-335h370v335h41z" />
    <glyph glyph-name="I" unicode="I" 
d="M98 725h450v-39h-204v-647h204v-39h-450v39h205v647h-205v39z" />
    <glyph glyph-name="J" unicode="J" 
d="M135 241q0 -69 15 -111t38 -65t52 -31t58 -8t58 8t52.5 31.5t38.5 65.5t15 111v444h-291v39h332v-472q0 -76 -15.5 -127t-43 -82t-65 -44t-81.5 -13q-43 0 -79.5 12.5t-64 42t-43.5 78t-17 121.5h41z" />
    <glyph glyph-name="K" unicode="K" 
d="M182 331l336 394h52l-262 -304l279 -421h-52l-256 389l-97 -113v-276h-41v725h41v-394z" />
    <glyph glyph-name="L" unicode="L" 
d="M178 39h380v-39h-421v725h41v-686z" />
    <glyph glyph-name="M" unicode="M" 
d="M303 291l-174 395v-686h-41v725h67l169 -387l168 387h66v-725h-41v686l-174 -395h-40z" />
    <glyph glyph-name="N" unicode="N" 
d="M494 0l-356 670v-670h-41v725h55l356 -670v670h41v-725h-55z" />
    <glyph glyph-name="O" unicode="O" 
d="M587 363q0 -82 -17.5 -151t-51 -119t-83 -78t-112.5 -28t-112.5 28t-83 78t-51 119t-17.5 151t17.5 151t51 119t83 77.5t112.5 27.5t112.5 -27.5t83 -77.5t51 -119t17.5 -151zM543 363q0 80 -16 142.5t-45 105.5t-69.5 65.5t-89.5 22.5t-89.5 -22.5t-69 -65.5
t-44.5 -105.5t-16 -142.5t16 -143t44.5 -106t69 -65.5t89.5 -22.5t89.5 22.5t69.5 65.5t45 106t16 143z" />
    <glyph glyph-name="P" unicode="P" 
d="M291 725q64 0 118 -10t92 -34.5t59.5 -65.5t21.5 -103q0 -63 -21.5 -104t-59.5 -65.5t-92 -34.5t-118 -10h-125v-298h-41v725h166zM166 686v-349h129q51 0 95.5 7t77.5 26.5t52 53.5t19 88t-19 88t-52 53t-77.5 26t-95.5 7h-129z" />
    <glyph glyph-name="Q" unicode="Q" 
d="M587 363q0 -108 -29 -191.5t-86 -131.5l94 -95l-28 -27l-99 99q-26 -14 -54.5 -22t-61.5 -8q-63 0 -112.5 28t-83 78t-51 119t-17.5 151t17.5 151t51 119t83 77.5t112.5 27.5t112.5 -27.5t83 -77.5t51 -119t17.5 -151zM543 363q0 80 -16 142.5t-45 105.5t-69.5 65.5
t-89.5 22.5t-89.5 -22.5t-69 -65.5t-44.5 -105.5t-16 -142.5t16 -143t44.5 -106t69 -65.5t89.5 -22.5q47 0 86 21l-71 72l28 27l76 -77q48 41 74.5 114.5t26.5 179.5z" />
    <glyph glyph-name="R" unicode="R" 
d="M348 333q-20 -2 -40 -3t-42 -1h-117v-329h-41v725h159q62 0 114.5 -7.5t90.5 -29t59 -60t21 -99.5q0 -44 -11.5 -76.5t-32.5 -55.5t-51 -37t-67 -21l173 -339h-46zM149 686v-318h116q51 0 95.5 5t77.5 22t51.5 48.5t18.5 84.5t-18.5 84t-51.5 47.5t-77.5 21.5t-95.5 5
h-116z" />
    <glyph glyph-name="S" unicode="S" 
d="M102 560q0 47 19.5 81t50 55.5t68.5 31.5t76 10q45 0 83.5 -12.5t69.5 -37t52.5 -61t31.5 -83.5h-43q-21 78 -73 116.5t-124 38.5q-27 0 -56.5 -7.5t-54 -23.5t-40.5 -42t-16 -63q0 -64 39.5 -100t109.5 -55l55 -15q36 -10 74.5 -24t70.5 -37t52.5 -57t20.5 -84
q0 -51 -19.5 -89.5t-52.5 -64t-75.5 -38t-87.5 -12.5q-102 0 -170.5 59t-86.5 171h44q9 -51 29 -87.5t47.5 -59.5t61.5 -33.5t72 -10.5q31 0 65.5 7.5t63 25.5t47 49t18.5 78q0 37 -14.5 64t-39 46.5t-57.5 33t-70 23.5l-60 17q-37 9 -70 24.5t-57.5 38t-39 54t-14.5 73.5z
" />
    <glyph glyph-name="T" unicode="T" 
d="M302 686h-243v39h527v-39h-244v-686h-40v686z" />
    <glyph glyph-name="U" unicode="U" 
d="M323 26q50 0 85.5 13.5t57.5 43t32 76t10 112.5v454h41v-447q0 -82 -13 -137.5t-40.5 -89.5t-70.5 -49t-102 -15q-60 0 -102.5 15t-70 49t-40.5 89.5t-13 137.5v447h41v-454q0 -66 10 -112.5t32 -76t57 -43t86 -13.5z" />
    <glyph glyph-name="V" unicode="V" 
d="M94 725l230 -670l228 670h44l-252 -725h-43l-253 725h46z" />
    <glyph glyph-name="W" unicode="W" 
d="M466 59l101 666h43l-117 -725h-49l-122 419l-122 -419h-48l-118 725h44l103 -666l118 430h46z" />
    <glyph glyph-name="X" unicode="X" 
d="M300 378l-213 347h46l190 -309l192 309h45l-214 -345l234 -380h-47l-211 342l-212 -342h-45z" />
    <glyph glyph-name="Y" unicode="Y" 
d="M87 725l236 -417l236 417h47l-262 -461v-264h-41v265l-263 460h47z" />
    <glyph glyph-name="Z" unicode="Z" 
d="M547 688l-423 -649h436v-39h-483v38l423 649h-385v38h432v-37z" />
    <glyph glyph-name="bracketleft" unicode="[" 
d="M416 725v-36h-105v-828h105v-36h-143v900h143z" />
    <glyph glyph-name="bracketright" unicode="]" 
d="M373 725v-900h-143v36h104v828h-104v36h143z" />
    <glyph glyph-name="underscore" unicode="_" 
d="M133 -39v39h380v-39h-380z" />
    <glyph glyph-name="grave" unicode="`" 
d="M239 725h58l110 -116h-38z" />
    <glyph glyph-name="a" unicode="a" 
d="M480 286q-97 -11 -162.5 -24t-105 -30.5t-56 -41.5t-16.5 -58q0 -26 11 -46t30 -34t45.5 -21.5t57.5 -7.5q37 0 72.5 10.5t63 35t44 64.5t16.5 99v54zM480 104q-26 -59 -78 -88t-127 -29q-36 0 -68 9.5t-56 28t-38.5 45t-14.5 60.5q0 48 23 79.5t70 52.5t118.5 34.5
t168.5 25.5v31q0 52 -13.5 84t-35.5 49.5t-51 23t-60 5.5q-40 0 -69.5 -10.5t-49 -29t-30 -42.5t-13.5 -51h-42q4 36 19.5 67t41.5 53.5t62.5 35.5t81.5 13t81.5 -9.5t62.5 -32t40 -61t14 -95.5v-42t-0.5 -44.5t-0.5 -43.5v-38q0 -51 1.5 -95t4.5 -90h-38z" />
    <glyph glyph-name="b" unicode="b" 
d="M528 267q0 59 -14 104.5t-39 76.5t-59.5 47t-74.5 16q-35 0 -69 -13.5t-61.5 -43t-44.5 -75.5t-17 -112t17 -112t44.5 -75.5t61.5 -42.5t69 -13q40 0 74.5 15.5t59.5 46.5t39 76.5t14 104.5zM569 267q0 -67 -17 -119t-47 -88t-70.5 -54.5t-88.5 -18.5q-68 0 -118.5 33.5
t-75.5 93.5l-1 -114h-38v725h39v-305q25 60 75.5 93.5t118.5 33.5q48 0 88.5 -18.5t70.5 -54.5t47 -88t17 -119z" />
    <glyph glyph-name="c" unicode="c" 
d="M332 547q44 0 80.5 -13t64 -36t45 -54.5t23.5 -69.5h-40q-14 66 -60.5 101.5t-115.5 35.5q-44 0 -79.5 -17t-60 -48.5t-38 -77t-13.5 -101.5q0 -62 15 -108t40.5 -76t60 -45t74.5 -15q75 0 120.5 36.5t58.5 99.5h41q-16 -81 -73.5 -126.5t-147.5 -45.5q-57 0 -100.5 20.5
t-72 57.5t-43 88.5t-14.5 112.5q0 62 15 113.5t44.5 89t73.5 58t102 20.5z" />
    <glyph glyph-name="d" unicode="d" 
d="M118 267q0 -59 14.5 -104.5t39.5 -76.5t59.5 -47t74.5 -16q34 0 68.5 13.5t62 42.5t44.5 75.5t17 112.5t-17 112t-44.5 75.5t-62 43t-68.5 13.5q-40 0 -74.5 -16t-59.5 -47t-39.5 -76.5t-14.5 -104.5zM77 267q0 67 17 119t47 88t70.5 54.5t88.5 18.5q69 0 119.5 -33.5
t75.5 -93.5v305h39v-725h-38l-1 114q-25 -60 -75.5 -93.5t-119.5 -33.5q-48 0 -88.5 18.5t-70.5 54.5t-47 88t-17 119z" />
    <glyph glyph-name="e" unicode="e" 
d="M326 -13q-58 0 -102.5 20.5t-74.5 57.5t-45 88.5t-15 114.5q0 64 16.5 115.5t47.5 88t75 56t100 19.5t99.5 -21t73 -58.5t44 -89t13.5 -112.5h-428q0 -61 14.5 -106.5t40.5 -76t62.5 -45.5t80.5 -15q72 0 118.5 34.5t62.5 98.5h40q-17 -81 -74.5 -125t-148.5 -44z
M327 512q-88 0 -138.5 -56t-57.5 -156h385q0 41 -12.5 79.5t-36.5 68t-59 47t-81 17.5z" />
    <glyph glyph-name="f" unicode="f" 
d="M267 608q0 33 4.5 55t17.5 36t36 20t59 6h173v-35h-159q-31 0 -49.5 -3t-28 -13t-12 -27.5t-2.5 -45.5v-63h251v-34h-251v-504h-39v504h-187v34h187v70z" />
    <glyph glyph-name="g" unicode="g" 
d="M494 538h39v-527q0 -65 -16.5 -103t-46.5 -60q-30 -23 -70 -32.5t-85 -9.5q-87 0 -143 43t-64 113h41q3 -24 14.5 -46t31.5 -38.5t50 -26.5t70 -10q33 0 65 6t57 23q26 17 41.5 47t15.5 82v137q-25 -60 -75.5 -93.5t-118.5 -33.5q-48 0 -88.5 17t-70.5 50.5t-47 84
t-17 117.5t17 117t47 84t70.5 51t88.5 17q68 0 118.5 -33.5t75.5 -93.5v118zM118 278q0 -60 14.5 -104t39.5 -73t59 -43t74 -14q35 0 69.5 13.5t62 42t44.5 72.5t17 106q0 61 -17 105.5t-44.5 72.5t-62 41.5t-69.5 13.5q-40 0 -74 -14t-59 -43t-39.5 -73t-14.5 -103z" />
    <glyph glyph-name="h" unicode="h" 
d="M157 414q8 24 23 47.5t38 42.5t55 31t74 12q86 0 133 -48q23 -23 35 -61t12 -98v-340h-39v327q0 49 -9 85t-30 59q-17 20 -44 30t-66 10q-43 0 -76.5 -17.5t-57 -50t-36 -78t-12.5 -101.5v-264h-39v725h39v-311z" />
    <glyph glyph-name="i" unicode="i" 
d="M342 538v-504h204v-34h-448v34h205v470h-183v34h222zM342 725v-95h-39v95h39z" />
    <glyph glyph-name="j" unicode="j" 
d="M472 538v-586q0 -36 -4.5 -60.5t-16.5 -39t-34 -21t-58 -6.5h-162v35h148q30 0 47.5 4t26.5 14.5t11.5 29t2.5 47.5v549h-183v34h222zM472 725v-95h-39v95h39z" />
    <glyph glyph-name="k" unicode="k" 
d="M165 725v-484l273 297h47l-204 -220l239 -318h-46l-218 290l-91 -99v-191h-39v725h39z" />
    <glyph glyph-name="l" unicode="l" 
d="M346 725v-691h204v-34h-448v34h205v657h-183v34h222z" />
    <glyph glyph-name="m" unicode="m" 
d="M336 437q15 51 47.5 80.5t92.5 29.5q64 0 91 -43.5t27 -139.5v-364h-39v350q0 46 -4 77t-14 50t-27 27t-43 8q-53 0 -89 -57t-36 -173v-282h-39v350q0 46 -4 77t-14 50t-27 27t-42 8q-27 0 -50 -14t-40 -42.5t-26.5 -72t-9.5 -101.5v-282h-39v538h39v-101q14 51 46 80.5
t91 29.5q55 0 79.5 -31t29.5 -79z" />
    <glyph glyph-name="n" unicode="n" 
d="M157 414q8 24 23 47.5t38 42.5t55 31t74 12q86 0 133 -48q23 -23 35 -61t12 -98v-340h-39v327q0 49 -9 85t-30 59q-17 20 -44 30t-66 10q-43 0 -76.5 -17.5t-57 -50t-36 -78t-12.5 -101.5v-264h-39v538h39v-124z" />
    <glyph glyph-name="o" unicode="o" 
d="M130 267q0 -62 14.5 -107.5t40 -76t61 -45.5t76.5 -15q42 0 77 15t61 45.5t40.5 76t14.5 107.5q0 61 -14.5 107t-40.5 76.5t-61 45.5t-77 15q-41 0 -76.5 -15t-61 -45.5t-40 -76.5t-14.5 -107zM89 267q0 71 18.5 123.5t50 87.5t74 52t90.5 17q49 0 91.5 -17t74.5 -52
t50.5 -87.5t18.5 -123.5t-18.5 -124t-50.5 -87.5t-74.5 -51.5t-91.5 -17q-48 0 -90.5 17t-74 51.5t-50 87.5t-18.5 124z" />
    <glyph glyph-name="p" unicode="p" 
d="M529 267q0 59 -14.5 104.5t-39.5 76.5t-59 47t-74 16q-35 0 -69.5 -13.5t-62 -43t-44.5 -75.5t-17 -112t17 -112.5t44.5 -75.5t62 -42.5t69.5 -13.5q40 0 74 16t59 47t39.5 76.5t14.5 104.5zM570 267q0 -67 -17 -119t-47 -88t-70.5 -54.5t-88.5 -18.5q-68 0 -118.5 33.5
t-76.5 93.5v-289h-39v713h39v-118q26 60 76.5 93.5t118.5 33.5q48 0 88.5 -18.5t70.5 -54.5t47 -88t17 -119z" />
    <glyph glyph-name="q" unicode="q" 
d="M118 267q0 -59 14.5 -104.5t39.5 -76.5t59 -47t74 -16q35 0 69.5 13.5t62 42.5t44.5 75.5t17 112.5t-17 112t-44.5 75.5t-62 43t-69.5 13.5q-40 0 -74 -16t-59 -47t-39.5 -76.5t-14.5 -104.5zM77 267q0 67 17 119t47 88t70.5 54.5t88.5 18.5q68 0 118.5 -33.5t75.5 -93.5
v118h39v-713h-39v289q-25 -60 -75.5 -93.5t-118.5 -33.5q-48 0 -88.5 18.5t-70.5 54.5t-47 88t-17 119z" />
    <glyph glyph-name="r" unicode="r" 
d="M307 538v-110q15 48 56.5 79t105.5 31h111v-38h-116q-47 0 -77.5 -18.5t-48 -52t-24.5 -80t-7 -102.5v-213h226v-34h-470v34h205v470h-183v34h222z" />
    <glyph glyph-name="s" unicode="s" 
d="M482 401q-16 60 -59.5 85.5t-106.5 25.5q-24 0 -51 -6t-49.5 -18t-37 -31t-14.5 -46q0 -45 30 -69t81 -35l80 -15q35 -7 67.5 -17.5t57 -27.5t39.5 -42t15 -61q0 -39 -16.5 -68t-44.5 -49t-65.5 -30t-79.5 -10q-93 0 -147.5 45t-68.5 126h40q14 -63 58 -99t122 -36
q28 0 56.5 6.5t51.5 20.5t38 35.5t15 52.5q0 27 -10.5 46.5t-30 33t-46 22t-57.5 14.5l-83 16q-65 13 -103.5 46.5t-38.5 92.5q0 31 15.5 57t42.5 44t62.5 28t75.5 10q85 0 136.5 -39t64.5 -108h-39z" />
    <glyph glyph-name="t" unicode="t" 
d="M236 670h39v-132h252v-34h-252v-368q0 -32 2 -51.5t10 -31t25.5 -15.5t48.5 -4h166v-34h-178q-35 0 -57 4.5t-34.5 18t-17 37.5t-4.5 62v382h-186v34h186v132z" />
    <glyph glyph-name="u" unicode="u" 
d="M477 116q-8 -23 -22 -45.5t-35.5 -41.5t-52.5 -30.5t-73 -11.5q-54 0 -88 16.5t-54 47.5q-17 26 -24.5 64.5t-7.5 95.5v327h39v-328q0 -48 5.5 -81.5t21.5 -56.5q15 -23 42 -36.5t71 -13.5q42 0 75.5 17.5t56 49.5t34.5 77t12 101v271h39v-538h-39v116z" />
    <glyph glyph-name="v" unicode="v" 
d="M325 52l195 486h43l-220 -538h-38l-223 538h44z" />
    <glyph glyph-name="w" unicode="w" 
d="M341 430l138 -376l93 484h39l-107 -538h-42l-140 382l-140 -382h-41l-107 538h39l92 -484l139 376h37z" />
    <glyph glyph-name="x" unicode="x" 
d="M345 278l208 -278h-48l-184 246l-183 -246h-46l206 277l-194 261h47l171 -230l171 230h46z" />
    <glyph glyph-name="y" unicode="y" 
d="M99 -175v34h74q21 0 35.5 2t26 11.5t22 28t24.5 51.5l23 53l-222 533h44l200 -485l195 485h43l-241 -591q-15 -38 -28 -61.5t-29 -37t-38 -18.5t-56 -5h-73z" />
    <glyph glyph-name="z" unicode="z" 
d="M121 33l351 469h-328v36h375v-33l-351 -469h357v-36h-404v33z" />
    <glyph glyph-name="braceleft" unicode="{" 
d="M396 -175q-36 0 -59 6t-36 20t-17.5 37t-4.5 57v192q0 24 -2.5 45t-10 37.5t-21.5 26.5t-36 12v36q22 2 36 12t21.5 26.5t10 37.5t2.5 45v190q0 34 4.5 57t17.5 37t36 20t59 6h19v-35h-10q-30 0 -47 -3.5t-26 -13.5t-11.5 -27.5t-2.5 -44.5v-187q0 -35 -4.5 -59
t-13 -39.5t-21 -24.5t-29.5 -14v-2q17 -5 29.5 -14t21 -24.5t13 -39.5t4.5 -59v-189q0 -27 2.5 -44.5t11.5 -27.5t26 -13.5t47 -3.5h10v-35h-19v0z" />
    <glyph glyph-name="bar" unicode="|" 
d="M342 725v-815h-39v815h39z" />
    <glyph glyph-name="braceright" unicode="}" 
d="M231 -140h9q29 0 46.5 3.5t26.5 13.5t12 27.5t3 44.5v189q0 35 4 59t12.5 39.5t21 24.5t29.5 14v2q-17 5 -29.5 14t-21 24.5t-12.5 39.5t-4 59v187q0 27 -3 44.5t-12 27.5t-26.5 13.5t-46.5 3.5h-9v35h18q36 0 59 -6t36 -20t18 -37t5 -57v-190q0 -24 2.5 -45t10 -37.5
t21 -26.5t36.5 -12v-36q-23 -2 -36.5 -12t-21 -26.5t-10 -37.5t-2.5 -45v-192q0 -34 -5 -57t-18 -37t-36 -20t-59 -6h-18v35z" />
    <glyph glyph-name="uni00A0" unicode="&#xa0;" 
 />
    <glyph glyph-name="exclamdown" unicode="&#xa1;" 
d="M335 365l9 -338v-202h-42v202l9 338h24zM303 434v104h39v-104h-39z" />
    <glyph glyph-name="sterling" unicode="&#xa3;" 
d="M339 703q-31 0 -63 -6.5t-58.5 -22t-43.5 -42.5t-17 -67q0 -46 22.5 -88.5t47.5 -86.5h276v-31h-259q14 -26 22.5 -53.5t8.5 -56.5q0 -32 -9 -62.5t-24.5 -57.5t-36 -48.5t-42.5 -34.5l1 -1q26 8 47 11.5t41 3.5q28 0 48 -6t39 -12.5t41 -12.5t54 -6q26 0 52.5 4.5
t55.5 15.5l14 -35q-24 -10 -55.5 -16.5t-65.5 -6.5q-29 0 -52 6t-45 12.5t-45 12.5t-53 6q-35 0 -74.5 -8t-75.5 -25l-14 30q22 11 49 31t51 48.5t40.5 65t16.5 80.5q0 31 -9.5 59.5t-23.5 55.5h-133v31h116q-24 42 -46 84t-22 90q0 47 19.5 80t51 54t72 30.5t82.5 9.5
q106 0 162 -58t61 -172h-42q-2 55 -16 92.5t-38 60t-56.5 32.5t-71.5 10z" />
    <glyph glyph-name="yen" unicode="&#xa5;" 
d="M87 725l236 -417l236 417h47l-262 -461v-7h177v-37h-177v-82h177v-37h-177v-101h-41v101h-177v37h177v82h-177v37h177v8l-263 460h47z" />
    <glyph glyph-name="dieresis" unicode="&#xa8;" 
d="M194 708h39v-95h-39v95zM452 708v-95h-40v95h40z" />
    <glyph glyph-name="copyright" unicode="&#xa9;" 
d="M320 334q36 0 61.5 19t35.5 52l32 -9q-12 -34 -44 -61t-85 -27q-61 0 -98.5 41.5t-37.5 113.5t38.5 111.5t98.5 39.5q53 0 84 -27t41 -63l-30 -9q-10 33 -34.5 52.5t-61.5 19.5q-42 0 -72.5 -30.5t-30.5 -93.5t30.5 -96t72.5 -33zM44 456q0 63 22 114.5t59.5 89t88.5 58
t109 20.5t108.5 -20.5t88.5 -58t60 -89t22 -114.5q0 -62 -22 -113.5t-60 -88t-88.5 -56.5t-108.5 -20t-109 20t-88.5 56.5t-59.5 88t-22 113.5zM77 456q0 -55 19 -101t52 -79t78 -51t97 -18t97.5 18t78.5 51t52 79t19 101q0 56 -19 102.5t-52 79.5t-78.5 51.5t-97.5 18.5
t-97 -18.5t-78 -51.5t-52 -79.5t-19 -102.5z" />
    <glyph glyph-name="guillemotleft" unicode="&#xab;" 
d="M130 273l157 225h45l-154 -224l154 -226h-44zM289 273l157 225h45l-154 -224l154 -226h-44z" />
    <glyph glyph-name="uni00AD" unicode="&#xad;" 
d="M183 251v42h280v-42h-280z" />
    <glyph glyph-name="macron" unicode="&#xaf;" 
d="M192 638v35h261v-35h-261z" />
    <glyph glyph-name="degree" unicode="&#xb0;" 
d="M183 596q0 30 10.5 56t29.5 45t44.5 30t54.5 11q30 0 56 -11t45 -30t29.5 -45t10.5 -56t-10.5 -55.5t-29.5 -45t-45 -30.5t-56 -11q-29 0 -54.5 11t-44.5 30.5t-29.5 45t-10.5 55.5zM223 596q0 -46 27 -76t72 -30q46 0 73 30t27 76q0 47 -27 77t-73 30q-45 0 -72 -30
t-27 -77z" />
    <glyph glyph-name="acute" unicode="&#xb4;" 
d="M277 608h-38l110 116h58z" />
    <glyph glyph-name="periodcentered" unicode="&#xb7;" 
d="M303 217v104h39v-104h-39z" />
    <glyph glyph-name="cedilla" unicode="&#xb8;" 
d="M250 -140q11 -5 26 -8t29 -3q23 0 43.5 9t20.5 33q0 21 -15.5 30t-35.5 9q-25 0 -43 -9l-14 14l47 76h30l-33 -56q15 3 28 3q32 0 52 -16.5t20 -47.5q0 -20 -8.5 -34t-22 -23t-30.5 -13t-35 -4q-17 0 -34 2.5t-34 8.5z" />
    <glyph glyph-name="guillemotright" unicode="&#xbb;" 
d="M359 48h-43l153 226l-153 224h44l157 -225zM200 48h-43l153 226l-153 224h44l157 -225z" />
    <glyph glyph-name="questiondown" unicode="&#xbf;" 
d="M317 -186q-44 0 -83 10.5t-68 31.5t-46.5 53t-17.5 74q0 35 11.5 63t30 51t42.5 42.5t48 36.5q23 17 42.5 32t33.5 33t21.5 40.5t7.5 54.5v34h40v-34q0 -36 -8.5 -62.5t-24 -47.5t-38.5 -39.5t-52 -39.5q-21 -15 -41 -31t-36 -35.5t-25.5 -42.5t-9.5 -53q0 -33 13.5 -58
t37 -42.5t55.5 -26t70 -8.5q84 0 138 46.5t59 144.5h40q-2 -59 -21.5 -102t-51.5 -71t-75 -41t-92 -13zM339 434v104h39v-104h-39z" />
    <glyph glyph-name="Agrave" unicode="&#xc0;" 
d="M301 725h43l249 -725h-46l-66 197h-317l-66 -197h-45zM177 236h291l-145 435zM160 874h63l124 -113h-43z" />
    <glyph glyph-name="Aacute" unicode="&#xc1;" 
d="M301 725h43l249 -725h-46l-66 197h-317l-66 -197h-45zM177 236h291l-145 435zM346 761h-43l123 113h64z" />
    <glyph glyph-name="Acircumflex" unicode="&#xc2;" 
d="M301 725h43l249 -725h-46l-66 197h-317l-66 -197h-45zM177 236h291l-145 435zM485 761h-47l-115 83l-115 -83h-47l138 113h50z" />
    <glyph glyph-name="Atilde" unicode="&#xc3;" 
d="M301 725h43l249 -725h-46l-66 197h-317l-66 -197h-45zM177 236h291l-145 435zM395 806q23 0 36.5 15t19.5 43h34q-7 -45 -29.5 -69t-59.5 -24q-22 0 -40.5 9t-36 20.5t-34.5 20.5t-35 9q-23 0 -36.5 -15.5t-18.5 -43.5h-34q6 45 30.5 69t58.5 24q23 0 42 -9t36 -20
t33.5 -20t33.5 -9z" />
    <glyph glyph-name="Adieresis" unicode="&#xc4;" 
d="M301 725h43l249 -725h-46l-66 197h-317l-66 -197h-45zM177 236h291l-145 435zM235 865v-95h-41v95h41zM452 865v-95h-42v95h42z" />
    <glyph glyph-name="Aring" unicode="&#xc5;" 
d="M301 725h43l249 -725h-46l-66 197h-317l-66 -197h-45zM177 236h291l-145 435zM323 920q35 0 60.5 -22.5t25.5 -58.5t-25.5 -59t-60.5 -23q-37 0 -62 23t-25 59t25 58.5t62 22.5zM323 892q-22 0 -38.5 -14t-16.5 -39q0 -26 16.5 -39.5t38.5 -13.5q21 0 37 13.5t16 39.5
q0 25 -16 39t-37 14z" />
    <glyph glyph-name="AE" unicode="&#xc6;" 
d="M625 725v-38h-241v-291h216v-38h-216v-319h241v-39h-282v197h-192l-86 -197h-45l323 725h282zM168 236h175v399z" />
    <glyph glyph-name="Ccedilla" unicode="&#xc7;" 
d="M581 213q-23 -109 -84.5 -167.5t-164.5 -58.5q-70 0 -121 28.5t-84 78.5t-48.5 119t-15.5 149q0 81 16 149.5t49 119t84 79t122 28.5q100 0 160.5 -58t83.5 -168h-43q-23 96 -74 142t-128 46q-55 0 -97 -23.5t-70.5 -67.5t-43.5 -106.5t-15 -140.5q0 -76 14.5 -138
t43 -106t70.5 -68t97 -24q88 0 137 50t69 137h43zM289 -140q11 -5 26 -8t29 -3q23 0 43.5 9t20.5 33q0 21 -15.5 30t-35.5 9q-25 0 -43 -9l-14 14l47 76h30l-33 -56q15 3 28 3q32 0 52 -16.5t20 -47.5q0 -20 -8.5 -34t-22 -23t-30.5 -13t-35 -4q-17 0 -34 2.5t-34 8.5z" />
    <glyph glyph-name="Egrave" unicode="&#xc8;" 
d="M127 725h412v-39h-371v-289h346v-39h-346v-319h371v-39h-412v725zM214 874h63l124 -113h-43z" />
    <glyph glyph-name="Eacute" unicode="&#xc9;" 
d="M127 725h412v-39h-371v-289h346v-39h-346v-319h371v-39h-412v725zM317 761h-43l123 113h64z" />
    <glyph glyph-name="Ecircumflex" unicode="&#xca;" 
d="M127 725h412v-39h-371v-289h346v-39h-346v-319h371v-39h-412v725zM498 761h-47l-115 83l-115 -83h-47l138 113h50z" />
    <glyph glyph-name="Edieresis" unicode="&#xcb;" 
d="M127 725h412v-39h-371v-289h346v-39h-346v-319h371v-39h-412v725zM248 865v-95h-41v95h41zM465 865v-95h-42v95h42z" />
    <glyph glyph-name="Igrave" unicode="&#xcc;" 
d="M98 725h450v-39h-204v-647h204v-39h-450v39h205v647h-205v39zM160 874h63l124 -113h-43z" />
    <glyph glyph-name="Iacute" unicode="&#xcd;" 
d="M98 725h450v-39h-204v-647h204v-39h-450v39h205v647h-205v39zM348 761h-43l123 113h64z" />
    <glyph glyph-name="Icircumflex" unicode="&#xce;" 
d="M98 725h450v-39h-204v-647h204v-39h-450v39h205v647h-205v39zM485 761h-47l-115 83l-115 -83h-47l138 113h50z" />
    <glyph glyph-name="Idieresis" unicode="&#xcf;" 
d="M98 725h450v-39h-204v-647h204v-39h-450v39h205v647h-205v39zM235 865v-95h-41v95h41zM452 865v-95h-42v95h42z" />
    <glyph glyph-name="Eth" unicode="&#xd0;" 
d="M205 725q79 0 150.5 -17.5t125.5 -59t86 -111.5t32 -175t-32 -174.5t-86 -111.5t-125.5 -59t-150.5 -17h-83v357h-75v38h75v330h83zM163 357v-318h38q58 0 120.5 10.5t114.5 44.5t85.5 98t33.5 170t-33.5 170t-85.5 98.5t-114.5 45.5t-120.5 11h-38v-292h186v-38h-186z
" />
    <glyph glyph-name="Ntilde" unicode="&#xd1;" 
d="M494 0l-356 670v-670h-41v725h55l356 -670v670h41v-725h-55zM395 806q23 0 36.5 15t19.5 43h34q-7 -45 -29.5 -69t-59.5 -24q-22 0 -40.5 9t-36 20.5t-34.5 20.5t-35 9q-23 0 -36.5 -15.5t-18.5 -43.5h-34q6 45 30.5 69t58.5 24q23 0 42 -9t36 -20t33.5 -20t33.5 -9z" />
    <glyph glyph-name="Ograve" unicode="&#xd2;" 
d="M587 363q0 -82 -17.5 -151t-51 -119t-83 -78t-112.5 -28t-112.5 28t-83 78t-51 119t-17.5 151t17.5 151t51 119t83 77.5t112.5 27.5t112.5 -27.5t83 -77.5t51 -119t17.5 -151zM543 363q0 80 -16 142.5t-45 105.5t-69.5 65.5t-89.5 22.5t-89.5 -22.5t-69 -65.5
t-44.5 -105.5t-16 -142.5t16 -143t44.5 -106t69 -65.5t89.5 -22.5t89.5 22.5t69.5 65.5t45 106t16 143zM163 874h63l124 -113h-43z" />
    <glyph glyph-name="Oacute" unicode="&#xd3;" 
d="M587 363q0 -82 -17.5 -151t-51 -119t-83 -78t-112.5 -28t-112.5 28t-83 78t-51 119t-17.5 151t17.5 151t51 119t83 77.5t112.5 27.5t112.5 -27.5t83 -77.5t51 -119t17.5 -151zM543 363q0 80 -16 142.5t-45 105.5t-69.5 65.5t-89.5 22.5t-89.5 -22.5t-69 -65.5
t-44.5 -105.5t-16 -142.5t16 -143t44.5 -106t69 -65.5t89.5 -22.5t89.5 22.5t69.5 65.5t45 106t16 143zM342 761h-43l123 113h64z" />
    <glyph glyph-name="Ocircumflex" unicode="&#xd4;" 
d="M587 363q0 -82 -17.5 -151t-51 -119t-83 -78t-112.5 -28t-112.5 28t-83 78t-51 119t-17.5 151t17.5 151t51 119t83 77.5t112.5 27.5t112.5 -27.5t83 -77.5t51 -119t17.5 -151zM543 363q0 80 -16 142.5t-45 105.5t-69.5 65.5t-89.5 22.5t-89.5 -22.5t-69 -65.5
t-44.5 -105.5t-16 -142.5t16 -143t44.5 -106t69 -65.5t89.5 -22.5t89.5 22.5t69.5 65.5t45 106t16 143zM485 761h-47l-115 83l-115 -83h-47l138 113h50z" />
    <glyph glyph-name="Otilde" unicode="&#xd5;" 
d="M587 363q0 -82 -17.5 -151t-51 -119t-83 -78t-112.5 -28t-112.5 28t-83 78t-51 119t-17.5 151t17.5 151t51 119t83 77.5t112.5 27.5t112.5 -27.5t83 -77.5t51 -119t17.5 -151zM543 363q0 80 -16 142.5t-45 105.5t-69.5 65.5t-89.5 22.5t-89.5 -22.5t-69 -65.5
t-44.5 -105.5t-16 -142.5t16 -143t44.5 -106t69 -65.5t89.5 -22.5t89.5 22.5t69.5 65.5t45 106t16 143zM395 806q23 0 36.5 15t19.5 43h34q-7 -45 -29.5 -69t-59.5 -24q-22 0 -40.5 9t-36 20.5t-34.5 20.5t-35 9q-23 0 -36.5 -15.5t-18.5 -43.5h-34q6 45 30.5 69t58.5 24
q23 0 42 -9t36 -20t33.5 -20t33.5 -9z" />
    <glyph glyph-name="Odieresis" unicode="&#xd6;" 
d="M587 363q0 -82 -17.5 -151t-51 -119t-83 -78t-112.5 -28t-112.5 28t-83 78t-51 119t-17.5 151t17.5 151t51 119t83 77.5t112.5 27.5t112.5 -27.5t83 -77.5t51 -119t17.5 -151zM543 363q0 80 -16 142.5t-45 105.5t-69.5 65.5t-89.5 22.5t-89.5 -22.5t-69 -65.5
t-44.5 -105.5t-16 -142.5t16 -143t44.5 -106t69 -65.5t89.5 -22.5t89.5 22.5t69.5 65.5t45 106t16 143zM235 865v-95h-41v95h41zM452 865v-95h-42v95h42z" />
    <glyph glyph-name="multiply" unicode="&#xd7;" 
d="M523 41l-201 200l-201 -200l-28 28l201 200l-201 201l28 28l201 -201l201 201l28 -28l-201 -201l201 -200z" />
    <glyph glyph-name="Oslash" unicode="&#xd8;" 
d="M587 363q0 -82 -17.5 -151t-51 -119t-83 -78t-112.5 -28q-60 0 -107 25t-81 70l-69 -94l-28 20l77 104q-28 49 -42 112.5t-14 138.5q0 82 17.5 151t51 119t83 77.5t112.5 27.5q60 0 106.5 -24t79.5 -69l69 93l28 -20l-77 -103q29 -49 43.5 -113t14.5 -139zM543 363
q0 66 -11 119t-31 95l-339 -459q58 -92 161 -92q49 0 89.5 22.5t69.5 65.5t45 106t16 143zM104 363q0 -129 40 -212l339 458q-59 90 -160 90q-49 0 -89.5 -22.5t-69 -65.5t-44.5 -105.5t-16 -142.5z" />
    <glyph glyph-name="Ugrave" unicode="&#xd9;" 
d="M323 26q50 0 85.5 13.5t57.5 43t32 76t10 112.5v454h41v-447q0 -82 -13 -137.5t-40.5 -89.5t-70.5 -49t-102 -15q-60 0 -102.5 15t-70 49t-40.5 89.5t-13 137.5v447h41v-454q0 -66 10 -112.5t32 -76t57 -43t86 -13.5zM183 874h63l124 -113h-43z" />
    <glyph glyph-name="Uacute" unicode="&#xda;" 
d="M323 26q50 0 85.5 13.5t57.5 43t32 76t10 112.5v454h41v-447q0 -82 -13 -137.5t-40.5 -89.5t-70.5 -49t-102 -15q-60 0 -102.5 15t-70 49t-40.5 89.5t-13 137.5v447h41v-454q0 -66 10 -112.5t32 -76t57 -43t86 -13.5zM337 761h-43l123 113h64z" />
    <glyph glyph-name="Ucircumflex" unicode="&#xdb;" 
d="M323 26q50 0 85.5 13.5t57.5 43t32 76t10 112.5v454h41v-447q0 -82 -13 -137.5t-40.5 -89.5t-70.5 -49t-102 -15q-60 0 -102.5 15t-70 49t-40.5 89.5t-13 137.5v447h41v-454q0 -66 10 -112.5t32 -76t57 -43t86 -13.5zM485 761h-47l-115 83l-115 -83h-47l138 113h50z" />
    <glyph glyph-name="Udieresis" unicode="&#xdc;" 
d="M323 26q50 0 85.5 13.5t57.5 43t32 76t10 112.5v454h41v-447q0 -82 -13 -137.5t-40.5 -89.5t-70.5 -49t-102 -15q-60 0 -102.5 15t-70 49t-40.5 89.5t-13 137.5v447h41v-454q0 -66 10 -112.5t32 -76t57 -43t86 -13.5zM235 865v-95h-41v95h41zM452 865v-95h-42v95h42z" />
    <glyph glyph-name="Yacute" unicode="&#xdd;" 
d="M87 725l236 -417l236 417h47l-262 -461v-264h-41v265l-263 460h47zM340 761h-43l123 113h64z" />
    <glyph glyph-name="Thorn" unicode="&#xde;" 
d="M276 570q64 0 118 -9.5t92 -33t59.5 -63.5t21.5 -102q0 -63 -21.5 -103t-59.5 -63.5t-92 -32.5t-118 -9h-110v-154h-41v725h41v-155h110zM166 532v-339h114q51 0 95.5 6t77.5 24t52 51.5t19 87.5t-19 87.5t-52 51.5t-77.5 24.5t-95.5 6.5h-114z" />
    <glyph glyph-name="germandbls" unicode="&#xdf;" 
d="M94 0v487q0 57 11.5 102t36.5 75.5t65.5 46.5t97.5 16q86 0 138 -44t52 -121q0 -65 -33.5 -105t-86.5 -57q32 -5 63.5 -19t56 -38.5t40 -59.5t15.5 -82q0 -59 -21.5 -100t-57.5 -66.5t-83 -36.5t-98 -11q-23 0 -49 2t-50 7l8 38q46 -9 96 -9q40 0 78.5 8.5t68.5 28.5
t48 53.5t18 83.5q0 46 -17.5 80t-47.5 56.5t-69.5 33t-83.5 10.5h-5v37h5q78 0 121 39t43 102q0 62 -40 98.5t-109 36.5q-48 0 -81 -13t-53.5 -39.5t-29 -66.5t-8.5 -93v-480h-39z" />
    <glyph glyph-name="agrave" unicode="&#xe0;" 
d="M480 286q-97 -11 -162.5 -24t-105 -30.5t-56 -41.5t-16.5 -58q0 -26 11 -46t30 -34t45.5 -21.5t57.5 -7.5q37 0 72.5 10.5t63 35t44 64.5t16.5 99v54zM480 104q-26 -59 -78 -88t-127 -29q-36 0 -68 9.5t-56 28t-38.5 45t-14.5 60.5q0 48 23 79.5t70 52.5t118.5 34.5
t168.5 25.5v31q0 52 -13.5 84t-35.5 49.5t-51 23t-60 5.5q-40 0 -69.5 -10.5t-49 -29t-30 -42.5t-13.5 -51h-42q4 36 19.5 67t41.5 53.5t62.5 35.5t81.5 13t81.5 -9.5t62.5 -32t40 -61t14 -95.5v-42t-0.5 -44.5t-0.5 -43.5v-38q0 -51 1.5 -95t4.5 -90h-38zM176 725h58
l110 -116h-38z" />
    <glyph glyph-name="aacute" unicode="&#xe1;" 
d="M480 286q-97 -11 -162.5 -24t-105 -30.5t-56 -41.5t-16.5 -58q0 -26 11 -46t30 -34t45.5 -21.5t57.5 -7.5q37 0 72.5 10.5t63 35t44 64.5t16.5 99v54zM480 104q-26 -59 -78 -88t-127 -29q-36 0 -68 9.5t-56 28t-38.5 45t-14.5 60.5q0 48 23 79.5t70 52.5t118.5 34.5
t168.5 25.5v31q0 52 -13.5 84t-35.5 49.5t-51 23t-60 5.5q-40 0 -69.5 -10.5t-49 -29t-30 -42.5t-13.5 -51h-42q4 36 19.5 67t41.5 53.5t62.5 35.5t81.5 13t81.5 -9.5t62.5 -32t40 -61t14 -95.5v-42t-0.5 -44.5t-0.5 -43.5v-38q0 -51 1.5 -95t4.5 -90h-38zM340 608h-38
l110 116h58z" />
    <glyph glyph-name="acircumflex" unicode="&#xe2;" 
d="M480 286q-97 -11 -162.5 -24t-105 -30.5t-56 -41.5t-16.5 -58q0 -26 11 -46t30 -34t45.5 -21.5t57.5 -7.5q37 0 72.5 10.5t63 35t44 64.5t16.5 99v54zM480 104q-26 -59 -78 -88t-127 -29q-36 0 -68 9.5t-56 28t-38.5 45t-14.5 60.5q0 48 23 79.5t70 52.5t118.5 34.5
t168.5 25.5v31q0 52 -13.5 84t-35.5 49.5t-51 23t-60 5.5q-40 0 -69.5 -10.5t-49 -29t-30 -42.5t-13.5 -51h-42q4 36 19.5 67t41.5 53.5t62.5 35.5t81.5 13t81.5 -9.5t62.5 -32t40 -61t14 -95.5v-42t-0.5 -44.5t-0.5 -43.5v-38q0 -51 1.5 -95t4.5 -90h-38zM479 609h-39
l-117 82l-118 -82h-39l138 116h38z" />
    <glyph glyph-name="atilde" unicode="&#xe3;" 
d="M480 286q-97 -11 -162.5 -24t-105 -30.5t-56 -41.5t-16.5 -58q0 -26 11 -46t30 -34t45.5 -21.5t57.5 -7.5q37 0 72.5 10.5t63 35t44 64.5t16.5 99v54zM480 104q-26 -59 -78 -88t-127 -29q-36 0 -68 9.5t-56 28t-38.5 45t-14.5 60.5q0 48 23 79.5t70 52.5t118.5 34.5
t168.5 25.5v31q0 52 -13.5 84t-35.5 49.5t-51 23t-60 5.5q-40 0 -69.5 -10.5t-49 -29t-30 -42.5t-13.5 -51h-42q4 36 19.5 67t41.5 53.5t62.5 35.5t81.5 13t81.5 -9.5t62.5 -32t40 -61t14 -95.5v-42t-0.5 -44.5t-0.5 -43.5v-38q0 -51 1.5 -95t4.5 -90h-38zM395 648
q24 0 37.5 15t18.5 43h35q-8 -45 -31 -69t-58 -24q-22 0 -41 9t-36.5 20.5t-34.5 20.5t-35 9q-24 0 -36.5 -15.5t-17.5 -43.5h-36q7 45 31 69t58 24q23 0 42.5 -9t36.5 -20t33.5 -20t33.5 -9z" />
    <glyph glyph-name="adieresis" unicode="&#xe4;" 
d="M480 286q-97 -11 -162.5 -24t-105 -30.5t-56 -41.5t-16.5 -58q0 -26 11 -46t30 -34t45.5 -21.5t57.5 -7.5q37 0 72.5 10.5t63 35t44 64.5t16.5 99v54zM480 104q-26 -59 -78 -88t-127 -29q-36 0 -68 9.5t-56 28t-38.5 45t-14.5 60.5q0 48 23 79.5t70 52.5t118.5 34.5
t168.5 25.5v31q0 52 -13.5 84t-35.5 49.5t-51 23t-60 5.5q-40 0 -69.5 -10.5t-49 -29t-30 -42.5t-13.5 -51h-42q4 36 19.5 67t41.5 53.5t62.5 35.5t81.5 13t81.5 -9.5t62.5 -32t40 -61t14 -95.5v-42t-0.5 -44.5t-0.5 -43.5v-38q0 -51 1.5 -95t4.5 -90h-38zM194 708h39v-95
h-39v95zM452 708v-95h-40v95h40z" />
    <glyph glyph-name="aring" unicode="&#xe5;" 
d="M480 286q-97 -11 -162.5 -24t-105 -30.5t-56 -41.5t-16.5 -58q0 -26 11 -46t30 -34t45.5 -21.5t57.5 -7.5q37 0 72.5 10.5t63 35t44 64.5t16.5 99v54zM480 104q-26 -59 -78 -88t-127 -29q-36 0 -68 9.5t-56 28t-38.5 45t-14.5 60.5q0 48 23 79.5t70 52.5t118.5 34.5
t168.5 25.5v31q0 52 -13.5 84t-35.5 49.5t-51 23t-60 5.5q-40 0 -69.5 -10.5t-49 -29t-30 -42.5t-13.5 -51h-42q4 36 19.5 67t41.5 53.5t62.5 35.5t81.5 13t81.5 -9.5t62.5 -32t40 -61t14 -95.5v-42t-0.5 -44.5t-0.5 -43.5v-38q0 -51 1.5 -95t4.5 -90h-38zM323 759
q35 0 61 -23.5t26 -58.5q0 -36 -26 -59t-61 -23q-37 0 -62 23t-25 59q0 35 25 58.5t62 23.5zM323 732q-22 0 -39 -15t-17 -40t17 -40t39 -15t39 15t17 40t-17 40t-39 15z" />
    <glyph glyph-name="ae" unicode="&#xe6;" 
d="M460 -13q-60 0 -92.5 32t-49.5 89q-19 -66 -61.5 -93.5t-97.5 -27.5q-33 0 -57 12.5t-40.5 33.5t-24.5 49t-8 60q0 75 54 115t148 55l66 11v45q0 46 -9 74t-24 43t-34.5 20t-40.5 5q-27 0 -46.5 -10t-31.5 -27.5t-17.5 -40.5t-6.5 -48l-39 2q5 73 42.5 116.5t103.5 43.5
q53 0 86.5 -22t47.5 -73q19 45 52 70t84 25q45 0 75 -21.5t47.5 -60t24.5 -91t5 -113.5h-279q-2 -118 28.5 -177.5t96.5 -59.5q52 0 75.5 34.5t33.5 101.5l38 -5q-13 -78 -46.5 -122.5t-102.5 -44.5zM70 139q0 -48 23 -82t73 -34q32 0 57 10.5t42 34.5t25.5 63t8.5 97v60
l-73 -11q-80 -14 -118 -48.5t-38 -89.5zM577 295q0 41 -5 80t-18 69t-35.5 48.5t-58.5 18.5q-30 0 -52 -16t-37 -44.5t-23.5 -68t-10.5 -87.5h240z" />
    <glyph glyph-name="ccedilla" unicode="&#xe7;" 
d="M332 547q44 0 80.5 -13t64 -36t45 -54.5t23.5 -69.5h-40q-14 66 -60.5 101.5t-115.5 35.5q-44 0 -79.5 -17t-60 -48.5t-38 -77t-13.5 -101.5q0 -62 15 -108t40.5 -76t60 -45t74.5 -15q75 0 120.5 36.5t58.5 99.5h41q-16 -81 -73.5 -126.5t-147.5 -45.5q-57 0 -100.5 20.5
t-72 57.5t-43 88.5t-14.5 112.5q0 62 15 113.5t44.5 89t73.5 58t102 20.5zM279 -140q11 -5 26 -8t29 -3q23 0 43.5 9t20.5 33q0 21 -15.5 30t-35.5 9q-25 0 -43 -9l-14 14l47 76h30l-33 -56q15 3 28 3q32 0 52 -16.5t20 -47.5q0 -20 -8.5 -34t-22 -23t-30.5 -13t-35 -4
q-17 0 -34 2.5t-34 8.5z" />
    <glyph glyph-name="egrave" unicode="&#xe8;" 
d="M326 -13q-58 0 -102.5 20.5t-74.5 57.5t-45 88.5t-15 114.5q0 64 16.5 115.5t47.5 88t75 56t100 19.5t99.5 -21t73 -58.5t44 -89t13.5 -112.5h-428q0 -61 14.5 -106.5t40.5 -76t62.5 -45.5t80.5 -15q72 0 118.5 34.5t62.5 98.5h40q-17 -81 -74.5 -125t-148.5 -44z
M327 512q-88 0 -138.5 -56t-57.5 -156h385q0 41 -12.5 79.5t-36.5 68t-59 47t-81 17.5zM189 725h58l110 -116h-38z" />
    <glyph glyph-name="eacute" unicode="&#xe9;" 
d="M326 -13q-58 0 -102.5 20.5t-74.5 57.5t-45 88.5t-15 114.5q0 64 16.5 115.5t47.5 88t75 56t100 19.5t99.5 -21t73 -58.5t44 -89t13.5 -112.5h-428q0 -61 14.5 -106.5t40.5 -76t62.5 -45.5t80.5 -15q72 0 118.5 34.5t62.5 98.5h40q-17 -81 -74.5 -125t-148.5 -44z
M327 512q-88 0 -138.5 -56t-57.5 -156h385q0 41 -12.5 79.5t-36.5 68t-59 47t-81 17.5zM335 608h-38l110 116h58z" />
    <glyph glyph-name="ecircumflex" unicode="&#xea;" 
d="M326 -13q-58 0 -102.5 20.5t-74.5 57.5t-45 88.5t-15 114.5q0 64 16.5 115.5t47.5 88t75 56t100 19.5t99.5 -21t73 -58.5t44 -89t13.5 -112.5h-428q0 -61 14.5 -106.5t40.5 -76t62.5 -45.5t80.5 -15q72 0 118.5 34.5t62.5 98.5h40q-17 -81 -74.5 -125t-148.5 -44z
M327 512q-88 0 -138.5 -56t-57.5 -156h385q0 41 -12.5 79.5t-36.5 68t-59 47t-81 17.5zM479 609h-39l-117 82l-118 -82h-39l138 116h38z" />
    <glyph glyph-name="edieresis" unicode="&#xeb;" 
d="M326 -13q-58 0 -102.5 20.5t-74.5 57.5t-45 88.5t-15 114.5q0 64 16.5 115.5t47.5 88t75 56t100 19.5t99.5 -21t73 -58.5t44 -89t13.5 -112.5h-428q0 -61 14.5 -106.5t40.5 -76t62.5 -45.5t80.5 -15q72 0 118.5 34.5t62.5 98.5h40q-17 -81 -74.5 -125t-148.5 -44z
M327 512q-88 0 -138.5 -56t-57.5 -156h385q0 41 -12.5 79.5t-36.5 68t-59 47t-81 17.5zM194 708h39v-95h-39v95zM452 708v-95h-40v95h40z" />
    <glyph glyph-name="igrave" unicode="&#xec;" 
d="M342 538v-504h204v-34h-448v34h205v470h-183v34h222zM178 725h58l110 -116h-38z" />
    <glyph glyph-name="iacute" unicode="&#xed;" 
d="M342 538v-504h204v-34h-448v34h205v470h-183v34h222zM344 608h-38l110 116h58z" />
    <glyph glyph-name="icircumflex" unicode="&#xee;" 
d="M342 538v-504h204v-34h-448v34h205v470h-183v34h222zM479 609h-39l-117 82l-118 -82h-39l138 116h38z" />
    <glyph glyph-name="idieresis" unicode="&#xef;" 
d="M342 538v-504h204v-34h-448v34h205v470h-183v34h222zM194 708h39v-95h-39v95zM452 708v-95h-40v95h40z" />
    <glyph glyph-name="eth" unicode="&#xf0;" 
d="M444 738l34 -16l-98 -60q82 -63 127.5 -155t45.5 -218q0 -78 -18 -135t-49.5 -94t-74 -55t-91.5 -18q-50 0 -92 18.5t-72.5 54t-47.5 87t-17 116.5q0 64 17.5 114.5t48.5 86t73 54t91 18.5q34 0 62 -9t50 -23.5t37.5 -33t26.5 -37.5l1 1q-20 66 -61 117.5t-92 88.5
l-93 -57l-32 15l98 61q-22 14 -44.5 25.5t-44.5 21.5l19 32q29 -13 55.5 -26.5t50.5 -30.5zM320 23q35 0 69.5 13.5t61.5 42.5t43.5 74.5t16.5 109.5t-16.5 109t-43 73.5t-60.5 41.5t-70 13q-40 0 -74.5 -16t-60 -46t-40 -74t-14.5 -101t14.5 -102t39.5 -75.5t59.5 -46.5
t74.5 -16z" />
    <glyph glyph-name="ntilde" unicode="&#xf1;" 
d="M157 414q8 24 23 47.5t38 42.5t55 31t74 12q86 0 133 -48q23 -23 35 -61t12 -98v-340h-39v327q0 49 -9 85t-30 59q-17 20 -44 30t-66 10q-43 0 -76.5 -17.5t-57 -50t-36 -78t-12.5 -101.5v-264h-39v538h39v-124zM395 648q24 0 37.5 15t18.5 43h35q-8 -45 -31 -69t-58 -24
q-22 0 -41 9t-36.5 20.5t-34.5 20.5t-35 9q-24 0 -36.5 -15.5t-17.5 -43.5h-36q7 45 31 69t58 24q23 0 42.5 -9t36.5 -20t33.5 -20t33.5 -9z" />
    <glyph glyph-name="ograve" unicode="&#xf2;" 
d="M130 267q0 -62 14.5 -107.5t40 -76t61 -45.5t76.5 -15q42 0 77 15t61 45.5t40.5 76t14.5 107.5q0 61 -14.5 107t-40.5 76.5t-61 45.5t-77 15q-41 0 -76.5 -15t-61 -45.5t-40 -76.5t-14.5 -107zM89 267q0 71 18.5 123.5t50 87.5t74 52t90.5 17q49 0 91.5 -17t74.5 -52
t50.5 -87.5t18.5 -123.5t-18.5 -124t-50.5 -87.5t-74.5 -51.5t-91.5 -17q-48 0 -90.5 17t-74 51.5t-50 87.5t-18.5 124zM182 725h58l110 -116h-38z" />
    <glyph glyph-name="oacute" unicode="&#xf3;" 
d="M130 267q0 -62 14.5 -107.5t40 -76t61 -45.5t76.5 -15q42 0 77 15t61 45.5t40.5 76t14.5 107.5q0 61 -14.5 107t-40.5 76.5t-61 45.5t-77 15q-41 0 -76.5 -15t-61 -45.5t-40 -76.5t-14.5 -107zM89 267q0 71 18.5 123.5t50 87.5t74 52t90.5 17q49 0 91.5 -17t74.5 -52
t50.5 -87.5t18.5 -123.5t-18.5 -124t-50.5 -87.5t-74.5 -51.5t-91.5 -17q-48 0 -90.5 17t-74 51.5t-50 87.5t-18.5 124zM330 608h-38l110 116h58z" />
    <glyph glyph-name="ocircumflex" unicode="&#xf4;" 
d="M130 267q0 -62 14.5 -107.5t40 -76t61 -45.5t76.5 -15q42 0 77 15t61 45.5t40.5 76t14.5 107.5q0 61 -14.5 107t-40.5 76.5t-61 45.5t-77 15q-41 0 -76.5 -15t-61 -45.5t-40 -76.5t-14.5 -107zM89 267q0 71 18.5 123.5t50 87.5t74 52t90.5 17q49 0 91.5 -17t74.5 -52
t50.5 -87.5t18.5 -123.5t-18.5 -124t-50.5 -87.5t-74.5 -51.5t-91.5 -17q-48 0 -90.5 17t-74 51.5t-50 87.5t-18.5 124zM479 609h-39l-117 82l-118 -82h-39l138 116h38z" />
    <glyph glyph-name="otilde" unicode="&#xf5;" 
d="M130 267q0 -62 14.5 -107.5t40 -76t61 -45.5t76.5 -15q42 0 77 15t61 45.5t40.5 76t14.5 107.5q0 61 -14.5 107t-40.5 76.5t-61 45.5t-77 15q-41 0 -76.5 -15t-61 -45.5t-40 -76.5t-14.5 -107zM89 267q0 71 18.5 123.5t50 87.5t74 52t90.5 17q49 0 91.5 -17t74.5 -52
t50.5 -87.5t18.5 -123.5t-18.5 -124t-50.5 -87.5t-74.5 -51.5t-91.5 -17q-48 0 -90.5 17t-74 51.5t-50 87.5t-18.5 124zM400 648q24 0 37.5 15t18.5 43h35q-8 -45 -31 -69t-58 -24q-22 0 -41 9t-36.5 20.5t-34.5 20.5t-35 9q-24 0 -36.5 -15.5t-17.5 -43.5h-36q7 45 31 69
t58 24q23 0 42.5 -9t36.5 -20t33.5 -20t33.5 -9z" />
    <glyph glyph-name="odieresis" unicode="&#xf6;" 
d="M130 267q0 -62 14.5 -107.5t40 -76t61 -45.5t76.5 -15q42 0 77 15t61 45.5t40.5 76t14.5 107.5q0 61 -14.5 107t-40.5 76.5t-61 45.5t-77 15q-41 0 -76.5 -15t-61 -45.5t-40 -76.5t-14.5 -107zM89 267q0 71 18.5 123.5t50 87.5t74 52t90.5 17q49 0 91.5 -17t74.5 -52
t50.5 -87.5t18.5 -123.5t-18.5 -124t-50.5 -87.5t-74.5 -51.5t-91.5 -17q-48 0 -90.5 17t-74 51.5t-50 87.5t-18.5 124zM194 708h39v-95h-39v95zM452 708v-95h-40v95h40z" />
    <glyph glyph-name="divide" unicode="&#xf7;" 
d="M298 154h51v-94h-51v94zM298 479h51v-94h-51v94zM62 251v37h522v-37h-522z" />
    <glyph glyph-name="oslash" unicode="&#xf8;" 
d="M89 267q0 71 18.5 123.5t50 87.5t74 52t90.5 17q47 0 88 -16t73 -48l54 65l27 -22l-58 -70q24 -35 37.5 -82t13.5 -107q0 -71 -18.5 -124t-50.5 -87.5t-74.5 -51.5t-91.5 -17q-45 0 -85 15t-72 45l-50 -60l-26 23l53 64q-25 34 -39 82t-14 111zM130 267q0 -52 10 -92
t29 -70l288 347q-26 29 -60 44t-75 15t-76.5 -15t-61 -45.5t-40 -76.5t-14.5 -107zM515 267q0 49 -9.5 88t-26.5 68l-289 -346q26 -27 59.5 -40.5t72.5 -13.5q42 0 77 15t61 45.5t40.5 76t14.5 107.5z" />
    <glyph glyph-name="ugrave" unicode="&#xf9;" 
d="M477 116q-8 -23 -22 -45.5t-35.5 -41.5t-52.5 -30.5t-73 -11.5q-54 0 -88 16.5t-54 47.5q-17 26 -24.5 64.5t-7.5 95.5v327h39v-328q0 -48 5.5 -81.5t21.5 -56.5q15 -23 42 -36.5t71 -13.5q42 0 75.5 17.5t56 49.5t34.5 77t12 101v271h39v-538h-39v116zM193 725h58
l110 -116h-38z" />
    <glyph glyph-name="uacute" unicode="&#xfa;" 
d="M477 116q-8 -23 -22 -45.5t-35.5 -41.5t-52.5 -30.5t-73 -11.5q-54 0 -88 16.5t-54 47.5q-17 26 -24.5 64.5t-7.5 95.5v327h39v-328q0 -48 5.5 -81.5t21.5 -56.5q15 -23 42 -36.5t71 -13.5q42 0 75.5 17.5t56 49.5t34.5 77t12 101v271h39v-538h-39v116zM333 608h-38
l110 116h58z" />
    <glyph glyph-name="ucircumflex" unicode="&#xfb;" 
d="M477 116q-8 -23 -22 -45.5t-35.5 -41.5t-52.5 -30.5t-73 -11.5q-54 0 -88 16.5t-54 47.5q-17 26 -24.5 64.5t-7.5 95.5v327h39v-328q0 -48 5.5 -81.5t21.5 -56.5q15 -23 42 -36.5t71 -13.5q42 0 75.5 17.5t56 49.5t34.5 77t12 101v271h39v-538h-39v116zM476 609h-39
l-117 82l-118 -82h-39l138 116h38z" />
    <glyph glyph-name="udieresis" unicode="&#xfc;" 
d="M477 116q-8 -23 -22 -45.5t-35.5 -41.5t-52.5 -30.5t-73 -11.5q-54 0 -88 16.5t-54 47.5q-17 26 -24.5 64.5t-7.5 95.5v327h39v-328q0 -48 5.5 -81.5t21.5 -56.5q15 -23 42 -36.5t71 -13.5q42 0 75.5 17.5t56 49.5t34.5 77t12 101v271h39v-538h-39v116zM191 708h39v-95
h-39v95zM449 708v-95h-40v95h40z" />
    <glyph glyph-name="yacute" unicode="&#xfd;" 
d="M99 -175v34h74q21 0 35.5 2t26 11.5t22 28t24.5 51.5l23 53l-222 533h44l200 -485l195 485h43l-241 -591q-15 -38 -28 -61.5t-29 -37t-38 -18.5t-56 -5h-73zM331 608h-38l110 116h58z" />
    <glyph glyph-name="thorn" unicode="&#xfe;" 
d="M529 267q0 59 -14.5 104.5t-39.5 76.5t-59 47t-74 16q-35 0 -69.5 -13.5t-62 -43t-44.5 -75.5t-17 -112t17 -112.5t44.5 -75.5t62 -42.5t69.5 -13.5q40 0 74 16t59 47t39.5 76.5t14.5 104.5zM570 267q0 -67 -17 -119t-47 -88t-70.5 -54.5t-88.5 -18.5q-68 0 -118.5 33.5
t-76.5 93.5v-289h-39v900h39v-305q26 60 76.5 93.5t118.5 33.5q48 0 88.5 -18.5t70.5 -54.5t47 -88t17 -119z" />
    <glyph glyph-name="ydieresis" unicode="&#xff;" 
d="M99 -175v34h74q21 0 35.5 2t26 11.5t22 28t24.5 51.5l23 53l-222 533h44l200 -485l195 485h43l-241 -591q-15 -38 -28 -61.5t-29 -37t-38 -18.5t-56 -5h-73zM194 708h39v-95h-39v95zM452 708v-95h-40v95h40z" />
    <glyph glyph-name="Abreve" unicode="&#x102;" 
d="M301 725h43l249 -725h-46l-66 197h-317l-66 -197h-45zM177 236h291l-145 435zM465 874q-4 -54 -42 -85.5t-101 -31.5q-60 0 -98.5 31.5t-42.5 85.5h37q3 -23 12.5 -39.5t23.5 -26.5t32 -14.5t37 -4.5t37 4.5t32 14.5t23.5 26.5t12.5 39.5h37z" />
    <glyph glyph-name="Amacron" unicode="&#x100;" 
d="M301 725h43l249 -725h-46l-66 197h-317l-66 -197h-45zM177 236h291l-145 435zM187 801v39h271v-39h-271z" />
    <glyph glyph-name="Aogonek" unicode="&#x104;" 
d="M301 725h43l249 -725h-46l-66 197h-317l-66 -197h-45zM177 236h291l-145 435zM592 0q-39 -19 -66.5 -39.5t-27.5 -45.5q0 -20 15.5 -31t43.5 -11q17 0 35 5v-33q-11 -3 -22 -4t-22 -1q-17 0 -33.5 4t-29 12t-20.5 21.5t-8 32.5q0 15 8.5 29t22.5 25.5t31 20.5t34 15h39z
" />
    <glyph glyph-name="Cacute" unicode="&#x106;" 
d="M581 213q-23 -109 -84.5 -167.5t-164.5 -58.5q-70 0 -121 28.5t-84 78.5t-48.5 119t-15.5 149q0 81 16 149.5t49 119t84 79t122 28.5q100 0 160.5 -58t83.5 -168h-43q-23 96 -74 142t-128 46q-55 0 -97 -23.5t-70.5 -67.5t-43.5 -106.5t-15 -140.5q0 -76 14.5 -138
t43 -106t70.5 -68t97 -24q88 0 137 50t69 137h43zM344 761h-43l123 113h64z" />
    <glyph glyph-name="Ccaron" unicode="&#x10c;" 
d="M581 213q-23 -109 -84.5 -167.5t-164.5 -58.5q-70 0 -121 28.5t-84 78.5t-48.5 119t-15.5 149q0 81 16 149.5t49 119t84 79t122 28.5q100 0 160.5 -58t83.5 -168h-43q-23 96 -74 142t-128 46q-55 0 -97 -23.5t-70.5 -67.5t-43.5 -106.5t-15 -140.5q0 -76 14.5 -138
t43 -106t70.5 -68t97 -24q88 0 137 50t69 137h43zM161 874h47l115 -83l115 83h47l-138 -113h-49z" />
    <glyph glyph-name="Ccircumflex" unicode="&#x108;" 
d="M581 213q-23 -109 -84.5 -167.5t-164.5 -58.5q-70 0 -121 28.5t-84 78.5t-48.5 119t-15.5 149q0 81 16 149.5t49 119t84 79t122 28.5q100 0 160.5 -58t83.5 -168h-43q-23 96 -74 142t-128 46q-55 0 -97 -23.5t-70.5 -67.5t-43.5 -106.5t-15 -140.5q0 -76 14.5 -138
t43 -106t70.5 -68t97 -24q88 0 137 50t69 137h43zM485 761h-47l-115 83l-115 -83h-47l138 113h50z" />
    <glyph glyph-name="Cdotaccent" unicode="&#x10a;" 
d="M581 213q-23 -109 -84.5 -167.5t-164.5 -58.5q-70 0 -121 28.5t-84 78.5t-48.5 119t-15.5 149q0 81 16 149.5t49 119t84 79t122 28.5q100 0 160.5 -58t83.5 -168h-43q-23 96 -74 142t-128 46q-55 0 -97 -23.5t-70.5 -67.5t-43.5 -106.5t-15 -140.5q0 -76 14.5 -138
t43 -106t70.5 -68t97 -24q88 0 137 50t69 137h43zM343 865v-95h-40v95h40z" />
    <glyph glyph-name="Dcaron" unicode="&#x10e;" 
d="M534 363q0 71 -15.5 122.5t-42 87t-61.5 58t-74.5 34.5t-81 16.5t-79.5 4.5h-38v-647h38q58 0 120.5 11t114.5 45t85.5 98t33.5 170zM184 725q79 0 150.5 -17t125.5 -59t86 -111.5t32 -174.5t-32 -175t-86 -111.5t-125.5 -59t-150.5 -17.5h-83v725h83zM145 874h47
l115 -83l115 83h47l-138 -113h-49z" />
    <glyph glyph-name="Dcroat" unicode="&#x110;" 
d="M205 725q79 0 150.5 -17.5t125.5 -59t86 -111.5t32 -175t-32 -174.5t-86 -111.5t-125.5 -59t-150.5 -17h-83v357h-75v38h75v330h83zM163 357v-318h38q58 0 120.5 10.5t114.5 44.5t85.5 98t33.5 170t-33.5 170t-85.5 98.5t-114.5 45.5t-120.5 11h-38v-292h186v-38h-186z
" />
    <glyph glyph-name="Ebreve" unicode="&#x114;" 
d="M127 725h412v-39h-371v-289h346v-39h-346v-319h371v-39h-412v725zM478 874q-4 -54 -42 -85.5t-101 -31.5q-60 0 -98.5 31.5t-42.5 85.5h37q3 -23 12.5 -39.5t23.5 -26.5t32 -14.5t37 -4.5t37 4.5t32 14.5t23.5 26.5t12.5 39.5h37z" />
    <glyph glyph-name="Ecaron" unicode="&#x11a;" 
d="M127 725h412v-39h-371v-289h346v-39h-346v-319h371v-39h-412v725zM174 874h47l115 -83l115 83h47l-138 -113h-49z" />
    <glyph glyph-name="Emacron" unicode="&#x112;" 
d="M127 725h412v-39h-371v-289h346v-39h-346v-319h371v-39h-412v725zM200 801v39h271v-39h-271z" />
    <glyph glyph-name="Eogonek" unicode="&#x118;" 
d="M127 725h412v-39h-371v-289h346v-39h-346v-319h371v-39h-412v725zM539 0q-39 -19 -66.5 -39.5t-27.5 -45.5q0 -20 15.5 -31t43.5 -11q17 0 35 5v-33q-11 -3 -22 -4t-22 -1q-17 0 -33.5 4t-29 12t-20.5 21.5t-8 32.5q0 15 8.5 29t22.5 25.5t31 20.5t34 15h39z" />
    <glyph glyph-name="Edotaccent" unicode="&#x116;" 
d="M127 725h412v-39h-371v-289h346v-39h-346v-319h371v-39h-412v725zM356 865v-95h-40v95h40z" />
    <glyph glyph-name="Gbreve" unicode="&#x11e;" 
d="M325 26q39 0 77 12.5t68 41t48.5 76t18.5 117.5v39h-166v38h205v-350h-37l-1 114q-14 -27 -33 -50t-45 -40.5t-59.5 -27t-75.5 -9.5q-70 0 -122.5 28.5t-87 79t-51.5 119.5t-17 149q0 81 17.5 149.5t52.5 118.5t87.5 78.5t122.5 28.5q100 0 165 -60.5t89 -171.5h-43
q-23 97 -79 145t-133 48q-55 0 -98.5 -23.5t-74 -67t-46.5 -105.5t-16 -140q0 -76 16 -138t46 -106.5t73.5 -68.5t98.5 -24zM469 874q-4 -54 -42 -85.5t-101 -31.5q-60 0 -98.5 31.5t-42.5 85.5h37q3 -23 12.5 -39.5t23.5 -26.5t32 -14.5t37 -4.5t37 4.5t32 14.5t23.5 26.5
t12.5 39.5h37z" />
    <glyph glyph-name="Gcircumflex" unicode="&#x11c;" 
d="M325 26q39 0 77 12.5t68 41t48.5 76t18.5 117.5v39h-166v38h205v-350h-37l-1 114q-14 -27 -33 -50t-45 -40.5t-59.5 -27t-75.5 -9.5q-70 0 -122.5 28.5t-87 79t-51.5 119.5t-17 149q0 81 17.5 149.5t52.5 118.5t87.5 78.5t122.5 28.5q100 0 165 -60.5t89 -171.5h-43
q-23 97 -79 145t-133 48q-55 0 -98.5 -23.5t-74 -67t-46.5 -105.5t-16 -140q0 -76 16 -138t46 -106.5t73.5 -68.5t98.5 -24zM489 761h-47l-115 83l-115 -83h-47l138 113h50z" />
    <glyph glyph-name="Gcommaaccent" unicode="&#x122;" 
d="M325 26q39 0 77 12.5t68 41t48.5 76t18.5 117.5v39h-166v38h205v-350h-37l-1 114q-14 -27 -33 -50t-45 -40.5t-59.5 -27t-75.5 -9.5q-70 0 -122.5 28.5t-87 79t-51.5 119.5t-17 149q0 81 17.5 149.5t52.5 118.5t87.5 78.5t122.5 28.5q100 0 165 -60.5t89 -171.5h-43
q-23 97 -79 145t-133 48q-55 0 -98.5 -23.5t-74 -67t-46.5 -105.5t-16 -140q0 -76 16 -138t46 -106.5t73.5 -68.5t98.5 -24zM363 -39v-11q0 -25 -1.5 -48t-9 -41t-22 -29.5t-40.5 -13.5v39q22 5 28 25t6 67v12h39z" />
    <glyph glyph-name="Gdotaccent" unicode="&#x120;" 
d="M325 26q39 0 77 12.5t68 41t48.5 76t18.5 117.5v39h-166v38h205v-350h-37l-1 114q-14 -27 -33 -50t-45 -40.5t-59.5 -27t-75.5 -9.5q-70 0 -122.5 28.5t-87 79t-51.5 119.5t-17 149q0 81 17.5 149.5t52.5 118.5t87.5 78.5t122.5 28.5q100 0 165 -60.5t89 -171.5h-43
q-23 97 -79 145t-133 48q-55 0 -98.5 -23.5t-74 -67t-46.5 -105.5t-16 -140q0 -76 16 -138t46 -106.5t73.5 -68.5t98.5 -24zM347 865v-95h-40v95h40z" />
    <glyph glyph-name="Hbar" unicode="&#x126;" 
d="M549 725v-151h72v-34h-72v-540h-41v351h-370v-351h-41v540h-72v34h72v151h41v-151h370v151h41zM508 390v150h-370v-150h370z" />
    <glyph glyph-name="Hcircumflex" unicode="&#x124;" 
d="M549 725v-725h-41v351h-370v-351h-41v725h41v-335h370v335h41zM485 761h-47l-115 83l-115 -83h-47l138 113h50z" />
    <glyph glyph-name="Ibreve" unicode="&#x12c;" 
d="M98 725h450v-39h-204v-647h204v-39h-450v39h205v647h-205v39zM465 874q-4 -54 -42 -85.5t-101 -31.5q-60 0 -98.5 31.5t-42.5 85.5h37q3 -23 12.5 -39.5t23.5 -26.5t32 -14.5t37 -4.5t37 4.5t32 14.5t23.5 26.5t12.5 39.5h37z" />
    <glyph glyph-name="Idotaccent" unicode="&#x130;" 
d="M98 725h450v-39h-204v-647h204v-39h-450v39h205v647h-205v39zM343 865v-95h-40v95h40z" />
    <glyph glyph-name="Imacron" unicode="&#x12a;" 
d="M98 725h450v-39h-204v-647h204v-39h-450v39h205v647h-205v39zM187 801v39h271v-39h-271z" />
    <glyph glyph-name="Iogonek" unicode="&#x12e;" 
d="M98 725h450v-39h-204v-647h204v-39h-450v39h205v647h-205v39zM341 0q-39 -19 -66.5 -39.5t-27.5 -45.5q0 -20 15.5 -31t43.5 -11q17 0 35 5v-33q-11 -3 -22 -4t-22 -1q-17 0 -33.5 4t-29 12t-20.5 21.5t-8 32.5q0 15 8.5 29t22.5 25.5t31 20.5t34 15h39z" />
    <glyph glyph-name="Itilde" unicode="&#x128;" 
d="M98 725h450v-39h-204v-647h204v-39h-450v39h205v647h-205v39zM395 806q23 0 36.5 15t19.5 43h34q-7 -45 -29.5 -69t-59.5 -24q-22 0 -40.5 9t-36 20.5t-34.5 20.5t-35 9q-23 0 -36.5 -15.5t-18.5 -43.5h-34q6 45 30.5 69t58.5 24q23 0 42 -9t36 -20t33.5 -20t33.5 -9z
" />
    <glyph glyph-name="uni1ECA" unicode="&#x1eca;" 
d="M98 725h450v-39h-204v-647h204v-39h-450v39h205v647h-205v39zM343 -79v-95h-39v95h39z" />
    <glyph glyph-name="Jcircumflex" unicode="&#x134;" 
d="M135 241q0 -69 15 -111t38 -65t52 -31t58 -8t58 8t52.5 31.5t38.5 65.5t15 111v444h-291v39h332v-472q0 -76 -15.5 -127t-43 -82t-65 -44t-81.5 -13q-43 0 -79.5 12.5t-64 42t-43.5 78t-17 121.5h41zM499 761h-47l-115 83l-115 -83h-47l138 113h50z" />
    <glyph glyph-name="Kcommaaccent" unicode="&#x136;" 
d="M182 331l336 394h52l-262 -304l279 -421h-52l-256 389l-97 -113v-276h-41v725h41v-394zM365 -39v-11q0 -25 -1.5 -48t-9 -41t-22 -29.5t-40.5 -13.5v39q22 5 28 25t6 67v12h39z" />
    <glyph glyph-name="Lacute" unicode="&#x139;" 
d="M178 39h380v-39h-421v725h41v-686zM181 761h-43l123 113h64z" />
    <glyph glyph-name="Lcaron" unicode="&#x13d;" 
d="M178 39h380v-39h-421v725h41v-686zM358 555h-26l30 170h46z" />
    <glyph glyph-name="Lcommaaccent" unicode="&#x13b;" 
d="M178 39h380v-39h-421v725h41v-686zM370 -39v-11q0 -25 -1.5 -48t-9 -41t-22 -29.5t-40.5 -13.5v39q22 5 28 25t6 67v12h39z" />
    <glyph glyph-name="Ldot" unicode="&#x13f;" 
d="M178 39h380v-39h-421v725h41v-686zM417 425v-95h-40v95h40z" />
    <glyph glyph-name="Lslash" unicode="&#x141;" 
d="M228 392l194 133v-46l-194 -133v-307h380v-39h-421v318l-142 -97v46l142 97v361h41v-333z" />
    <glyph glyph-name="Nacute" unicode="&#x143;" 
d="M494 0l-356 670v-670h-41v725h55l356 -670v670h41v-725h-55zM329 761h-43l123 113h64z" />
    <glyph glyph-name="Ncaron" unicode="&#x147;" 
d="M494 0l-356 670v-670h-41v725h55l356 -670v670h41v-725h-55zM161 874h47l115 -83l115 83h47l-138 -113h-49z" />
    <glyph glyph-name="Ncommaaccent" unicode="&#x145;" 
d="M494 0l-356 670v-670h-41v725h55l356 -670v670h41v-725h-55zM359 -39v-11q0 -25 -1.5 -48t-9 -41t-22 -29.5t-40.5 -13.5v39q22 5 28 25t6 67v12h39z" />
    <glyph glyph-name="OE" unicode="&#x152;" 
d="M596 725v-38h-236v-291h211v-38h-211v-319h236v-39h-276v72q-15 -41 -41 -63t-68 -22q-56 0 -88 28t-48.5 78t-21 119t-4.5 151t4.5 151t21 119t48.5 77.5t88 27.5q42 0 68 -22t41 -62v71h276zM323 363q0 80 -3.5 143t-15.5 106t-34 65.5t-59 22.5t-60 -22.5t-35.5 -65.5
t-17 -106t-4.5 -143t4.5 -143t17 -106t35.5 -65.5t60 -22.5t59 22.5t34 65.5t15.5 106t3.5 143z" />
    <glyph glyph-name="Obreve" unicode="&#x14e;" 
d="M587 363q0 -82 -17.5 -151t-51 -119t-83 -78t-112.5 -28t-112.5 28t-83 78t-51 119t-17.5 151t17.5 151t51 119t83 77.5t112.5 27.5t112.5 -27.5t83 -77.5t51 -119t17.5 -151zM543 363q0 80 -16 142.5t-45 105.5t-69.5 65.5t-89.5 22.5t-89.5 -22.5t-69 -65.5
t-44.5 -105.5t-16 -142.5t16 -143t44.5 -106t69 -65.5t89.5 -22.5t89.5 22.5t69.5 65.5t45 106t16 143zM465 874q-4 -54 -42 -85.5t-101 -31.5q-60 0 -98.5 31.5t-42.5 85.5h37q3 -23 12.5 -39.5t23.5 -26.5t32 -14.5t37 -4.5t37 4.5t32 14.5t23.5 26.5t12.5 39.5h37z" />
    <glyph glyph-name="Ohungarumlaut" unicode="&#x150;" 
d="M587 363q0 -82 -17.5 -151t-51 -119t-83 -78t-112.5 -28t-112.5 28t-83 78t-51 119t-17.5 151t17.5 151t51 119t83 77.5t112.5 27.5t112.5 -27.5t83 -77.5t51 -119t17.5 -151zM543 363q0 80 -16 142.5t-45 105.5t-69.5 65.5t-89.5 22.5t-89.5 -22.5t-69 -65.5
t-44.5 -105.5t-16 -142.5t16 -143t44.5 -106t69 -65.5t89.5 -22.5t89.5 22.5t69.5 65.5t45 106t16 143zM228 761h-43l124 113h63zM402 761h-43l124 113h64z" />
    <glyph glyph-name="Omacron" unicode="&#x14c;" 
d="M587 363q0 -82 -17.5 -151t-51 -119t-83 -78t-112.5 -28t-112.5 28t-83 78t-51 119t-17.5 151t17.5 151t51 119t83 77.5t112.5 27.5t112.5 -27.5t83 -77.5t51 -119t17.5 -151zM543 363q0 80 -16 142.5t-45 105.5t-69.5 65.5t-89.5 22.5t-89.5 -22.5t-69 -65.5
t-44.5 -105.5t-16 -142.5t16 -143t44.5 -106t69 -65.5t89.5 -22.5t89.5 22.5t69.5 65.5t45 106t16 143zM187 801v39h271v-39h-271z" />
    <glyph glyph-name="uni1ECC" unicode="&#x1ecc;" 
d="M587 363q0 -82 -17.5 -151t-51 -119t-83 -78t-112.5 -28t-112.5 28t-83 78t-51 119t-17.5 151t17.5 151t51 119t83 77.5t112.5 27.5t112.5 -27.5t83 -77.5t51 -119t17.5 -151zM543 363q0 80 -16 142.5t-45 105.5t-69.5 65.5t-89.5 22.5t-89.5 -22.5t-69 -65.5
t-44.5 -105.5t-16 -142.5t16 -143t44.5 -106t69 -65.5t89.5 -22.5t89.5 22.5t69.5 65.5t45 106t16 143zM344 -79v-95h-39v95h39z" />
    <glyph glyph-name="Racute" unicode="&#x154;" 
d="M348 333q-20 -2 -40 -3t-42 -1h-117v-329h-41v725h159q62 0 114.5 -7.5t90.5 -29t59 -60t21 -99.5q0 -44 -11.5 -76.5t-32.5 -55.5t-51 -37t-67 -21l173 -339h-46zM149 686v-318h116q51 0 95.5 5t77.5 22t51.5 48.5t18.5 84.5t-18.5 84t-51.5 47.5t-77.5 21.5t-95.5 5
h-116zM293 761h-43l123 113h64z" />
    <glyph glyph-name="Rcaron" unicode="&#x158;" 
d="M348 333q-20 -2 -40 -3t-42 -1h-117v-329h-41v725h159q62 0 114.5 -7.5t90.5 -29t59 -60t21 -99.5q0 -44 -11.5 -76.5t-32.5 -55.5t-51 -37t-67 -21l173 -339h-46zM149 686v-318h116q51 0 95.5 5t77.5 22t51.5 48.5t18.5 84.5t-18.5 84t-51.5 47.5t-77.5 21.5t-95.5 5
h-116zM159 874h47l115 -83l115 83h47l-138 -113h-49z" />
    <glyph glyph-name="Rcommaaccent" unicode="&#x156;" 
d="M348 333q-20 -2 -40 -3t-42 -1h-117v-329h-41v725h159q62 0 114.5 -7.5t90.5 -29t59 -60t21 -99.5q0 -44 -11.5 -76.5t-32.5 -55.5t-51 -37t-67 -21l173 -339h-46zM149 686v-318h116q51 0 95.5 5t77.5 22t51.5 48.5t18.5 84.5t-18.5 84t-51.5 47.5t-77.5 21.5t-95.5 5
h-116zM341 -39v-11q0 -25 -1.5 -48t-9 -41t-22 -29.5t-40.5 -13.5v39q22 5 28 25t6 67v12h39z" />
    <glyph glyph-name="Sacute" unicode="&#x15a;" 
d="M102 560q0 47 19.5 81t50 55.5t68.5 31.5t76 10q45 0 83.5 -12.5t69.5 -37t52.5 -61t31.5 -83.5h-43q-21 78 -73 116.5t-124 38.5q-27 0 -56.5 -7.5t-54 -23.5t-40.5 -42t-16 -63q0 -64 39.5 -100t109.5 -55l55 -15q36 -10 74.5 -24t70.5 -37t52.5 -57t20.5 -84
q0 -51 -19.5 -89.5t-52.5 -64t-75.5 -38t-87.5 -12.5q-102 0 -170.5 59t-86.5 171h44q9 -51 29 -87.5t47.5 -59.5t61.5 -33.5t72 -10.5q31 0 65.5 7.5t63 25.5t47 49t18.5 78q0 37 -14.5 64t-39 46.5t-57.5 33t-70 23.5l-60 17q-37 9 -70 24.5t-57.5 38t-39 54t-14.5 73.5z
M333 761h-43l123 113h64z" />
    <glyph glyph-name="Scaron" unicode="&#x160;" 
d="M102 560q0 47 19.5 81t50 55.5t68.5 31.5t76 10q45 0 83.5 -12.5t69.5 -37t52.5 -61t31.5 -83.5h-43q-21 78 -73 116.5t-124 38.5q-27 0 -56.5 -7.5t-54 -23.5t-40.5 -42t-16 -63q0 -64 39.5 -100t109.5 -55l55 -15q36 -10 74.5 -24t70.5 -37t52.5 -57t20.5 -84
q0 -51 -19.5 -89.5t-52.5 -64t-75.5 -38t-87.5 -12.5q-102 0 -170.5 59t-86.5 171h44q9 -51 29 -87.5t47.5 -59.5t61.5 -33.5t72 -10.5q31 0 65.5 7.5t63 25.5t47 49t18.5 78q0 37 -14.5 64t-39 46.5t-57.5 33t-70 23.5l-60 17q-37 9 -70 24.5t-57.5 38t-39 54t-14.5 73.5z
M155 874h47l115 -83l115 83h47l-138 -113h-49z" />
    <glyph glyph-name="Scedilla" unicode="&#x15e;" 
d="M102 560q0 47 19.5 81t50 55.5t68.5 31.5t76 10q45 0 83.5 -12.5t69.5 -37t52.5 -61t31.5 -83.5h-43q-21 78 -73 116.5t-124 38.5q-27 0 -56.5 -7.5t-54 -23.5t-40.5 -42t-16 -63q0 -64 39.5 -100t109.5 -55l55 -15q36 -10 74.5 -24t70.5 -37t52.5 -57t20.5 -84
q0 -51 -19.5 -89.5t-52.5 -64t-75.5 -38t-87.5 -12.5q-102 0 -170.5 59t-86.5 171h44q9 -51 29 -87.5t47.5 -59.5t61.5 -33.5t72 -10.5q31 0 65.5 7.5t63 25.5t47 49t18.5 78q0 37 -14.5 64t-39 46.5t-57.5 33t-70 23.5l-60 17q-37 9 -70 24.5t-57.5 38t-39 54t-14.5 73.5z
M276 -140q11 -5 26 -8t29 -3q23 0 43.5 9t20.5 33q0 21 -15.5 30t-35.5 9q-25 0 -43 -9l-14 14l47 76h30l-33 -56q15 3 28 3q32 0 52 -16.5t20 -47.5q0 -20 -8.5 -34t-22 -23t-30.5 -13t-35 -4q-17 0 -34 2.5t-34 8.5z" />
    <glyph glyph-name="Scircumflex" unicode="&#x15c;" 
d="M102 560q0 47 19.5 81t50 55.5t68.5 31.5t76 10q45 0 83.5 -12.5t69.5 -37t52.5 -61t31.5 -83.5h-43q-21 78 -73 116.5t-124 38.5q-27 0 -56.5 -7.5t-54 -23.5t-40.5 -42t-16 -63q0 -64 39.5 -100t109.5 -55l55 -15q36 -10 74.5 -24t70.5 -37t52.5 -57t20.5 -84
q0 -51 -19.5 -89.5t-52.5 -64t-75.5 -38t-87.5 -12.5q-102 0 -170.5 59t-86.5 171h44q9 -51 29 -87.5t47.5 -59.5t61.5 -33.5t72 -10.5q31 0 65.5 7.5t63 25.5t47 49t18.5 78q0 37 -14.5 64t-39 46.5t-57.5 33t-70 23.5l-60 17q-37 9 -70 24.5t-57.5 38t-39 54t-14.5 73.5z
M479 761h-47l-115 83l-115 -83h-47l138 113h50z" />
    <glyph glyph-name="Scommaaccent" unicode="&#x218;" 
d="M102 560q0 47 19.5 81t50 55.5t68.5 31.5t76 10q45 0 83.5 -12.5t69.5 -37t52.5 -61t31.5 -83.5h-43q-21 78 -73 116.5t-124 38.5q-27 0 -56.5 -7.5t-54 -23.5t-40.5 -42t-16 -63q0 -64 39.5 -100t109.5 -55l55 -15q36 -10 74.5 -24t70.5 -37t52.5 -57t20.5 -84
q0 -51 -19.5 -89.5t-52.5 -64t-75.5 -38t-87.5 -12.5q-102 0 -170.5 59t-86.5 171h44q9 -51 29 -87.5t47.5 -59.5t61.5 -33.5t72 -10.5q31 0 65.5 7.5t63 25.5t47 49t18.5 78q0 37 -14.5 64t-39 46.5t-57.5 33t-70 23.5l-60 17q-37 9 -70 24.5t-57.5 38t-39 54t-14.5 73.5z
M353 -39v-11q0 -25 -1.5 -48t-9 -41t-22 -29.5t-40.5 -13.5v39q22 5 28 25t6 67v12h39z" />
    <glyph glyph-name="Tcaron" unicode="&#x164;" 
d="M302 686h-243v39h527v-39h-244v-686h-40v686zM161 874h47l115 -83l115 83h47l-138 -113h-49z" />
    <glyph glyph-name="uni0162" unicode="&#x162;" 
d="M302 686h-243v39h527v-39h-244v-686h-40v686zM342 -39v-11q0 -25 -1.5 -48t-9 -41t-22 -29.5t-40.5 -13.5v39q22 5 28 25t6 67v12h39z" />
    <glyph glyph-name="Tcommaaccent" unicode="&#x21a;" 
d="M302 686h-243v39h527v-39h-244v-686h-40v686zM342 -39v-11q0 -25 -1.5 -48t-9 -41t-22 -29.5t-40.5 -13.5v39q22 5 28 25t6 67v12h39z" />
    <glyph glyph-name="Ubreve" unicode="&#x16c;" 
d="M323 26q50 0 85.5 13.5t57.5 43t32 76t10 112.5v454h41v-447q0 -82 -13 -137.5t-40.5 -89.5t-70.5 -49t-102 -15q-60 0 -102.5 15t-70 49t-40.5 89.5t-13 137.5v447h41v-454q0 -66 10 -112.5t32 -76t57 -43t86 -13.5zM465 874q-4 -54 -42 -85.5t-101 -31.5
q-60 0 -98.5 31.5t-42.5 85.5h37q3 -23 12.5 -39.5t23.5 -26.5t32 -14.5t37 -4.5t37 4.5t32 14.5t23.5 26.5t12.5 39.5h37z" />
    <glyph glyph-name="Uhungarumlaut" unicode="&#x170;" 
d="M323 26q50 0 85.5 13.5t57.5 43t32 76t10 112.5v454h41v-447q0 -82 -13 -137.5t-40.5 -89.5t-70.5 -49t-102 -15q-60 0 -102.5 15t-70 49t-40.5 89.5t-13 137.5v447h41v-454q0 -66 10 -112.5t32 -76t57 -43t86 -13.5zM221 761h-43l124 113h63zM395 761h-43l124 113h64z
" />
    <glyph glyph-name="Umacron" unicode="&#x16a;" 
d="M323 26q50 0 85.5 13.5t57.5 43t32 76t10 112.5v454h41v-447q0 -82 -13 -137.5t-40.5 -89.5t-70.5 -49t-102 -15q-60 0 -102.5 15t-70 49t-40.5 89.5t-13 137.5v447h41v-454q0 -66 10 -112.5t32 -76t57 -43t86 -13.5zM187 801v39h271v-39h-271z" />
    <glyph glyph-name="Uogonek" unicode="&#x172;" 
d="M323 26q50 0 85.5 13.5t57.5 43t32 76t10 112.5v454h41v-447q0 -82 -13 -137.5t-40.5 -89.5t-70.5 -49t-102 -15q-60 0 -102.5 15t-70 49t-40.5 89.5t-13 137.5v447h41v-454q0 -66 10 -112.5t32 -76t57 -43t86 -13.5zM397 0q-39 -19 -66.5 -39.5t-27.5 -45.5
q0 -20 15.5 -31t43.5 -11q17 0 35 5v-33q-11 -3 -22 -4t-22 -1q-17 0 -33.5 4t-29 12t-20.5 21.5t-8 32.5q0 15 8.5 29t22.5 25.5t31 20.5t34 15h39z" />
    <glyph glyph-name="Uring" unicode="&#x16e;" 
d="M323 910q35 0 60.5 -22.5t25.5 -58.5t-25.5 -59t-60.5 -23q-36 0 -61.5 23t-25.5 59t25.5 58.5t61.5 22.5zM323 882q-22 0 -38.5 -14t-16.5 -39q0 -26 16.5 -39.5t38.5 -13.5q21 0 37.5 13.5t16.5 39.5q0 25 -16.5 39t-37.5 14zM323 26q50 0 85.5 13.5t57.5 43t32 76
t10 112.5v454h41v-447q0 -82 -13 -137.5t-40.5 -89.5t-70.5 -49t-102 -15q-60 0 -102.5 15t-70 49t-40.5 89.5t-13 137.5v447h41v-454q0 -66 10 -112.5t32 -76t57 -43t86 -13.5z" />
    <glyph glyph-name="Utilde" unicode="&#x168;" 
d="M323 26q50 0 85.5 13.5t57.5 43t32 76t10 112.5v454h41v-447q0 -82 -13 -137.5t-40.5 -89.5t-70.5 -49t-102 -15q-60 0 -102.5 15t-70 49t-40.5 89.5t-13 137.5v447h41v-454q0 -66 10 -112.5t32 -76t57 -43t86 -13.5zM395 806q23 0 36.5 15t19.5 43h34q-7 -45 -29.5 -69
t-59.5 -24q-22 0 -40.5 9t-36 20.5t-34.5 20.5t-35 9q-23 0 -36.5 -15.5t-18.5 -43.5h-34q6 45 30.5 69t58.5 24q23 0 42 -9t36 -20t33.5 -20t33.5 -9z" />
    <glyph glyph-name="uni1EE4" unicode="&#x1ee4;" 
d="M323 26q50 0 85.5 13.5t57.5 43t32 76t10 112.5v454h41v-447q0 -82 -13 -137.5t-40.5 -89.5t-70.5 -49t-102 -15q-60 0 -102.5 15t-70 49t-40.5 89.5t-13 137.5v447h41v-454q0 -66 10 -112.5t32 -76t57 -43t86 -13.5zM342 -79v-95h-39v95h39z" />
    <glyph glyph-name="Wacute" unicode="&#x1e82;" 
d="M466 59l101 666h43l-117 -725h-49l-122 419l-122 -419h-48l-118 725h44l103 -666l118 430h46zM343 761h-43l123 113h64z" />
    <glyph glyph-name="Wcircumflex" unicode="&#x174;" 
d="M466 59l101 666h43l-117 -725h-49l-122 419l-122 -419h-48l-118 725h44l103 -666l118 430h46zM485 761h-47l-115 83l-115 -83h-47l138 113h50z" />
    <glyph glyph-name="Wdieresis" unicode="&#x1e84;" 
d="M466 59l101 666h43l-117 -725h-49l-122 419l-122 -419h-48l-118 725h44l103 -666l118 430h46zM235 865v-95h-41v95h41zM452 865v-95h-42v95h42z" />
    <glyph glyph-name="Wgrave" unicode="&#x1e80;" 
d="M466 59l101 666h43l-117 -725h-49l-122 419l-122 -419h-48l-118 725h44l103 -666l118 430h46zM160 874h63l124 -113h-43z" />
    <glyph glyph-name="Ycircumflex" unicode="&#x176;" 
d="M87 725l236 -417l236 417h47l-262 -461v-264h-41v265l-263 460h47zM485 761h-47l-115 83l-115 -83h-47l138 113h50z" />
    <glyph glyph-name="Ydieresis" unicode="&#x178;" 
d="M87 725l236 -417l236 417h47l-262 -461v-264h-41v265l-263 460h47zM235 865v-95h-41v95h41zM452 865v-95h-42v95h42z" />
    <glyph glyph-name="Ygrave" unicode="&#x1ef2;" 
d="M87 725l236 -417l236 417h47l-262 -461v-264h-41v265l-263 460h47zM158 874h63l124 -113h-43z" />
    <glyph glyph-name="uni0232" unicode="&#x232;" 
d="M87 725l236 -417l236 417h47l-262 -461v-264h-41v265l-263 460h47zM187 801v39h271v-39h-271z" />
    <glyph glyph-name="Zacute" unicode="&#x179;" 
d="M547 688l-423 -649h436v-39h-483v38l423 649h-385v38h432v-37zM326 761h-43l123 113h64z" />
    <glyph glyph-name="Zcaron" unicode="&#x17d;" 
d="M547 688l-423 -649h436v-39h-483v38l423 649h-385v38h432v-37zM161 874h47l115 -83l115 83h47l-138 -113h-49z" />
    <glyph glyph-name="Zdotaccent" unicode="&#x17b;" 
d="M547 688l-423 -649h436v-39h-483v38l423 649h-385v38h432v-37zM343 865v-95h-40v95h40z" />
    <glyph glyph-name="abreve" unicode="&#x103;" 
d="M480 286q-97 -11 -162.5 -24t-105 -30.5t-56 -41.5t-16.5 -58q0 -26 11 -46t30 -34t45.5 -21.5t57.5 -7.5q37 0 72.5 10.5t63 35t44 64.5t16.5 99v54zM480 104q-26 -59 -78 -88t-127 -29q-36 0 -68 9.5t-56 28t-38.5 45t-14.5 60.5q0 48 23 79.5t70 52.5t118.5 34.5
t168.5 25.5v31q0 52 -13.5 84t-35.5 49.5t-51 23t-60 5.5q-40 0 -69.5 -10.5t-49 -29t-30 -42.5t-13.5 -51h-42q4 36 19.5 67t41.5 53.5t62.5 35.5t81.5 13t81.5 -9.5t62.5 -32t40 -61t14 -95.5v-42t-0.5 -44.5t-0.5 -43.5v-38q0 -51 1.5 -95t4.5 -90h-38zM465 725
q-9 -130 -142 -130q-66 0 -102 32.5t-40 97.5h36q5 -55 31.5 -76.5t74.5 -21.5t75 21.5t33 76.5h34v0z" />
    <glyph glyph-name="amacron" unicode="&#x101;" 
d="M480 286q-97 -11 -162.5 -24t-105 -30.5t-56 -41.5t-16.5 -58q0 -26 11 -46t30 -34t45.5 -21.5t57.5 -7.5q37 0 72.5 10.5t63 35t44 64.5t16.5 99v54zM480 104q-26 -59 -78 -88t-127 -29q-36 0 -68 9.5t-56 28t-38.5 45t-14.5 60.5q0 48 23 79.5t70 52.5t118.5 34.5
t168.5 25.5v31q0 52 -13.5 84t-35.5 49.5t-51 23t-60 5.5q-40 0 -69.5 -10.5t-49 -29t-30 -42.5t-13.5 -51h-42q4 36 19.5 67t41.5 53.5t62.5 35.5t81.5 13t81.5 -9.5t62.5 -32t40 -61t14 -95.5v-42t-0.5 -44.5t-0.5 -43.5v-38q0 -51 1.5 -95t4.5 -90h-38zM192 638v35h261
v-35h-261z" />
    <glyph glyph-name="aogonek" unicode="&#x105;" 
d="M480 104q-26 -59 -78 -88t-127 -29q-36 0 -68 9.5t-56 28t-38.5 45t-14.5 60.5q0 48 23 79.5t70 52.5t118.5 34.5t168.5 25.5v31q0 52 -13.5 84t-35.5 49.5t-51 23t-60 5.5q-40 0 -69.5 -10.5t-49 -29t-30 -42.5t-13.5 -51h-42q4 36 19.5 67t41.5 53.5t62.5 35.5t81.5 13
t81.5 -9.5t62.5 -32t40 -61t14 -95.5v-42t-0.5 -44.5t-0.5 -43.5v-38q0 -51 1.5 -95t4.5 -90h-5q-39 -19 -66 -39.5t-27 -45.5q0 -42 58 -42q17 0 35 5v-33q-11 -3 -22 -4t-22 -1q-17 0 -33.5 4t-29 12t-20.5 21.5t-8 32.5q0 15 9.5 29.5t24 26.5t32.5 21t35 15h1zM480 286
q-97 -11 -162.5 -24t-105 -30.5t-56 -41.5t-16.5 -58q0 -26 11 -46t30 -34t45.5 -21.5t57.5 -7.5q37 0 72.5 10.5t63 35t44 64.5t16.5 99v54z" />
    <glyph glyph-name="cacute" unicode="&#x107;" 
d="M332 547q44 0 80.5 -13t64 -36t45 -54.5t23.5 -69.5h-40q-14 66 -60.5 101.5t-115.5 35.5q-44 0 -79.5 -17t-60 -48.5t-38 -77t-13.5 -101.5q0 -62 15 -108t40.5 -76t60 -45t74.5 -15q75 0 120.5 36.5t58.5 99.5h41q-16 -81 -73.5 -126.5t-147.5 -45.5q-57 0 -100.5 20.5
t-72 57.5t-43 88.5t-14.5 112.5q0 62 15 113.5t44.5 89t73.5 58t102 20.5zM338 608h-38l110 116h58z" />
    <glyph glyph-name="ccaron" unicode="&#x10d;" 
d="M332 547q44 0 80.5 -13t64 -36t45 -54.5t23.5 -69.5h-40q-14 66 -60.5 101.5t-115.5 35.5q-44 0 -79.5 -17t-60 -48.5t-38 -77t-13.5 -101.5q0 -62 15 -108t40.5 -76t60 -45t74.5 -15q75 0 120.5 36.5t58.5 99.5h41q-16 -81 -73.5 -126.5t-147.5 -45.5q-57 0 -100.5 20.5
t-72 57.5t-43 88.5t-14.5 112.5q0 62 15 113.5t44.5 89t73.5 58t102 20.5zM166 725h39l117 -81l118 81h39l-138 -116h-38z" />
    <glyph glyph-name="ccircumflex" unicode="&#x109;" 
d="M332 547q44 0 80.5 -13t64 -36t45 -54.5t23.5 -69.5h-40q-14 66 -60.5 101.5t-115.5 35.5q-44 0 -79.5 -17t-60 -48.5t-38 -77t-13.5 -101.5q0 -62 15 -108t40.5 -76t60 -45t74.5 -15q75 0 120.5 36.5t58.5 99.5h41q-16 -81 -73.5 -126.5t-147.5 -45.5q-57 0 -100.5 20.5
t-72 57.5t-43 88.5t-14.5 112.5q0 62 15 113.5t44.5 89t73.5 58t102 20.5zM479 609h-39l-117 82l-118 -82h-39l138 116h38z" />
    <glyph glyph-name="cdotaccent" unicode="&#x10b;" 
d="M332 547q44 0 80.5 -13t64 -36t45 -54.5t23.5 -69.5h-40q-14 66 -60.5 101.5t-115.5 35.5q-44 0 -79.5 -17t-60 -48.5t-38 -77t-13.5 -101.5q0 -62 15 -108t40.5 -76t60 -45t74.5 -15q75 0 120.5 36.5t58.5 99.5h41q-16 -81 -73.5 -126.5t-147.5 -45.5q-57 0 -100.5 20.5
t-72 57.5t-43 88.5t-14.5 112.5q0 62 15 113.5t44.5 89t73.5 58t102 20.5zM342 708v-95h-39v95h39z" />
    <glyph glyph-name="dcaron" unicode="&#x10f;" 
d="M597 555h-26l30 170h46zM118 267q0 -59 14.5 -104.5t39.5 -76.5t59.5 -47t74.5 -16q34 0 68.5 13.5t62 42.5t44.5 75.5t17 112.5t-17 112t-44.5 75.5t-62 43t-68.5 13.5q-40 0 -74.5 -16t-59.5 -47t-39.5 -76.5t-14.5 -104.5zM77 267q0 67 17 119t47 88t70.5 54.5
t88.5 18.5q69 0 119.5 -33.5t75.5 -93.5v305h39v-725h-38l-1 114q-25 -60 -75.5 -93.5t-119.5 -33.5q-48 0 -88.5 18.5t-70.5 54.5t-47 88t-17 119z" />
    <glyph glyph-name="dcroat" unicode="&#x111;" 
d="M77 267q0 67 17 119t47 88t70.5 54.5t88.5 18.5q69 0 119.5 -33.5t75.5 -93.5v188h-130v35h130v82h39v-82h92v-35h-92v-608h-38l-1 114q-25 -60 -75.5 -93.5t-119.5 -33.5q-48 0 -88.5 18.5t-70.5 54.5t-47 88t-17 119zM118 267q0 -59 14.5 -104.5t39.5 -76.5t59.5 -47
t74.5 -16q34 0 68.5 13.5t62 42.5t44.5 75.5t17 112.5t-17 112t-44.5 75.5t-62 43t-68.5 13.5q-40 0 -74.5 -16t-59.5 -47t-39.5 -76.5t-14.5 -104.5z" />
    <glyph glyph-name="ebreve" unicode="&#x115;" 
d="M326 -13q-58 0 -102.5 20.5t-74.5 57.5t-45 88.5t-15 114.5q0 64 16.5 115.5t47.5 88t75 56t100 19.5t99.5 -21t73 -58.5t44 -89t13.5 -112.5h-428q0 -61 14.5 -106.5t40.5 -76t62.5 -45.5t80.5 -15q72 0 118.5 34.5t62.5 98.5h40q-17 -81 -74.5 -125t-148.5 -44z
M327 512q-88 0 -138.5 -56t-57.5 -156h385q0 41 -12.5 79.5t-36.5 68t-59 47t-81 17.5zM465 725q-9 -130 -142 -130q-66 0 -102 32.5t-40 97.5h36q5 -55 31.5 -76.5t74.5 -21.5t75 21.5t33 76.5h34v0z" />
    <glyph glyph-name="ecaron" unicode="&#x11b;" 
d="M326 -13q-58 0 -102.5 20.5t-74.5 57.5t-45 88.5t-15 114.5q0 64 16.5 115.5t47.5 88t75 56t100 19.5t99.5 -21t73 -58.5t44 -89t13.5 -112.5h-428q0 -61 14.5 -106.5t40.5 -76t62.5 -45.5t80.5 -15q72 0 118.5 34.5t62.5 98.5h40q-17 -81 -74.5 -125t-148.5 -44z
M327 512q-88 0 -138.5 -56t-57.5 -156h385q0 41 -12.5 79.5t-36.5 68t-59 47t-81 17.5zM166 725h39l117 -81l118 81h39l-138 -116h-38z" />
    <glyph glyph-name="emacron" unicode="&#x113;" 
d="M326 -13q-58 0 -102.5 20.5t-74.5 57.5t-45 88.5t-15 114.5q0 64 16.5 115.5t47.5 88t75 56t100 19.5t99.5 -21t73 -58.5t44 -89t13.5 -112.5h-428q0 -61 14.5 -106.5t40.5 -76t62.5 -45.5t80.5 -15q72 0 118.5 34.5t62.5 98.5h40q-17 -81 -74.5 -125t-148.5 -44z
M327 512q-88 0 -138.5 -56t-57.5 -156h385q0 41 -12.5 79.5t-36.5 68t-59 47t-81 17.5zM192 638v35h261v-35h-261z" />
    <glyph glyph-name="eogonek" unicode="&#x119;" 
d="M326 -13q-58 0 -102.5 20.5t-74.5 57.5t-45 88.5t-15 114.5q0 64 16.5 115.5t47.5 88t75 56t100 19.5t99.5 -21t73 -58.5t44 -89t13.5 -112.5h-428q0 -61 14.5 -106.5t40.5 -76t62.5 -45.5t80.5 -15q72 0 118.5 34.5t62.5 98.5h40q-17 -81 -74.5 -125t-148.5 -44z
M327 512q-88 0 -138.5 -56t-57.5 -156h385q0 41 -12.5 79.5t-36.5 68t-59 47t-81 17.5zM413 0q-39 -19 -66.5 -39.5t-27.5 -45.5q0 -20 15.5 -31t43.5 -11q17 0 35 5v-33q-11 -3 -22 -4t-22 -1q-17 0 -33.5 4t-29 12t-20.5 21.5t-8 32.5q0 15 8.5 29t22.5 25.5t31 20.5
t34 15h39z" />
    <glyph glyph-name="edotaccent" unicode="&#x117;" 
d="M326 -13q-58 0 -102.5 20.5t-74.5 57.5t-45 88.5t-15 114.5q0 64 16.5 115.5t47.5 88t75 56t100 19.5t99.5 -21t73 -58.5t44 -89t13.5 -112.5h-428q0 -61 14.5 -106.5t40.5 -76t62.5 -45.5t80.5 -15q72 0 118.5 34.5t62.5 98.5h40q-17 -81 -74.5 -125t-148.5 -44z
M327 512q-88 0 -138.5 -56t-57.5 -156h385q0 41 -12.5 79.5t-36.5 68t-59 47t-81 17.5zM342 708v-95h-39v95h39z" />
    <glyph glyph-name="gbreve" unicode="&#x11f;" 
d="M494 538h39v-527q0 -65 -16.5 -103t-46.5 -60q-30 -23 -70 -32.5t-85 -9.5q-87 0 -143 43t-64 113h41q3 -24 14.5 -46t31.5 -38.5t50 -26.5t70 -10q33 0 65 6t57 23q26 17 41.5 47t15.5 82v137q-25 -60 -75.5 -93.5t-118.5 -33.5q-48 0 -88.5 17t-70.5 50.5t-47 84
t-17 117.5t17 117t47 84t70.5 51t88.5 17q68 0 118.5 -33.5t75.5 -93.5v118zM118 278q0 -60 14.5 -104t39.5 -73t59 -43t74 -14q35 0 69.5 13.5t62 42t44.5 72.5t17 106q0 61 -17 105.5t-44.5 72.5t-62 41.5t-69.5 13.5q-40 0 -74 -14t-59 -43t-39.5 -73t-14.5 -103z
M465 725q-9 -130 -142 -130q-66 0 -102 32.5t-40 97.5h36q5 -55 31.5 -76.5t74.5 -21.5t75 21.5t33 76.5h34v0z" />
    <glyph glyph-name="gcircumflex" unicode="&#x11d;" 
d="M494 538h39v-527q0 -65 -16.5 -103t-46.5 -60q-30 -23 -70 -32.5t-85 -9.5q-87 0 -143 43t-64 113h41q3 -24 14.5 -46t31.5 -38.5t50 -26.5t70 -10q33 0 65 6t57 23q26 17 41.5 47t15.5 82v137q-25 -60 -75.5 -93.5t-118.5 -33.5q-48 0 -88.5 17t-70.5 50.5t-47 84
t-17 117.5t17 117t47 84t70.5 51t88.5 17q68 0 118.5 -33.5t75.5 -93.5v118zM118 278q0 -60 14.5 -104t39.5 -73t59 -43t74 -14q35 0 69.5 13.5t62 42t44.5 72.5t17 106q0 61 -17 105.5t-44.5 72.5t-62 41.5t-69.5 13.5q-40 0 -74 -14t-59 -43t-39.5 -73t-14.5 -103z
M479 609h-39l-117 82l-118 -82h-39l138 116h38z" />
    <glyph glyph-name="gcommaaccent" unicode="&#x123;" 
d="M281 601v62q0 33 2 59.5t9 46.5t21.5 32t40.5 15v-39q-11 -3 -18 -9.5t-10.5 -19t-4.5 -33t-1 -51.5v-63h-39zM494 538h39v-527q0 -65 -16.5 -103t-46.5 -60q-30 -23 -70 -32.5t-85 -9.5q-87 0 -143 43t-64 113h41q3 -24 14.5 -46t31.5 -38.5t50 -26.5t70 -10q33 0 65 6
t57 23q26 17 41.5 47t15.5 82v137q-25 -60 -75.5 -93.5t-118.5 -33.5q-48 0 -88.5 17t-70.5 50.5t-47 84t-17 117.5t17 117t47 84t70.5 51t88.5 17q68 0 118.5 -33.5t75.5 -93.5v118zM118 278q0 -60 14.5 -104t39.5 -73t59 -43t74 -14q35 0 69.5 13.5t62 42t44.5 72.5
t17 106q0 61 -17 105.5t-44.5 72.5t-62 41.5t-69.5 13.5q-40 0 -74 -14t-59 -43t-39.5 -73t-14.5 -103z" />
    <glyph glyph-name="gdotaccent" unicode="&#x121;" 
d="M494 538h39v-527q0 -65 -16.5 -103t-46.5 -60q-30 -23 -70 -32.5t-85 -9.5q-87 0 -143 43t-64 113h41q3 -24 14.5 -46t31.5 -38.5t50 -26.5t70 -10q33 0 65 6t57 23q26 17 41.5 47t15.5 82v137q-25 -60 -75.5 -93.5t-118.5 -33.5q-48 0 -88.5 17t-70.5 50.5t-47 84
t-17 117.5t17 117t47 84t70.5 51t88.5 17q68 0 118.5 -33.5t75.5 -93.5v118zM118 278q0 -60 14.5 -104t39.5 -73t59 -43t74 -14q35 0 69.5 13.5t62 42t44.5 72.5t17 106q0 61 -17 105.5t-44.5 72.5t-62 41.5t-69.5 13.5q-40 0 -74 -14t-59 -43t-39.5 -73t-14.5 -103z
M342 708v-95h-39v95h39z" />
    <glyph glyph-name="hbar" unicode="&#x127;" 
d="M157 643h130v-35h-130v-194q8 24 23 47.5t38 42.5t55 31t74 12q86 0 133 -48q23 -23 35 -61t12 -98v-340h-39v327q0 49 -9 85t-30 59q-17 20 -44 30t-66 10q-43 0 -76.5 -17.5t-57 -50t-36 -78t-12.5 -101.5v-264h-39v608h-92v35h92v82h39v-82z" />
    <glyph glyph-name="hcircumflex" unicode="&#x125;" 
d="M157 414q8 24 23 47.5t38 42.5t55 31t74 12q86 0 133 -48q23 -23 35 -61t12 -98v-340h-39v327q0 49 -9 85t-30 59q-17 20 -44 30t-66 10q-43 0 -76.5 -17.5t-57 -50t-36 -78t-12.5 -101.5v-264h-39v725h39v-311zM301 761h-47l-115 83l-115 -83h-47l138 113h50z" />
    <glyph glyph-name="dotlessi" unicode="&#x131;" 
d="M342 538v-504h204v-34h-448v34h205v470h-183v34h222z" />
    <glyph glyph-name="ibreve" unicode="&#x12d;" 
d="M342 538v-504h204v-34h-448v34h205v470h-183v34h222zM465 725q-9 -130 -142 -130q-66 0 -102 32.5t-40 97.5h36q5 -55 31.5 -76.5t74.5 -21.5t75 21.5t33 76.5h34v0z" />
    <glyph glyph-name="imacron" unicode="&#x12b;" 
d="M342 538v-504h204v-34h-448v34h205v470h-183v34h222zM192 638v35h261v-35h-261z" />
    <glyph glyph-name="iogonek" unicode="&#x12f;" 
d="M342 538v-504h204v-34h-448v34h205v470h-183v34h222zM342 725v-95h-39v95h39zM344 0q-39 -19 -66.5 -39.5t-27.5 -45.5q0 -20 15.5 -31t43.5 -11q17 0 35 5v-33q-11 -3 -22 -4t-22 -1q-17 0 -33.5 4t-29 12t-20.5 21.5t-8 32.5q0 15 8.5 29t22.5 25.5t31 20.5t34 15h39z
" />
    <glyph glyph-name="itilde" unicode="&#x129;" 
d="M342 538v-504h204v-34h-448v34h205v470h-183v34h222zM395 648q24 0 37.5 15t18.5 43h35q-8 -45 -31 -69t-58 -24q-22 0 -41 9t-36.5 20.5t-34.5 20.5t-35 9q-24 0 -36.5 -15.5t-17.5 -43.5h-36q7 45 31 69t58 24q23 0 42.5 -9t36.5 -20t33.5 -20t33.5 -9z" />
    <glyph glyph-name="uni1ECB" unicode="&#x1ecb;" 
d="M342 538v-504h204v-34h-448v34h205v470h-183v34h222zM342 725v-95h-39v95h39zM342 -79v-95h-39v95h39z" />
    <glyph glyph-name="dotlessj" unicode="&#x237;" 
d="M472 538v-586q0 -36 -4.5 -60.5t-16.5 -39t-34 -21t-58 -6.5h-162v35h148q30 0 47.5 4t26.5 14.5t11.5 29t2.5 47.5v549h-183v34h222z" />
    <glyph glyph-name="jcircumflex" unicode="&#x135;" 
d="M472 538v-586q0 -36 -4.5 -60.5t-16.5 -39t-34 -21t-58 -6.5h-162v35h148q30 0 47.5 4t26.5 14.5t11.5 29t2.5 47.5v549h-183v34h222zM529 609h-39l-117 82l-118 -82h-39l138 116h38z" />
    <glyph glyph-name="kcommaaccent" unicode="&#x137;" 
d="M165 725v-484l273 297h47l-204 -220l239 -318h-46l-218 290l-91 -99v-191h-39v725h39zM325 -39v-11q0 -25 -1.5 -48t-9 -41t-22 -29.5t-40.5 -13.5v39q22 5 28 25t6 67v12h39z" />
    <glyph glyph-name="lacute" unicode="&#x13a;" 
d="M346 725v-691h204v-34h-448v34h205v657h-183v34h222zM347 761h-43l123 113h64z" />
    <glyph glyph-name="lcaron" unicode="&#x13e;" 
d="M440 555h-26l30 170h46zM346 725v-691h204v-34h-448v34h205v657h-183v34h222z" />
    <glyph glyph-name="lcommaaccent" unicode="&#x13c;" 
d="M346 725v-691h204v-34h-448v34h205v657h-183v34h222zM347 -39v-11q0 -25 -1.5 -48t-9 -41t-22 -29.5t-40.5 -13.5v39q22 5 28 25t6 67v12h39z" />
    <glyph glyph-name="ldot" unicode="&#x140;" 
d="M634 425v-95h-39v95h39zM346 725v-691h204v-34h-448v34h205v657h-183v34h222z" />
    <glyph glyph-name="lslash" unicode="&#x142;" 
d="M346 725v-308l200 87v-41l-200 -87v-342h204v-34h-448v34h205v325l-209 -91v41l209 91v291h-183v34h222z" />
    <glyph glyph-name="nacute" unicode="&#x144;" 
d="M157 414q8 24 23 47.5t38 42.5t55 31t74 12q86 0 133 -48q23 -23 35 -61t12 -98v-340h-39v327q0 49 -9 85t-30 59q-17 20 -44 30t-66 10q-43 0 -76.5 -17.5t-57 -50t-36 -78t-12.5 -101.5v-264h-39v538h39v-124zM339 608h-38l110 116h58z" />
    <glyph glyph-name="ncaron" unicode="&#x148;" 
d="M157 414q8 24 23 47.5t38 42.5t55 31t74 12q86 0 133 -48q23 -23 35 -61t12 -98v-340h-39v327q0 49 -9 85t-30 59q-17 20 -44 30t-66 10q-43 0 -76.5 -17.5t-57 -50t-36 -78t-12.5 -101.5v-264h-39v538h39v-124zM166 725h39l117 -81l118 81h39l-138 -116h-38z" />
    <glyph glyph-name="ncommaaccent" unicode="&#x146;" 
d="M157 414q8 24 23 47.5t38 42.5t55 31t74 12q86 0 133 -48q23 -23 35 -61t12 -98v-340h-39v327q0 49 -9 85t-30 59q-17 20 -44 30t-66 10q-43 0 -76.5 -17.5t-57 -50t-36 -78t-12.5 -101.5v-264h-39v538h39v-124zM359 -39v-11q0 -25 -1.5 -48t-9 -41t-22 -29.5
t-40.5 -13.5v39q22 5 28 25t6 67v12h39z" />
    <glyph glyph-name="oe" unicode="&#x153;" 
d="M459 -13q-57 0 -90.5 28t-50.5 79q-15 -51 -46 -79t-87 -28q-47 0 -77 20.5t-47 57t-23 87t-6 111.5q0 60 6 112.5t23 90.5t47 60t77 22q57 0 89 -29.5t47 -80.5q17 51 50.5 79.5t88.5 28.5q45 0 75 -21.5t48 -60t24.5 -91t5.5 -113.5h-274q-2 -118 26.5 -177.5
t94.5 -59.5q53 0 75.5 34.5t32.5 101.5l38 -5q-7 -39 -18 -69.5t-28 -52.5t-42 -33.5t-59 -11.5zM300 263q0 59 -5.5 105.5t-19 78.5t-35.5 48.5t-55 16.5t-54.5 -16.5t-35 -48.5t-19 -78.5t-5.5 -105.5q0 -119 24.5 -179.5t89.5 -60.5q62 0 87.5 57.5t27.5 182.5zM573 295
q0 41 -4.5 80t-17 69t-34.5 48.5t-58 18.5q-30 0 -52 -16t-36.5 -44.5t-22 -68t-9.5 -87.5h234z" />
    <glyph glyph-name="obreve" unicode="&#x14f;" 
d="M130 267q0 -62 14.5 -107.5t40 -76t61 -45.5t76.5 -15q42 0 77 15t61 45.5t40.5 76t14.5 107.5q0 61 -14.5 107t-40.5 76.5t-61 45.5t-77 15q-41 0 -76.5 -15t-61 -45.5t-40 -76.5t-14.5 -107zM89 267q0 71 18.5 123.5t50 87.5t74 52t90.5 17q49 0 91.5 -17t74.5 -52
t50.5 -87.5t18.5 -123.5t-18.5 -124t-50.5 -87.5t-74.5 -51.5t-91.5 -17q-48 0 -90.5 17t-74 51.5t-50 87.5t-18.5 124zM465 725q-9 -130 -142 -130q-66 0 -102 32.5t-40 97.5h36q5 -55 31.5 -76.5t74.5 -21.5t75 21.5t33 76.5h34v0z" />
    <glyph glyph-name="ohungarumlaut" unicode="&#x151;" 
d="M130 267q0 -62 14.5 -107.5t40 -76t61 -45.5t76.5 -15q42 0 77 15t61 45.5t40.5 76t14.5 107.5q0 61 -14.5 107t-40.5 76.5t-61 45.5t-77 15q-41 0 -76.5 -15t-61 -45.5t-40 -76.5t-14.5 -107zM89 267q0 71 18.5 123.5t50 87.5t74 52t90.5 17q49 0 91.5 -17t74.5 -52
t50.5 -87.5t18.5 -123.5t-18.5 -124t-50.5 -87.5t-74.5 -51.5t-91.5 -17q-48 0 -90.5 17t-74 51.5t-50 87.5t-18.5 124zM250 609h-38l110 116h58zM419 609h-39l111 116h58z" />
    <glyph glyph-name="omacron" unicode="&#x14d;" 
d="M130 267q0 -62 14.5 -107.5t40 -76t61 -45.5t76.5 -15q42 0 77 15t61 45.5t40.5 76t14.5 107.5q0 61 -14.5 107t-40.5 76.5t-61 45.5t-77 15q-41 0 -76.5 -15t-61 -45.5t-40 -76.5t-14.5 -107zM89 267q0 71 18.5 123.5t50 87.5t74 52t90.5 17q49 0 91.5 -17t74.5 -52
t50.5 -87.5t18.5 -123.5t-18.5 -124t-50.5 -87.5t-74.5 -51.5t-91.5 -17q-48 0 -90.5 17t-74 51.5t-50 87.5t-18.5 124zM192 638v35h261v-35h-261z" />
    <glyph glyph-name="uni1ECD" unicode="&#x1ecd;" 
d="M130 267q0 -62 14.5 -107.5t40 -76t61 -45.5t76.5 -15q42 0 77 15t61 45.5t40.5 76t14.5 107.5q0 61 -14.5 107t-40.5 76.5t-61 45.5t-77 15q-41 0 -76.5 -15t-61 -45.5t-40 -76.5t-14.5 -107zM89 267q0 71 18.5 123.5t50 87.5t74 52t90.5 17q49 0 91.5 -17t74.5 -52
t50.5 -87.5t18.5 -123.5t-18.5 -124t-50.5 -87.5t-74.5 -51.5t-91.5 -17q-48 0 -90.5 17t-74 51.5t-50 87.5t-18.5 124zM342 -79v-95h-39v95h39z" />
    <glyph glyph-name="racute" unicode="&#x155;" 
d="M307 538v-110q15 48 56.5 79t105.5 31h111v-38h-116q-47 0 -77.5 -18.5t-48 -52t-24.5 -80t-7 -102.5v-213h226v-34h-470v34h205v470h-183v34h222zM350 608h-38l110 116h58z" />
    <glyph glyph-name="rcaron" unicode="&#x159;" 
d="M307 538v-110q15 48 56.5 79t105.5 31h111v-38h-116q-47 0 -77.5 -18.5t-48 -52t-24.5 -80t-7 -102.5v-213h226v-34h-470v34h205v470h-183v34h222zM186 725h39l117 -81l118 81h39l-138 -116h-38z" />
    <glyph glyph-name="rcommaaccent" unicode="&#x157;" 
d="M307 538v-110q15 48 56.5 79t105.5 31h111v-38h-116q-47 0 -77.5 -18.5t-48 -52t-24.5 -80t-7 -102.5v-213h226v-34h-470v34h205v470h-183v34h222zM309 -39v-11q0 -25 -1.5 -48t-9 -41t-22 -29.5t-40.5 -13.5v39q22 5 28 25t6 67v12h39z" />
    <glyph glyph-name="sacute" unicode="&#x15b;" 
d="M482 401q-16 60 -59.5 85.5t-106.5 25.5q-24 0 -51 -6t-49.5 -18t-37 -31t-14.5 -46q0 -45 30 -69t81 -35l80 -15q35 -7 67.5 -17.5t57 -27.5t39.5 -42t15 -61q0 -39 -16.5 -68t-44.5 -49t-65.5 -30t-79.5 -10q-93 0 -147.5 45t-68.5 126h40q14 -63 58 -99t122 -36
q28 0 56.5 6.5t51.5 20.5t38 35.5t15 52.5q0 27 -10.5 46.5t-30 33t-46 22t-57.5 14.5l-83 16q-65 13 -103.5 46.5t-38.5 92.5q0 31 15.5 57t42.5 44t62.5 28t75.5 10q85 0 136.5 -39t64.5 -108h-39zM320 608h-38l110 116h58z" />
    <glyph glyph-name="scaron" unicode="&#x161;" 
d="M482 401q-16 60 -59.5 85.5t-106.5 25.5q-24 0 -51 -6t-49.5 -18t-37 -31t-14.5 -46q0 -45 30 -69t81 -35l80 -15q35 -7 67.5 -17.5t57 -27.5t39.5 -42t15 -61q0 -39 -16.5 -68t-44.5 -49t-65.5 -30t-79.5 -10q-93 0 -147.5 45t-68.5 126h40q14 -63 58 -99t122 -36
q28 0 56.5 6.5t51.5 20.5t38 35.5t15 52.5q0 27 -10.5 46.5t-30 33t-46 22t-57.5 14.5l-83 16q-65 13 -103.5 46.5t-38.5 92.5q0 31 15.5 57t42.5 44t62.5 28t75.5 10q85 0 136.5 -39t64.5 -108h-39zM166 725h39l117 -81l118 81h39l-138 -116h-38z" />
    <glyph glyph-name="scedilla" unicode="&#x15f;" 
d="M482 401q-16 60 -59.5 85.5t-106.5 25.5q-24 0 -51 -6t-49.5 -18t-37 -31t-14.5 -46q0 -45 30 -69t81 -35l80 -15q35 -7 67.5 -17.5t57 -27.5t39.5 -42t15 -61q0 -39 -16.5 -68t-44.5 -49t-65.5 -30t-79.5 -10q-93 0 -147.5 45t-68.5 126h40q14 -63 58 -99t122 -36
q28 0 56.5 6.5t51.5 20.5t38 35.5t15 52.5q0 27 -10.5 46.5t-30 33t-46 22t-57.5 14.5l-83 16q-65 13 -103.5 46.5t-38.5 92.5q0 31 15.5 57t42.5 44t62.5 28t75.5 10q85 0 136.5 -39t64.5 -108h-39zM274 -140q11 -5 26 -8t29 -3q23 0 43.5 9t20.5 33q0 21 -15.5 30t-35.5 9
q-25 0 -43 -9l-14 14l47 76h30l-33 -56q15 3 28 3q32 0 52 -16.5t20 -47.5q0 -20 -8.5 -34t-22 -23t-30.5 -13t-35 -4q-17 0 -34 2.5t-34 8.5z" />
    <glyph glyph-name="scircumflex" unicode="&#x15d;" 
d="M482 401q-16 60 -59.5 85.5t-106.5 25.5q-24 0 -51 -6t-49.5 -18t-37 -31t-14.5 -46q0 -45 30 -69t81 -35l80 -15q35 -7 67.5 -17.5t57 -27.5t39.5 -42t15 -61q0 -39 -16.5 -68t-44.5 -49t-65.5 -30t-79.5 -10q-93 0 -147.5 45t-68.5 126h40q14 -63 58 -99t122 -36
q28 0 56.5 6.5t51.5 20.5t38 35.5t15 52.5q0 27 -10.5 46.5t-30 33t-46 22t-57.5 14.5l-83 16q-65 13 -103.5 46.5t-38.5 92.5q0 31 15.5 57t42.5 44t62.5 28t75.5 10q85 0 136.5 -39t64.5 -108h-39zM479 609h-39l-117 82l-118 -82h-39l138 116h38z" />
    <glyph glyph-name="scommaaccent" unicode="&#x219;" 
d="M482 401q-16 60 -59.5 85.5t-106.5 25.5q-24 0 -51 -6t-49.5 -18t-37 -31t-14.5 -46q0 -45 30 -69t81 -35l80 -15q35 -7 67.5 -17.5t57 -27.5t39.5 -42t15 -61q0 -39 -16.5 -68t-44.5 -49t-65.5 -30t-79.5 -10q-93 0 -147.5 45t-68.5 126h40q14 -63 58 -99t122 -36
q28 0 56.5 6.5t51.5 20.5t38 35.5t15 52.5q0 27 -10.5 46.5t-30 33t-46 22t-57.5 14.5l-83 16q-65 13 -103.5 46.5t-38.5 92.5q0 31 15.5 57t42.5 44t62.5 28t75.5 10q85 0 136.5 -39t64.5 -108h-39zM350 -39v-11q0 -25 -1.5 -48t-9 -41t-22 -29.5t-40.5 -13.5v39
q22 5 28 25t6 67v12h39z" />
    <glyph glyph-name="tcaron" unicode="&#x165;" 
d="M548 555h-26l30 170h46zM236 670h39v-132h252v-34h-252v-368q0 -32 2 -51.5t10 -31t25.5 -15.5t48.5 -4h166v-34h-178q-35 0 -57 4.5t-34.5 18t-17 37.5t-4.5 62v382h-186v34h186v132z" />
    <glyph glyph-name="uni0163" unicode="&#x163;" 
d="M236 670h39v-132h252v-34h-252v-368q0 -32 2 -51.5t10 -31t25.5 -15.5t48.5 -4h166v-34h-178q-35 0 -57 4.5t-34.5 18t-17 37.5t-4.5 62v382h-186v34h186v132zM291 -39v-11q0 -25 -1.5 -48t-9 -41t-22 -29.5t-40.5 -13.5v39q22 5 28 25t6 67v12h39z" />
    <glyph glyph-name="tcommaaccent" unicode="&#x21b;" 
d="M236 670h39v-132h252v-34h-252v-368q0 -32 2 -51.5t10 -31t25.5 -15.5t48.5 -4h166v-34h-178q-35 0 -57 4.5t-34.5 18t-17 37.5t-4.5 62v382h-186v34h186v132zM291 -39v-11q0 -25 -1.5 -48t-9 -41t-22 -29.5t-40.5 -13.5v39q22 5 28 25t6 67v12h39z" />
    <glyph glyph-name="ubreve" unicode="&#x16d;" 
d="M477 116q-8 -23 -22 -45.5t-35.5 -41.5t-52.5 -30.5t-73 -11.5q-54 0 -88 16.5t-54 47.5q-17 26 -24.5 64.5t-7.5 95.5v327h39v-328q0 -48 5.5 -81.5t21.5 -56.5q15 -23 42 -36.5t71 -13.5q42 0 75.5 17.5t56 49.5t34.5 77t12 101v271h39v-538h-39v116zM462 725
q-9 -130 -142 -130q-66 0 -102 32.5t-40 97.5h36q5 -55 31.5 -76.5t74.5 -21.5t75 21.5t33 76.5h34v0z" />
    <glyph glyph-name="uhungarumlaut" unicode="&#x171;" 
d="M477 116q-8 -23 -22 -45.5t-35.5 -41.5t-52.5 -30.5t-73 -11.5q-54 0 -88 16.5t-54 47.5q-17 26 -24.5 64.5t-7.5 95.5v327h39v-328q0 -48 5.5 -81.5t21.5 -56.5q15 -23 42 -36.5t71 -13.5q42 0 75.5 17.5t56 49.5t34.5 77t12 101v271h39v-538h-39v116zM220 609h-38
l110 116h58zM389 609h-39l111 116h58z" />
    <glyph glyph-name="umacron" unicode="&#x16b;" 
d="M477 116q-8 -23 -22 -45.5t-35.5 -41.5t-52.5 -30.5t-73 -11.5q-54 0 -88 16.5t-54 47.5q-17 26 -24.5 64.5t-7.5 95.5v327h39v-328q0 -48 5.5 -81.5t21.5 -56.5q15 -23 42 -36.5t71 -13.5q42 0 75.5 17.5t56 49.5t34.5 77t12 101v271h39v-538h-39v116zM189 638v35h261
v-35h-261z" />
    <glyph glyph-name="uogonek" unicode="&#x173;" 
d="M477 116q-8 -23 -22 -45.5t-35.5 -41.5t-52.5 -30.5t-73 -11.5q-54 0 -88 16.5t-54 47.5q-17 26 -24.5 64.5t-7.5 95.5v327h39v-328q0 -48 5.5 -81.5t21.5 -56.5q15 -23 42 -36.5t71 -13.5q42 0 75.5 17.5t56 49.5t34.5 77t12 101v271h39v-538h-39v116zM516 0
q-39 -19 -66.5 -39.5t-27.5 -45.5q0 -20 15.5 -31t43.5 -11q17 0 35 5v-33q-11 -3 -22 -4t-22 -1q-17 0 -33.5 4t-29 12t-20.5 21.5t-8 32.5q0 15 8.5 29t22.5 25.5t31 20.5t34 15h39z" />
    <glyph glyph-name="uring" unicode="&#x16f;" 
d="M477 116q-8 -23 -22 -45.5t-35.5 -41.5t-52.5 -30.5t-73 -11.5q-54 0 -88 16.5t-54 47.5q-17 26 -24.5 64.5t-7.5 95.5v327h39v-328q0 -48 5.5 -81.5t21.5 -56.5q15 -23 42 -36.5t71 -13.5q42 0 75.5 17.5t56 49.5t34.5 77t12 101v271h39v-538h-39v116zM320 759
q35 0 61 -23.5t26 -58.5q0 -36 -26 -59t-61 -23q-37 0 -62 23t-25 59q0 35 25 58.5t62 23.5zM320 732q-22 0 -39 -15t-17 -40t17 -40t39 -15t39 15t17 40t-17 40t-39 15z" />
    <glyph glyph-name="utilde" unicode="&#x169;" 
d="M477 116q-8 -23 -22 -45.5t-35.5 -41.5t-52.5 -30.5t-73 -11.5q-54 0 -88 16.5t-54 47.5q-17 26 -24.5 64.5t-7.5 95.5v327h39v-328q0 -48 5.5 -81.5t21.5 -56.5q15 -23 42 -36.5t71 -13.5q42 0 75.5 17.5t56 49.5t34.5 77t12 101v271h39v-538h-39v116zM392 648
q24 0 37.5 15t18.5 43h35q-8 -45 -31 -69t-58 -24q-22 0 -41 9t-36.5 20.5t-34.5 20.5t-35 9q-24 0 -36.5 -15.5t-17.5 -43.5h-36q7 45 31 69t58 24q23 0 42.5 -9t36.5 -20t33.5 -20t33.5 -9z" />
    <glyph glyph-name="uni1EE5" unicode="&#x1ee5;" 
d="M477 116q-8 -23 -22 -45.5t-35.5 -41.5t-52.5 -30.5t-73 -11.5q-54 0 -88 16.5t-54 47.5q-17 26 -24.5 64.5t-7.5 95.5v327h39v-328q0 -48 5.5 -81.5t21.5 -56.5q15 -23 42 -36.5t71 -13.5q42 0 75.5 17.5t56 49.5t34.5 77t12 101v271h39v-538h-39v116zM339 -79v-95h-39
v95h39z" />
    <glyph glyph-name="wacute" unicode="&#x1e83;" 
d="M341 430l138 -376l93 484h39l-107 -538h-42l-140 382l-140 -382h-41l-107 538h39l92 -484l139 376h37zM344 608h-38l110 116h58z" />
    <glyph glyph-name="wcircumflex" unicode="&#x175;" 
d="M341 430l138 -376l93 484h39l-107 -538h-42l-140 382l-140 -382h-41l-107 538h39l92 -484l139 376h37zM479 609h-39l-117 82l-118 -82h-39l138 116h38z" />
    <glyph glyph-name="wdieresis" unicode="&#x1e85;" 
d="M341 430l138 -376l93 484h39l-107 -538h-42l-140 382l-140 -382h-41l-107 538h39l92 -484l139 376h37zM194 708h39v-95h-39v95zM452 708v-95h-40v95h40z" />
    <glyph glyph-name="wgrave" unicode="&#x1e81;" 
d="M341 430l138 -376l93 484h39l-107 -538h-42l-140 382l-140 -382h-41l-107 538h39l92 -484l139 376h37zM179 725h58l110 -116h-38z" />
    <glyph glyph-name="ycircumflex" unicode="&#x177;" 
d="M99 -175v34h74q21 0 35.5 2t26 11.5t22 28t24.5 51.5l23 53l-222 533h44l200 -485l195 485h43l-241 -591q-15 -38 -28 -61.5t-29 -37t-38 -18.5t-56 -5h-73zM479 609h-39l-117 82l-118 -82h-39l138 116h38z" />
    <glyph glyph-name="ygrave" unicode="&#x1ef3;" 
d="M99 -175v34h74q21 0 35.5 2t26 11.5t22 28t24.5 51.5l23 53l-222 533h44l200 -485l195 485h43l-241 -591q-15 -38 -28 -61.5t-29 -37t-38 -18.5t-56 -5h-73zM185 725h58l110 -116h-38z" />
    <glyph glyph-name="uni0233" unicode="&#x233;" 
d="M99 -175v34h74q21 0 35.5 2t26 11.5t22 28t24.5 51.5l23 53l-222 533h44l200 -485l195 485h43l-241 -591q-15 -38 -28 -61.5t-29 -37t-38 -18.5t-56 -5h-73zM192 638v35h261v-35h-261z" />
    <glyph glyph-name="zacute" unicode="&#x17a;" 
d="M121 33l351 469h-328v36h375v-33l-351 -469h357v-36h-404v33zM328 608h-38l110 116h58z" />
    <glyph glyph-name="zcaron" unicode="&#x17e;" 
d="M121 33l351 469h-328v36h375v-33l-351 -469h357v-36h-404v33zM166 725h39l117 -81l118 81h39l-138 -116h-38z" />
    <glyph glyph-name="zdotaccent" unicode="&#x17c;" 
d="M121 33l351 469h-328v36h375v-33l-351 -469h357v-36h-404v33zM342 708v-95h-39v95h39z" />
    <glyph glyph-name="ellipsis" unicode="&#x2026;" 
d="M89 0v104h39v-104h-39zM518 0v104h39v-104h-39zM303 0v104h39v-104h-39z" />
    <glyph glyph-name="endash" unicode="&#x2013;" 
d="M116 252v37h414v-37h-414z" />
    <glyph glyph-name="emdash" unicode="&#x2014;" 
d="M44 252v37h558v-37h-558z" />
    <glyph glyph-name="guilsinglleft" unicode="&#x2039;" 
d="M209 273l157 225h45l-154 -224l154 -226h-44z" />
    <glyph glyph-name="guilsinglright" unicode="&#x203a;" 
d="M279 48h-43l153 226l-153 224h44l157 -225z" />
    <glyph glyph-name="quoteleft" unicode="&#x2018;" 
d="M304 468v105q0 33 1.5 59.5t9 46.5t22 31.5t40.5 14.5v-38q-11 -3 -18 -9.5t-10.5 -19t-4.5 -33t-1 -51.5v-106h-39z" />
    <glyph glyph-name="quoteright" unicode="&#x2019;" 
d="M342 725v-104q0 -33 -1.5 -59.5t-9 -46.5t-22 -32t-40.5 -15v39q11 3 18 9.5t10.5 19t4.5 32.5t1 52v105h39z" />
    <glyph glyph-name="quotedblleft" unicode="&#x201c;" 
d="M229 468v105q0 33 1.5 59.5t9 46.5t22 31.5t40.5 14.5v-38q-11 -3 -18 -9.5t-10.5 -19t-4.5 -33t-1 -51.5v-106h-39zM380 468v105q0 33 1.5 59.5t9 46.5t22 31.5t40.5 14.5v-38q-11 -3 -18 -9.5t-10.5 -19t-4.5 -33t-1 -51.5v-106h-39z" />
    <glyph glyph-name="quotedblright" unicode="&#x201d;" 
d="M267 725v-104q0 -33 -1.5 -59.5t-9 -46.5t-22 -32t-40.5 -15v39q11 3 18 9.5t10.5 19t4.5 32.5t1 52v105h39zM418 725v-104q0 -33 -1.5 -59.5t-9 -46.5t-22 -32t-40.5 -15v39q11 3 18 9.5t10.5 19t4.5 32.5t1 52v105h39z" />
    <glyph glyph-name="quotesinglbase" unicode="&#x201a;" 
d="M342 104v-104q0 -33 -1.5 -59.5t-9 -46.5t-22 -32t-40.5 -15v39q11 3 18 9.5t10.5 19t4.5 32.5t1 52v105h39z" />
    <glyph glyph-name="quotedblbase" unicode="&#x201e;" 
d="M267 104v-104q0 -33 -1.5 -59.5t-9 -46.5t-22 -32t-40.5 -15v39q11 3 18 9.5t10.5 19t4.5 32.5t1 52v105h39zM418 104v-104q0 -33 -1.5 -59.5t-9 -46.5t-22 -32t-40.5 -15v39q11 3 18 9.5t10.5 19t4.5 32.5t1 52v105h39z" />
    <glyph glyph-name="bullet" unicode="&#x2022;" 
d="M143 279q0 37 14 69t38 56t56 38t68 14q39 0 73 -14t58.5 -38t38.5 -56t14 -69q0 -39 -14 -72.5t-38.5 -58t-58.5 -38.5t-73 -14q-36 0 -68 14t-56 38.5t-38 58t-14 72.5z" />
    <glyph glyph-name="minus" unicode="&#x2212;" 
d="M68 251v37h510v-37h-510z" />
    <glyph glyph-name="Euro" unicode="&#x20ac;" 
d="M589 212q-15 -107 -74.5 -166t-162.5 -59q-56 0 -98.5 21t-71.5 58.5t-46.5 90t-24.5 115.5h-109l30 36h75q-1 14 -1 27.5v27.5v33t2 32h-106l30 36h80q7 61 25 111.5t48 86.5t71.5 56t97.5 20q100 0 158.5 -60.5t73.5 -170.5h-43q-14 94 -63.5 143.5t-126.5 49.5
q-85 0 -134 -62.5t-63 -173.5h279l-31 -36h-252q-1 -16 -1.5 -32t-0.5 -33v-28t1 -27h172l-30 -36h-138q7 -57 22.5 -102.5t40 -77.5t58 -49t76.5 -17q88 0 134.5 49.5t59.5 136.5h43z" />
    <glyph glyph-name="fi" unicode="&#xfb01;" 
d="M133 608q0 33 5 55t17.5 36t35.5 20t59 6h174v-35h-160q-31 0 -49.5 -3t-28 -13t-12 -27.5t-2.5 -45.5v-63h361v-538h-39v504h-322v-504h-39v504h-100v34h100v70zM533 725v-95h-39v95h39z" />
    <glyph glyph-name="fl" unicode="&#xfb02;" 
d="M133 608q0 33 5 55t17.5 36t35.5 20t59 6h283v-725h-39v690h-230q-31 0 -49.5 -3t-28 -13t-12 -27.5t-2.5 -45.5v-63h225v-34h-225v-504h-39v504h-100v34h100v70z" />
    <glyph glyph-name="breve" unicode="&#x2d8;" 
d="M465 725q-9 -130 -142 -130q-66 0 -102 32.5t-40 97.5h36q5 -55 31.5 -76.5t74.5 -21.5t75 21.5t33 76.5h34v0z" />
    <glyph glyph-name="caron" unicode="&#x2c7;" 
d="M166 725h39l117 -81l118 81h39l-138 -116h-38z" />
    <glyph glyph-name="circumflex" unicode="&#x2c6;" 
d="M479 609h-39l-117 82l-118 -82h-39l138 116h38z" />
    <glyph glyph-name="dotaccent" unicode="&#x2d9;" 
d="M342 708v-95h-39v95h39z" />
    <glyph glyph-name="dot" 
d="M342 725v-95h-39v95h39z" />
    <glyph glyph-name="hungarumlaut" unicode="&#x2dd;" 
d="M192 609h-38l110 116h58zM361 609h-39l111 116h58z" />
    <glyph glyph-name="commaaccent" 
d="M359 -39v-11q0 -25 -1.5 -48t-9 -41t-22 -29.5t-40.5 -13.5v39q22 5 28 25t6 67v12h39z" />
    <glyph glyph-name="ogonek" unicode="&#x2db;" 
d="M390 0q-39 -19 -66.5 -39.5t-27.5 -45.5q0 -20 15.5 -31t43.5 -11q17 0 35 5v-33q-11 -3 -22 -4t-22 -1q-17 0 -33.5 4t-29 12t-20.5 21.5t-8 32.5q0 15 8.5 29t22.5 25.5t31 20.5t34 15h39z" />
    <glyph glyph-name="ring" unicode="&#x2da;" 
d="M323 759q35 0 61 -23.5t26 -58.5q0 -36 -26 -59t-61 -23q-37 0 -62 23t-25 59q0 35 25 58.5t62 23.5zM323 732q-22 0 -39 -15t-17 -40t17 -40t39 -15t39 15t17 40t-17 40t-39 15z" />
    <glyph glyph-name="tilde" unicode="&#x2dc;" 
d="M395 648q24 0 37.5 15t18.5 43h35q-8 -45 -31 -69t-58 -24q-22 0 -41 9t-36.5 20.5t-34.5 20.5t-35 9q-24 0 -36.5 -15.5t-17.5 -43.5h-36q7 45 31 69t58 24q23 0 42.5 -9t36.5 -20t33.5 -20t33.5 -9z" />
    <glyph glyph-name="caron.slovak" 
d="M311 555h-26l30 170h46z" />
    <glyph glyph-name="acute.case" 
d="M272 761h-43l123 113h64z" />
    <glyph glyph-name="breve.case" 
d="M465 874q-4 -54 -42 -85.5t-101 -31.5q-60 0 -98.5 31.5t-42.5 85.5h37q3 -23 12.5 -39.5t23.5 -26.5t32 -14.5t37 -4.5t37 4.5t32 14.5t23.5 26.5t12.5 39.5h37z" />
    <glyph glyph-name="caron.case" 
d="M161 874h47l115 -83l115 83h47l-138 -113h-49z" />
    <glyph glyph-name="cedilla.case" 
d="M250 -140q11 -5 26 -8t29 -3q23 0 43.5 9t20.5 33q0 21 -15.5 30t-35.5 9q-25 0 -43 -9l-14 14l47 76h30l-33 -56q15 3 28 3q32 0 52 -16.5t20 -47.5q0 -20 -8.5 -34t-22 -23t-30.5 -13t-35 -4q-17 0 -34 2.5t-34 8.5z" />
    <glyph glyph-name="circumflex.case" 
d="M485 761h-47l-115 83l-115 -83h-47l138 113h50z" />
    <glyph glyph-name="dieresis.case" 
d="M235 865v-95h-41v95h41zM452 865v-95h-42v95h42z" />
    <glyph glyph-name="dotaccent.case" 
d="M343 865v-95h-40v95h40z" />
    <glyph glyph-name="grave.case" 
d="M230 874h63l124 -113h-43z" />
    <glyph glyph-name="hungarumlaut.case" 
d="M185 761h-43l124 113h63zM359 761h-43l124 113h64z" />
    <glyph glyph-name="macron.case" 
d="M187 801v39h271v-39h-271z" />
    <glyph glyph-name="ogonek.case" 
d="M392 10q-40 -19 -67 -39.5t-27 -45.5q0 -42 56 -42q18 0 36 5v-33q-11 -3 -22 -4t-23 -1q-17 0 -33.5 4t-29 12t-20.5 21.5t-8 32.5q0 15 9 29.5t23 26.5t31 21t34 15z" />
    <glyph glyph-name="ring.case" 
d="M323 920q35 0 60.5 -22.5t25.5 -58.5t-25.5 -59t-60.5 -23q-37 0 -62 23t-25 59t25 58.5t62 22.5zM323 892q-22 0 -38.5 -14t-16.5 -39q0 -26 16.5 -39.5t38.5 -13.5q21 0 37 13.5t16 39.5q0 25 -16 39t-37 14z" />
    <glyph glyph-name="tilde.case" 
d="M395 806q23 0 36.5 15t19.5 43h34q-7 -45 -29.5 -69t-59.5 -24q-22 0 -40.5 9t-36 20.5t-34.5 20.5t-35 9q-23 0 -36.5 -15.5t-18.5 -43.5h-34q6 45 30.5 69t58.5 24q23 0 42 -9t36 -20t33.5 -20t33.5 -9z" />
  </font>
</defs>
</svg>
