<?xml version="1.0" standalone="no"?>
<!DOCTYPE svg PUBLIC "-//W3C//DTD SVG 1.1//EN" "http://www.w3.org/Graphics/SVG/1.1/DTD/svg11.dtd" >
<svg xmlns="http://www.w3.org/2000/svg" xmlns:xlink="http://www.w3.org/1999/xlink" version="1.1">
<metadata>
Created by Christoph Koeberlin (http://christoph.koe.berlin)
Copyright (c) 2014 Swiss Typefaces Sa`rl. All rights reserved.
</metadata>
<defs>
<font id="Font" horiz-adv-x="646" >
  <font-face 
    font-family="Font"
    font-weight="700"
    font-stretch="normal"
    units-per-em="1000"
    panose-1="2 11 8 9 0 0 0 0 0 0"
    ascent="800"
    descent="-200"
    x-height="538"
    cap-height="725"
    bbox="-53 -231 727 921"
    underline-thickness="100"
    underline-position="-10"
    unicode-range="U+000D-FB02"
  />
<missing-glyph 
d="M73 725h500v-725h-500v725zM92 696v-667l220 333zM554 29v667l-221 -334zM106 19h433l-216 327zM323 378l216 328h-433z" />
    <glyph glyph-name=".notdef" 
d="M73 725h500v-725h-500v725zM92 696v-667l220 333zM554 29v667l-221 -334zM106 19h433l-216 327zM323 378l216 328h-433z" />
    <glyph glyph-name=".null" 
 />
    <glyph glyph-name="nonmarkingreturn" unicode="&#xd;" 
 />
    <glyph glyph-name="space" unicode=" " 
 />
    <glyph glyph-name="exclam" unicode="!" 
d="M279 231l-49 296v198h186v-198l-49 -296h-88zM230 0v178h186v-178h-186z" />
    <glyph glyph-name="quotedbl" unicode="&#x22;" 
d="M313 725l-20 -259h-106l-19 259h145zM478 725l-20 -259h-106l-19 259h145z" />
    <glyph glyph-name="numbersign" unicode="#" 
d="M204 528l28 197h89l-28 -197h104l28 197h90l-28 -197h127l-14 -87h-125l-18 -132h125l-14 -87h-123l-30 -222h-90l30 222h-104l-30 -222h-89l30 222h-130l13 87h129l18 132h-129l14 87h127zM263 309h104l18 132h-104z" />
    <glyph glyph-name="dollar" unicode="$" 
d="M72 528q0 49 18 86t48.5 62.5t69.5 40t81 19.5v79h58v-78q42 -3 81 -18t69.5 -42.5t51 -69t26.5 -98.5h-144q-6 45 -27.5 74t-56.5 38v-184l29 -7q36 -9 74 -23.5t69 -39.5t51 -62.5t20 -92.5q0 -59 -21 -101t-55.5 -69.5t-78 -40.5t-88.5 -14v-99h-58v103
q-99 14 -158.5 80t-70.5 169h145q6 -48 27 -82t57 -49v198l-30 8q-36 9 -70 27t-60 44.5t-41.5 61.5t-15.5 80zM441 188q0 74 -94 103v-191q40 2 67 25.5t27 62.5zM220 542q0 -30 16.5 -52.5t52.5 -36.5v169q-31 -7 -50 -28.5t-19 -51.5z" />
    <glyph glyph-name="percent" unicode="%" 
d="M165 405q-67 0 -100 45t-33 122q0 75 33 120t100 45q66 0 99 -45t33 -120q0 -77 -33 -122t-99 -45zM165 476q26 0 39 23t13 73q0 49 -13 71.5t-39 22.5t-39.5 -22.5t-13.5 -71.5q0 -50 13.5 -73t39.5 -23zM21 0l500 725h104l-500 -725h-104zM487 -13q-66 0 -99 45.5
t-33 121.5q0 75 33 120.5t99 45.5q67 0 100 -45.5t33 -120.5q0 -76 -33 -121.5t-100 -45.5zM487 58q26 0 39.5 23t13.5 73t-13.5 72.5t-39.5 22.5t-39 -22.5t-13 -72.5t13 -73t39 -23z" />
    <glyph glyph-name="ampersand" unicode="&#x26;" 
d="M240 -13q-54 0 -95 17.5t-68.5 47.5t-41.5 70t-14 84q0 36 11 67t30 56t43.5 44.5t50.5 33.5q-34 50 -46 89t-12 80q0 34 14 63.5t39.5 51.5t60 34.5t76.5 12.5q33 0 65 -9.5t58 -29.5t42 -51t16 -75q0 -30 -10.5 -58t-28 -52t-41.5 -44t-51 -34l87 -114q24 70 26 153
h129q-2 -66 -22 -132.5t-54 -123.5l129 -168h-164l-47 61q-38 -37 -81.5 -55.5t-100.5 -18.5zM262 90q32 0 54.5 15t40.5 40l-137 176q-29 -22 -41.5 -53.5t-12.5 -64.5q0 -20 6.5 -40t18.5 -36.5t30 -26.5t41 -10zM230 578q0 -23 9 -48t38 -65q33 18 52.5 48t19.5 63
q0 29 -17 44.5t-40 15.5q-26 0 -44 -15t-18 -43z" />
    <glyph glyph-name="quotesingle" unicode="'" 
d="M395 725l-20 -259h-106l-19 259h145z" />
    <glyph glyph-name="parenleft" unicode="(" 
d="M191 275q0 75 13 142.5t33.5 125t44.5 104t46 79.5h126q-25 -41 -47 -91t-38.5 -107t-26 -120.5t-9.5 -132.5t9.5 -132.5t26 -120.5t38.5 -106.5t47 -90.5h-126q-22 33 -46 79.5t-44.5 104t-33.5 124.5t-13 142z" />
    <glyph glyph-name="parenright" unicode=")" 
d="M455 275q0 -75 -13 -142t-33 -124.5t-44.5 -104t-47.5 -79.5h-125q25 41 47 90.5t38.5 106.5t26 120.5t9.5 132.5t-9.5 132.5t-26 120.5t-38.5 106.5t-47 90.5h125q23 -33 47.5 -79t44.5 -104t33 -125t13 -142z" />
    <glyph glyph-name="asterisk" unicode="*" 
d="M367 621l99 38l34 -86l-103 -36l62 -85l-72 -54l-65 88l-59 -88l-79 53l62 85l-100 37l32 86l97 -38v104h92v-104z" />
    <glyph glyph-name="plus" unicode="+" 
d="M261 0v207h-216v120h216v211h124v-211h216v-120h-216v-207h-124z" />
    <glyph glyph-name="comma" unicode="," 
d="M230 178h186v-188l-104 -148h-97l87 158h-72v178z" />
    <glyph glyph-name="hyphen" unicode="-" 
d="M146 196v139h354v-139h-354z" />
    <glyph glyph-name="period" unicode="." 
d="M230 0v178h186v-178h-186z" />
    <glyph glyph-name="slash" unicode="/" 
d="M119 0l280 725h128l-280 -725h-128z" />
    <glyph glyph-name="zero" unicode="0" 
d="M323 -13q-133 0 -198 97t-65 279q0 181 65 278t198 97t198 -97t65 -278q0 -182 -65 -279t-198 -97zM323 94q63 0 89 68.5t26 200.5v6l-227 -104q8 -85 34.5 -128t77.5 -43zM207 357l226 105q-8 84 -34 127t-76 43q-64 0 -90 -68.5t-26 -200.5v-6z" />
    <glyph glyph-name="one" unicode="1" 
d="M269 108v390h-199v108q60 1 100 8.5t66.5 22.5t41.5 36.5t25 51.5h110v-617h167v-108h-510v108h199z" />
    <glyph glyph-name="two" unicode="2" 
d="M332 735q49 0 92 -14t74 -40.5t49 -65.5t18 -88q0 -46 -16 -88.5t-45.5 -84t-71 -83t-92.5 -84.5l-79 -69h300v-118h-488v117l151 132q43 37 79 72.5t62.5 70t41 67.5t14.5 65q0 27 -8 46t-21 31t-29.5 17.5t-32.5 5.5q-48 0 -79.5 -40t-29.5 -121h-140q-2 67 16.5 118
t52.5 85.5t81 51.5t101 17z" />
    <glyph glyph-name="three" unicode="3" 
d="M199 228q6 -64 38 -99t82 -35q49 0 78.5 27t29.5 78t-37.5 79t-97.5 28h-42v129h37q61 0 96.5 26.5t35.5 80.5q0 38 -25 64t-75 26q-48 0 -76.5 -29.5t-34.5 -86.5h-142q6 54 27 95.5t55 69.5t79 42.5t98 14.5q42 0 84.5 -11t77 -34.5t56 -59.5t21.5 -85
q0 -28 -7.5 -53.5t-20 -46.5t-28.5 -37.5t-32 -27.5q24 -11 42 -29.5t31 -42t19.5 -49.5t6.5 -51q0 -56 -22 -98t-58.5 -70t-83 -42t-95.5 -14q-109 0 -178 61.5t-82 179.5h143v0z" />
    <glyph glyph-name="four" unicode="4" 
d="M169 277h179v254zM590 147h-98v-147h-144v147h-318v123l328 455h134v-448h98v-130z" />
    <glyph glyph-name="five" unicode="5" 
d="M321 94q48 0 80.5 37t32.5 109q0 36 -10 62.5t-26 43t-36 24.5t-41 8q-38 0 -66 -20t-42 -57l-131 15l60 409h409v-118h-294l-23 -150q29 22 62 30t65 8q43 0 82.5 -17t70 -49.5t48.5 -80t18 -108.5q0 -62 -21 -109.5t-57 -79.5t-83.5 -48t-99.5 -16q-109 0 -178.5 61.5
t-82.5 179.5h143q6 -64 38 -99t82 -35z" />
    <glyph glyph-name="six" unicode="6" 
d="M213 241q0 -67 31 -107t79 -40q46 0 77 40t31 107q0 65 -31 103t-77 38q-47 0 -78.5 -36.5t-31.5 -104.5zM332 633q-51 0 -85.5 -48t-35.5 -143q23 24 59.5 38t83.5 14q43 0 83 -17.5t71 -50.5t50 -80t19 -105q0 -57 -19.5 -104t-53.5 -80.5t-80.5 -51.5t-100.5 -18
q-68 0 -117 28t-81 76.5t-47.5 114.5t-15.5 143q0 80 16.5 150.5t50 123.5t86 84t124.5 31q55 0 97.5 -16.5t71 -45t44 -67t18.5 -81.5h-141q-5 54 -34 79.5t-63 25.5z" />
    <glyph glyph-name="seven" unicode="7" 
d="M65 725h526v-118q-78 -65 -132.5 -129t-89 -136t-51 -155.5t-17.5 -186.5h-154q0 100 23.5 190t64 167.5t93.5 140.5t113 109h-376v118z" />
    <glyph glyph-name="eight" unicode="8" 
d="M322 627q-21 0 -39.5 -6t-33 -18t-23 -29.5t-8.5 -39.5q0 -23 8.5 -41t23 -30.5t33 -19.5t39.5 -7t39.5 7t33 19.5t23 30.5t8.5 41q0 22 -8.5 39.5t-23 29.5t-33 18t-39.5 6zM322 738q55 0 100.5 -15t78 -41.5t50.5 -62t18 -76.5q0 -46 -17 -85.5t-51 -68.5
q49 -35 67 -79t18 -95q0 -54 -20.5 -96.5t-56.5 -72t-84 -44.5t-103 -15t-103 15t-83.5 44.5t-56 72t-20.5 96.5q0 51 17.5 95t67.5 79q-35 29 -51.5 68.5t-16.5 85.5q0 41 18 76.5t50.5 62t77.5 41.5t100 15zM322 98q50 0 83.5 32t33.5 85q0 54 -33.5 84t-83.5 30
t-83.5 -30t-33.5 -84q0 -53 33.5 -85t83.5 -32z" />
    <glyph glyph-name="nine" unicode="9" 
d="M432 487q0 66 -31 105.5t-79 39.5q-46 0 -76.5 -39.5t-30.5 -105.5q0 -65 30.5 -103.5t76.5 -38.5q48 0 79 36.5t31 105.5zM314 93q51 0 85 49t35 144q-23 -25 -59 -39t-84 -14q-43 0 -83 18t-71 51t-49.5 80t-18.5 105q0 57 19.5 103.5t53 79.5t80 50.5t100.5 17.5
q67 0 116.5 -26.5t82 -74.5t48 -114t15.5 -145q0 -80 -16.5 -151t-50.5 -124.5t-86.5 -84.5t-124.5 -31q-55 0 -97 17t-71 45.5t-44.5 67t-18.5 81.5h141q5 -54 34.5 -79.5t63.5 -25.5z" />
    <glyph glyph-name="colon" unicode=":" 
d="M230 360v178h186v-178h-186zM230 0v178h186v-178h-186z" />
    <glyph glyph-name="semicolon" unicode=";" 
d="M230 360v178h186v-178h-186zM230 178h186v-188l-104 -148h-97l87 158h-72v178z" />
    <glyph glyph-name="equal" unicode="=" 
d="M69 314v120h508v-120h-508zM69 104v121h508v-121h-508z" />
    <glyph glyph-name="question" unicode="?" 
d="M326 738q49 0 95.5 -11t82.5 -34t58 -58t22 -83q0 -45 -16.5 -74.5t-42 -51t-54.5 -38t-54.5 -35t-42 -42t-16.5 -58.5v-23h-146q-1 11 -1 20.5v19.5q0 43 16 72.5t40.5 51t53 37t53 32t40.5 35.5t16 47q0 35 -28 56.5t-78 21.5q-61 0 -96 -37.5t-35 -99.5h-144
q0 59 21 106t58 79.5t88 49.5t110 17zM193 0v178h186v-178h-186z" />
    <glyph glyph-name="at" unicode="@" 
d="M318 502q-21 0 -37.5 -14t-28 -36.5t-17.5 -51t-6 -57.5q0 -50 15.5 -80.5t46.5 -30.5q22 0 38.5 14.5t28 37.5t17.5 53t6 60q0 45 -16 75t-47 30zM472 156q-31 0 -53 24t-27 69q-17 -43 -47 -68.5t-72 -25.5q-24 0 -45.5 11.5t-38.5 35t-27 58.5t-10 82q0 43 11.5 85
t33.5 75.5t52 54t68 20.5q33 0 57 -21t35 -56l6 60h61l-24 -220q-1 -13 -3 -32.5t0 -37.5t9 -30.5t24 -12.5q15 0 28.5 14t24 38.5t16.5 57.5t6 71q-2 129 -62 194.5t-159 65.5q-55 0 -100 -24.5t-77.5 -67t-50 -100t-17.5 -122.5q0 -62 13.5 -116.5t40.5 -95t67 -64
t93 -23.5q37 0 78.5 11.5t74.5 33.5l24 -68q-41 -23 -89 -34t-88 -11q-69 0 -122.5 26t-90.5 74t-56.5 116t-19.5 153q0 80 25.5 150t69.5 121.5t102.5 81t124.5 29.5q57 0 110.5 -19t95 -59t66 -101.5t24.5 -146.5q0 -61 -12.5 -108.5t-34.5 -80.5t-51.5 -50t-63.5 -17z
" />
    <glyph glyph-name="A" unicode="A" 
d="M229 725h187l187 -725h-164l-33 151h-170l-33 -151h-160zM262 268h118l-58 266z" />
    <glyph glyph-name="B" unicode="B" 
d="M93 725h225q52 0 97 -8t78 -29t52 -57t19 -93q0 -47 -21 -85.5t-57 -63.5q45 -20 74 -59t29 -105q0 -61 -19 -103.5t-53 -69.5t-81.5 -39.5t-105.5 -12.5h-237v725zM316 427q91 0 91 88t-91 88h-73v-176h73zM430 220q0 49 -25 73t-81 24h-81v-193h81q56 0 81 24t25 72z
" />
    <glyph glyph-name="C" unicode="C" 
d="M593 252q-14 -128 -77 -196.5t-185 -68.5q-71 0 -123.5 25.5t-87.5 74t-52 118.5t-17 158t18 157.5t53.5 118t89 74t124.5 25.5q60 0 104.5 -19t75.5 -53.5t48.5 -83t22.5 -108.5h-147q-6 75 -31 110.5t-79 35.5q-60 0 -90 -60.5t-30 -196.5q0 -139 29 -198.5t91 -59.5
q49 0 79 33t35 114h149z" />
    <glyph glyph-name="D" unicode="D" 
d="M438 363q0 72 -14 118.5t-39.5 73.5t-62 37.5t-82.5 10.5h-13v-480h13q46 0 82.5 10.5t62 37.5t39.5 73.5t14 118.5zM247 725q74 0 138 -17.5t111 -59.5t74 -111.5t27 -173.5t-27.5 -173.5t-75.5 -111.5t-112.5 -60t-138.5 -18h-166v725h170z" />
    <glyph glyph-name="E" unicode="E" 
d="M107 725h439v-129h-289v-161h269v-129h-269v-177h289v-129h-439v725z" />
    <glyph glyph-name="F" unicode="F" 
d="M114 725h446v-129h-296v-161h278v-129h-278v-306h-150v725z" />
    <glyph glyph-name="G" unicode="G" 
d="M448 483q-5 70 -35.5 103.5t-83.5 33.5q-63 0 -95.5 -60.5t-32.5 -196.5q0 -139 32.5 -198.5t95.5 -59.5q52 0 85.5 39.5t33.5 108.5v17h-132v118h283v-388h-115l-5 90q-26 -54 -66 -78.5t-98 -24.5q-66 0 -117 25.5t-85.5 74t-52.5 118.5t-18 158t18.5 157.5t55.5 118
t91.5 74t126.5 25.5q59 0 105.5 -18t80 -51.5t52.5 -80.5t24 -105h-148z" />
    <glyph glyph-name="H" unicode="H" 
d="M578 725v-725h-150v306h-210v-306h-150v725h150v-290h210v290h150z" />
    <glyph glyph-name="I" unicode="I" 
d="M76 725h494v-129h-172v-467h172v-129h-494v129h172v467h-172v129z" />
    <glyph glyph-name="J" unicode="J" 
d="M538 725v-511q0 -61 -18.5 -104t-49.5 -70.5t-72 -40t-86 -12.5q-61 0 -105.5 20t-73.5 54.5t-44 80.5t-17 98h145q5 -60 27 -95.5t64 -35.5q36 0 58 24.5t22 78.5v383h-236v130h386z" />
    <glyph glyph-name="K" unicode="K" 
d="M228 452l197 273h175l-209 -276l221 -449h-171l-155 311l-58 -77v-234h-150v725h150v-273z" />
    <glyph glyph-name="L" unicode="L" 
d="M255 129h338v-129h-488v725h150v-596z" />
    <glyph glyph-name="M" unicode="M" 
d="M372 725h216v-725h-147v330l3 272h-6l-62 -369h-106l-61 369h-7l3 -272v-330h-147v725h216l49 -307z" />
    <glyph glyph-name="N" unicode="N" 
d="M383 0l-159 501v-501h-150v725h188l160 -500v500h150v-725h-189z" />
    <glyph glyph-name="O" unicode="O" 
d="M198 363q0 -57 6.5 -104.5t21.5 -81.5t38.5 -53t58.5 -19t59 19t38.5 53t21 81.5t6.5 104.5t-6.5 104.5t-21 81.5t-38.5 52.5t-59 18.5t-58.5 -18.5t-38.5 -52.5t-21.5 -81.5t-6.5 -104.5zM39 363q0 84 17 153.5t51.5 118.5t88 76t127.5 27q73 0 127 -27t88.5 -76
t51.5 -118.5t17 -153.5t-17 -153.5t-51.5 -119t-88.5 -76.5t-127 -27q-74 0 -127.5 27t-88 76.5t-51.5 119t-17 153.5z" />
    <glyph glyph-name="P" unicode="P" 
d="M318 725q62 0 114 -11t89 -37t57.5 -69t20.5 -106t-20.5 -105.5t-57.5 -68t-89 -36t-114 -10.5h-74v-282h-150v725h224zM244 603v-201h70q26 0 48.5 5t39.5 16.5t27 30.5t10 48q0 28 -10 47.5t-27 31.5t-39.5 17t-48.5 5h-70z" />
    <glyph glyph-name="Q" unicode="Q" 
d="M39 363q0 84 17 153.5t51.5 118.5t88 76t127.5 27q73 0 127 -27t88.5 -76t51.5 -118.5t17 -153.5q0 -98 -22 -174.5t-70 -126.5l84 -119l-81 -59l-85 122q-24 -9 -51.5 -14t-58.5 -5q-74 0 -127.5 27t-88 76.5t-51.5 119t-17 153.5zM198 363q0 -57 6.5 -104.5t21.5 -81.5
t38.5 -53t58.5 -19q20 0 37 6l-81 117l80 59l67 -96q11 33 16.5 76.5t5.5 95.5q0 57 -6.5 104.5t-21 81.5t-38.5 52.5t-59 18.5t-58.5 -18.5t-38.5 -52.5t-21.5 -81.5t-6.5 -104.5z" />
    <glyph glyph-name="R" unicode="R" 
d="M287 294h-14h-43v-294h-150v725h193q62 0 115 -8.5t92 -31.5t61 -65.5t22 -109.5q0 -78 -36.5 -120.5t-93.5 -63.5l162 -326h-165zM230 603v-191h48q27 0 50 4t40 14.5t26.5 29t9.5 47.5t-9.5 48t-26.5 29.5t-40 14.5t-50 4h-48z" />
    <glyph glyph-name="S" unicode="S" 
d="M72 528q0 54 22 93.5t58 65.5t81 38.5t91 12.5t88.5 -13t76.5 -41t57 -71.5t29 -103.5h-144q-7 54 -36.5 84t-78.5 30q-42 0 -68 -22t-26 -59q0 -35 21 -59.5t70 -36.5l63 -16q36 -9 74 -23.5t69 -39.5t51 -62.5t20 -92.5q0 -59 -21.5 -101.5t-56.5 -70t-79.5 -40.5
t-89.5 -13q-61 0 -110.5 17.5t-86 50.5t-58.5 80t-28 105h145q8 -62 41.5 -100t92.5 -38q43 0 71.5 22.5t28.5 63.5q0 80 -106 107l-74 20q-36 9 -70 27t-60 44.5t-41.5 61.5t-15.5 80z" />
    <glyph glyph-name="T" unicode="T" 
d="M248 596h-205v129h560v-129h-205v-596h-150v596z" />
    <glyph glyph-name="U" unicode="U" 
d="M219 725v-451q0 -79 21.5 -121.5t84.5 -42.5q31 0 50.5 12.5t31 35t16 55t4.5 72.5v440h150v-409q0 -84 -11.5 -145.5t-40 -102.5t-77 -61t-123.5 -20q-72 0 -121 17t-79 55t-43 99.5t-13 151.5v415h150z" />
    <glyph glyph-name="V" unicode="V" 
d="M416 0h-187l-187 725h163l118 -533l119 533h160z" />
    <glyph glyph-name="W" unicode="W" 
d="M432 197l25 528h157l-45 -725h-184l-63 369l-62 -369h-184l-45 725h157l24 -528l54 335h112z" />
    <glyph glyph-name="X" unicode="X" 
d="M240 368l-197 357h170l113 -206l116 206h160l-198 -348l208 -377h-168l-125 226l-128 -226h-158z" />
    <glyph glyph-name="Y" unicode="Y" 
d="M452 725h171l-225 -465v-260h-150v260l-225 465h171l129 -300z" />
    <glyph glyph-name="Z" unicode="Z" 
d="M572 597l-337 -468h340v-129h-510v128l338 468h-313v129h482v-128z" />
    <glyph glyph-name="bracketleft" unicode="[" 
d="M451 725v-100h-134v-699h134v-101h-257v900h257z" />
    <glyph glyph-name="bracketright" unicode="]" 
d="M452 725v-900h-257v101h135v699h-135v100h257z" />
    <glyph glyph-name="underscore" unicode="_" 
d="M99 -121v121h448v-121h-448z" />
    <glyph glyph-name="grave" unicode="`" 
d="M182 725h187l94 -116h-123z" />
    <glyph glyph-name="a" unicode="a" 
d="M421 69q-29 -43 -70.5 -62.5t-100.5 -19.5q-35 0 -67.5 10.5t-58 31t-41 49.5t-15.5 66q0 51 27.5 83.5t74 53t107.5 31.5t129 20v12q0 62 -25.5 86.5t-69.5 24.5q-45 0 -71 -21t-29 -66h-129q4 40 21.5 73.5t47.5 58t72 38.5t93 14q50 0 92 -11.5t72 -38.5t47 -72.5
t17 -113.5q0 -6 -0.5 -21.5t-0.5 -35.5t-0.5 -41.5t-0.5 -39.5q0 -56 1 -88.5t2.5 -50.5t3.5 -25.5t4 -13.5h-131zM410 244q-52 -5 -90 -11.5t-62.5 -17t-36 -26t-11.5 -39.5q0 -30 20 -47.5t59 -17.5q34 0 57 10.5t37 29.5t20.5 45.5t6.5 59.5v14z" />
    <glyph glyph-name="b" unicode="b" 
d="M222 470q19 38 54.5 59t82.5 21q46 0 86 -18t69.5 -54t46.5 -88.5t17 -121.5t-17 -121.5t-46.5 -88t-69.5 -53.5t-86 -18q-47 0 -82.5 21t-54.5 59l-1 -67h-142v725h143v-255zM216 268q0 -85 29.5 -130t81.5 -45q51 0 79 47t28 128t-28 128.5t-79 47.5q-52 0 -81.5 -45.5
t-29.5 -130.5z" />
    <glyph glyph-name="c" unicode="c" 
d="M326 550q39 0 78.5 -12t72 -37.5t55 -64t28.5 -92.5h-136q-6 43 -28.5 71.5t-70.5 28.5q-50 0 -77 -42.5t-27 -133.5t28 -133t76 -42q16 0 32.5 4.5t30 16.5t24 32t15.5 51h138q-7 -55 -30.5 -94.5t-57 -65t-74 -38t-80.5 -12.5q-59 0 -104.5 21t-77 58.5t-48 89
t-16.5 112.5q0 63 16.5 115t48.5 89t78.5 57.5t105.5 20.5z" />
    <glyph glyph-name="d" unicode="d" 
d="M424 725h143v-725h-142l-1 67q-20 -38 -55.5 -59t-82.5 -21q-46 0 -86 18t-69 53.5t-46 88t-17 121.5t17 121.5t46 88.5t69 54t86 18q47 0 82.5 -21t55.5 -59v255zM429 268q0 85 -29.5 130.5t-81.5 45.5q-51 0 -78.5 -47.5t-27.5 -128.5t27.5 -128t78.5 -47q52 0 81.5 45
t29.5 130z" />
    <glyph glyph-name="e" unicode="e" 
d="M207 232q2 -37 12.5 -64t26.5 -44.5t36.5 -26t43.5 -8.5q43 0 68.5 20.5t33.5 58.5h137q-6 -34 -24 -66.5t-48 -58t-72.5 -41t-96.5 -15.5q-63 0 -110.5 20t-80 56.5t-48.5 87.5t-16 113q0 64 17 117t49.5 90.5t79.5 58t107 20.5q61 0 108.5 -22t80 -63t49 -100
t14.5 -133h-367zM320 447q-17 0 -36 -6.5t-35 -21.5t-27.5 -38.5t-14.5 -57.5h230q-1 37 -11.5 61t-27 38t-37 19.5t-41.5 5.5z" />
    <glyph glyph-name="f" unicode="f" 
d="M194 567q0 51 13 82.5t38 48t62 22t85 5.5h173v-107h-155q-23 0 -37 -2t-21.5 -7.5t-10.5 -15t-3 -25.5v-30h227v-108h-227v-430h-144v430h-156v108h156v29z" />
    <glyph glyph-name="g" unicode="g" 
d="M424 538h143v-483q0 -66 -17 -112.5t-49.5 -75t-78.5 -41.5t-104 -13q-41 0 -78.5 8.5t-68.5 29t-52 53.5t-27 82h132q7 -35 29.5 -52.5t65.5 -17.5q54 0 79.5 32t25.5 82v58q-20 -37 -55.5 -58t-82.5 -21q-46 0 -86 17.5t-69 52t-46 85t-17 115.5t17 115.5t46 85
t69 52.5t86 18q47 0 82.5 -21t55.5 -59v68zM429 279q0 77 -29.5 121t-81.5 44q-51 0 -78.5 -46t-27.5 -119t27.5 -119t78.5 -46q52 0 81.5 43.5t29.5 121.5z" />
    <glyph glyph-name="h" unicode="h" 
d="M234 725v-250q23 36 59.5 55.5t84.5 19.5q46 0 79 -15t54 -42.5t31 -67t10 -87.5v-338h-144v314q0 21 -2 43.5t-9.5 40.5t-23.5 29.5t-43 11.5q-30 0 -49 -12.5t-29.5 -33.5t-14 -49t-3.5 -59v-285h-144v725h144z" />
    <glyph glyph-name="i" unicode="i" 
d="M97 0v108h156v322h-156v108h300v-430h157v-108h-457zM397 725v-133h-144v133h144z" />
    <glyph glyph-name="j" unicode="j" 
d="M124 429v109h311v-533q0 -57 -9 -92t-29.5 -54.5t-53.5 -26.5t-81 -7h-171v107h154q16 0 25.5 2.5t14 10t5.5 20.5t1 34v430h-167zM435 725v-133h-144v133h144z" />
    <glyph glyph-name="k" unicode="k" 
d="M236 151v-151h-144v725h144v-395l177 208h160l-183 -209l194 -329h-159l-128 221z" />
    <glyph glyph-name="l" unicode="l" 
d="M98 0v108h156v510h-156v107h300v-617h156v-108h-456z" />
    <glyph glyph-name="m" unicode="m" 
d="M254 0v360q0 47 -5 64t-24 17q-22 0 -29 -24.5t-7 -88.5v-328h-140v538h140v-41q14 23 39 38t54 15q64 0 90 -60q17 32 46 46t54 14q27 0 49 -8.5t38 -28t25 -52t9 -80.5v-381h-140v360q0 47 -5 64t-24 17q-22 0 -29 -24.5t-7 -88.5v-328h-134z" />
    <glyph glyph-name="n" unicode="n" 
d="M234 538v-63q23 36 59 55.5t84 19.5q93 0 134 -57.5t41 -154.5v-338h-144v314q0 21 -2 43.5t-10 40.5t-24 29.5t-43 11.5q-30 0 -49 -12.5t-29 -33.5t-13.5 -49t-3.5 -59v-285h-144v538h144z" />
    <glyph glyph-name="o" unicode="o" 
d="M580 269q0 -77 -21.5 -131t-57.5 -87.5t-82.5 -48.5t-95.5 -15q-50 0 -96 15t-82 48.5t-57.5 87.5t-21.5 131t21.5 130.5t57.5 87t82 48.5t96 15q49 0 95.5 -15t82.5 -48.5t57.5 -87t21.5 -130.5zM436 269q0 93 -30.5 134t-82.5 41t-82.5 -41t-30.5 -134t30.5 -134.5
t82.5 -41.5t82.5 41.5t30.5 134.5z" />
    <glyph glyph-name="p" unicode="p" 
d="M223 470q20 38 55 59t83 21q46 0 86 -18t69 -54t46 -88.5t17 -121.5t-17 -121.5t-46 -88t-69 -53.5t-86 -18q-48 0 -83 21t-55 59v-242h-144v713h144v-68zM218 268q0 -85 29.5 -130t81.5 -45q51 0 78.5 47t27.5 128t-27.5 128.5t-78.5 47.5q-52 0 -81.5 -45.5
t-29.5 -130.5z" />
    <glyph glyph-name="q" unicode="q" 
d="M424 538h143v-713h-143v242q-20 -38 -55.5 -59t-82.5 -21q-46 0 -86 18t-69 53.5t-46 88t-17 121.5t17 121.5t46 88.5t69 54t86 18q47 0 82.5 -21t55.5 -59v68zM429 268q0 85 -29.5 130.5t-81.5 45.5q-51 0 -78.5 -47.5t-27.5 -128.5t27.5 -128t78.5 -47q52 0 81.5 45
t29.5 130z" />
    <glyph glyph-name="r" unicode="r" 
d="M351 538v-91q8 17 20.5 33.5t30.5 29t42 20.5t56 8h82v-115h-103q-69 0 -97.5 -34.5t-28.5 -113.5v-167h195v-108h-473v108h134v321h-134v109h276z" />
    <glyph glyph-name="s" unicode="s" 
d="M419 378q-8 35 -35.5 51t-74.5 16q-33 0 -56 -12.5t-23 -34.5q0 -21 20.5 -35.5t49.5 -22.5l59 -14q40 -9 74.5 -20.5t60 -29.5t40.5 -44.5t15 -66.5q0 -43 -18 -76t-49 -55.5t-71.5 -34.5t-85.5 -12q-97 0 -159.5 50.5t-72.5 143.5h127q5 -42 33 -65t78 -23q41 0 64 14
t23 41t-24.5 41t-58.5 22l-64 15q-37 9 -67.5 22t-52 32t-33.5 45.5t-12 62.5q0 39 16.5 69t45 51t67 31.5t82.5 10.5q37 0 74.5 -9.5t68.5 -30.5t53.5 -53.5t29.5 -78.5h-124z" />
    <glyph glyph-name="t" unicode="t" 
d="M195 682h144v-144h210v-109h-210v-260q0 -38 13.5 -49.5t45.5 -11.5h149v-108h-202q-44 0 -73 8t-46 25t-24 45t-7 68v283h-156v109h156v144z" />
    <glyph glyph-name="u" unicode="u" 
d="M412 59q-23 -37 -58.5 -54.5t-78.5 -17.5q-49 0 -83.5 15t-56 42.5t-31.5 67t-10 87.5v339h144v-315q0 -21 2 -43.5t10 -40.5t24 -29.5t43 -11.5q30 0 48.5 12.5t29 33.5t14 49t3.5 59v286h144v-538h-144v59z" />
    <glyph glyph-name="v" unicode="v" 
d="M327 171l128 367h142l-203 -538h-139l-206 538h149z" />
    <glyph glyph-name="w" unicode="w" 
d="M381 435l49 -237l38 340h140l-67 -538h-156l-62 331l-63 -331h-156l-66 538h139l38 -340l50 237h116z" />
    <glyph glyph-name="x" unicode="x" 
d="M249 271l-174 267h158l95 -152l97 152h146l-175 -257l185 -281h-159l-104 166l-107 -166h-146z" />
    <glyph glyph-name="y" unicode="y" 
d="M400 18q-24 -62 -42.5 -100t-40 -58.5t-51.5 -27.5t-77 -7h-115v107h106q15 0 25.5 2t18 8t13.5 17t14 28l5 13l-207 538h149l131 -367l126 367h142z" />
    <glyph glyph-name="z" unicode="z" 
d="M96 105l279 324h-258v109h422v-105l-281 -325h288v-108h-450v105z" />
    <glyph glyph-name="braceleft" unicode="{" 
d="M478 725v-109h-16q-50 0 -65 -17t-15 -54v-132q0 -35 -7.5 -58.5t-20 -39.5t-30 -25t-37.5 -14v-2q20 -5 37.5 -14t30 -25t20 -39.5t7.5 -58.5v-132q0 -19 3 -32.5t12 -22t24.5 -12.5t40.5 -4h16v-109h-35q-52 0 -89.5 7.5t-62 27t-36 53t-11.5 85.5v119q0 23 -2.5 42
t-10.5 32.5t-23 21t-40 7.5v110q25 0 40 7.5t23 21t10.5 32.5t2.5 42v119q0 52 11.5 85.5t36 53t62 27t89.5 7.5h35z" />
    <glyph glyph-name="bar" unicode="|" 
d="M380 725v-815h-115v815h115z" />
    <glyph glyph-name="braceright" unicode="}" 
d="M168 -175v109h16q25 0 40.5 4t24.5 12.5t12 22t3 32.5v132q0 35 7.5 58.5t20 39.5t30 25t37.5 14v2q-20 5 -37.5 14t-30 25t-20 39.5t-7.5 58.5v132q0 37 -15 54t-65 17h-16v109h35q52 0 89.5 -7.5t62 -27t36 -53t11.5 -85.5v-119q0 -23 2.5 -42t10.5 -32.5t23 -21
t40 -7.5v-110q-25 0 -40 -7.5t-23 -21t-10.5 -32.5t-2.5 -42v-119q0 -52 -11.5 -85.5t-36 -53t-62 -27t-89.5 -7.5h-35z" />
    <glyph glyph-name="uni00A0" unicode="&#xa0;" 
 />
    <glyph glyph-name="exclamdown" unicode="&#xa1;" 
d="M367 308l49 -296v-187h-186v187l48 296h89zM230 360v178h186v-178h-186z" />
    <glyph glyph-name="sterling" unicode="&#xa3;" 
d="M332 627q-39 0 -60 -24.5t-21 -63.5t16 -75t33 -73h160v-75h-134q2 -8 3 -17t1 -17q0 -23 -8 -46.5t-21.5 -45t-32 -40.5t-38.5 -34l1 -1q19 13 43 17t44 4q18 0 32.5 -4t27.5 -8.5t26 -8t28 -3.5q26 0 48 7.5t46 23.5l50 -115q-33 -20 -70.5 -30.5t-85.5 -10.5
q-26 0 -46.5 6t-39.5 13.5t-39 13.5t-44 6q-20 0 -52.5 -6.5t-73.5 -32.5l-53 126q57 31 86.5 68.5t29.5 96.5q0 18 -6 38h-122v75h89q-17 34 -31.5 71.5t-14.5 81.5q0 51 19 87.5t50.5 60t72.5 35t85 11.5q54 0 99.5 -17t77.5 -49.5t50 -79.5t17 -107h-140q2 72 -28 107
t-74 35z" />
    <glyph glyph-name="yen" unicode="&#xa5;" 
d="M452 725h171l-185 -381h89v-88h-129v-80h129v-88h-129v-88h-150v88h-130v88h130v80h-130v88h89l-184 381h171l129 -300z" />
    <glyph glyph-name="dieresis" unicode="&#xa8;" 
d="M137 725h148v-116h-148v116zM508 725v-116h-148v116h148z" />
    <glyph glyph-name="copyright" unicode="&#xa9;" 
d="M44 457q0 62 22 114t59.5 89t88.5 57.5t109 20.5t108.5 -20.5t88.5 -57.5t60 -89t22 -114t-22 -113t-60 -88t-88.5 -57t-108.5 -20t-109 20t-88.5 57t-59.5 88t-22 113zM324 370q26 0 45.5 13t24.5 44l78 -18q-13 -45 -52 -74.5t-99 -29.5q-35 0 -62.5 11.5t-46.5 32
t-29.5 48.5t-10.5 62q0 68 41.5 109.5t110.5 41.5q57 0 96 -30t49 -77l-77 -20q-3 26 -21 45t-47 19t-49.5 -22.5t-20.5 -65.5t19.5 -66t50.5 -23zM93 457q0 -52 17.5 -95t48.5 -73.5t73 -47.5t91 -17t91 17t72.5 47.5t47.5 73.5t17 95t-17 95.5t-47.5 75t-72.5 48.5t-91 17
t-91 -17t-73 -48.5t-48.5 -75t-17.5 -95.5z" />
    <glyph glyph-name="guillemotleft" unicode="&#xab;" 
d="M72 273l159 229h136l-136 -229l136 -230h-136zM293 273l159 229h136l-136 -229l136 -230h-136z" />
    <glyph glyph-name="uni00AD" unicode="&#xad;" 
d="M146 196v139h354v-139h-354z" />
    <glyph glyph-name="macron" unicode="&#xaf;" 
d="M166 617v108h313v-108h-313z" />
    <glyph glyph-name="degree" unicode="&#xb0;" 
d="M162 577q0 33 12.5 62.5t34.5 51.5t51 34.5t62 12.5q34 0 63.5 -12.5t51.5 -34.5t34.5 -51.5t12.5 -62.5t-12.5 -62t-34.5 -51t-51.5 -34.5t-63.5 -12.5q-33 0 -62 12.5t-51 34.5t-34.5 51t-12.5 62zM249 577q0 -32 20.5 -55.5t52.5 -23.5q33 0 54.5 23.5t21.5 55.5
q0 33 -21.5 56.5t-54.5 23.5q-32 0 -52.5 -23.5t-20.5 -56.5z" />
    <glyph glyph-name="acute" unicode="&#xb4;" 
d="M305 609h-123l94 116h187z" />
    <glyph glyph-name="periodcentered" unicode="&#xb7;" 
d="M230 180v178h186v-178h-186z" />
    <glyph glyph-name="cedilla" unicode="&#xb8;" 
d="M223 -133q9 -5 27.5 -9.5t37.5 -4.5q20 0 34.5 6t14.5 23q0 14 -11 21t-29 7q-9 0 -20 -2t-19 -7l-30 17l52 83h61l-32 -52q12 4 36 4q15 0 32 -3.5t30.5 -11.5t22.5 -21t9 -32q0 -24 -12 -40t-31.5 -26.5t-44.5 -15t-51 -4.5q-25 0 -49.5 3.5t-44.5 10.5z" />
    <glyph glyph-name="guillemotright" unicode="&#xbb;" 
d="M195 43h-135l135 230l-135 229h135l159 -229zM416 43h-135l135 230l-135 229h135l159 -229z" />
    <glyph glyph-name="questiondown" unicode="&#xbf;" 
d="M307 -186q-50 0 -96.5 10.5t-82.5 33t-57.5 56.5t-21.5 82q0 34 11.5 61t30.5 48t43 37t50 30q23 12 40 23t28.5 23.5t17 29t5.5 40.5v20h146q1 -11 1 -19v-18q0 -38 -10 -64.5t-26.5 -46.5t-37.5 -34.5t-43 -27.5q-16 -9 -34 -20t-33 -23.5t-25 -26.5t-10 -30
q0 -30 27.5 -49.5t75.5 -19.5q27 0 51.5 9t43 26.5t29.5 42t11 55.5h144q0 -59 -21 -105.5t-58.5 -78t-88.5 -48t-110 -16.5zM255 360v178h186v-178h-186z" />
    <glyph glyph-name="Agrave" unicode="&#xc0;" 
d="M229 725h187l187 -725h-164l-33 151h-170l-33 -151h-160zM262 268h118l-58 266zM113 874h201l105 -113h-146z" />
    <glyph glyph-name="Aacute" unicode="&#xc1;" 
d="M229 725h187l187 -725h-164l-33 151h-170l-33 -151h-160zM262 268h118l-58 266zM377 761h-145l104 113h202z" />
    <glyph glyph-name="Acircumflex" unicode="&#xc2;" 
d="M229 725h187l187 -725h-164l-33 151h-170l-33 -151h-160zM262 268h118l-58 266zM543 761h-164l-55 50l-59 -50h-162l140 113h162z" />
    <glyph glyph-name="Atilde" unicode="&#xc3;" 
d="M229 725h187l187 -725h-164l-33 151h-170l-33 -151h-160zM262 268h118l-58 266zM383 837q23 0 37 9t18 28h97q-7 -38 -24 -60.5t-38.5 -34.5t-43.5 -16t-39 -4q-24 0 -42 5.5t-32 12.5t-27 12.5t-28 5.5q-46 0 -53 -36h-97q7 37 24 60t38 35t43 16t39 4q24 0 41 -6
t30.5 -12.5t26.5 -12.5t30 -6z" />
    <glyph glyph-name="Adieresis" unicode="&#xc4;" 
d="M229 725h187l187 -725h-164l-33 151h-170l-33 -151h-160zM262 268h118l-58 266zM282 874v-113h-148v113h148zM512 874v-113h-148v113h148z" />
    <glyph glyph-name="Aring" unicode="&#xc5;" 
d="M229 725h187l187 -725h-164l-33 151h-170l-33 -151h-160zM262 268h118l-58 266zM323 921q38 0 64.5 -23.5t26.5 -61.5q0 -37 -26.5 -61t-64.5 -24t-64.5 24t-26.5 61q0 38 27 61.5t64 23.5zM323 879q-17 0 -30 -12t-13 -31q0 -18 13 -30t30 -12t30 12t13 30q0 19 -13 31
t-30 12z" />
    <glyph glyph-name="AE" unicode="&#xc6;" 
d="M610 725v-129h-138v-162h119v-129h-119v-176h138v-129h-288v151h-104l-58 -151h-160l322 725h288zM260 257l62 1v159z" />
    <glyph glyph-name="Ccedilla" unicode="&#xc7;" 
d="M593 252q-14 -128 -77 -196.5t-185 -68.5q-71 0 -123.5 25.5t-87.5 74t-52 118.5t-17 158t18 157.5t53.5 118t89 74t124.5 25.5q60 0 104.5 -19t75.5 -53.5t48.5 -83t22.5 -108.5h-147q-6 75 -31 110.5t-79 35.5q-60 0 -90 -60.5t-30 -196.5q0 -139 29 -198.5t91 -59.5
q49 0 79 33t35 114h149zM253 -133q9 -5 27.5 -9.5t38.5 -4.5t34.5 6t14.5 23q0 14 -11.5 21t-29.5 7q-8 0 -19 -2t-19 -7l-30 17l51 83h62l-33 -52q13 4 37 4q15 0 32 -3.5t30.5 -11.5t22.5 -21t9 -32q0 -24 -12 -40t-31.5 -26.5t-44.5 -15t-51 -4.5q-53 0 -95 14z" />
    <glyph glyph-name="Egrave" unicode="&#xc8;" 
d="M107 725h439v-129h-289v-161h269v-129h-269v-177h289v-129h-439v725zM114 874h201l105 -113h-146z" />
    <glyph glyph-name="Eacute" unicode="&#xc9;" 
d="M107 725h439v-129h-289v-161h269v-129h-269v-177h289v-129h-439v725zM382 761h-145l104 113h202z" />
    <glyph glyph-name="Ecircumflex" unicode="&#xca;" 
d="M107 725h439v-129h-289v-161h269v-129h-269v-177h289v-129h-439v725zM548 761h-164l-55 50l-59 -50h-162l140 113h162z" />
    <glyph glyph-name="Edieresis" unicode="&#xcb;" 
d="M107 725h439v-129h-289v-161h269v-129h-269v-177h289v-129h-439v725zM282 874v-113h-148v113h148zM512 874v-113h-148v113h148z" />
    <glyph glyph-name="Igrave" unicode="&#xcc;" 
d="M76 725h494v-129h-172v-467h172v-129h-494v129h172v467h-172v129zM100 874h201l105 -113h-146z" />
    <glyph glyph-name="Iacute" unicode="&#xcd;" 
d="M76 725h494v-129h-172v-467h172v-129h-494v129h172v467h-172v129zM393 761h-145l104 113h202z" />
    <glyph glyph-name="Icircumflex" unicode="&#xce;" 
d="M76 725h494v-129h-172v-467h172v-129h-494v129h172v467h-172v129zM543 761h-164l-55 50l-59 -50h-162l140 113h162z" />
    <glyph glyph-name="Idieresis" unicode="&#xcf;" 
d="M76 725h494v-129h-172v-467h172v-129h-494v129h172v467h-172v129zM282 874v-113h-148v113h148zM512 874v-113h-148v113h148z" />
    <glyph glyph-name="Eth" unicode="&#xd0;" 
d="M260 725q74 0 138 -17.5t111 -59.5t74 -111.5t27 -173.5t-27.5 -173.5t-75.5 -111.5t-112.5 -60t-138.5 -18h-166v302h-55v129h55v294h170zM451 363q0 72 -14 118.5t-39.5 73.5t-62 37.5t-82.5 10.5h-13v-172h127v-129h-127v-179h13q46 0 82.5 10.5t62 37.5t39.5 73.5
t14 118.5z" />
    <glyph glyph-name="Ntilde" unicode="&#xd1;" 
d="M383 0l-159 501v-501h-150v725h188l160 -500v500h150v-725h-189zM383 837q23 0 37 9t18 28h97q-7 -38 -24 -60.5t-38.5 -34.5t-43.5 -16t-39 -4q-24 0 -42 5.5t-32 12.5t-27 12.5t-28 5.5q-46 0 -53 -36h-97q7 37 24 60t38 35t43 16t39 4q24 0 41 -6t30.5 -12.5
t26.5 -12.5t30 -6z" />
    <glyph glyph-name="Ograve" unicode="&#xd2;" 
d="M198 363q0 -57 6.5 -104.5t21.5 -81.5t38.5 -53t58.5 -19t59 19t38.5 53t21 81.5t6.5 104.5t-6.5 104.5t-21 81.5t-38.5 52.5t-59 18.5t-58.5 -18.5t-38.5 -52.5t-21.5 -81.5t-6.5 -104.5zM39 363q0 84 17 153.5t51.5 118.5t88 76t127.5 27q73 0 127 -27t88.5 -76
t51.5 -118.5t17 -153.5t-17 -153.5t-51.5 -119t-88.5 -76.5t-127 -27q-74 0 -127.5 27t-88 76.5t-51.5 119t-17 153.5zM112 874h201l105 -113h-146z" />
    <glyph glyph-name="Oacute" unicode="&#xd3;" 
d="M198 363q0 -57 6.5 -104.5t21.5 -81.5t38.5 -53t58.5 -19t59 19t38.5 53t21 81.5t6.5 104.5t-6.5 104.5t-21 81.5t-38.5 52.5t-59 18.5t-58.5 -18.5t-38.5 -52.5t-21.5 -81.5t-6.5 -104.5zM39 363q0 84 17 153.5t51.5 118.5t88 76t127.5 27q73 0 127 -27t88.5 -76
t51.5 -118.5t17 -153.5t-17 -153.5t-51.5 -119t-88.5 -76.5t-127 -27q-74 0 -127.5 27t-88 76.5t-51.5 119t-17 153.5zM388 761h-145l104 113h202z" />
    <glyph glyph-name="Ocircumflex" unicode="&#xd4;" 
d="M198 363q0 -57 6.5 -104.5t21.5 -81.5t38.5 -53t58.5 -19t59 19t38.5 53t21 81.5t6.5 104.5t-6.5 104.5t-21 81.5t-38.5 52.5t-59 18.5t-58.5 -18.5t-38.5 -52.5t-21.5 -81.5t-6.5 -104.5zM39 363q0 84 17 153.5t51.5 118.5t88 76t127.5 27q73 0 127 -27t88.5 -76
t51.5 -118.5t17 -153.5t-17 -153.5t-51.5 -119t-88.5 -76.5t-127 -27q-74 0 -127.5 27t-88 76.5t-51.5 119t-17 153.5zM543 761h-164l-55 50l-59 -50h-162l140 113h162z" />
    <glyph glyph-name="Otilde" unicode="&#xd5;" 
d="M198 363q0 -57 6.5 -104.5t21.5 -81.5t38.5 -53t58.5 -19t59 19t38.5 53t21 81.5t6.5 104.5t-6.5 104.5t-21 81.5t-38.5 52.5t-59 18.5t-58.5 -18.5t-38.5 -52.5t-21.5 -81.5t-6.5 -104.5zM39 363q0 84 17 153.5t51.5 118.5t88 76t127.5 27q73 0 127 -27t88.5 -76
t51.5 -118.5t17 -153.5t-17 -153.5t-51.5 -119t-88.5 -76.5t-127 -27q-74 0 -127.5 27t-88 76.5t-51.5 119t-17 153.5zM383 837q23 0 37 9t18 28h97q-7 -38 -24 -60.5t-38.5 -34.5t-43.5 -16t-39 -4q-24 0 -42 5.5t-32 12.5t-27 12.5t-28 5.5q-46 0 -53 -36h-97q7 37 24 60
t38 35t43 16t39 4q24 0 41 -6t30.5 -12.5t26.5 -12.5t30 -6z" />
    <glyph glyph-name="Odieresis" unicode="&#xd6;" 
d="M198 363q0 -57 6.5 -104.5t21.5 -81.5t38.5 -53t58.5 -19t59 19t38.5 53t21 81.5t6.5 104.5t-6.5 104.5t-21 81.5t-38.5 52.5t-59 18.5t-58.5 -18.5t-38.5 -52.5t-21.5 -81.5t-6.5 -104.5zM39 363q0 84 17 153.5t51.5 118.5t88 76t127.5 27q73 0 127 -27t88.5 -76
t51.5 -118.5t17 -153.5t-17 -153.5t-51.5 -119t-88.5 -76.5t-127 -27q-74 0 -127.5 27t-88 76.5t-51.5 119t-17 153.5zM282 874v-113h-148v113h148zM512 874v-113h-148v113h148z" />
    <glyph glyph-name="multiply" unicode="&#xd7;" 
d="M479 30l-161 160l-159 -159l-73 72l159 161l-157 157l81 80l157 -157l160 160l72 -74l-159 -159l160 -160z" />
    <glyph glyph-name="Oslash" unicode="&#xd8;" 
d="M39 363q0 84 17 153.5t51.5 118.5t88 76t127.5 27q69 0 120 -23.5t86 -66.5l76 90l41 -35l-87 -103q25 -47 36.5 -106.5t11.5 -130.5q0 -84 -17 -153.5t-51.5 -119t-88.5 -76.5t-127 -27q-69 0 -120 23.5t-86 67.5l-77 -91l-40 36l86 102q-24 47 -35.5 107t-11.5 131z
M198 363q0 -55 6 -100l224 265q-14 44 -39.5 68t-65.5 24q-35 0 -58.5 -18.5t-38.5 -52.5t-21.5 -81.5t-6.5 -104.5zM448 363q0 54 -6 99l-224 -265q14 -44 39.5 -68t65.5 -24q35 0 59 19t38.5 53t21 81.5t6.5 104.5z" />
    <glyph glyph-name="Ugrave" unicode="&#xd9;" 
d="M219 725v-451q0 -79 21.5 -121.5t84.5 -42.5q31 0 50.5 12.5t31 35t16 55t4.5 72.5v440h150v-409q0 -84 -11.5 -145.5t-40 -102.5t-77 -61t-123.5 -20q-72 0 -121 17t-79 55t-43 99.5t-13 151.5v415h150zM92 874h201l105 -113h-146z" />
    <glyph glyph-name="Uacute" unicode="&#xda;" 
d="M219 725v-451q0 -79 21.5 -121.5t84.5 -42.5q31 0 50.5 12.5t31 35t16 55t4.5 72.5v440h150v-409q0 -84 -11.5 -145.5t-40 -102.5t-77 -61t-123.5 -20q-72 0 -121 17t-79 55t-43 99.5t-13 151.5v415h150zM390 761h-145l104 113h202z" />
    <glyph glyph-name="Ucircumflex" unicode="&#xdb;" 
d="M219 725v-451q0 -79 21.5 -121.5t84.5 -42.5q31 0 50.5 12.5t31 35t16 55t4.5 72.5v440h150v-409q0 -84 -11.5 -145.5t-40 -102.5t-77 -61t-123.5 -20q-72 0 -121 17t-79 55t-43 99.5t-13 151.5v415h150zM543 761h-164l-55 50l-59 -50h-162l140 113h162z" />
    <glyph glyph-name="Udieresis" unicode="&#xdc;" 
d="M219 725v-451q0 -79 21.5 -121.5t84.5 -42.5q31 0 50.5 12.5t31 35t16 55t4.5 72.5v440h150v-409q0 -84 -11.5 -145.5t-40 -102.5t-77 -61t-123.5 -20q-72 0 -121 17t-79 55t-43 99.5t-13 151.5v415h150zM282 874v-113h-148v113h148zM512 874v-113h-148v113h148z" />
    <glyph glyph-name="Yacute" unicode="&#xdd;" 
d="M452 725h171l-225 -465v-260h-150v260l-225 465h171l129 -300zM394 761h-145l104 113h202z" />
    <glyph glyph-name="Thorn" unicode="&#xde;" 
d="M245 725v-135h63q62 0 115.5 -11.5t92.5 -38t61 -70t22 -106.5t-22 -106t-61 -69.5t-92.5 -37.5t-115.5 -11h-64v-140h-150v725h151zM245 468v-206h69q26 0 48.5 5t39.5 17t27 31.5t10 48.5t-10 49t-27 32t-39.5 17.5t-48.5 5.5h-69z" />
    <glyph glyph-name="germandbls" unicode="&#xdf;" 
d="M267 122q39 -14 78 -14q18 0 35.5 6t31 19t22 33.5t8.5 49.5q0 30 -10.5 51.5t-29 36t-43 21.5t-52.5 7h-29v114h24q52 0 78.5 26.5t26.5 62.5q0 44 -26 69.5t-68 25.5q-36 0 -58 -11t-34 -31t-16 -49.5t-4 -65.5v-473h-143v472q0 131 61.5 198.5t196.5 67.5
q48 0 90 -12.5t72.5 -37t48 -61t17.5 -84.5q0 -49 -19.5 -85t-41.5 -54q19 -9 38 -26t33.5 -40t23.5 -53t9 -64q0 -58 -17.5 -102t-48 -73t-73 -44t-92.5 -15q-27 0 -58 3.5t-62 12.5z" />
    <glyph glyph-name="agrave" unicode="&#xe0;" 
d="M421 69q-29 -43 -70.5 -62.5t-100.5 -19.5q-35 0 -67.5 10.5t-58 31t-41 49.5t-15.5 66q0 51 27.5 83.5t74 53t107.5 31.5t129 20v12q0 62 -25.5 86.5t-69.5 24.5q-45 0 -71 -21t-29 -66h-129q4 40 21.5 73.5t47.5 58t72 38.5t93 14q50 0 92 -11.5t72 -38.5t47 -72.5
t17 -113.5q0 -6 -0.5 -21.5t-0.5 -35.5t-0.5 -41.5t-0.5 -39.5q0 -56 1 -88.5t2.5 -50.5t3.5 -25.5t4 -13.5h-131zM410 244q-52 -5 -90 -11.5t-62.5 -17t-36 -26t-11.5 -39.5q0 -30 20 -47.5t59 -17.5q34 0 57 10.5t37 29.5t20.5 45.5t6.5 59.5v14zM126 725h187l94 -116
h-123z" />
    <glyph glyph-name="aacute" unicode="&#xe1;" 
d="M421 69q-29 -43 -70.5 -62.5t-100.5 -19.5q-35 0 -67.5 10.5t-58 31t-41 49.5t-15.5 66q0 51 27.5 83.5t74 53t107.5 31.5t129 20v12q0 62 -25.5 86.5t-69.5 24.5q-45 0 -71 -21t-29 -66h-129q4 40 21.5 73.5t47.5 58t72 38.5t93 14q50 0 92 -11.5t72 -38.5t47 -72.5
t17 -113.5q0 -6 -0.5 -21.5t-0.5 -35.5t-0.5 -41.5t-0.5 -39.5q0 -56 1 -88.5t2.5 -50.5t3.5 -25.5t4 -13.5h-131zM410 244q-52 -5 -90 -11.5t-62.5 -17t-36 -26t-11.5 -39.5q0 -30 20 -47.5t59 -17.5q34 0 57 10.5t37 29.5t20.5 45.5t6.5 59.5v14zM367 609h-123l94 116h187
z" />
    <glyph glyph-name="acircumflex" unicode="&#xe2;" 
d="M421 69q-29 -43 -70.5 -62.5t-100.5 -19.5q-35 0 -67.5 10.5t-58 31t-41 49.5t-15.5 66q0 51 27.5 83.5t74 53t107.5 31.5t129 20v12q0 62 -25.5 86.5t-69.5 24.5q-45 0 -71 -21t-29 -66h-129q4 40 21.5 73.5t47.5 58t72 38.5t93 14q50 0 92 -11.5t72 -38.5t47 -72.5
t17 -113.5q0 -6 -0.5 -21.5t-0.5 -35.5t-0.5 -41.5t-0.5 -39.5q0 -56 1 -88.5t2.5 -50.5t3.5 -25.5t4 -13.5h-131zM410 244q-52 -5 -90 -11.5t-62.5 -17t-36 -26t-11.5 -39.5q0 -30 20 -47.5t59 -17.5q34 0 57 10.5t37 29.5t20.5 45.5t6.5 59.5v14zM536 609h-151l-61 47
l-64 -47h-151l140 116h150z" />
    <glyph glyph-name="atilde" unicode="&#xe3;" 
d="M421 69q-29 -43 -70.5 -62.5t-100.5 -19.5q-35 0 -67.5 10.5t-58 31t-41 49.5t-15.5 66q0 51 27.5 83.5t74 53t107.5 31.5t129 20v12q0 62 -25.5 86.5t-69.5 24.5q-45 0 -71 -21t-29 -66h-129q4 40 21.5 73.5t47.5 58t72 38.5t93 14q50 0 92 -11.5t72 -38.5t47 -72.5
t17 -113.5q0 -6 -0.5 -21.5t-0.5 -35.5t-0.5 -41.5t-0.5 -39.5q0 -56 1 -88.5t2.5 -50.5t3.5 -25.5t4 -13.5h-131zM410 244q-52 -5 -90 -11.5t-62.5 -17t-36 -26t-11.5 -39.5q0 -30 20 -47.5t59 -17.5q34 0 57 10.5t37 29.5t20.5 45.5t6.5 59.5v14zM388 681q44 0 52 44h97
q-11 -63 -45.5 -95t-88.5 -32q-26 0 -45 7t-34.5 15t-29 15t-28.5 7q-43 0 -52 -44h-96q9 60 43.5 93.5t91.5 33.5q26 0 44 -7t32.5 -15t28 -15t30.5 -7z" />
    <glyph glyph-name="adieresis" unicode="&#xe4;" 
d="M421 69q-29 -43 -70.5 -62.5t-100.5 -19.5q-35 0 -67.5 10.5t-58 31t-41 49.5t-15.5 66q0 51 27.5 83.5t74 53t107.5 31.5t129 20v12q0 62 -25.5 86.5t-69.5 24.5q-45 0 -71 -21t-29 -66h-129q4 40 21.5 73.5t47.5 58t72 38.5t93 14q50 0 92 -11.5t72 -38.5t47 -72.5
t17 -113.5q0 -6 -0.5 -21.5t-0.5 -35.5t-0.5 -41.5t-0.5 -39.5q0 -56 1 -88.5t2.5 -50.5t3.5 -25.5t4 -13.5h-131zM410 244q-52 -5 -90 -11.5t-62.5 -17t-36 -26t-11.5 -39.5q0 -30 20 -47.5t59 -17.5q34 0 57 10.5t37 29.5t20.5 45.5t6.5 59.5v14zM138 725h148v-116h-148
v116zM509 725v-116h-148v116h148z" />
    <glyph glyph-name="aring" unicode="&#xe5;" 
d="M421 69q-29 -43 -70.5 -62.5t-100.5 -19.5q-35 0 -67.5 10.5t-58 31t-41 49.5t-15.5 66q0 51 27.5 83.5t74 53t107.5 31.5t129 20v12q0 62 -25.5 86.5t-69.5 24.5q-45 0 -71 -21t-29 -66h-129q4 40 21.5 73.5t47.5 58t72 38.5t93 14q50 0 92 -11.5t72 -38.5t47 -72.5
t17 -113.5q0 -6 -0.5 -21.5t-0.5 -35.5t-0.5 -41.5t-0.5 -39.5q0 -56 1 -88.5t2.5 -50.5t3.5 -25.5t4 -13.5h-131zM410 244q-52 -5 -90 -11.5t-62.5 -17t-36 -26t-11.5 -39.5q0 -30 20 -47.5t59 -17.5q34 0 57 10.5t37 29.5t20.5 45.5t6.5 59.5v14zM331 775q19 0 36 -7
t30 -19t20.5 -28.5t7.5 -35.5q0 -38 -27.5 -63.5t-66.5 -25.5q-20 0 -37.5 6.5t-30 18.5t-20 28.5t-7.5 35.5q0 39 28 64.5t67 25.5zM331 726q-17 0 -29 -11.5t-12 -29.5q0 -17 12 -28t29 -11t29 11t12 28q0 18 -12 29.5t-29 11.5z" />
    <glyph glyph-name="ae" unicode="&#xe6;" 
d="M38 371q1 38 10.5 70.5t29 56.5t51 38t76.5 14q42 0 71 -14t47 -37q21 23 49 35.5t63 12.5q48 0 83.5 -22.5t58.5 -64t33 -100.5t8 -132h-254q2 -72 21.5 -103.5t51.5 -31.5q56 0 67 67h110q-5 -30 -17 -61t-33.5 -56t-52 -40.5t-70.5 -15.5q-54 0 -83.5 21.5t-49.5 59.5
q-24 -42 -58.5 -61.5t-78.5 -19.5q-37 0 -64.5 14t-45.5 36.5t-27 50.5t-9 57q0 43 12.5 74.5t36 52.5t57.5 33t77 17l47 5v40q0 45 -14 65t-41 20q-52 0 -58 -81h-104zM257 239l-40 -6q-47 -6 -61.5 -25.5t-14.5 -47.5q0 -26 10.5 -48.5t35.5 -22.5q70 0 70 125v25z
M501 326q-3 63 -20.5 92t-47.5 29q-11 0 -22.5 -5.5t-21 -19.5t-16 -37.5t-8.5 -58.5h136z" />
    <glyph glyph-name="ccedilla" unicode="&#xe7;" 
d="M326 550q39 0 78.5 -12t72 -37.5t55 -64t28.5 -92.5h-136q-6 43 -28.5 71.5t-70.5 28.5q-50 0 -77 -42.5t-27 -133.5t28 -133t76 -42q16 0 32.5 4.5t30 16.5t24 32t15.5 51h138q-7 -55 -30.5 -94.5t-57 -65t-74 -38t-80.5 -12.5q-59 0 -104.5 21t-77 58.5t-48 89
t-16.5 112.5q0 63 16.5 115t48.5 89t78.5 57.5t105.5 20.5zM252 -133q9 -5 27.5 -9.5t37.5 -4.5q20 0 34.5 6t14.5 23q0 14 -11 21t-29 7q-9 0 -20 -2t-19 -7l-30 17l52 83h61l-32 -52q12 4 36 4q15 0 32 -3.5t30.5 -11.5t22.5 -21t9 -32q0 -24 -12 -40t-31.5 -26.5
t-44.5 -15t-51 -4.5q-25 0 -49.5 3.5t-44.5 10.5z" />
    <glyph glyph-name="egrave" unicode="&#xe8;" 
d="M207 232q2 -37 12.5 -64t26.5 -44.5t36.5 -26t43.5 -8.5q43 0 68.5 20.5t33.5 58.5h137q-6 -34 -24 -66.5t-48 -58t-72.5 -41t-96.5 -15.5q-63 0 -110.5 20t-80 56.5t-48.5 87.5t-16 113q0 64 17 117t49.5 90.5t79.5 58t107 20.5q61 0 108.5 -22t80 -63t49 -100
t14.5 -133h-367zM320 447q-17 0 -36 -6.5t-35 -21.5t-27.5 -38.5t-14.5 -57.5h230q-1 37 -11.5 61t-27 38t-37 19.5t-41.5 5.5zM118 725h187l94 -116h-123z" />
    <glyph glyph-name="eacute" unicode="&#xe9;" 
d="M207 232q2 -37 12.5 -64t26.5 -44.5t36.5 -26t43.5 -8.5q43 0 68.5 20.5t33.5 58.5h137q-6 -34 -24 -66.5t-48 -58t-72.5 -41t-96.5 -15.5q-63 0 -110.5 20t-80 56.5t-48.5 87.5t-16 113q0 64 17 117t49.5 90.5t79.5 58t107 20.5q61 0 108.5 -22t80 -63t49 -100
t14.5 -133h-367zM320 447q-17 0 -36 -6.5t-35 -21.5t-27.5 -38.5t-14.5 -57.5h230q-1 37 -11.5 61t-27 38t-37 19.5t-41.5 5.5zM377 609h-123l94 116h187z" />
    <glyph glyph-name="ecircumflex" unicode="&#xea;" 
d="M207 232q2 -37 12.5 -64t26.5 -44.5t36.5 -26t43.5 -8.5q43 0 68.5 20.5t33.5 58.5h137q-6 -34 -24 -66.5t-48 -58t-72.5 -41t-96.5 -15.5q-63 0 -110.5 20t-80 56.5t-48.5 87.5t-16 113q0 64 17 117t49.5 90.5t79.5 58t107 20.5q61 0 108.5 -22t80 -63t49 -100
t14.5 -133h-367zM320 447q-17 0 -36 -6.5t-35 -21.5t-27.5 -38.5t-14.5 -57.5h230q-1 37 -11.5 61t-27 38t-37 19.5t-41.5 5.5zM536 609h-151l-61 47l-64 -47h-151l140 116h150z" />
    <glyph glyph-name="edieresis" unicode="&#xeb;" 
d="M207 232q2 -37 12.5 -64t26.5 -44.5t36.5 -26t43.5 -8.5q43 0 68.5 20.5t33.5 58.5h137q-6 -34 -24 -66.5t-48 -58t-72.5 -41t-96.5 -15.5q-63 0 -110.5 20t-80 56.5t-48.5 87.5t-16 113q0 64 17 117t49.5 90.5t79.5 58t107 20.5q61 0 108.5 -22t80 -63t49 -100
t14.5 -133h-367zM320 447q-17 0 -36 -6.5t-35 -21.5t-27.5 -38.5t-14.5 -57.5h230q-1 37 -11.5 61t-27 38t-37 19.5t-41.5 5.5zM137 725h148v-116h-148v116zM508 725v-116h-148v116h148z" />
    <glyph glyph-name="igrave" unicode="&#xec;" 
d="M97 0v108h156v322h-156v108h300v-430h157v-108h-457zM112 725h187l94 -116h-123z" />
    <glyph glyph-name="iacute" unicode="&#xed;" 
d="M97 0v108h156v322h-156v108h300v-430h157v-108h-457zM373 609h-123l94 116h187z" />
    <glyph glyph-name="icircumflex" unicode="&#xee;" 
d="M97 0v108h156v322h-156v108h300v-430h157v-108h-457zM534 609h-151l-61 47l-64 -47h-151l140 116h150z" />
    <glyph glyph-name="idieresis" unicode="&#xef;" 
d="M97 0v108h156v322h-156v108h300v-430h157v-108h-457zM137 725h148v-116h-148v116zM508 725v-116h-148v116h148z" />
    <glyph glyph-name="eth" unicode="&#xf0;" 
d="M441 745l29 -40l-56 -38q35 -30 65 -67.5t51.5 -82t33.5 -96.5t12 -110q0 -83 -19.5 -143.5t-54 -101t-82.5 -60t-105 -19.5q-115 0 -180 71.5t-65 205.5q0 65 18 116t48 86.5t69.5 54t83.5 18.5q33 0 69.5 -14.5t58.5 -46.5l1 1q-16 38 -41.5 68.5t-57.5 55.5l-72 -49
l-29 40l58 39q-20 13 -40 23.5t-40 19.5l112 59q34 -17 64 -37zM321 98q52 0 81.5 44t29.5 122q0 75 -29.5 119.5t-81.5 44.5q-51 0 -78.5 -46.5t-27.5 -118.5q0 -73 27.5 -119t78.5 -46z" />
    <glyph glyph-name="ntilde" unicode="&#xf1;" 
d="M234 538v-63q23 36 59 55.5t84 19.5q93 0 134 -57.5t41 -154.5v-338h-144v314q0 21 -2 43.5t-10 40.5t-24 29.5t-43 11.5q-30 0 -49 -12.5t-29 -33.5t-13.5 -49t-3.5 -59v-285h-144v538h144zM384 681q44 0 52 44h97q-11 -63 -45.5 -95t-88.5 -32q-26 0 -45 7t-34.5 15
t-29 15t-28.5 7q-43 0 -52 -44h-96q9 60 43.5 93.5t91.5 33.5q26 0 44 -7t32.5 -15t28 -15t30.5 -7z" />
    <glyph glyph-name="ograve" unicode="&#xf2;" 
d="M580 269q0 -77 -21.5 -131t-57.5 -87.5t-82.5 -48.5t-95.5 -15q-50 0 -96 15t-82 48.5t-57.5 87.5t-21.5 131t21.5 130.5t57.5 87t82 48.5t96 15q49 0 95.5 -15t82.5 -48.5t57.5 -87t21.5 -130.5zM436 269q0 93 -30.5 134t-82.5 41t-82.5 -41t-30.5 -134t30.5 -134.5
t82.5 -41.5t82.5 41.5t30.5 134.5zM108 725h187l94 -116h-123z" />
    <glyph glyph-name="oacute" unicode="&#xf3;" 
d="M580 269q0 -77 -21.5 -131t-57.5 -87.5t-82.5 -48.5t-95.5 -15q-50 0 -96 15t-82 48.5t-57.5 87.5t-21.5 131t21.5 130.5t57.5 87t82 48.5t96 15q49 0 95.5 -15t82.5 -48.5t57.5 -87t21.5 -130.5zM436 269q0 93 -30.5 134t-82.5 41t-82.5 -41t-30.5 -134t30.5 -134.5
t82.5 -41.5t82.5 41.5t30.5 134.5zM371 609h-123l94 116h187z" />
    <glyph glyph-name="ocircumflex" unicode="&#xf4;" 
d="M580 269q0 -77 -21.5 -131t-57.5 -87.5t-82.5 -48.5t-95.5 -15q-50 0 -96 15t-82 48.5t-57.5 87.5t-21.5 131t21.5 130.5t57.5 87t82 48.5t96 15q49 0 95.5 -15t82.5 -48.5t57.5 -87t21.5 -130.5zM436 269q0 93 -30.5 134t-82.5 41t-82.5 -41t-30.5 -134t30.5 -134.5
t82.5 -41.5t82.5 41.5t30.5 134.5zM536 609h-151l-61 47l-64 -47h-151l140 116h150z" />
    <glyph glyph-name="otilde" unicode="&#xf5;" 
d="M580 269q0 -77 -21.5 -131t-57.5 -87.5t-82.5 -48.5t-95.5 -15q-50 0 -96 15t-82 48.5t-57.5 87.5t-21.5 131t21.5 130.5t57.5 87t82 48.5t96 15q49 0 95.5 -15t82.5 -48.5t57.5 -87t21.5 -130.5zM436 269q0 93 -30.5 134t-82.5 41t-82.5 -41t-30.5 -134t30.5 -134.5
t82.5 -41.5t82.5 41.5t30.5 134.5zM383 681q44 0 52 44h97q-11 -63 -45.5 -95t-88.5 -32q-26 0 -45 7t-34.5 15t-29 15t-28.5 7q-43 0 -52 -44h-96q9 60 43.5 93.5t91.5 33.5q26 0 44 -7t32.5 -15t28 -15t30.5 -7z" />
    <glyph glyph-name="odieresis" unicode="&#xf6;" 
d="M580 269q0 -77 -21.5 -131t-57.5 -87.5t-82.5 -48.5t-95.5 -15q-50 0 -96 15t-82 48.5t-57.5 87.5t-21.5 131t21.5 130.5t57.5 87t82 48.5t96 15q49 0 95.5 -15t82.5 -48.5t57.5 -87t21.5 -130.5zM436 269q0 93 -30.5 134t-82.5 41t-82.5 -41t-30.5 -134t30.5 -134.5
t82.5 -41.5t82.5 41.5t30.5 134.5zM137 725h148v-116h-148v116zM508 725v-116h-148v116h148z" />
    <glyph glyph-name="divide" unicode="&#xf7;" 
d="M248 163h149v-139h-149v139zM248 514h149v-139h-149v139zM56 209v120h534v-120h-534z" />
    <glyph glyph-name="oslash" unicode="&#xf8;" 
d="M580 269q0 -77 -21.5 -131t-57.5 -87.5t-82.5 -48.5t-95.5 -15q-45 0 -86 12t-76 38l-43 -50l-40 36l45 51q-26 34 -41.5 81.5t-15.5 113.5q0 77 21.5 130.5t57.5 87t82 48.5t96 15q45 0 88 -12.5t78 -41.5l36 41l41 -35l-39 -45q25 -33 39 -79t14 -109zM210 269
q0 -50 9 -84l188 216q-30 43 -84 43q-52 0 -82.5 -41t-30.5 -134zM436 269q0 22 -2 40.5t-5 34.5l-186 -213q28 -38 80 -38t82.5 41.5t30.5 134.5z" />
    <glyph glyph-name="ugrave" unicode="&#xf9;" 
d="M412 59q-23 -37 -58.5 -54.5t-78.5 -17.5q-49 0 -83.5 15t-56 42.5t-31.5 67t-10 87.5v339h144v-315q0 -21 2 -43.5t10 -40.5t24 -29.5t43 -11.5q30 0 48.5 12.5t29 33.5t14 49t3.5 59v286h144v-538h-144v59zM132 725h187l94 -116h-123z" />
    <glyph glyph-name="uacute" unicode="&#xfa;" 
d="M412 59q-23 -37 -58.5 -54.5t-78.5 -17.5q-49 0 -83.5 15t-56 42.5t-31.5 67t-10 87.5v339h144v-315q0 -21 2 -43.5t10 -40.5t24 -29.5t43 -11.5q30 0 48.5 12.5t29 33.5t14 49t3.5 59v286h144v-538h-144v59zM390 609h-123l94 116h187z" />
    <glyph glyph-name="ucircumflex" unicode="&#xfb;" 
d="M412 59q-23 -37 -58.5 -54.5t-78.5 -17.5q-49 0 -83.5 15t-56 42.5t-31.5 67t-10 87.5v339h144v-315q0 -21 2 -43.5t10 -40.5t24 -29.5t43 -11.5q30 0 48.5 12.5t29 33.5t14 49t3.5 59v286h144v-538h-144v59zM538 609h-151l-61 47l-64 -47h-151l140 116h150z" />
    <glyph glyph-name="udieresis" unicode="&#xfc;" 
d="M412 59q-23 -37 -58.5 -54.5t-78.5 -17.5q-49 0 -83.5 15t-56 42.5t-31.5 67t-10 87.5v339h144v-315q0 -21 2 -43.5t10 -40.5t24 -29.5t43 -11.5q30 0 48.5 12.5t29 33.5t14 49t3.5 59v286h144v-538h-144v59zM139 725h148v-116h-148v116zM510 725v-116h-148v116h148z" />
    <glyph glyph-name="yacute" unicode="&#xfd;" 
d="M400 18q-24 -62 -42.5 -100t-40 -58.5t-51.5 -27.5t-77 -7h-115v107h106q15 0 25.5 2t18 8t13.5 17t14 28l5 13l-207 538h149l131 -367l126 367h142zM381 609h-123l94 116h187z" />
    <glyph glyph-name="thorn" unicode="&#xfe;" 
d="M223 470q20 38 55 59t83 21q46 0 86 -18t69 -54t46 -88.5t17 -121.5t-17 -121.5t-46 -88t-69 -53.5t-86 -18q-48 0 -83 21t-55 59v-242h-144v900h144v-255zM218 268q0 -85 29.5 -130t81.5 -45q51 0 78.5 47t27.5 128t-27.5 128.5t-78.5 47.5q-52 0 -81.5 -45.5
t-29.5 -130.5z" />
    <glyph glyph-name="ydieresis" unicode="&#xff;" 
d="M400 18q-24 -62 -42.5 -100t-40 -58.5t-51.5 -27.5t-77 -7h-115v107h106q15 0 25.5 2t18 8t13.5 17t14 28l5 13l-207 538h149l131 -367l126 367h142zM142 725h148v-116h-148v116zM513 725v-116h-148v116h148z" />
    <glyph glyph-name="Abreve" unicode="&#x102;" 
d="M229 725h187l187 -725h-164l-33 151h-170l-33 -151h-160zM262 268h118l-58 266zM514 874q-6 -62 -52 -89.5t-140 -27.5q-91 0 -138 27.5t-52 89.5h118q4 -26 24.5 -36t47.5 -10q28 0 49 10t25 36h118z" />
    <glyph glyph-name="Amacron" unicode="&#x100;" 
d="M229 725h187l187 -725h-164l-33 151h-170l-33 -151h-160zM262 268h118l-58 266zM155 771v94h336v-94h-336z" />
    <glyph glyph-name="Aogonek" unicode="&#x104;" 
d="M603 0q-38 -19 -62.5 -34t-24.5 -38q0 -20 13 -26t31 -6q16 0 30.5 3.5t25.5 6.5v-82q-10 -2 -23.5 -4t-27.5 -3.5t-28 -2t-24 -0.5q-27 0 -52 5t-44 15.5t-30.5 27.5t-11.5 42q0 62 64 96h164zM229 725h187l187 -725h-164l-33 151h-170l-33 -151h-160zM262 268h118
l-58 266z" />
    <glyph glyph-name="Cacute" unicode="&#x106;" 
d="M593 252q-14 -128 -77 -196.5t-185 -68.5q-71 0 -123.5 25.5t-87.5 74t-52 118.5t-17 158t18 157.5t53.5 118t89 74t124.5 25.5q60 0 104.5 -19t75.5 -53.5t48.5 -83t22.5 -108.5h-147q-6 75 -31 110.5t-79 35.5q-60 0 -90 -60.5t-30 -196.5q0 -139 29 -198.5t91 -59.5
q49 0 79 33t35 114h149zM386 761h-145l104 113h202z" />
    <glyph glyph-name="Ccaron" unicode="&#x10c;" 
d="M593 252q-14 -128 -77 -196.5t-185 -68.5q-71 0 -123.5 25.5t-87.5 74t-52 118.5t-17 158t18 157.5t53.5 118t89 74t124.5 25.5q60 0 104.5 -19t75.5 -53.5t48.5 -83t22.5 -108.5h-147q-6 75 -31 110.5t-79 35.5q-60 0 -90 -60.5t-30 -196.5q0 -139 29 -198.5t91 -59.5
q49 0 79 33t35 114h149zM104 874h164l54 -49l59 49h162l-140 -113h-162z" />
    <glyph glyph-name="Ccircumflex" unicode="&#x108;" 
d="M593 252q-14 -128 -77 -196.5t-185 -68.5q-71 0 -123.5 25.5t-87.5 74t-52 118.5t-17 158t18 157.5t53.5 118t89 74t124.5 25.5q60 0 104.5 -19t75.5 -53.5t48.5 -83t22.5 -108.5h-147q-6 75 -31 110.5t-79 35.5q-60 0 -90 -60.5t-30 -196.5q0 -139 29 -198.5t91 -59.5
q49 0 79 33t35 114h149zM543 761h-164l-55 50l-59 -50h-162l140 113h162z" />
    <glyph glyph-name="Cdotaccent" unicode="&#x10a;" 
d="M593 252q-14 -128 -77 -196.5t-185 -68.5q-71 0 -123.5 25.5t-87.5 74t-52 118.5t-17 158t18 157.5t53.5 118t89 74t124.5 25.5q60 0 104.5 -19t75.5 -53.5t48.5 -83t22.5 -108.5h-147q-6 75 -31 110.5t-79 35.5q-60 0 -90 -60.5t-30 -196.5q0 -139 29 -198.5t91 -59.5
q49 0 79 33t35 114h149zM409 874v-113h-172v113h172z" />
    <glyph glyph-name="Dcaron" unicode="&#x10e;" 
d="M438 363q0 72 -14 118.5t-39.5 73.5t-62 37.5t-82.5 10.5h-13v-480h13q46 0 82.5 10.5t62 37.5t39.5 73.5t14 118.5zM247 725q74 0 138 -17.5t111 -59.5t74 -111.5t27 -173.5t-27.5 -173.5t-75.5 -111.5t-112.5 -60t-138.5 -18h-166v725h170zM89 874h164l54 -49l59 49
h162l-140 -113h-162z" />
    <glyph glyph-name="Dcroat" unicode="&#x110;" 
d="M260 725q74 0 138 -17.5t111 -59.5t74 -111.5t27 -173.5t-27.5 -173.5t-75.5 -111.5t-112.5 -60t-138.5 -18h-166v302h-55v129h55v294h170zM451 363q0 72 -14 118.5t-39.5 73.5t-62 37.5t-82.5 10.5h-13v-172h127v-129h-127v-179h13q46 0 82.5 10.5t62 37.5t39.5 73.5
t14 118.5z" />
    <glyph glyph-name="Ebreve" unicode="&#x114;" 
d="M107 725h439v-129h-289v-161h269v-129h-269v-177h289v-129h-439v725zM518 874q-6 -62 -52 -89.5t-140 -27.5q-91 0 -138 27.5t-52 89.5h118q4 -26 24.5 -36t47.5 -10q28 0 49 10t25 36h118z" />
    <glyph glyph-name="Ecaron" unicode="&#x11a;" 
d="M107 725h439v-129h-289v-161h269v-129h-269v-177h289v-129h-439v725zM106 874h164l54 -49l59 49h162l-140 -113h-162z" />
    <glyph glyph-name="Emacron" unicode="&#x112;" 
d="M107 725h439v-129h-289v-161h269v-129h-269v-177h289v-129h-439v725zM162 771v94h336v-94h-336z" />
    <glyph glyph-name="Eogonek" unicode="&#x118;" 
d="M107 725h439v-129h-289v-161h269v-129h-269v-177h289v-129h-439v725zM546 0q-38 -19 -62.5 -34t-24.5 -38q0 -20 13 -26t31 -6q16 0 30.5 3.5t25.5 6.5v-82q-10 -2 -23.5 -4t-27.5 -3.5t-28 -2t-24 -0.5q-27 0 -52 5t-44 15.5t-30.5 27.5t-11.5 42q0 30 19 54.5t50 41.5
h159z" />
    <glyph glyph-name="Edotaccent" unicode="&#x116;" 
d="M107 725h439v-129h-289v-161h269v-129h-269v-177h289v-129h-439v725zM410 874v-113h-172v113h172z" />
    <glyph glyph-name="Gbreve" unicode="&#x11e;" 
d="M448 483q-5 70 -35.5 103.5t-83.5 33.5q-63 0 -95.5 -60.5t-32.5 -196.5q0 -139 32.5 -198.5t95.5 -59.5q52 0 85.5 39.5t33.5 108.5v17h-132v118h283v-388h-115l-5 90q-26 -54 -66 -78.5t-98 -24.5q-66 0 -117 25.5t-85.5 74t-52.5 118.5t-18 158t18.5 157.5t55.5 118
t91.5 74t126.5 25.5q59 0 105.5 -18t80 -51.5t52.5 -80.5t24 -105h-148zM511 874q-6 -62 -52 -89.5t-140 -27.5q-91 0 -138 27.5t-52 89.5h118q4 -26 24.5 -36t47.5 -10q28 0 49 10t25 36h118z" />
    <glyph glyph-name="Gcircumflex" unicode="&#x11c;" 
d="M448 483q-5 70 -35.5 103.5t-83.5 33.5q-63 0 -95.5 -60.5t-32.5 -196.5q0 -139 32.5 -198.5t95.5 -59.5q52 0 85.5 39.5t33.5 108.5v17h-132v118h283v-388h-115l-5 90q-26 -54 -66 -78.5t-98 -24.5q-66 0 -117 25.5t-85.5 74t-52.5 118.5t-18 158t18.5 157.5t55.5 118
t91.5 74t126.5 25.5q59 0 105.5 -18t80 -51.5t52.5 -80.5t24 -105h-148zM553 761h-164l-55 50l-59 -50h-162l140 113h162z" />
    <glyph glyph-name="Gcommaaccent" unicode="&#x122;" 
d="M448 483q-5 70 -35.5 103.5t-83.5 33.5q-63 0 -95.5 -60.5t-32.5 -196.5q0 -139 32.5 -198.5t95.5 -59.5q52 0 85.5 39.5t33.5 108.5v17h-132v118h283v-388h-115l-5 90q-26 -54 -66 -78.5t-98 -24.5q-66 0 -117 25.5t-85.5 74t-52.5 118.5t-18 158t18.5 157.5t55.5 118
t91.5 74t126.5 25.5q59 0 105.5 -18t80 -51.5t52.5 -80.5t24 -105h-148zM258 -36h127v-106l-44 -89h-86l38 95h-35v100z" />
    <glyph glyph-name="Gdotaccent" unicode="&#x120;" 
d="M448 483q-5 70 -35.5 103.5t-83.5 33.5q-63 0 -95.5 -60.5t-32.5 -196.5q0 -139 32.5 -198.5t95.5 -59.5q52 0 85.5 39.5t33.5 108.5v17h-132v118h283v-388h-115l-5 90q-26 -54 -66 -78.5t-98 -24.5q-66 0 -117 25.5t-85.5 74t-52.5 118.5t-18 158t18.5 157.5t55.5 118
t91.5 74t126.5 25.5q59 0 105.5 -18t80 -51.5t52.5 -80.5t24 -105h-148zM416 874v-113h-172v113h172z" />
    <glyph glyph-name="Hbar" unicode="&#x126;" 
d="M578 725v-100h48v-108h-48v-517h-150v306h-210v-306h-150v517h-48v108h48v100h150v-100h210v100h150zM428 435v82h-210v-82h210z" />
    <glyph glyph-name="Hcircumflex" unicode="&#x124;" 
d="M578 725v-725h-150v306h-210v-306h-150v725h150v-290h210v290h150zM543 761h-164l-55 50l-59 -50h-162l140 113h162z" />
    <glyph glyph-name="Ibreve" unicode="&#x12c;" 
d="M76 725h494v-129h-172v-467h172v-129h-494v129h172v467h-172v129zM514 874q-6 -62 -52 -89.5t-140 -27.5q-91 0 -138 27.5t-52 89.5h118q4 -26 24.5 -36t47.5 -10q28 0 49 10t25 36h118z" />
    <glyph glyph-name="Idotaccent" unicode="&#x130;" 
d="M76 725h494v-129h-172v-467h172v-129h-494v129h172v467h-172v129zM410 874v-113h-172v113h172z" />
    <glyph glyph-name="Imacron" unicode="&#x12a;" 
d="M76 725h494v-129h-172v-467h172v-129h-494v129h172v467h-172v129zM155 771v94h336v-94h-336z" />
    <glyph glyph-name="Iogonek" unicode="&#x12e;" 
d="M76 725h494v-129h-172v-467h172v-129h-494v129h172v467h-172v129zM403 0q-38 -19 -62.5 -34t-24.5 -38q0 -20 13 -26t31 -6q16 0 30.5 3.5t25.5 6.5v-82q-10 -2 -23.5 -4t-27.5 -3.5t-28 -2t-24 -0.5q-27 0 -52 5t-44 15.5t-30.5 27.5t-11.5 42q0 30 19 54.5t50 41.5h159
z" />
    <glyph glyph-name="Itilde" unicode="&#x128;" 
d="M76 725h494v-129h-172v-467h172v-129h-494v129h172v467h-172v129zM383 837q23 0 37 9t18 28h97q-7 -38 -24 -60.5t-38.5 -34.5t-43.5 -16t-39 -4q-24 0 -42 5.5t-32 12.5t-27 12.5t-28 5.5q-46 0 -53 -36h-97q7 37 24 60t38 35t43 16t39 4q24 0 41 -6t30.5 -12.5
t26.5 -12.5t30 -6z" />
    <glyph glyph-name="uni1ECA" unicode="&#x1eca;" 
d="M76 725h494v-129h-172v-467h172v-129h-494v129h172v467h-172v129zM396 -58v-116h-148v116h148z" />
    <glyph glyph-name="Jcircumflex" unicode="&#x134;" 
d="M538 725v-511q0 -61 -18.5 -104t-49.5 -70.5t-72 -40t-86 -12.5q-61 0 -105.5 20t-73.5 54.5t-44 80.5t-17 98h145q5 -60 27 -95.5t64 -35.5q36 0 58 24.5t22 78.5v383h-236v130h386zM571 761h-164l-55 50l-59 -50h-162l140 113h162z" />
    <glyph glyph-name="Kcommaaccent" unicode="&#x136;" 
d="M228 452l197 273h175l-209 -276l221 -449h-171l-155 311l-58 -77v-234h-150v725h150v-273zM267 -36h127v-106l-44 -89h-86l38 95h-35v100z" />
    <glyph glyph-name="Lacute" unicode="&#x139;" 
d="M255 129h338v-129h-488v725h150v-596zM257 761h-145l104 113h202z" />
    <glyph glyph-name="Lcaron" unicode="&#x13d;" 
d="M255 129h338v-129h-488v725h150v-596zM425 555h-78l30 170h118z" />
    <glyph glyph-name="Lcommaaccent" unicode="&#x13b;" 
d="M255 129h338v-129h-488v725h150v-596zM303 -36h127v-106l-44 -89h-86l38 95h-35v100z" />
    <glyph glyph-name="Ldot" unicode="&#x13f;" 
d="M255 129h338v-129h-488v725h150v-596zM550 475v-113h-172v113h172z" />
    <glyph glyph-name="Lslash" unicode="&#x141;" 
d="M266 476l124 75v-158l-124 -75v-189h338v-129h-488v228l-77 -46v158l77 46v339h150v-249z" />
    <glyph glyph-name="Nacute" unicode="&#x143;" 
d="M383 0l-159 501v-501h-150v725h188l160 -500v500h150v-725h-189zM414 761h-145l104 113h202z" />
    <glyph glyph-name="Ncaron" unicode="&#x147;" 
d="M383 0l-159 501v-501h-150v725h188l160 -500v500h150v-725h-189zM115 874h164l54 -49l59 49h162l-140 -113h-162z" />
    <glyph glyph-name="Ncommaaccent" unicode="&#x145;" 
d="M383 0l-159 501v-501h-150v725h188l160 -500v500h150v-725h-189zM250 -36h127v-106l-44 -89h-86l38 95h-35v100z" />
    <glyph glyph-name="OE" unicode="&#x152;" 
d="M239 738q42 0 67 -14h298v-129h-181v-159h162v-129h-162v-178h181v-129h-299q-26 -13 -66 -13q-61 0 -100 26.5t-61.5 76t-31 119t-8.5 155.5t8.5 155t31 118t61.5 75t100 26zM239 616q-29 0 -35.5 -60.5t-6.5 -191.5t6.5 -192.5t35.5 -61.5t35.5 61.5t6.5 192.5
t-6.5 191.5t-35.5 60.5z" />
    <glyph glyph-name="Obreve" unicode="&#x14e;" 
d="M198 363q0 -57 6.5 -104.5t21.5 -81.5t38.5 -53t58.5 -19t59 19t38.5 53t21 81.5t6.5 104.5t-6.5 104.5t-21 81.5t-38.5 52.5t-59 18.5t-58.5 -18.5t-38.5 -52.5t-21.5 -81.5t-6.5 -104.5zM39 363q0 84 17 153.5t51.5 118.5t88 76t127.5 27q73 0 127 -27t88.5 -76
t51.5 -118.5t17 -153.5t-17 -153.5t-51.5 -119t-88.5 -76.5t-127 -27q-74 0 -127.5 27t-88 76.5t-51.5 119t-17 153.5zM514 874q-6 -62 -52 -89.5t-140 -27.5q-91 0 -138 27.5t-52 89.5h118q4 -26 24.5 -36t47.5 -10q28 0 49 10t25 36h118z" />
    <glyph glyph-name="Ohungarumlaut" unicode="&#x150;" 
d="M198 363q0 -57 6.5 -104.5t21.5 -81.5t38.5 -53t58.5 -19t59 19t38.5 53t21 81.5t6.5 104.5t-6.5 104.5t-21 81.5t-38.5 52.5t-59 18.5t-58.5 -18.5t-38.5 -52.5t-21.5 -81.5t-6.5 -104.5zM39 363q0 84 17 153.5t51.5 118.5t88 76t127.5 27q73 0 127 -27t88.5 -76
t51.5 -118.5t17 -153.5t-17 -153.5t-51.5 -119t-88.5 -76.5t-127 -27q-74 0 -127.5 27t-88 76.5t-51.5 119t-17 153.5zM268 761h-145l103 113h202zM488 761h-145l103 113h201z" />
    <glyph glyph-name="Omacron" unicode="&#x14c;" 
d="M198 363q0 -57 6.5 -104.5t21.5 -81.5t38.5 -53t58.5 -19t59 19t38.5 53t21 81.5t6.5 104.5t-6.5 104.5t-21 81.5t-38.5 52.5t-59 18.5t-58.5 -18.5t-38.5 -52.5t-21.5 -81.5t-6.5 -104.5zM39 363q0 84 17 153.5t51.5 118.5t88 76t127.5 27q73 0 127 -27t88.5 -76
t51.5 -118.5t17 -153.5t-17 -153.5t-51.5 -119t-88.5 -76.5t-127 -27q-74 0 -127.5 27t-88 76.5t-51.5 119t-17 153.5zM155 771v94h336v-94h-336z" />
    <glyph glyph-name="uni1ECC" unicode="&#x1ecc;" 
d="M198 363q0 -57 6.5 -104.5t21.5 -81.5t38.5 -53t58.5 -19t59 19t38.5 53t21 81.5t6.5 104.5t-6.5 104.5t-21 81.5t-38.5 52.5t-59 18.5t-58.5 -18.5t-38.5 -52.5t-21.5 -81.5t-6.5 -104.5zM39 363q0 84 17 153.5t51.5 118.5t88 76t127.5 27q73 0 127 -27t88.5 -76
t51.5 -118.5t17 -153.5t-17 -153.5t-51.5 -119t-88.5 -76.5t-127 -27q-74 0 -127.5 27t-88 76.5t-51.5 119t-17 153.5zM396 -58v-116h-148v116h148z" />
    <glyph glyph-name="Racute" unicode="&#x154;" 
d="M287 294h-14h-43v-294h-150v725h193q62 0 115 -8.5t92 -31.5t61 -65.5t22 -109.5q0 -78 -36.5 -120.5t-93.5 -63.5l162 -326h-165zM230 603v-191h48q27 0 50 4t40 14.5t26.5 29t9.5 47.5t-9.5 48t-26.5 29.5t-40 14.5t-50 4h-48zM356 761h-145l104 113h202z" />
    <glyph glyph-name="Rcaron" unicode="&#x158;" 
d="M287 294h-14h-43v-294h-150v725h193q62 0 115 -8.5t92 -31.5t61 -65.5t22 -109.5q0 -78 -36.5 -120.5t-93.5 -63.5l162 -326h-165zM230 603v-191h48q27 0 50 4t40 14.5t26.5 29t9.5 47.5t-9.5 48t-26.5 29.5t-40 14.5t-50 4h-48zM77 874h164l54 -49l59 49h162l-140 -113
h-162z" />
    <glyph glyph-name="Rcommaaccent" unicode="&#x156;" 
d="M287 294h-14h-43v-294h-150v725h193q62 0 115 -8.5t92 -31.5t61 -65.5t22 -109.5q0 -78 -36.5 -120.5t-93.5 -63.5l162 -326h-165zM230 603v-191h48q27 0 50 4t40 14.5t26.5 29t9.5 47.5t-9.5 48t-26.5 29.5t-40 14.5t-50 4h-48zM262 -36h127v-106l-44 -89h-86l38 95h-35
v100z" />
    <glyph glyph-name="Sacute" unicode="&#x15a;" 
d="M72 528q0 54 22 93.5t58 65.5t81 38.5t91 12.5t88.5 -13t76.5 -41t57 -71.5t29 -103.5h-144q-7 54 -36.5 84t-78.5 30q-42 0 -68 -22t-26 -59q0 -35 21 -59.5t70 -36.5l63 -16q36 -9 74 -23.5t69 -39.5t51 -62.5t20 -92.5q0 -59 -21.5 -101.5t-56.5 -70t-79.5 -40.5
t-89.5 -13q-61 0 -110.5 17.5t-86 50.5t-58.5 80t-28 105h145q8 -62 41.5 -100t92.5 -38q43 0 71.5 22.5t28.5 63.5q0 80 -106 107l-74 20q-36 9 -70 27t-60 44.5t-41.5 61.5t-15.5 80zM388 761h-145l104 113h202z" />
    <glyph glyph-name="Scaron" unicode="&#x160;" 
d="M72 528q0 54 22 93.5t58 65.5t81 38.5t91 12.5t88.5 -13t76.5 -41t57 -71.5t29 -103.5h-144q-7 54 -36.5 84t-78.5 30q-42 0 -68 -22t-26 -59q0 -35 21 -59.5t70 -36.5l63 -16q36 -9 74 -23.5t69 -39.5t51 -62.5t20 -92.5q0 -59 -21.5 -101.5t-56.5 -70t-79.5 -40.5
t-89.5 -13q-61 0 -110.5 17.5t-86 50.5t-58.5 80t-28 105h145q8 -62 41.5 -100t92.5 -38q43 0 71.5 22.5t28.5 63.5q0 80 -106 107l-74 20q-36 9 -70 27t-60 44.5t-41.5 61.5t-15.5 80zM103 874h164l54 -49l59 49h162l-140 -113h-162z" />
    <glyph glyph-name="Scedilla" unicode="&#x15e;" 
d="M72 528q0 54 22 93.5t58 65.5t81 38.5t91 12.5t88.5 -13t76.5 -41t57 -71.5t29 -103.5h-144q-7 54 -36.5 84t-78.5 30q-42 0 -68 -22t-26 -59q0 -35 21 -59.5t70 -36.5l63 -16q36 -9 74 -23.5t69 -39.5t51 -62.5t20 -92.5q0 -59 -21.5 -101.5t-56.5 -70t-79.5 -40.5
t-89.5 -13q-61 0 -110.5 17.5t-86 50.5t-58.5 80t-28 105h145q8 -62 41.5 -100t92.5 -38q43 0 71.5 22.5t28.5 63.5q0 80 -106 107l-74 20q-36 9 -70 27t-60 44.5t-41.5 61.5t-15.5 80zM254 -133q9 -5 27.5 -9.5t37.5 -4.5q20 0 34.5 6t14.5 23q0 14 -11 21t-29 7
q-9 0 -20 -2t-19 -7l-30 17l52 83h61l-32 -52q12 4 36 4q15 0 32 -3.5t30.5 -11.5t22.5 -21t9 -32q0 -24 -12 -40t-31.5 -26.5t-44.5 -15t-51 -4.5q-25 0 -49.5 3.5t-44.5 10.5z" />
    <glyph glyph-name="Scircumflex" unicode="&#x15c;" 
d="M72 528q0 54 22 93.5t58 65.5t81 38.5t91 12.5t88.5 -13t76.5 -41t57 -71.5t29 -103.5h-144q-7 54 -36.5 84t-78.5 30q-42 0 -68 -22t-26 -59q0 -35 21 -59.5t70 -36.5l63 -16q36 -9 74 -23.5t69 -39.5t51 -62.5t20 -92.5q0 -59 -21.5 -101.5t-56.5 -70t-79.5 -40.5
t-89.5 -13q-61 0 -110.5 17.5t-86 50.5t-58.5 80t-28 105h145q8 -62 41.5 -100t92.5 -38q43 0 71.5 22.5t28.5 63.5q0 80 -106 107l-74 20q-36 9 -70 27t-60 44.5t-41.5 61.5t-15.5 80zM543 761h-164l-55 50l-59 -50h-162l140 113h162z" />
    <glyph glyph-name="Scommaaccent" unicode="&#x218;" 
d="M72 528q0 54 22 93.5t58 65.5t81 38.5t91 12.5t88.5 -13t76.5 -41t57 -71.5t29 -103.5h-144q-7 54 -36.5 84t-78.5 30q-42 0 -68 -22t-26 -59q0 -35 21 -59.5t70 -36.5l63 -16q36 -9 74 -23.5t69 -39.5t51 -62.5t20 -92.5q0 -59 -21.5 -101.5t-56.5 -70t-79.5 -40.5
t-89.5 -13q-61 0 -110.5 17.5t-86 50.5t-58.5 80t-28 105h145q8 -62 41.5 -100t92.5 -38q43 0 71.5 22.5t28.5 63.5q0 80 -106 107l-74 20q-36 9 -70 27t-60 44.5t-41.5 61.5t-15.5 80zM275 -36h127v-106l-44 -89h-86l38 95h-35v100z" />
    <glyph glyph-name="Tcaron" unicode="&#x164;" 
d="M248 596h-205v129h560v-129h-205v-596h-150v596zM103 874h164l54 -49l59 49h162l-140 -113h-162z" />
    <glyph glyph-name="uni0162" unicode="&#x162;" 
d="M259 -36h127v-106l-44 -89h-86l38 95h-35v100zM248 596h-205v129h560v-129h-205v-596h-150v596z" />
    <glyph glyph-name="Tcommaaccent" unicode="&#x21a;" 
d="M248 596h-205v129h560v-129h-205v-596h-150v596zM259 -36h127v-106l-44 -89h-86l38 95h-35v100z" />
    <glyph glyph-name="Ubreve" unicode="&#x16c;" 
d="M219 725v-451q0 -79 21.5 -121.5t84.5 -42.5q31 0 50.5 12.5t31 35t16 55t4.5 72.5v440h150v-409q0 -84 -11.5 -145.5t-40 -102.5t-77 -61t-123.5 -20q-72 0 -121 17t-79 55t-43 99.5t-13 151.5v415h150zM540 874q-6 -62 -52 -89.5t-140 -27.5q-91 0 -138 27.5t-52 89.5
h118q4 -26 24.5 -36t47.5 -10q28 0 49 10t25 36h118z" />
    <glyph glyph-name="Uhungarumlaut" unicode="&#x170;" 
d="M219 725v-451q0 -79 21.5 -121.5t84.5 -42.5q31 0 50.5 12.5t31 35t16 55t4.5 72.5v440h150v-409q0 -84 -11.5 -145.5t-40 -102.5t-77 -61t-123.5 -20q-72 0 -121 17t-79 55t-43 99.5t-13 151.5v415h150zM267 761h-145l103 113h202zM487 761h-145l103 113h201z" />
    <glyph glyph-name="Umacron" unicode="&#x16a;" 
d="M219 725v-451q0 -79 21.5 -121.5t84.5 -42.5q31 0 50.5 12.5t31 35t16 55t4.5 72.5v440h150v-409q0 -84 -11.5 -145.5t-40 -102.5t-77 -61t-123.5 -20q-72 0 -121 17t-79 55t-43 99.5t-13 151.5v415h150zM155 771v94h336v-94h-336z" />
    <glyph glyph-name="Uogonek" unicode="&#x172;" 
d="M219 725v-451q0 -79 21.5 -121.5t84.5 -42.5q31 0 50.5 12.5t31 35t16 55t4.5 72.5v440h150v-409q0 -84 -11.5 -145.5t-40 -102.5t-77 -61t-123.5 -20q-72 0 -121 17t-79 55t-43 99.5t-13 151.5v415h150zM430 0q-38 -19 -62.5 -34t-24.5 -38q0 -20 13 -26t31 -6
q16 0 30.5 3.5t25.5 6.5v-82q-10 -2 -23.5 -4t-27.5 -3.5t-28 -2t-24 -0.5q-27 0 -52 5t-44 15.5t-30.5 27.5t-11.5 42q0 30 19 54.5t50 41.5h159z" />
    <glyph glyph-name="Uring" unicode="&#x16e;" 
d="M219 725v-451q0 -79 21.5 -121.5t84.5 -42.5q31 0 50.5 12.5t31 35t16 55t4.5 72.5v440h150v-409q0 -84 -11.5 -145.5t-40 -102.5t-77 -61t-123.5 -20q-72 0 -121 17t-79 55t-43 99.5t-13 151.5v415h150zM323 921q38 0 64.5 -23.5t26.5 -61.5q0 -37 -26.5 -61t-64.5 -24
t-64.5 24t-26.5 61q0 38 27 61.5t64 23.5zM323 879q-17 0 -30 -12t-13 -31q0 -18 13 -30t30 -12t30 12t13 30q0 19 -13 31t-30 12z" />
    <glyph glyph-name="Utilde" unicode="&#x168;" 
d="M219 725v-451q0 -79 21.5 -121.5t84.5 -42.5q31 0 50.5 12.5t31 35t16 55t4.5 72.5v440h150v-409q0 -84 -11.5 -145.5t-40 -102.5t-77 -61t-123.5 -20q-72 0 -121 17t-79 55t-43 99.5t-13 151.5v415h150zM383 837q23 0 37 9t18 28h97q-7 -38 -24 -60.5t-38.5 -34.5
t-43.5 -16t-39 -4q-24 0 -42 5.5t-32 12.5t-27 12.5t-28 5.5q-46 0 -53 -36h-97q7 37 24 60t38 35t43 16t39 4q24 0 41 -6t30.5 -12.5t26.5 -12.5t30 -6z" />
    <glyph glyph-name="uni1EE4" unicode="&#x1ee4;" 
d="M219 725v-451q0 -79 21.5 -121.5t84.5 -42.5q31 0 50.5 12.5t31 35t16 55t4.5 72.5v440h150v-409q0 -84 -11.5 -145.5t-40 -102.5t-77 -61t-123.5 -20q-72 0 -121 17t-79 55t-43 99.5t-13 151.5v415h150zM396 -58v-116h-148v116h148z" />
    <glyph glyph-name="Wacute" unicode="&#x1e82;" 
d="M432 197l25 528h157l-45 -725h-184l-63 369l-62 -369h-184l-45 725h157l24 -528l54 335h112zM393 761h-145l104 113h202z" />
    <glyph glyph-name="Wcircumflex" unicode="&#x174;" 
d="M432 197l25 528h157l-45 -725h-184l-63 369l-62 -369h-184l-45 725h157l24 -528l54 335h112zM543 761h-164l-55 50l-59 -50h-162l140 113h162z" />
    <glyph glyph-name="Wdieresis" unicode="&#x1e84;" 
d="M432 197l25 528h157l-45 -725h-184l-63 369l-62 -369h-184l-45 725h157l24 -528l54 335h112zM282 874v-113h-148v113h148zM512 874v-113h-148v113h148z" />
    <glyph glyph-name="Wgrave" unicode="&#x1e80;" 
d="M432 197l25 528h157l-45 -725h-184l-63 369l-62 -369h-184l-45 725h157l24 -528l54 335h112zM93 874h201l105 -113h-146z" />
    <glyph glyph-name="Ycircumflex" unicode="&#x176;" 
d="M452 725h171l-225 -465v-260h-150v260l-225 465h171l129 -300zM543 761h-164l-55 50l-59 -50h-162l140 113h162z" />
    <glyph glyph-name="Ydieresis" unicode="&#x178;" 
d="M452 725h171l-225 -465v-260h-150v260l-225 465h171l129 -300zM282 874v-113h-148v113h148zM512 874v-113h-148v113h148z" />
    <glyph glyph-name="Ygrave" unicode="&#x1ef2;" 
d="M452 725h171l-225 -465v-260h-150v260l-225 465h171l129 -300zM98 874h201l105 -113h-146z" />
    <glyph glyph-name="uni0232" unicode="&#x232;" 
d="M452 725h171l-225 -465v-260h-150v260l-225 465h171l129 -300zM155 771v94h336v-94h-336z" />
    <glyph glyph-name="Zacute" unicode="&#x179;" 
d="M572 597l-337 -468h340v-129h-510v128l338 468h-313v129h482v-128zM386 761h-145l104 113h202z" />
    <glyph glyph-name="Zcaron" unicode="&#x17d;" 
d="M572 597l-337 -468h340v-129h-510v128l338 468h-313v129h482v-128zM106 874h164l54 -49l59 49h162l-140 -113h-162z" />
    <glyph glyph-name="Zdotaccent" unicode="&#x17b;" 
d="M572 597l-337 -468h340v-129h-510v128l338 468h-313v129h482v-128zM409 874v-113h-172v113h172z" />
    <glyph glyph-name="abreve" unicode="&#x103;" 
d="M421 69q-29 -43 -70.5 -62.5t-100.5 -19.5q-35 0 -67.5 10.5t-58 31t-41 49.5t-15.5 66q0 51 27.5 83.5t74 53t107.5 31.5t129 20v12q0 62 -25.5 86.5t-69.5 24.5q-45 0 -71 -21t-29 -66h-129q4 40 21.5 73.5t47.5 58t72 38.5t93 14q50 0 92 -11.5t72 -38.5t47 -72.5
t17 -113.5q0 -6 -0.5 -21.5t-0.5 -35.5t-0.5 -41.5t-0.5 -39.5q0 -56 1 -88.5t2.5 -50.5t3.5 -25.5t4 -13.5h-131zM410 244q-52 -5 -90 -11.5t-62.5 -17t-36 -26t-11.5 -39.5q0 -30 20 -47.5t59 -17.5q34 0 57 10.5t37 29.5t20.5 45.5t6.5 59.5v14zM494 725q-3 -27 -14 -51
t-31.5 -42t-51.5 -28.5t-74 -10.5q-42 0 -72.5 10.5t-51 28.5t-31.5 42t-13 51h108q6 -50 61 -50q56 0 62 50h108v0z" />
    <glyph glyph-name="amacron" unicode="&#x101;" 
d="M421 69q-29 -43 -70.5 -62.5t-100.5 -19.5q-35 0 -67.5 10.5t-58 31t-41 49.5t-15.5 66q0 51 27.5 83.5t74 53t107.5 31.5t129 20v12q0 62 -25.5 86.5t-69.5 24.5q-45 0 -71 -21t-29 -66h-129q4 40 21.5 73.5t47.5 58t72 38.5t93 14q50 0 92 -11.5t72 -38.5t47 -72.5
t17 -113.5q0 -6 -0.5 -21.5t-0.5 -35.5t-0.5 -41.5t-0.5 -39.5q0 -56 1 -88.5t2.5 -50.5t3.5 -25.5t4 -13.5h-131zM410 244q-52 -5 -90 -11.5t-62.5 -17t-36 -26t-11.5 -39.5q0 -30 20 -47.5t59 -17.5q34 0 57 10.5t37 29.5t20.5 45.5t6.5 59.5v14zM172 617v108h313v-108
h-313z" />
    <glyph glyph-name="aogonek" unicode="&#x105;" 
d="M421 69q-29 -43 -70.5 -62.5t-100.5 -19.5q-35 0 -67.5 10.5t-58 31t-41 49.5t-15.5 66q0 51 27.5 83.5t74 53t107.5 31.5t129 20v12q0 62 -25.5 86.5t-69.5 24.5q-45 0 -71 -21t-29 -66h-129q4 40 21.5 73.5t47.5 58t72 38.5t93 14q50 0 92 -11.5t72 -38.5t47 -72.5
t17 -113.5q0 -6 -0.5 -21.5t-0.5 -35.5t-0.5 -41.5t-0.5 -39.5q0 -56 1 -88.5t2.5 -50.5t3.5 -25.5t4 -13.5h-11q-23 -19 -36 -34t-13 -38q0 -20 13 -26t31 -6q15 0 30 3.5t26 6.5v-82q-10 -2 -23.5 -4t-27.5 -3.5t-28 -2t-24 -0.5q-27 0 -52 5t-44 15.5t-30.5 27.5
t-11.5 42q0 30 19 54.5t50 41.5h1zM410 244q-52 -5 -90 -11.5t-62.5 -17t-36 -26t-11.5 -39.5q0 -30 20 -47.5t59 -17.5q34 0 57 10.5t37 29.5t20.5 45.5t6.5 59.5v14z" />
    <glyph glyph-name="cacute" unicode="&#x107;" 
d="M326 550q39 0 78.5 -12t72 -37.5t55 -64t28.5 -92.5h-136q-6 43 -28.5 71.5t-70.5 28.5q-50 0 -77 -42.5t-27 -133.5t28 -133t76 -42q16 0 32.5 4.5t30 16.5t24 32t15.5 51h138q-7 -55 -30.5 -94.5t-57 -65t-74 -38t-80.5 -12.5q-59 0 -104.5 21t-77 58.5t-48 89
t-16.5 112.5q0 63 16.5 115t48.5 89t78.5 57.5t105.5 20.5zM361 609h-123l94 116h187z" />
    <glyph glyph-name="ccaron" unicode="&#x10d;" 
d="M326 550q39 0 78.5 -12t72 -37.5t55 -64t28.5 -92.5h-136q-6 43 -28.5 71.5t-70.5 28.5q-50 0 -77 -42.5t-27 -133.5t28 -133t76 -42q16 0 32.5 4.5t30 16.5t24 32t15.5 51h138q-7 -55 -30.5 -94.5t-57 -65t-74 -38t-80.5 -12.5q-59 0 -104.5 21t-77 58.5t-48 89
t-16.5 112.5q0 63 16.5 115t48.5 89t78.5 57.5t105.5 20.5zM110 725h150l61 -46l64 46h152l-141 -116h-150z" />
    <glyph glyph-name="ccircumflex" unicode="&#x109;" 
d="M326 550q39 0 78.5 -12t72 -37.5t55 -64t28.5 -92.5h-136q-6 43 -28.5 71.5t-70.5 28.5q-50 0 -77 -42.5t-27 -133.5t28 -133t76 -42q16 0 32.5 4.5t30 16.5t24 32t15.5 51h138q-7 -55 -30.5 -94.5t-57 -65t-74 -38t-80.5 -12.5q-59 0 -104.5 21t-77 58.5t-48 89
t-16.5 112.5q0 63 16.5 115t48.5 89t78.5 57.5t105.5 20.5zM536 609h-151l-61 47l-64 -47h-151l140 116h150z" />
    <glyph glyph-name="cdotaccent" unicode="&#x10b;" 
d="M326 550q39 0 78.5 -12t72 -37.5t55 -64t28.5 -92.5h-136q-6 43 -28.5 71.5t-70.5 28.5q-50 0 -77 -42.5t-27 -133.5t28 -133t76 -42q16 0 32.5 4.5t30 16.5t24 32t15.5 51h138q-7 -55 -30.5 -94.5t-57 -65t-74 -38t-80.5 -12.5q-59 0 -104.5 21t-77 58.5t-48 89
t-16.5 112.5q0 63 16.5 115t48.5 89t78.5 57.5t105.5 20.5zM397 725v-116h-148v116h148z" />
    <glyph glyph-name="dcaron" unicode="&#x10f;" 
d="M424 725h143v-725h-142l-1 67q-20 -38 -55.5 -59t-82.5 -21q-46 0 -86 18t-69 53.5t-46 88t-17 121.5t17 121.5t46 88.5t69 54t86 18q47 0 82.5 -21t55.5 -59v255zM429 268q0 85 -29.5 130.5t-81.5 45.5q-51 0 -78.5 -47.5t-27.5 -128.5t27.5 -128t78.5 -47q52 0 81.5 45
t29.5 130zM657 555h-78l30 170h118z" />
    <glyph glyph-name="dcroat" unicode="&#x111;" 
d="M336 645h88v80h143v-80h91v-79h-91v-566h-142l-1 67q-20 -38 -55.5 -59t-82.5 -21q-46 0 -86 18t-69 53.5t-46 88t-17 121.5t17 121.5t46 88.5t69 54t86 18q47 0 82.5 -21t55.5 -59v96h-88v79zM429 268q0 85 -29.5 130.5t-81.5 45.5q-51 0 -78.5 -47.5t-27.5 -128.5
t27.5 -128t78.5 -47q52 0 81.5 45t29.5 130z" />
    <glyph glyph-name="ebreve" unicode="&#x115;" 
d="M207 232q2 -37 12.5 -64t26.5 -44.5t36.5 -26t43.5 -8.5q43 0 68.5 20.5t33.5 58.5h137q-6 -34 -24 -66.5t-48 -58t-72.5 -41t-96.5 -15.5q-63 0 -110.5 20t-80 56.5t-48.5 87.5t-16 113q0 64 17 117t49.5 90.5t79.5 58t107 20.5q61 0 108.5 -22t80 -63t49 -100
t14.5 -133h-367zM320 447q-17 0 -36 -6.5t-35 -21.5t-27.5 -38.5t-14.5 -57.5h230q-1 37 -11.5 61t-27 38t-37 19.5t-41.5 5.5zM492 725q-3 -27 -14 -51t-31.5 -42t-51.5 -28.5t-74 -10.5q-42 0 -72.5 10.5t-51 28.5t-31.5 42t-13 51h108q6 -50 61 -50q56 0 62 50h108v0z
" />
    <glyph glyph-name="ecaron" unicode="&#x11b;" 
d="M207 232q2 -37 12.5 -64t26.5 -44.5t36.5 -26t43.5 -8.5q43 0 68.5 20.5t33.5 58.5h137q-6 -34 -24 -66.5t-48 -58t-72.5 -41t-96.5 -15.5q-63 0 -110.5 20t-80 56.5t-48.5 87.5t-16 113q0 64 17 117t49.5 90.5t79.5 58t107 20.5q61 0 108.5 -22t80 -63t49 -100
t14.5 -133h-367zM320 447q-17 0 -36 -6.5t-35 -21.5t-27.5 -38.5t-14.5 -57.5h230q-1 37 -11.5 61t-27 38t-37 19.5t-41.5 5.5zM109 725h150l61 -46l64 46h152l-141 -116h-150z" />
    <glyph glyph-name="emacron" unicode="&#x113;" 
d="M207 232q2 -37 12.5 -64t26.5 -44.5t36.5 -26t43.5 -8.5q43 0 68.5 20.5t33.5 58.5h137q-6 -34 -24 -66.5t-48 -58t-72.5 -41t-96.5 -15.5q-63 0 -110.5 20t-80 56.5t-48.5 87.5t-16 113q0 64 17 117t49.5 90.5t79.5 58t107 20.5q61 0 108.5 -22t80 -63t49 -100
t14.5 -133h-367zM320 447q-17 0 -36 -6.5t-35 -21.5t-27.5 -38.5t-14.5 -57.5h230q-1 37 -11.5 61t-27 38t-37 19.5t-41.5 5.5zM166 617v108h313v-108h-313z" />
    <glyph glyph-name="eogonek" unicode="&#x119;" 
d="M207 232q2 -37 12.5 -64t26.5 -44.5t36.5 -26t43.5 -8.5q43 0 68.5 20.5t33.5 58.5h137q-6 -34 -24 -66.5t-48 -58t-72.5 -41t-96.5 -15.5q-63 0 -110.5 20t-80 56.5t-48.5 87.5t-16 113q0 64 17 117t49.5 90.5t79.5 58t107 20.5q61 0 108.5 -22t80 -63t49 -100
t14.5 -133h-367zM320 447q-17 0 -36 -6.5t-35 -21.5t-27.5 -38.5t-14.5 -57.5h230q-1 37 -11.5 61t-27 38t-37 19.5t-41.5 5.5zM413 0q-38 -19 -62.5 -34t-24.5 -38q0 -20 13 -26t31 -6q16 0 30.5 3.5t25.5 6.5v-82q-10 -2 -23.5 -4t-27.5 -3.5t-28 -2t-24 -0.5q-27 0 -52 5
t-44 15.5t-30.5 27.5t-11.5 42q0 30 19 54.5t50 41.5h159z" />
    <glyph glyph-name="edotaccent" unicode="&#x117;" 
d="M207 232q2 -37 12.5 -64t26.5 -44.5t36.5 -26t43.5 -8.5q43 0 68.5 20.5t33.5 58.5h137q-6 -34 -24 -66.5t-48 -58t-72.5 -41t-96.5 -15.5q-63 0 -110.5 20t-80 56.5t-48.5 87.5t-16 113q0 64 17 117t49.5 90.5t79.5 58t107 20.5q61 0 108.5 -22t80 -63t49 -100
t14.5 -133h-367zM320 447q-17 0 -36 -6.5t-35 -21.5t-27.5 -38.5t-14.5 -57.5h230q-1 37 -11.5 61t-27 38t-37 19.5t-41.5 5.5zM396 725v-116h-148v116h148z" />
    <glyph glyph-name="gbreve" unicode="&#x11f;" 
d="M424 538h143v-483q0 -66 -17 -112.5t-49.5 -75t-78.5 -41.5t-104 -13q-41 0 -78.5 8.5t-68.5 29t-52 53.5t-27 82h132q7 -35 29.5 -52.5t65.5 -17.5q54 0 79.5 32t25.5 82v58q-20 -37 -55.5 -58t-82.5 -21q-46 0 -86 17.5t-69 52t-46 85t-17 115.5t17 115.5t46 85
t69 52.5t86 18q47 0 82.5 -21t55.5 -59v68zM429 279q0 77 -29.5 121t-81.5 44q-51 0 -78.5 -46t-27.5 -119t27.5 -119t78.5 -46q52 0 81.5 43.5t29.5 121.5zM492 725q-3 -27 -14 -51t-31.5 -42t-51.5 -28.5t-74 -10.5q-42 0 -72.5 10.5t-51 28.5t-31.5 42t-13 51h108
q6 -50 61 -50q56 0 62 50h108v0z" />
    <glyph glyph-name="gcircumflex" unicode="&#x11d;" 
d="M424 538h143v-483q0 -66 -17 -112.5t-49.5 -75t-78.5 -41.5t-104 -13q-41 0 -78.5 8.5t-68.5 29t-52 53.5t-27 82h132q7 -35 29.5 -52.5t65.5 -17.5q54 0 79.5 32t25.5 82v58q-20 -37 -55.5 -58t-82.5 -21q-46 0 -86 17.5t-69 52t-46 85t-17 115.5t17 115.5t46 85
t69 52.5t86 18q47 0 82.5 -21t55.5 -59v68zM429 279q0 77 -29.5 121t-81.5 44q-51 0 -78.5 -46t-27.5 -119t27.5 -119t78.5 -46q52 0 81.5 43.5t29.5 121.5zM536 609h-151l-61 47l-64 -47h-151l140 116h150z" />
    <glyph glyph-name="gcommaaccent" unicode="&#x123;" 
d="M362 586h-127v107l45 89h86l-39 -96h35v-100zM424 538h143v-483q0 -66 -17 -112.5t-49.5 -75t-78.5 -41.5t-104 -13q-41 0 -78.5 8.5t-68.5 29t-52 53.5t-27 82h132q7 -35 29.5 -52.5t65.5 -17.5q54 0 79.5 32t25.5 82v58q-20 -37 -55.5 -58t-82.5 -21q-46 0 -86 17.5
t-69 52t-46 85t-17 115.5t17 115.5t46 85t69 52.5t86 18q47 0 82.5 -21t55.5 -59v68zM429 279q0 77 -29.5 121t-81.5 44q-51 0 -78.5 -46t-27.5 -119t27.5 -119t78.5 -46q52 0 81.5 43.5t29.5 121.5z" />
    <glyph glyph-name="gdotaccent" unicode="&#x121;" 
d="M424 538h143v-483q0 -66 -17 -112.5t-49.5 -75t-78.5 -41.5t-104 -13q-41 0 -78.5 8.5t-68.5 29t-52 53.5t-27 82h132q7 -35 29.5 -52.5t65.5 -17.5q54 0 79.5 32t25.5 82v58q-20 -37 -55.5 -58t-82.5 -21q-46 0 -86 17.5t-69 52t-46 85t-17 115.5t17 115.5t46 85
t69 52.5t86 18q47 0 82.5 -21t55.5 -59v68zM429 279q0 77 -29.5 121t-81.5 44q-51 0 -78.5 -46t-27.5 -119t27.5 -119t78.5 -46q52 0 81.5 43.5t29.5 121.5zM396 725v-116h-148v116h148z" />
    <glyph glyph-name="hbar" unicode="&#x127;" 
d="M234 725v-80h101v-79h-101v-91q23 36 59.5 55.5t84.5 19.5q46 0 79 -15t54 -42.5t31 -67t10 -87.5v-338h-144v314q0 21 -2 43.5t-9.5 40.5t-23.5 29.5t-43 11.5q-30 0 -49 -12.5t-29.5 -33.5t-14 -49t-3.5 -59v-285h-144v566h-78v79h78v80h144z" />
    <glyph glyph-name="hcircumflex" unicode="&#x125;" 
d="M387 761h-164l-55 50l-59 -50h-162l140 113h162zM234 725v-250q23 36 59.5 55.5t84.5 19.5q46 0 79 -15t54 -42.5t31 -67t10 -87.5v-338h-144v314q0 21 -2 43.5t-9.5 40.5t-23.5 29.5t-43 11.5q-30 0 -49 -12.5t-29.5 -33.5t-14 -49t-3.5 -59v-285h-144v725h144z" />
    <glyph glyph-name="dotlessi" unicode="&#x131;" 
d="M97 0v108h156v322h-156v108h300v-430h157v-108h-457z" />
    <glyph glyph-name="ibreve" unicode="&#x12d;" 
d="M97 0v108h156v322h-156v108h300v-430h157v-108h-457zM494 725q-3 -27 -14 -51t-31.5 -42t-51.5 -28.5t-74 -10.5q-42 0 -72.5 10.5t-51 28.5t-31.5 42t-13 51h108q6 -50 61 -50q56 0 62 50h108v0z" />
    <glyph glyph-name="imacron" unicode="&#x12b;" 
d="M97 0v108h156v322h-156v108h300v-430h157v-108h-457zM119 617v108h313v-108h-313z" />
    <glyph glyph-name="iogonek" unicode="&#x12f;" 
d="M397 725v-133h-144v133h144zM97 0v108h156v322h-156v108h300v-430h157v-108h-457zM399 0q-38 -19 -62.5 -34t-24.5 -38q0 -20 13 -26t31 -6q16 0 30.5 3.5t25.5 6.5v-82q-10 -2 -23.5 -4t-27.5 -3.5t-28 -2t-24 -0.5q-27 0 -52 5t-44 15.5t-30.5 27.5t-11.5 42
q0 30 19 54.5t50 41.5h159z" />
    <glyph glyph-name="itilde" unicode="&#x129;" 
d="M97 0v108h156v322h-156v108h300v-430h157v-108h-457zM366 681q44 0 52 44h97q-11 -63 -45.5 -95t-88.5 -32q-26 0 -45 7t-34.5 15t-29 15t-28.5 7q-43 0 -52 -44h-96q9 60 43.5 93.5t91.5 33.5q26 0 44 -7t32.5 -15t28 -15t30.5 -7z" />
    <glyph glyph-name="uni1ECB" unicode="&#x1ecb;" 
d="M97 0v108h156v322h-156v108h300v-430h157v-108h-457zM397 725v-133h-144v133h144zM399 -58v-116h-148v116h148z" />
    <glyph glyph-name="dotlessj" unicode="&#x237;" 
d="M124 429v109h311v-533q0 -57 -9 -92t-29.5 -54.5t-53.5 -26.5t-81 -7h-171v107h154q16 0 25.5 2.5t14 10t5.5 20.5t1 34v430h-167z" />
    <glyph glyph-name="jcircumflex" unicode="&#x135;" 
d="M578 609h-151l-61 47l-64 -47h-151l140 116h150zM124 429v109h311v-533q0 -57 -9 -92t-29.5 -54.5t-53.5 -26.5t-81 -7h-171v107h154q16 0 25.5 2.5t14 10t5.5 20.5t1 34v430h-167z" />
    <glyph glyph-name="kcommaaccent" unicode="&#x137;" 
d="M236 151v-151h-144v725h144v-395l177 208h160l-183 -209l194 -329h-159l-128 221zM261 -36h127v-106l-44 -89h-86l38 95h-35v100z" />
    <glyph glyph-name="lacute" unicode="&#x13a;" 
d="M98 0v108h156v510h-156v107h300v-617h156v-108h-456zM398 761h-145l104 113h202z" />
    <glyph glyph-name="lcaron" unicode="&#x13e;" 
d="M98 0v108h156v510h-156v107h300v-617h156v-108h-456zM527 555h-78l30 170h118z" />
    <glyph glyph-name="lcommaaccent" unicode="&#x13c;" 
d="M98 0v108h156v510h-156v107h300v-617h156v-108h-456zM263 -36h127v-106l-44 -89h-86l38 95h-35v100z" />
    <glyph glyph-name="ldot" unicode="&#x140;" 
d="M98 0v108h156v510h-156v107h300v-617h156v-108h-456zM646 476v-116h-148v116h148z" />
    <glyph glyph-name="lslash" unicode="&#x142;" 
d="M155 340l99 59v219h-156v107h300v-239l108 65v-158l-108 -65v-220h156v-108h-456v108h156v133l-99 -59v158z" />
    <glyph glyph-name="nacute" unicode="&#x144;" 
d="M234 538v-63q23 36 59 55.5t84 19.5q93 0 134 -57.5t41 -154.5v-338h-144v314q0 21 -2 43.5t-10 40.5t-24 29.5t-43 11.5q-30 0 -49 -12.5t-29 -33.5t-13.5 -49t-3.5 -59v-285h-144v538h144zM376 609h-123l94 116h187z" />
    <glyph glyph-name="ncaron" unicode="&#x148;" 
d="M234 538v-63q23 36 59 55.5t84 19.5q93 0 134 -57.5t41 -154.5v-338h-144v314q0 21 -2 43.5t-10 40.5t-24 29.5t-43 11.5q-30 0 -49 -12.5t-29 -33.5t-13.5 -49t-3.5 -59v-285h-144v538h144zM117 725h150l61 -46l64 46h152l-141 -116h-150z" />
    <glyph glyph-name="ncommaaccent" unicode="&#x146;" 
d="M234 538v-63q23 36 59 55.5t84 19.5q93 0 134 -57.5t41 -154.5v-338h-144v314q0 21 -2 43.5t-10 40.5t-24 29.5t-43 11.5q-30 0 -49 -12.5t-29 -33.5t-13.5 -49t-3.5 -59v-285h-144v538h144zM261 -36h127v-106l-44 -89h-86l38 95h-35v100z" />
    <glyph glyph-name="oe" unicode="&#x153;" 
d="M21 263q0 57 9 109t29.5 91.5t54.5 62.5t85 23q44 0 72.5 -17t45.5 -46q20 29 48.5 45t69.5 16q48 0 84 -22.5t58.5 -64t33 -100.5t7.5 -132h-254q2 -72 21.5 -104.5t51.5 -32.5q58 0 67 70h110q-5 -30 -17 -61t-34 -56t-53 -41t-73 -16q-44 0 -73 15.5t-48 43.5
q-18 -28 -46 -43.5t-71 -15.5q-51 0 -85 21.5t-54.5 59t-29.5 87.5t-9 108zM272 263q0 34 -4 66.5t-13 57.5t-23 40.5t-33 15.5q-20 0 -34 -15.5t-23 -40.5t-13 -57.5t-4 -66.5q0 -35 4 -66t13 -54.5t23 -37.5t34 -14q19 0 33 14t23 37.5t13 54.5t4 66zM501 326
q-2 63 -20 92t-48 29q-23 0 -43 -29t-25 -92h136z" />
    <glyph glyph-name="obreve" unicode="&#x14f;" 
d="M580 269q0 -77 -21.5 -131t-57.5 -87.5t-82.5 -48.5t-95.5 -15q-50 0 -96 15t-82 48.5t-57.5 87.5t-21.5 131t21.5 130.5t57.5 87t82 48.5t96 15q49 0 95.5 -15t82.5 -48.5t57.5 -87t21.5 -130.5zM436 269q0 93 -30.5 134t-82.5 41t-82.5 -41t-30.5 -134t30.5 -134.5
t82.5 -41.5t82.5 41.5t30.5 134.5zM492 725q-3 -27 -14 -51t-31.5 -42t-51.5 -28.5t-74 -10.5q-42 0 -72.5 10.5t-51 28.5t-31.5 42t-13 51h108q6 -50 61 -50q56 0 62 50h108v0z" />
    <glyph glyph-name="ohungarumlaut" unicode="&#x151;" 
d="M580 269q0 -77 -21.5 -131t-57.5 -87.5t-82.5 -48.5t-95.5 -15q-50 0 -96 15t-82 48.5t-57.5 87.5t-21.5 131t21.5 130.5t57.5 87t82 48.5t96 15q49 0 95.5 -15t82.5 -48.5t57.5 -87t21.5 -130.5zM436 269q0 93 -30.5 134t-82.5 41t-82.5 -41t-30.5 -134t30.5 -134.5
t82.5 -41.5t82.5 41.5t30.5 134.5zM247 609h-123l94 116h187zM471 609h-124l95 116h187z" />
    <glyph glyph-name="omacron" unicode="&#x14d;" 
d="M580 269q0 -77 -21.5 -131t-57.5 -87.5t-82.5 -48.5t-95.5 -15q-50 0 -96 15t-82 48.5t-57.5 87.5t-21.5 131t21.5 130.5t57.5 87t82 48.5t96 15q49 0 95.5 -15t82.5 -48.5t57.5 -87t21.5 -130.5zM436 269q0 93 -30.5 134t-82.5 41t-82.5 -41t-30.5 -134t30.5 -134.5
t82.5 -41.5t82.5 41.5t30.5 134.5zM173 617v108h313v-108h-313z" />
    <glyph glyph-name="uni1ECD" unicode="&#x1ecd;" 
d="M580 269q0 -77 -21.5 -131t-57.5 -87.5t-82.5 -48.5t-95.5 -15q-50 0 -96 15t-82 48.5t-57.5 87.5t-21.5 131t21.5 130.5t57.5 87t82 48.5t96 15q49 0 95.5 -15t82.5 -48.5t57.5 -87t21.5 -130.5zM436 269q0 93 -30.5 134t-82.5 41t-82.5 -41t-30.5 -134t30.5 -134.5
t82.5 -41.5t82.5 41.5t30.5 134.5zM396 -58v-116h-148v116h148z" />
    <glyph glyph-name="racute" unicode="&#x155;" 
d="M351 538v-91q8 17 20.5 33.5t30.5 29t42 20.5t56 8h82v-115h-103q-69 0 -97.5 -34.5t-28.5 -113.5v-167h195v-108h-473v108h134v321h-134v109h276zM334 609h-123l94 116h187z" />
    <glyph glyph-name="rcaron" unicode="&#x159;" 
d="M351 538v-91q8 17 20.5 33.5t30.5 29t42 20.5t56 8h82v-115h-103q-69 0 -97.5 -34.5t-28.5 -113.5v-167h195v-108h-473v108h134v321h-134v109h276zM122 725h150l61 -46l64 46h152l-141 -116h-150z" />
    <glyph glyph-name="rcommaaccent" unicode="&#x157;" 
d="M351 538v-91q8 17 20.5 33.5t30.5 29t42 20.5t56 8h82v-115h-103q-69 0 -97.5 -34.5t-28.5 -113.5v-167h195v-108h-473v108h134v321h-134v109h276zM218 -36h127v-106l-44 -89h-86l38 95h-35v100z" />
    <glyph glyph-name="sacute" unicode="&#x15b;" 
d="M419 378q-8 35 -35.5 51t-74.5 16q-33 0 -56 -12.5t-23 -34.5q0 -21 20.5 -35.5t49.5 -22.5l59 -14q40 -9 74.5 -20.5t60 -29.5t40.5 -44.5t15 -66.5q0 -43 -18 -76t-49 -55.5t-71.5 -34.5t-85.5 -12q-97 0 -159.5 50.5t-72.5 143.5h127q5 -42 33 -65t78 -23q41 0 64 14
t23 41t-24.5 41t-58.5 22l-64 15q-37 9 -67.5 22t-52 32t-33.5 45.5t-12 62.5q0 39 16.5 69t45 51t67 31.5t82.5 10.5q37 0 74.5 -9.5t68.5 -30.5t53.5 -53.5t29.5 -78.5h-124zM375 609h-123l94 116h187z" />
    <glyph glyph-name="scaron" unicode="&#x161;" 
d="M419 378q-8 35 -35.5 51t-74.5 16q-33 0 -56 -12.5t-23 -34.5q0 -21 20.5 -35.5t49.5 -22.5l59 -14q40 -9 74.5 -20.5t60 -29.5t40.5 -44.5t15 -66.5q0 -43 -18 -76t-49 -55.5t-71.5 -34.5t-85.5 -12q-97 0 -159.5 50.5t-72.5 143.5h127q5 -42 33 -65t78 -23q41 0 64 14
t23 41t-24.5 41t-58.5 22l-64 15q-37 9 -67.5 22t-52 32t-33.5 45.5t-12 62.5q0 39 16.5 69t45 51t67 31.5t82.5 10.5q37 0 74.5 -9.5t68.5 -30.5t53.5 -53.5t29.5 -78.5h-124zM109 725h150l61 -46l64 46h152l-141 -116h-150z" />
    <glyph glyph-name="scedilla" unicode="&#x15f;" 
d="M419 378q-8 35 -35.5 51t-74.5 16q-33 0 -56 -12.5t-23 -34.5q0 -21 20.5 -35.5t49.5 -22.5l59 -14q40 -9 74.5 -20.5t60 -29.5t40.5 -44.5t15 -66.5q0 -43 -18 -76t-49 -55.5t-71.5 -34.5t-85.5 -12q-97 0 -159.5 50.5t-72.5 143.5h127q5 -42 33 -65t78 -23q41 0 64 14
t23 41t-24.5 41t-58.5 22l-64 15q-37 9 -67.5 22t-52 32t-33.5 45.5t-12 62.5q0 39 16.5 69t45 51t67 31.5t82.5 10.5q37 0 74.5 -9.5t68.5 -30.5t53.5 -53.5t29.5 -78.5h-124zM241 -133q9 -5 27.5 -9.5t37.5 -4.5q20 0 34.5 6t14.5 23q0 14 -11 21t-29 7q-9 0 -20 -2
t-19 -7l-30 17l52 83h61l-32 -52q12 4 36 4q15 0 32 -3.5t30.5 -11.5t22.5 -21t9 -32q0 -24 -12 -40t-31.5 -26.5t-44.5 -15t-51 -4.5q-25 0 -49.5 3.5t-44.5 10.5z" />
    <glyph glyph-name="scircumflex" unicode="&#x15d;" 
d="M419 378q-8 35 -35.5 51t-74.5 16q-33 0 -56 -12.5t-23 -34.5q0 -21 20.5 -35.5t49.5 -22.5l59 -14q40 -9 74.5 -20.5t60 -29.5t40.5 -44.5t15 -66.5q0 -43 -18 -76t-49 -55.5t-71.5 -34.5t-85.5 -12q-97 0 -159.5 50.5t-72.5 143.5h127q5 -42 33 -65t78 -23q41 0 64 14
t23 41t-24.5 41t-58.5 22l-64 15q-37 9 -67.5 22t-52 32t-33.5 45.5t-12 62.5q0 39 16.5 69t45 51t67 31.5t82.5 10.5q37 0 74.5 -9.5t68.5 -30.5t53.5 -53.5t29.5 -78.5h-124zM536 609h-151l-61 47l-64 -47h-151l140 116h150z" />
    <glyph glyph-name="scommaaccent" unicode="&#x219;" 
d="M419 378q-8 35 -35.5 51t-74.5 16q-33 0 -56 -12.5t-23 -34.5q0 -21 20.5 -35.5t49.5 -22.5l59 -14q40 -9 74.5 -20.5t60 -29.5t40.5 -44.5t15 -66.5q0 -43 -18 -76t-49 -55.5t-71.5 -34.5t-85.5 -12q-97 0 -159.5 50.5t-72.5 143.5h127q5 -42 33 -65t78 -23q41 0 64 14
t23 41t-24.5 41t-58.5 22l-64 15q-37 9 -67.5 22t-52 32t-33.5 45.5t-12 62.5q0 39 16.5 69t45 51t67 31.5t82.5 10.5q37 0 74.5 -9.5t68.5 -30.5t53.5 -53.5t29.5 -78.5h-124zM262 -36h127v-106l-44 -89h-86l38 95h-35v100z" />
    <glyph glyph-name="tcaron" unicode="&#x165;" 
d="M195 682h144v-144h210v-109h-210v-260q0 -38 13.5 -49.5t45.5 -11.5h149v-108h-202q-44 0 -73 8t-46 25t-24 45t-7 68v283h-156v109h156v144zM554 555h-78l30 170h118z" />
    <glyph glyph-name="uni0163" unicode="&#x163;" 
d="M195 682h144v-144h210v-109h-210v-260q0 -38 13.5 -49.5t45.5 -11.5h149v-108h-202q-44 0 -73 8t-46 25t-24 45t-7 68v283h-156v109h156v144zM226 -36h127v-106l-44 -89h-86l38 95h-35v100z" />
    <glyph glyph-name="tcommaaccent" unicode="&#x21b;" 
d="M195 682h144v-144h210v-109h-210v-260q0 -38 13.5 -49.5t45.5 -11.5h149v-108h-202q-44 0 -73 8t-46 25t-24 45t-7 68v283h-156v109h156v144zM226 -36h127v-106l-44 -89h-86l38 95h-35v100z" />
    <glyph glyph-name="ubreve" unicode="&#x16d;" 
d="M412 59q-23 -37 -58.5 -54.5t-78.5 -17.5q-49 0 -83.5 15t-56 42.5t-31.5 67t-10 87.5v339h144v-315q0 -21 2 -43.5t10 -40.5t24 -29.5t43 -11.5q30 0 48.5 12.5t29 33.5t14 49t3.5 59v286h144v-538h-144v59zM494 725q-3 -27 -14 -51t-31.5 -42t-51.5 -28.5t-74 -10.5
q-42 0 -72.5 10.5t-51 28.5t-31.5 42t-13 51h108q6 -50 61 -50q56 0 62 50h108v0z" />
    <glyph glyph-name="uhungarumlaut" unicode="&#x171;" 
d="M412 59q-23 -37 -58.5 -54.5t-78.5 -17.5q-49 0 -83.5 15t-56 42.5t-31.5 67t-10 87.5v339h144v-315q0 -21 2 -43.5t10 -40.5t24 -29.5t43 -11.5q30 0 48.5 12.5t29 33.5t14 49t3.5 59v286h144v-538h-144v59zM245 609h-123l94 116h187zM469 609h-124l95 116h187z" />
    <glyph glyph-name="umacron" unicode="&#x16b;" 
d="M412 59q-23 -37 -58.5 -54.5t-78.5 -17.5q-49 0 -83.5 15t-56 42.5t-31.5 67t-10 87.5v339h144v-315q0 -21 2 -43.5t10 -40.5t24 -29.5t43 -11.5q30 0 48.5 12.5t29 33.5t14 49t3.5 59v286h144v-538h-144v59zM168 617v108h313v-108h-313z" />
    <glyph glyph-name="uogonek" unicode="&#x173;" 
d="M412 59q-23 -37 -58.5 -54.5t-78.5 -17.5q-49 0 -83.5 15t-56 42.5t-31.5 67t-10 87.5v339h144v-315q0 -21 2 -43.5t10 -40.5t24 -29.5t43 -11.5q30 0 48.5 12.5t29 33.5t14 49t3.5 59v286h144v-538q-30 -19 -50 -34t-20 -38q0 -20 13 -26t31 -6q15 0 30 3.5t26 6.5v-82
q-10 -2 -23.5 -4t-28 -3.5t-28.5 -2t-24 -0.5q-27 0 -52 5t-43.5 15.5t-30 27.5t-11.5 42q0 30 18.5 54.5t48.5 41.5v59z" />
    <glyph glyph-name="uring" unicode="&#x16f;" 
d="M412 59q-23 -37 -58.5 -54.5t-78.5 -17.5q-49 0 -83.5 15t-56 42.5t-31.5 67t-10 87.5v339h144v-315q0 -21 2 -43.5t10 -40.5t24 -29.5t43 -11.5q30 0 48.5 12.5t29 33.5t14 49t3.5 59v286h144v-538h-144v59zM325 775q19 0 36 -7t30 -19t20.5 -28.5t7.5 -35.5
q0 -38 -27.5 -63.5t-66.5 -25.5q-20 0 -37.5 6.5t-30 18.5t-20 28.5t-7.5 35.5q0 39 28 64.5t67 25.5zM325 726q-17 0 -29 -11.5t-12 -29.5q0 -17 12 -28t29 -11t29 11t12 28q0 18 -12 29.5t-29 11.5z" />
    <glyph glyph-name="utilde" unicode="&#x169;" 
d="M412 59q-23 -37 -58.5 -54.5t-78.5 -17.5q-49 0 -83.5 15t-56 42.5t-31.5 67t-10 87.5v339h144v-315q0 -21 2 -43.5t10 -40.5t24 -29.5t43 -11.5q30 0 48.5 12.5t29 33.5t14 49t3.5 59v286h144v-538h-144v59zM385 681q44 0 52 44h97q-11 -63 -45.5 -95t-88.5 -32
q-26 0 -45 7t-34.5 15t-29 15t-28.5 7q-43 0 -52 -44h-96q9 60 43.5 93.5t91.5 33.5q26 0 44 -7t32.5 -15t28 -15t30.5 -7z" />
    <glyph glyph-name="uni1EE5" unicode="&#x1ee5;" 
d="M412 59q-23 -37 -58.5 -54.5t-78.5 -17.5q-49 0 -83.5 15t-56 42.5t-31.5 67t-10 87.5v339h144v-315q0 -21 2 -43.5t10 -40.5t24 -29.5t43 -11.5q30 0 48.5 12.5t29 33.5t14 49t3.5 59v286h144v-538h-144v59zM399 -58v-116h-148v116h148z" />
    <glyph glyph-name="wacute" unicode="&#x1e83;" 
d="M381 435l49 -237l38 340h140l-67 -538h-156l-62 331l-63 -331h-156l-66 538h139l38 -340l50 237h116zM380 609h-123l94 116h187z" />
    <glyph glyph-name="wcircumflex" unicode="&#x175;" 
d="M381 435l49 -237l38 340h140l-67 -538h-156l-62 331l-63 -331h-156l-66 538h139l38 -340l50 237h116zM536 609h-151l-61 47l-64 -47h-151l140 116h150z" />
    <glyph glyph-name="wdieresis" unicode="&#x1e85;" 
d="M381 435l49 -237l38 340h140l-67 -538h-156l-62 331l-63 -331h-156l-66 538h139l38 -340l50 237h116zM137 725h148v-116h-148v116zM508 725v-116h-148v116h148z" />
    <glyph glyph-name="wgrave" unicode="&#x1e81;" 
d="M381 435l49 -237l38 340h140l-67 -538h-156l-62 331l-63 -331h-156l-66 538h139l38 -340l50 237h116zM109 725h187l94 -116h-123z" />
    <glyph glyph-name="ycircumflex" unicode="&#x177;" 
d="M400 18q-24 -62 -42.5 -100t-40 -58.5t-51.5 -27.5t-77 -7h-115v107h106q15 0 25.5 2t18 8t13.5 17t14 28l5 13l-207 538h149l131 -367l126 367h142zM541 609h-151l-61 47l-64 -47h-151l140 116h150z" />
    <glyph glyph-name="ygrave" unicode="&#x1ef3;" 
d="M400 18q-24 -62 -42.5 -100t-40 -58.5t-51.5 -27.5t-77 -7h-115v107h106q15 0 25.5 2t18 8t13.5 17t14 28l5 13l-207 538h149l131 -367l126 367h142zM119 725h187l94 -116h-123z" />
    <glyph glyph-name="uni0233" unicode="&#x233;" 
d="M400 18q-24 -62 -42.5 -100t-40 -58.5t-51.5 -27.5t-77 -7h-115v107h106q15 0 25.5 2t18 8t13.5 17t14 28l5 13l-207 538h149l131 -367l126 367h142zM171 617v108h313v-108h-313z" />
    <glyph glyph-name="zacute" unicode="&#x17a;" 
d="M96 105l279 324h-258v109h422v-105l-281 -325h288v-108h-450v105zM366 609h-123l94 116h187z" />
    <glyph glyph-name="zcaron" unicode="&#x17e;" 
d="M96 105l279 324h-258v109h422v-105l-281 -325h288v-108h-450v105zM111 725h150l61 -46l64 46h152l-141 -116h-150z" />
    <glyph glyph-name="zdotaccent" unicode="&#x17c;" 
d="M96 105l279 324h-258v109h422v-105l-281 -325h288v-108h-450v105zM398 725v-116h-148v116h148z" />
    <glyph glyph-name="ellipsis" unicode="&#x2026;" 
d="M25 0v178h165v-178h-165zM240 0v178h165v-178h-165zM455 0v178h165v-178h-165z" />
    <glyph glyph-name="endash" unicode="&#x2013;" 
d="M99 207v120h448v-120h-448z" />
    <glyph glyph-name="emdash" unicode="&#x2014;" 
d="M45 207v120h556v-120h-556z" />
    <glyph glyph-name="guilsinglleft" unicode="&#x2039;" 
d="M182 273l159 229h136l-136 -229l136 -230h-136z" />
    <glyph glyph-name="guilsinglright" unicode="&#x203a;" 
d="M305 43h-135l135 230l-135 229h135l159 -229z" />
    <glyph glyph-name="quoteleft" unicode="&#x2018;" 
d="M416 390h-186v187l102 148h98l-88 -158h74v-177z" />
    <glyph glyph-name="quoteright" unicode="&#x2019;" 
d="M230 725h186v-188l-104 -148h-97l87 158h-72v178z" />
    <glyph glyph-name="quotedblleft" unicode="&#x201c;" 
d="M297 390h-186v187l102 148h98l-88 -158h74v-177zM536 390h-186v187l102 148h98l-88 -158h74v-177z" />
    <glyph glyph-name="quotedblright" unicode="&#x201d;" 
d="M350 725h186v-188l-104 -148h-97l87 158h-72v178zM111 725h186v-188l-104 -148h-97l87 158h-72v178z" />
    <glyph glyph-name="quotesinglbase" unicode="&#x201a;" 
d="M230 178h186v-188l-104 -148h-97l87 158h-72v178z" />
    <glyph glyph-name="quotedblbase" unicode="&#x201e;" 
d="M350 178h186v-188l-104 -148h-97l87 158h-72v178zM111 178h186v-188l-104 -148h-97l87 158h-72v178z" />
    <glyph glyph-name="bullet" unicode="&#x2022;" 
d="M143 279q0 37 14 69t38 56t56 38t68 14q39 0 73 -14t58.5 -38t38.5 -56t14 -69q0 -39 -14 -72.5t-38.5 -58t-58.5 -38.5t-73 -14q-36 0 -68 14t-56 38.5t-38 58t-14 72.5z" />
    <glyph glyph-name="minus" unicode="&#x2212;" 
d="M590 327v-120h-534v120h534z" />
    <glyph glyph-name="Euro" unicode="&#x20ac;" 
d="M265 247q7 -71 28.5 -110t68.5 -39q44 0 65.5 32.5t28.5 98.5h141q-6 -55 -22 -100t-44 -76.5t-69.5 -48.5t-98.5 -17q-60 0 -103 17.5t-72 51t-45.5 82t-23.5 109.5h-119l54 82h59v34v34h-113l54 81h65q7 61 24.5 109t47.5 81.5t73 51.5t103 18q58 0 98 -17.5t66 -50
t40.5 -78.5t20.5 -102h-140q-3 34 -8 59.5t-15 43t-26 26t-41 8.5q-47 0 -68 -40t-29 -109h165l-53 -81h-116v-34v-34h148l-54 -82h-90z" />
    <glyph glyph-name="fi" unicode="&#xfb01;" 
d="M430 0v430h-192v-430h-144v430h-69v108h69v29q0 51 13 82.5t38 48t62 22t85 5.5h33v-107h-15q-23 0 -37 -2t-21.5 -8.5t-10.5 -18.5t-3 -31v-20h336v-538h-144zM574 725v-133h-144v133h144z" />
    <glyph glyph-name="fl" unicode="&#xfb02;" 
d="M430 618h-120q-23 0 -37 -2t-21.5 -8.5t-10.5 -18.5t-3 -31v-20h117v-108h-117v-430h-144v430h-69v108h69v29q0 51 13 82.5t38 48t62 22t85 5.5h282v-725h-144v618z" />
    <glyph glyph-name="breve" unicode="&#x2d8;" 
d="M492 725q-3 -27 -14 -51t-31.5 -42t-51.5 -28.5t-74 -10.5q-42 0 -72.5 10.5t-51 28.5t-31.5 42t-13 51h108q6 -50 61 -50q56 0 62 50h108v0z" />
    <glyph glyph-name="caron" unicode="&#x2c7;" 
d="M109 725h150l61 -46l64 46h152l-141 -116h-150z" />
    <glyph glyph-name="circumflex" unicode="&#x2c6;" 
d="M536 609h-151l-61 47l-64 -47h-151l140 116h150z" />
    <glyph glyph-name="dotaccent" unicode="&#x2d9;" 
d="M396 725v-116h-148v116h148z" />
    <glyph glyph-name="dot" 
d="M397 725v-133h-144v133h144z" />
    <glyph glyph-name="hungarumlaut" unicode="&#x2dd;" 
d="M193 609h-123l94 116h187zM417 609h-124l95 116h187z" />
    <glyph glyph-name="commaaccent" 
d="M261 -36h127v-106l-44 -89h-86l38 95h-35v100z" />
    <glyph glyph-name="ogonek" unicode="&#x2db;" 
d="M430 0q-38 -19 -62.5 -34t-24.5 -38q0 -20 13 -26t31 -6q16 0 30.5 3.5t25.5 6.5v-82q-10 -2 -23.5 -4t-27.5 -3.5t-28 -2t-24 -0.5q-27 0 -52 5t-44 15.5t-30.5 27.5t-11.5 42q0 30 19 54.5t50 41.5h159z" />
    <glyph glyph-name="ring" unicode="&#x2da;" 
d="M323 775q19 0 36 -7t30 -19t20.5 -28.5t7.5 -35.5q0 -38 -27.5 -63.5t-66.5 -25.5q-20 0 -37.5 6.5t-30 18.5t-20 28.5t-7.5 35.5q0 39 28 64.5t67 25.5zM323 726q-17 0 -29 -11.5t-12 -29.5q0 -17 12 -28t29 -11t29 11t12 28q0 18 -12 29.5t-29 11.5z" />
    <glyph glyph-name="tilde" unicode="&#x2dc;" 
d="M383 681q44 0 52 44h97q-11 -63 -45.5 -95t-88.5 -32q-26 0 -45 7t-34.5 15t-29 15t-28.5 7q-43 0 -52 -44h-96q9 60 43.5 93.5t91.5 33.5q26 0 44 -7t32.5 -15t28 -15t30.5 -7z" />
    <glyph glyph-name="caron.slovak" 
d="M327 555h-78l30 170h118z" />
    <glyph glyph-name="acute.case" 
d="M315 761h-145l104 113h202z" />
    <glyph glyph-name="breve.case" 
d="M514 874q-6 -62 -52 -89.5t-140 -27.5q-91 0 -138 27.5t-52 89.5h118q4 -26 24.5 -36t47.5 -10q28 0 49 10t25 36h118z" />
    <glyph glyph-name="caron.case" 
d="M103 874h164l54 -49l59 49h162l-140 -113h-162z" />
    <glyph glyph-name="cedilla.case" 
d="M223 -133q9 -5 27.5 -9.5t38.5 -4.5t34.5 6t14.5 23q0 14 -11.5 21t-29.5 7q-8 0 -19 -2t-19 -7l-30 17l51 83h62l-33 -52q13 4 37 4q15 0 32 -3.5t30.5 -11.5t22.5 -21t9 -32q0 -24 -12 -40t-31.5 -26.5t-44.5 -15t-51 -4.5q-53 0 -95 14z" />
    <glyph glyph-name="circumflex.case" 
d="M543 761h-164l-55 50l-59 -50h-162l140 113h162z" />
    <glyph glyph-name="dieresis.case" 
d="M282 874v-113h-148v113h148zM512 874v-113h-148v113h148z" />
    <glyph glyph-name="dotaccent.case" 
d="M409 874v-113h-172v113h172z" />
    <glyph glyph-name="grave.case" 
d="M170 874h201l105 -113h-146z" />
    <glyph glyph-name="hungarumlaut.case" 
d="M206 761h-145l103 113h202zM426 761h-145l103 113h201z" />
    <glyph glyph-name="macron.case" 
d="M155 771v94h336v-94h-336z" />
    <glyph glyph-name="ogonek.case" 
d="M431 0q-38 -19 -63 -34t-25 -38q0 -20 13.5 -26t31.5 -6q16 0 30.5 3.5t25.5 6.5v-82q-10 -2 -23.5 -4t-27.5 -3.5t-28 -2t-24 -0.5q-27 0 -52 5t-44.5 15.5t-31 27.5t-11.5 42q0 30 19.5 54.5t50.5 41.5h159z" />
    <glyph glyph-name="ring.case" 
d="M323 921q38 0 64.5 -23.5t26.5 -61.5q0 -37 -26.5 -61t-64.5 -24t-64.5 24t-26.5 61q0 38 27 61.5t64 23.5zM323 879q-17 0 -30 -12t-13 -31q0 -18 13 -30t30 -12t30 12t13 30q0 19 -13 31t-30 12z" />
    <glyph glyph-name="tilde.case" 
d="M383 837q23 0 37 9t18 28h97q-7 -38 -24 -60.5t-38.5 -34.5t-43.5 -16t-39 -4q-24 0 -42 5.5t-32 12.5t-27 12.5t-28 5.5q-46 0 -53 -36h-97q7 37 24 60t38 35t43 16t39 4q24 0 41 -6t30.5 -12.5t26.5 -12.5t30 -6z" />
  </font>
</defs>
</svg>
