<?xml version="1.0" standalone="no"?>
<!DOCTYPE svg PUBLIC "-//W3C//DTD SVG 1.1//EN" "http://www.w3.org/Graphics/SVG/1.1/DTD/svg11.dtd" >
<svg xmlns="http://www.w3.org/2000/svg" xmlns:xlink="http://www.w3.org/1999/xlink" version="1.1">
<metadata>
Created by Christoph Koeberlin (http://christoph.koe.berlin)
Copyright (c) 2015 Swiss Typefaces Sa`rl. All rights reserved.
</metadata>
<defs>
<font id="Font" horiz-adv-x="190" >
  <font-face 
    font-family="Font"
    font-weight="250"
    font-style="italic"
    font-stretch="normal"
    units-per-em="1000"
    panose-1="2 11 2 4 0 0 0 0 0 0"
    ascent="800"
    descent="-200"
    x-height="538"
    cap-height="725"
    bbox="-115 -222 1223 930"
    underline-thickness="20"
    underline-position="-110"
    slope="-12"
    unicode-range="U+0020-FB02"
  />
<missing-glyph horiz-adv-x="500" 
 />
    <glyph glyph-name=".notdef" horiz-adv-x="500" 
 />
    <glyph glyph-name="glyph1" horiz-adv-x="0" 
 />
    <glyph glyph-name="glyph2" horiz-adv-x="220" 
 />
    <glyph glyph-name="space" unicode=" " horiz-adv-x="220" 
 />
    <glyph glyph-name="exclam" unicode="!" horiz-adv-x="221" 
d="M218 725l-43 -202l-76 -345h-15l70 345l43 202h21zM43 0l20 94h21l-21 -94h-20z" />
    <glyph glyph-name="quotedbl" unicode="&#x22;" horiz-adv-x="276" 
d="M282 725l-6 -240h-13l-5 240h24zM130 725l-6 -240h-13l-5 240h24z" />
    <glyph glyph-name="numbersign" unicode="#" horiz-adv-x="636" 
d="M199 506l30 219h20l-30 -219h228l30 219h19l-30 -219h166l-3 -20h-166l-33 -243h164l-3 -19h-164l-30 -224h-20l31 224h-228l-30 -224h-21l31 224h-164l2 19h164l34 243h-163l3 20h163zM183 243h227l34 243h-228z" />
    <glyph glyph-name="dollar" unicode="$" horiz-adv-x="619" 
d="M562 184q0 -48 -21 -85t-56.5 -61.5t-81.5 -37.5t-95 -13q-28 0 -53 3l-19 -92h-21l20 95q-41 7 -76.5 23t-61.5 43t-40.5 66t-14.5 91q0 5 0.5 10.5t0.5 11.5h22v-16q0 -96 46.5 -146.5t127.5 -64.5l76 360l-41 15q-34 12 -64 27t-52 36.5t-34.5 50.5t-12.5 67
q0 42 18 74t49.5 53.5t72.5 32.5t88 11q14 0 27 -1t26 -3l20 92h21l-20 -95q39 -7 71.5 -23t56.5 -42t37.5 -63t13.5 -86q0 -5 -0.5 -10.5t-0.5 -10.5h-22q1 6 1 12v13q0 82 -43.5 129.5t-117.5 61.5l-69 -326l25 -8q37 -13 72 -28t63 -36.5t45 -53t17 -76.5zM335 364
l-76 -356q12 -1 24 -1.5t25 -0.5q43 0 84.5 10.5t74 32t52.5 55t20 79.5q0 37 -13 64t-37 46.5t-57.5 34.5t-73.5 29zM133 567q0 -64 39.5 -100t105.5 -59l42 -15l68 323q-23 3 -49 3q-38 0 -75 -8.5t-66 -26.5t-47 -47t-18 -70z" />
    <glyph glyph-name="percent" unicode="%" horiz-adv-x="868" 
d="M96 476q0 -66 29 -107t92 -41q43 0 73 23t48 58.5t26 77t8 78.5q0 67 -29.5 108t-92.5 41q-44 0 -73.5 -23.5t-47.5 -58.5t-25.5 -77t-7.5 -79zM393 566q0 -40 -8.5 -85t-29 -83t-54.5 -63t-84 -25q-72 0 -107.5 45t-35.5 120q0 40 8.5 85t29 83.5t54 63.5t84.5 25
q72 0 107.5 -45t35.5 -121zM192 0l500 725h25l-500 -725h-25zM537 159q0 -66 29 -107t92 -41q43 0 73 23t48 58.5t26 77t8 78.5q0 67 -29.5 108t-92.5 41q-44 0 -73.5 -23.5t-47.5 -58.5t-25.5 -77t-7.5 -79zM834 249q0 -40 -8.5 -85t-29 -83t-54.5 -63t-84 -25
q-72 0 -107.5 45t-35.5 120q0 40 8.5 85t29 83.5t54 63.5t84.5 25q72 0 107.5 -45t35.5 -121z" />
    <glyph glyph-name="ampersand" unicode="&#x26;" horiz-adv-x="697" 
d="M23 186q0 93 67.5 154.5t183.5 91.5q-32 42 -55.5 83t-23.5 84q0 34 13.5 60t36.5 43.5t54 26.5t66 9q75 0 120.5 -34.5t45.5 -97.5q0 -41 -19.5 -71t-51 -52t-71.5 -37t-82 -25l217 -277q36 44 62.5 95t43.5 106l21 -2q-19 -61 -48 -115t-67 -99l102 -129h-25l-90 114
q-55 -59 -125 -93t-154 -34q-42 0 -81.5 12.5t-70.5 37t-50 62t-19 87.5zM286 416q-46 -11 -89 -30t-76.5 -47t-54 -66t-20.5 -86q0 -44 16 -77.5t43.5 -56.5t63.5 -35t75 -12q82 0 149 33.5t118 89.5l-215 275zM509 606q0 23 -8.5 43.5t-26.5 36t-45 24.5t-64 9
q-29 0 -55.5 -7t-47 -21.5t-33 -37.5t-12.5 -54q0 -44 22 -81.5t56 -80.5q36 9 74 21t69 31.5t51 47.5t20 69z" />
    <glyph glyph-name="quotesingle" unicode="'" horiz-adv-x="124" 
d="M130 725l-6 -240h-13l-5 240h24z" />
    <glyph glyph-name="parenleft" unicode="(" horiz-adv-x="184" 
d="M103 -175q-25 60 -43.5 146t-18.5 186q0 149 49 295.5t143 272.5h20q-91 -123 -141.5 -271t-50.5 -306q0 -95 18 -175.5t44 -147.5h-20z" />
    <glyph glyph-name="parenright" unicode=")" horiz-adv-x="184" 
d="M104 725q25 -60 43.5 -146t18.5 -186q0 -149 -49 -296t-143 -272h-20q91 123 141.5 270.5t50.5 305.5q0 96 -18 176.5t-44 147.5h20z" />
    <glyph glyph-name="asterisk" unicode="*" horiz-adv-x="341" 
d="M233 592l136 44l5 -18l-134 -44l83 -113l-17 -12l-82 113l-82 -114l-16 10l82 113l-135 48l5 19l136 -47v134h19v-133z" />
    <glyph glyph-name="plus" unicode="+" horiz-adv-x="678" 
d="M329 0v259h-258v20h258v259h21v-259h258v-20h-258v-259h-21z" />
    <glyph glyph-name="comma" unicode="," horiz-adv-x="221" 
d="M84 94l-21 -95q-8 -36 -13.5 -60.5t-13 -40t-18.5 -23.5t-29 -11l4 22q10 3 16.5 9t11.5 18.5t10 33t12 52.5l20 95h21z" />
    <glyph glyph-name="hyphen" unicode="-" horiz-adv-x="423" 
d="M66 260l3 20h280l-3 -20h-280z" />
    <glyph glyph-name="period" unicode="." horiz-adv-x="221" 
d="M43 0l20 94h21l-21 -94h-20z" />
    <glyph glyph-name="slash" unicode="/" horiz-adv-x="312" 
d="M-4 0l291 725h21l-290 -725h-22z" />
    <glyph glyph-name="zero" unicode="0" horiz-adv-x="667" 
d="M89 287q0 -131 59 -206t173 -75q54 0 96.5 19t74.5 51.5t54.5 76t36.5 91.5t20.5 98t6.5 96q0 65 -15 117t-44 88.5t-72.5 56t-100.5 19.5q-54 0 -96.5 -19t-74.5 -51.5t-54.5 -76t-36.5 -91.5t-20.5 -98t-6.5 -96zM633 439q0 -47 -7 -99t-22 -102.5t-39 -96t-59 -79.5
t-81 -54.5t-105 -20.5q-63 0 -110.5 22t-79.5 61.5t-48 94.5t-16 121q0 48 7 100t22 102t39 95.5t59 80t81 54.5t105 20q63 0 110.5 -21.5t79.5 -61t48 -94.5t16 -122z" />
    <glyph glyph-name="one" unicode="1" horiz-adv-x="287" 
d="M89 0l143 672q-12 -18 -33 -33.5t-46.5 -27.5t-53 -20.5t-53.5 -11.5l1 18q25 2 55 11.5t58 26t51 39t34 51.5h18l-154 -725h-20z" />
    <glyph glyph-name="two" unicode="2" horiz-adv-x="556" 
d="M84 511q3 45 18.5 86t46 72.5t77 50t112.5 18.5q53 0 93 -14t67 -38t40.5 -56.5t13.5 -69.5q0 -68 -40.5 -133t-114 -131.5t-176.5 -135t-227 -141.5h468l-3 -19h-499l3 19q135 83 240.5 154t178 135.5t110 126t37.5 125.5q0 34 -13 63t-37.5 50.5t-60 33.5t-80.5 12
q-57 0 -98.5 -15t-70 -42.5t-44.5 -66t-20 -84.5h-21z" />
    <glyph glyph-name="three" unicode="3" horiz-adv-x="592" 
d="M47 192q6 -96 66 -141t162 -45q45 0 86 12.5t71.5 38t49 63t18.5 87.5q0 39 -15.5 69t-43 50t-66.5 30t-86 10h-14l3 19h10q40 0 84 7.5t80 28t59.5 55.5t23.5 90q0 39 -17 67.5t-45 47.5t-65 28.5t-77 9.5q-84 0 -141 -37t-74 -115h-21q9 43 30 75t51.5 53.5t70 32
t84.5 10.5q42 0 82.5 -9.5t72.5 -30.5t52 -53.5t20 -78.5q0 -41 -14 -74t-39.5 -57t-61 -38.5t-78.5 -20.5q26 -5 54 -16t51 -31t37.5 -49.5t14.5 -72.5q0 -50 -18 -91t-51 -69.5t-78.5 -44t-100.5 -15.5q-52 0 -96 12t-77 37t-53 63.5t-23 92.5h22z" />
    <glyph glyph-name="four" unicode="4" horiz-adv-x="619" 
d="M16 226h385l99 468zM570 208h-152l-45 -208h-20l44 208h-412l4 18l518 499h20l-105 -499h153z" />
    <glyph glyph-name="five" unicode="5" horiz-adv-x="592" 
d="M104 401q26 30 73 55t114 25q53 0 97 -15t76 -44t50 -71.5t18 -96.5q0 -53 -17 -101.5t-50.5 -85t-82.5 -58.5t-112 -22q-50 0 -93 14t-76 40.5t-53.5 65t-24.5 88.5h24q9 -86 67 -137.5t158 -51.5q53 0 97 19t75 52t48 78.5t17 98.5q0 45 -14.5 83t-42.5 65.5t-68.5 43
t-92.5 15.5q-66 0 -118.5 -28t-84.5 -81l-20 5l129 368h395l-4 -19h-376z" />
    <glyph glyph-name="six" unicode="6" horiz-adv-x="625" 
d="M547 253q0 49 -16.5 88t-45 66t-68 41.5t-84.5 14.5t-88 -16.5t-77.5 -48t-55.5 -77.5t-21 -105q0 -47 15.5 -85.5t44 -66.5t67.5 -43t86 -15q50 0 94.5 18t77.5 50.5t52 78t19 100.5zM575 570q-4 39 -20.5 67.5t-41 46.5t-56.5 26.5t-66 8.5q-71 0 -123.5 -34.5t-89 -92
t-58.5 -131.5t-31 -153q13 38 35.5 70t53.5 55.5t70 36.5t85 13q50 0 93.5 -15.5t75.5 -45t50 -72.5t18 -97t-19 -102t-53.5 -84.5t-84 -58t-109.5 -21.5q-109 0 -173.5 67t-64.5 193q0 46 7 100.5t23 109t41.5 105t61.5 90t83.5 63t108.5 23.5q36 0 71 -9t63.5 -29.5
t48 -52.5t25.5 -77h-24z" />
    <glyph glyph-name="seven" unicode="7" horiz-adv-x="489" 
d="M94 725h491l-4 -19q-90 -57 -173 -127t-150 -156t-113 -191t-61 -232h-26q17 130 62.5 235t111.5 190.5t148 154.5t172 126h-463z" />
    <glyph glyph-name="eight" unicode="8" horiz-adv-x="618" 
d="M409 384q25 -7 52 -20t49 -34.5t36 -52.5t14 -73q0 -53 -20.5 -93.5t-56 -68t-84 -41.5t-104.5 -14q-47 0 -92.5 12t-81.5 37.5t-58.5 64t-22.5 91.5q0 43 15.5 78.5t43 61.5t64.5 42t81 21q-63 18 -96.5 62.5t-33.5 99.5q0 47 20.5 81.5t53.5 56.5t74.5 32.5t83.5 10.5
q41 0 83.5 -9.5t77 -30.5t56 -54.5t21.5 -81.5q0 -37 -14.5 -67.5t-38.5 -53t-55.5 -37t-66.5 -20.5zM63 192q0 -53 23 -88.5t57.5 -57.5t75 -31t76.5 -9q55 0 99.5 14t76 39.5t49 62t17.5 82.5q0 51 -23 85.5t-58 55t-78 29t-83 8.5q-52 0 -94.5 -13.5t-73 -38t-47.5 -60
t-17 -78.5zM137 557q0 -44 19.5 -75t49.5 -50t67.5 -27.5t73.5 -8.5q45 0 84.5 11t68.5 32.5t45.5 52.5t16.5 70q0 46 -21.5 76t-54 48t-70.5 25.5t-70 7.5q-43 0 -81 -10.5t-66.5 -31t-45 -51t-16.5 -69.5z" />
    <glyph glyph-name="nine" unicode="9" horiz-adv-x="608" 
d="M93 472q0 -49 16.5 -88t45 -66t67.5 -41t85 -14q44 0 87.5 16.5t78 48t55.5 77t21 104.5q0 47 -15.5 85.5t-44 66.5t-67.5 43t-86 15q-51 0 -95 -18t-77 -50.5t-52 -78t-19 -100.5zM65 155q4 -39 20 -67t41 -46.5t56.5 -27t66.5 -8.5q71 0 123.5 34.5t89 92t58 131.5
t31.5 153q-13 -38 -36 -70t-54 -55.5t-70 -36.5t-84 -13q-51 0 -94 15.5t-75 45t-50 72.5t-18 97t19 102t53.5 84.5t83.5 58t110 21.5q109 0 173.5 -66.5t64.5 -193.5q0 -46 -7 -100.5t-23 -109t-41.5 -105t-61.5 -90t-83.5 -63t-108.5 -23.5q-36 0 -71 9t-63.5 29.5
t-48 52.5t-25.5 77h24z" />
    <glyph glyph-name="colon" unicode=":" horiz-adv-x="221" 
d="M137 444l20 94h21l-21 -94h-20zM43 0l20 94h21l-21 -94h-20z" />
    <glyph glyph-name="semicolon" unicode=";" horiz-adv-x="221" 
d="M137 444l20 94h21l-21 -94h-20zM84 94l-21 -95q-8 -36 -13.5 -60.5t-13 -40t-18.5 -23.5t-29 -11l4 22q10 3 16.5 9t11.5 18.5t10 33t12 52.5l20 95h21z" />
    <glyph glyph-name="equal" unicode="=" horiz-adv-x="678" 
d="M106 382v19h468v-19h-468zM106 144v20h468v-20h-468z" />
    <glyph glyph-name="question" unicode="?" horiz-adv-x="472" 
d="M52 514q10 107 78.5 165.5t182.5 58.5q43 0 81 -9t66 -27t44.5 -45t16.5 -64q0 -36 -15.5 -66.5t-40 -57.5t-56 -50t-63.5 -42q-27 -17 -53 -35t-47 -40.5t-36 -52t-21 -71.5h-21q6 44 20.5 75.5t36.5 56t50.5 44t61.5 40.5q27 16 55.5 37t52 46t39 53.5t15.5 61.5
q0 32 -14 56t-39 39.5t-59.5 23.5t-74.5 8q-48 0 -89.5 -12.5t-73 -38t-51.5 -64t-24 -90.5h-22zM135 0l20 94h21l-21 -94h-20z" />
    <glyph glyph-name="at" unicode="@" horiz-adv-x="850" 
d="M666 167q-29 0 -49.5 11.5t-33.5 30t-18 42t-3 47.5q-22 -53 -67.5 -88.5t-108.5 -35.5q-57 0 -95 39.5t-38 120.5q0 49 16 92t44.5 75.5t67 51.5t84.5 19q31 0 53.5 -10.5t37 -28t22 -39t8.5 -42.5l15 100h21l-40 -240q-5 -27 -0.5 -49.5t16 -39.5t29 -26.5t40.5 -9.5
q28 0 52.5 14t43 41.5t29 68.5t10.5 94q0 75 -26 132t-71 95t-106 57t-132 19q-84 0 -153 -28.5t-117.5 -77.5t-75.5 -115t-27 -141q0 -73 24 -135.5t68.5 -108t107 -71t140.5 -25.5q54 0 107 11t98 30l8 -19q-48 -20 -105 -30.5t-108 -10.5q-83 0 -150.5 27t-114.5 75
t-72.5 114.5t-25.5 144.5q0 81 29 150t81.5 120t125 80t160.5 29q81 0 147 -22t112.5 -63.5t72 -101t25.5 -134.5q0 -59 -13 -103.5t-35 -74.5t-50.5 -45.5t-59.5 -15.5zM464 553q-40 0 -74.5 -17.5t-60 -47t-40 -69t-14.5 -84.5q0 -37 9 -63.5t24.5 -44t37 -25.5t46.5 -8
q39 0 72 19t57 49.5t37.5 70.5t13.5 82q0 69 -27.5 103.5t-80.5 34.5z" />
    <glyph glyph-name="A" unicode="A" horiz-adv-x="584" 
d="M378 725h17l132 -725h-21l-38 209h-376l-125 -209h-24zM103 228h362l-84 465z" />
    <glyph glyph-name="B" unicode="B" horiz-adv-x="648" 
d="M183 725h234q46 0 84.5 -8t66 -26t42.5 -46t15 -67q0 -37 -10.5 -70.5t-31.5 -60t-53.5 -45t-76.5 -25.5q27 -4 50.5 -14.5t41.5 -28.5t28.5 -44t10.5 -62q0 -57 -21 -100t-60 -71.5t-94 -42.5t-123 -14h-257zM53 19h236q57 0 106.5 11.5t86 36.5t58 64.5t21.5 95.5
q0 72 -48 106t-148 34h-238zM131 385h236q47 0 90 9.5t75.5 32t51.5 59.5t19 92q0 63 -47 95.5t-135 32.5h-222z" />
    <glyph glyph-name="C" unicode="C" horiz-adv-x="715" 
d="M677 235q-21 -68 -55.5 -115t-78 -76.5t-94 -43t-102.5 -13.5q-68 0 -121.5 22t-90 61.5t-55.5 95.5t-19 125q0 48 10 100t30.5 102t51.5 94.5t73 78t95 53t118 19.5q55 0 105 -15.5t87.5 -47t60.5 -78t25 -107.5h-22q-3 56 -23.5 99t-55.5 72t-81 43.5t-100 14.5
q-88 0 -153.5 -39.5t-109.5 -101.5t-66 -138.5t-22 -150.5q0 -61 17 -113t50.5 -89.5t83.5 -59t117 -21.5q49 0 95 13t85.5 40.5t71 71t51.5 104.5h22z" />
    <glyph glyph-name="D" unicode="D" horiz-adv-x="696" 
d="M650 419q0 64 -17.5 116.5t-54.5 90.5t-93 59t-133 21h-153l-146 -687h205q103 0 177 32.5t122 88t70.5 127.5t22.5 152zM349 725q157 0 240 -80.5t83 -228.5q0 -81 -23.5 -156t-74 -132.5t-128.5 -92.5t-186 -35h-231l154 725h166z" />
    <glyph glyph-name="E" unicode="E" horiz-adv-x="568" 
d="M183 725h445l-4 -19h-425l-68 -320h400l-4 -19h-400l-74 -348h426l-5 -19h-445z" />
    <glyph glyph-name="F" unicode="F" horiz-adv-x="529" 
d="M183 725h435l-5 -19h-414l-68 -320h389l-4 -19h-389l-78 -367h-20z" />
    <glyph glyph-name="G" unicode="G" horiz-adv-x="761" 
d="M439 738q55 0 104.5 -15.5t87.5 -45.5t63 -75.5t32 -105.5h-22q-7 54 -29.5 96t-58 70t-81.5 42.5t-100 14.5q-88 0 -153.5 -39.5t-109.5 -101.5t-66 -138.5t-22 -150.5q0 -61 17 -113t50.5 -89.5t83.5 -59t117 -21.5q58 0 109 15t92 48t70.5 85.5t45.5 127.5l8 36h-213
l5 22h233l-72 -340h-21l32 152q-15 -30 -39 -59.5t-59 -53t-83.5 -38t-112.5 -14.5q-68 0 -121.5 22t-90 61.5t-55.5 95.5t-19 125q0 48 10 100t30.5 102t51.5 94.5t73 78t95 53t118 19.5z" />
    <glyph glyph-name="H" unicode="H" horiz-adv-x="692" 
d="M703 725l-154 -725h-20l78 367h-480l-78 -367h-20l154 725h20l-72 -339h480l72 339h20z" />
    <glyph glyph-name="I" unicode="I" horiz-adv-x="192" 
d="M49 0h-20l154 725h20z" />
    <glyph glyph-name="J" unicode="J" horiz-adv-x="480" 
d="M-7 156q0 -41 12 -69.5t33 -46.5t49.5 -26t60.5 -8q38 0 72 11t61.5 36.5t48.5 67t34 101.5l107 503h20l-107 -503q-14 -66 -37 -111t-54 -72.5t-68 -39.5t-80 -12q-36 0 -67.5 8.5t-54.5 27t-36.5 49.5t-13.5 76q0 31 8 74h19q-7 -34 -7 -66z" />
    <glyph glyph-name="K" unicode="K" horiz-adv-x="549" 
d="M112 297l492 428h28l-367 -319l232 -406h-24l-223 393l-145 -126l-56 -267h-20l154 725h20z" />
    <glyph glyph-name="L" unicode="L" horiz-adv-x="521" 
d="M53 19h415l-4 -19h-435l154 725h20z" />
    <glyph glyph-name="M" unicode="M" horiz-adv-x="849" 
d="M359 0l-160 706l-150 -706h-20l154 725h32l157 -698l453 698h35l-154 -725h-20l150 706l-458 -706h-19z" />
    <glyph glyph-name="N" unicode="N" horiz-adv-x="713" 
d="M550 0l-353 695l-148 -695h-20l154 725h20l354 -694l147 694h20l-154 -725h-20z" />
    <glyph glyph-name="O" unicode="O" horiz-adv-x="750" 
d="M83 285q0 -59 16 -110t49 -88.5t82.5 -59t116.5 -21.5q82 0 148.5 36.5t113.5 97.5t72.5 139t25.5 161q0 59 -16 110t-49 88.5t-82.5 59t-116.5 21.5q-82 0 -148.5 -36.5t-113.5 -97.5t-72.5 -139t-25.5 -161zM730 436q0 -54 -11.5 -108.5t-34 -104.5t-55.5 -93t-76 -75
t-95.5 -50t-113.5 -18q-68 0 -120.5 22t-89 61.5t-55.5 95t-19 123.5q0 82 26 162t75.5 144t121 103.5t163.5 39.5q67 0 120 -22t89.5 -61.5t55.5 -95.5t19 -123z" />
    <glyph glyph-name="P" unicode="P" horiz-adv-x="576" 
d="M29 0l154 725h189q58 0 105.5 -8t82 -26.5t53.5 -49.5t19 -76q0 -72 -27 -119.5t-73.5 -76t-109 -40t-132.5 -11.5h-173l-68 -318h-20zM199 706l-78 -367h169q58 0 115.5 8.5t102.5 33t73 68.5t28 116q0 42 -18 69t-50 43t-75.5 22.5t-93.5 6.5h-173z" />
    <glyph glyph-name="Q" unicode="Q" horiz-adv-x="750" 
d="M730 436q0 -57 -12.5 -113.5t-37 -107.5t-60 -95t-81.5 -75l84 -107l-15 -12l-86 109q-38 -23 -82.5 -35.5t-95.5 -12.5q-68 0 -120.5 22t-89 61.5t-55.5 95t-19 123.5q0 82 26 162t75.5 144t121 103.5t163.5 39.5q67 0 120 -22t89.5 -61.5t55.5 -95.5t19 -123zM451 158
l75 -97q43 29 76.5 70.5t56.5 91t35.5 105t12.5 112.5q0 59 -16 110t-49 88.5t-82.5 59t-116.5 21.5q-82 0 -148.5 -36.5t-113.5 -97.5t-72.5 -139t-25.5 -161q0 -59 16 -110t49 -88.5t82.5 -59t116.5 -21.5q89 0 163 45l-75 95z" />
    <glyph glyph-name="R" unicode="R" horiz-adv-x="616" 
d="M397 347q-48 -6 -102 -6h-174l-72 -341h-20l154 725h181q60 0 109.5 -6t85 -23.5t55 -48t19.5 -79.5q0 -50 -16.5 -87.5t-45.5 -63.5t-69 -42.5t-86 -24.5l107 -350h-23zM199 706l-73 -346h161q61 0 119 8.5t103.5 31t73 63t27.5 105.5q0 46 -19.5 73.5t-53 42t-78 18.5
t-94.5 4h-166z" />
    <glyph glyph-name="S" unicode="S" horiz-adv-x="637" 
d="M582 536q-9 49 -30.5 84t-53 57t-71.5 32t-85 10q-38 0 -76.5 -8t-69 -26t-50 -47.5t-19.5 -71.5q0 -64 40 -101t109 -58l88 -28q35 -11 71.5 -25.5t66 -36.5t48.5 -54t19 -78q0 -49 -22.5 -86t-59 -62t-84 -37.5t-98.5 -12.5q-55 0 -102.5 13t-84.5 40t-61 69t-31 100
l20 1q7 -52 29 -90.5t55.5 -63.5t76.5 -37.5t93 -12.5q42 0 86 9.5t80 31t58.5 55.5t22.5 83q0 38 -15 65t-40.5 47.5t-60 35t-74.5 26.5l-88 28q-33 10 -63 25t-52.5 36t-35.5 50t-13 68q0 44 20 76.5t53.5 53.5t76.5 31.5t88 10.5q46 0 90 -11.5t79.5 -35.5t60 -62
t32.5 -92z" />
    <glyph glyph-name="T" unicode="T" horiz-adv-x="541" 
d="M353 706h-260l4 19h541l-5 -19h-260l-150 -706h-20z" />
    <glyph glyph-name="U" unicode="U" horiz-adv-x="700" 
d="M88 191q0 -93 52.5 -139t164.5 -46q69 0 119.5 18t86.5 54t60 89.5t39 125.5l92 432h20l-92 -431q-17 -79 -43 -136.5t-64.5 -95.5t-92 -56.5t-125.5 -18.5q-118 0 -177.5 49t-59.5 153q0 46 12 105l92 431h20l-92 -432q-12 -57 -12 -102z" />
    <glyph glyph-name="V" unicode="V" horiz-adv-x="585" 
d="M243 32l416 693h23l-435 -725h-18l-132 725h20z" />
    <glyph glyph-name="W" unicode="W" horiz-adv-x="890" 
d="M613 37l350 688h24l-371 -725h-18l-61 698l-355 -698h-17l-68 725h22l61 -688l350 688h23z" />
    <glyph glyph-name="X" unicode="X" horiz-adv-x="608" 
d="M314 378l-196 347h23l187 -332l327 332h27l-344 -350l213 -375h-23l-204 360l-354 -360h-27z" />
    <glyph glyph-name="Y" unicode="Y" horiz-adv-x="519" 
d="M108 725l157 -436l336 436h26l-355 -459l-57 -266h-21l57 266l-165 459h22z" />
    <glyph glyph-name="Z" unicode="Z" horiz-adv-x="609" 
d="M655 706l-643 -687h515l-5 -19h-541l4 19l643 687h-461l4 19h488z" />
    <glyph glyph-name="bracketleft" unicode="[" horiz-adv-x="214" 
d="M115 -156l-4 -19h-119l189 900h121l-3 -19h-100l-184 -862h100z" />
    <glyph glyph-name="bracketright" unicode="]" horiz-adv-x="214" 
d="M221 725l-191 -900h-119l3 19h99l184 862h-100l3 19h121z" />
    <glyph glyph-name="underscore" unicode="_" horiz-adv-x="400" 
d="M-41 -19v19h380v-19h-380z" />
    <glyph glyph-name="grave" unicode="`" horiz-adv-x="194" 
d="M31 725h26l99 -127h-23z" />
    <glyph glyph-name="a" unicode="a" horiz-adv-x="546" 
d="M454 301q-114 -8 -192.5 -21.5t-126.5 -34t-69 -50t-21 -69.5q0 -28 11.5 -50t31 -37.5t46.5 -24t59 -8.5q36 0 74 11.5t71.5 37.5t60 69.5t40.5 106.5zM415 119q-38 -69 -95 -100.5t-130 -31.5q-35 0 -65.5 9.5t-53.5 27t-36 42.5t-13 56q0 49 25.5 83t79 57t135.5 36.5
t195 21.5l3 13q7 29 7 57q0 38 -14 64.5t-37 43t-52 23.5t-60 7q-45 0 -79.5 -11.5t-59.5 -31.5t-40 -47.5t-20 -59.5h-22q15 81 73.5 125t148.5 44q38 0 71 -9.5t58 -29t39 -49t14 -69.5q0 -25 -6 -53q-3 -13 -6.5 -30.5t-8 -36.5t-9 -38.5t-8.5 -37.5q-12 -54 -19.5 -100
t-15.5 -94h-21z" />
    <glyph glyph-name="b" unicode="b" horiz-adv-x="590" 
d="M135 419q35 60 88 94t123 34q51 0 88 -19t61 -50.5t35.5 -73t11.5 -86.5q0 -65 -17.5 -124.5t-51 -105.5t-82.5 -73.5t-111 -27.5q-47 0 -81.5 15.5t-58.5 42t-37.5 61.5t-18.5 74l-38 -180h-20l154 725h20zM100 221q0 -52 14 -92t38 -67.5t56.5 -41.5t70.5 -14
q59 0 104 27.5t75.5 72t46 99.5t15.5 111q0 47 -12 86t-34.5 67t-55.5 43.5t-75 15.5q-61 0 -106.5 -29t-76 -74t-45.5 -99t-15 -105z" />
    <glyph glyph-name="c" unicode="c" horiz-adv-x="547" 
d="M499 366q-6 80 -55 121t-123 41q-63 0 -110.5 -29.5t-80 -76t-49 -103t-16.5 -110.5q0 -101 51.5 -152t132.5 -51q34 0 68 10t63 30t52 50t35 71h21q-14 -46 -38.5 -79.5t-57 -56t-70 -33.5t-76.5 -11q-44 0 -81.5 14t-64.5 41t-42.5 67.5t-15.5 94.5q0 66 19.5 128
t56 110t88.5 76.5t118 28.5q38 0 72 -11t60 -33t43 -56.5t21 -80.5h-21z" />
    <glyph glyph-name="d" unicode="d" horiz-adv-x="599" 
d="M460 115q-35 -61 -88 -94.5t-122 -33.5q-51 0 -88.5 19t-61.5 50.5t-35.5 72.5t-11.5 86q0 64 17.5 124t51.5 106.5t83 74t111 27.5q47 0 81.5 -16t58 -42.5t37 -61.5t18.5 -73l79 371h20l-154 -725h-20zM495 313q0 52 -14 92t-38 67.5t-56.5 41.5t-69.5 14
q-60 0 -105 -27.5t-75 -72t-45.5 -100t-15.5 -111.5q0 -47 11.5 -86t34 -67t55.5 -43t75 -15q61 0 106.5 29t76 74t45.5 99t15 105z" />
    <glyph glyph-name="e" unicode="e" horiz-adv-x="580" 
d="M513 158q-12 -36 -34.5 -67t-55 -54.5t-72.5 -36.5t-86 -13q-45 0 -84.5 14t-68 41t-45 68t-16.5 95q0 66 19.5 127.5t56.5 109t90 76.5t120 29q57 0 98 -22t65.5 -59t33 -86.5t0.5 -104.5h-455q-3 -17 -4 -34t-1 -31q0 -51 14.5 -89.5t40.5 -64t60.5 -38t75.5 -12.5
t77.5 11.5t66 32t51 48t32.5 60.5h21zM333 528q-50 0 -92 -19t-74 -51.5t-54 -75t-31 -88.5h431q5 43 -2 85t-28.5 75t-58.5 53.5t-91 20.5z" />
    <glyph glyph-name="f" unicode="f" horiz-adv-x="257" 
d="M171 610q7 32 16 54t24.5 35.5t38.5 19.5t58 6h25l-4 -18h-10q-36 0 -57.5 -4t-35 -15t-21 -31t-14.5 -52l-15 -67h116l-4 -18h-116l-111 -520h-20l111 520h-81l3 18h81z" />
    <glyph glyph-name="g" unicode="g" horiz-adv-x="592" 
d="M459 141q-35 -57 -90.5 -89.5t-122.5 -32.5q-52 0 -89.5 16.5t-61.5 45.5t-35.5 68t-11.5 83q0 61 17.5 117.5t51 100.5t83 70.5t113.5 26.5q47 0 81 -15.5t57 -41t36 -60t18 -71.5l38 179h20l-115 -542q-11 -51 -31.5 -86t-49.5 -56.5t-66 -31.5t-80 -10
q-89 0 -138.5 41t-49.5 116h23q0 -63 38.5 -100t127.5 -37q34 0 66 6.5t59.5 25t48.5 50.5t32 83zM313 528q-61 0 -106.5 -26t-75.5 -68t-45 -94.5t-15 -104.5q0 -94 45.5 -145t129.5 -51q60 0 105.5 25t76 64.5t46 89.5t15.5 100q0 52 -13.5 91.5t-37.5 66t-56 39.5t-69 13
z" />
    <glyph glyph-name="h" unicode="h" horiz-adv-x="561" 
d="M134 401q13 27 32.5 53t47 46.5t63.5 33.5t81 13q151 0 151 -137q0 -15 -2 -31.5t-6 -35.5l-73 -343h-20l71 334q9 40 9 73q0 66 -35 93.5t-98 27.5q-49 0 -89 -18t-71.5 -51.5t-53.5 -80.5t-34 -105l-58 -273h-20l154 725h20z" />
    <glyph glyph-name="i" unicode="i" 
d="M160 538l-114 -538h-20l114 538h20zM200 725l-19 -92h-20l19 92h20z" />
    <glyph glyph-name="j" unicode="j" 
d="M140 538h20l-127 -598q-7 -32 -15.5 -54t-23.5 -35.5t-37.5 -19.5t-57.5 -6h-14l3 18h7q33 0 53.5 4.5t32.5 15.5t19 31t14 51zM200 725l-19 -92h-20l19 92h20z" />
    <glyph glyph-name="k" unicode="k" horiz-adv-x="465" 
d="M200 725l-105 -495l340 308h27l-239 -216l170 -322h-22l-163 308l-120 -108l-42 -200h-20l154 725h20z" />
    <glyph glyph-name="l" unicode="l" 
d="M46 0h-20l154 725h20z" />
    <glyph glyph-name="m" unicode="m" horiz-adv-x="892" 
d="M482 396q13 28 33.5 55t48 48.5t61.5 34.5t76 13q68 0 103.5 -34t35.5 -102q0 -28 -8 -68l-73 -343h-20l71 334q9 42 9 74q0 65 -32.5 92.5t-89.5 27.5q-45 0 -83 -18t-68 -51.5t-51.5 -80.5t-33.5 -105l-58 -273h-20l71 334q9 42 9 74q0 65 -32.5 92.5t-89.5 27.5
q-45 0 -83 -18t-68 -51.5t-52 -80.5t-34 -105l-58 -273h-20l114 538h20l-29 -137q13 27 32.5 53t46 46.5t60 33.5t74.5 13q68 0 103 -34t35 -103v-14z" />
    <glyph glyph-name="n" unicode="n" horiz-adv-x="558" 
d="M160 538l-29 -137q13 27 32.5 53t47 46.5t63.5 33.5t81 13q151 0 151 -137q0 -15 -2 -31.5t-6 -35.5l-73 -343h-20l71 334q9 40 9 73q0 66 -35 93.5t-98 27.5q-49 0 -89 -18t-71.5 -51.5t-53.5 -80.5t-34 -105l-58 -273h-20l114 538h20z" />
    <glyph glyph-name="o" unicode="o" horiz-adv-x="587" 
d="M337 547q43 0 80 -13.5t64 -40t42 -65.5t15 -91q0 -60 -18.5 -122.5t-55 -113t-90.5 -82.5t-124 -32q-44 0 -80.5 13.5t-63.5 40t-42 65.5t-15 91q0 60 18.5 122.5t55 113t90 82.5t124.5 32zM334 528q-61 0 -109.5 -29.5t-82 -76t-51.5 -104t-18 -114.5q0 -99 50 -148.5
t130 -49.5q61 0 109 29.5t82 76t52 104t18 114.5q0 99 -50 148.5t-130 49.5z" />
    <glyph glyph-name="p" unicode="p" horiz-adv-x="600" 
d="M138 419q35 60 88.5 94t122.5 34q51 0 88.5 -19t61.5 -50.5t35.5 -73t11.5 -86.5q0 -65 -17.5 -124.5t-51.5 -105.5t-82.5 -73.5t-110.5 -27.5q-47 0 -82 15.5t-58.5 42t-37.5 61.5t-19 74l-75 -355h-20l151 713h20zM104 221q0 -52 14 -92t38 -67.5t56.5 -41.5t70.5 -14
q59 0 104 27.5t75.5 72t46 99.5t15.5 111q0 47 -12 86t-34.5 67t-55.5 43.5t-75 15.5q-61 0 -106.5 -29t-76 -74t-45.5 -99t-15 -105z" />
    <glyph glyph-name="q" unicode="q" horiz-adv-x="599" 
d="M460 115q-35 -61 -88 -94.5t-122 -33.5q-51 0 -88.5 19t-61.5 50.5t-35.5 72.5t-11.5 86q0 64 17.5 124t51.5 106.5t83 74t111 27.5q47 0 81.5 -16t58 -42.5t37 -61.5t18.5 -73l39 184h20l-151 -713h-20zM495 313q0 52 -14 92t-38 67.5t-56.5 41.5t-69.5 14
q-60 0 -105 -27.5t-75 -72t-45.5 -100t-15.5 -111.5q0 -47 11.5 -86t34 -67t55.5 -43t75 -15q61 0 106.5 29t76 74t45.5 99t15 105z" />
    <glyph glyph-name="r" unicode="r" horiz-adv-x="322" 
d="M336 520h-9q-44 0 -80 -18t-63.5 -50.5t-47.5 -78t-32 -101.5l-58 -272h-20l114 538h18l-32 -151q34 80 89.5 117t124.5 37z" />
    <glyph glyph-name="s" unicode="s" horiz-adv-x="498" 
d="M437 387q-7 74 -56.5 107.5t-126.5 33.5q-26 0 -54.5 -6t-52 -19.5t-39 -35t-15.5 -53.5q0 -45 26 -69.5t76 -38.5l79 -23q34 -9 62 -21.5t48.5 -29t32 -38.5t11.5 -52q0 -39 -16 -68.5t-43 -48.5t-63 -28.5t-76 -9.5q-43 0 -81 10.5t-67.5 33t-47.5 58t-21 84.5h23
q5 -87 58 -127t137 -40q31 0 62.5 7t56.5 23t40.5 41.5t15.5 62.5q0 27 -10 46t-28 33.5t-43 24.5t-55 19l-79 22q-62 18 -91.5 47.5t-29.5 79.5q0 34 16 59t42 42t59 25.5t68 8.5q40 0 76 -9t63.5 -28.5t44.5 -50t19 -72.5h-21z" />
    <glyph glyph-name="t" unicode="t" horiz-adv-x="299" 
d="M211 670h21l-28 -132h116l-4 -18h-116l-83 -388q-5 -23 -8 -40t-3 -30q0 -26 17.5 -35t65.5 -9h20l-4 -18h-28q-51 0 -72 11t-21 45q0 11 2.5 26t6.5 34l86 404h-98l4 18h98z" />
    <glyph glyph-name="u" unicode="u" horiz-adv-x="550" 
d="M415 132q-13 -27 -31.5 -53t-44.5 -46.5t-60.5 -33t-80.5 -12.5q-147 0 -147 134q0 29 8 69l74 348h20l-71 -338q-9 -44 -9 -76q0 -64 33 -91t96 -27q49 0 87.5 18t68.5 51t50.5 80t33.5 105l59 278h20l-114 -538h-20z" />
    <glyph glyph-name="v" unicode="v" horiz-adv-x="456" 
d="M178 25l310 513h25l-330 -538h-22l-104 538h22z" />
    <glyph glyph-name="w" unicode="w" horiz-adv-x="717" 
d="M402 538h24l55 -510l268 510h25l-288 -538h-21l-56 509l-269 -509h-22l-61 538h22l54 -510z" />
    <glyph glyph-name="x" unicode="x" horiz-adv-x="463" 
d="M245 276l156 -276h-24l-147 260l-255 -260h-27l272 277l-146 261h24l138 -245l240 245h27z" />
    <glyph glyph-name="y" unicode="y" horiz-adv-x="456" 
d="M489 538h24l-361 -591q-23 -37 -40 -60.5t-34.5 -37t-38.5 -19t-52 -5.5h-17l2 18h21q22 0 37.5 2.5t30 13t30.5 31.5t39 57l34 55l-107 536h23l99 -511z" />
    <glyph glyph-name="z" unicode="z" horiz-adv-x="463" 
d="M-21 17l468 502h-342l4 19h372l-5 -17l-468 -502h369l-4 -19h-398z" />
    <glyph glyph-name="braceleft" unicode="{" horiz-adv-x="219" 
d="M103 -175q-52 0 -73.5 14.5t-21.5 50.5q0 13 2.5 28.5t6.5 34.5l39 185q4 17 6.5 33.5t2.5 31.5q0 26 -10 43t-36 19l3 20q21 1 36.5 12.5t26.5 29.5t18.5 40.5t12.5 45.5l43 204q7 34 15.5 55.5t23 33t37 15.5t58.5 4h14l-3 -18h-9q-34 0 -54 -3.5t-32 -13.5t-18.5 -29
t-12.5 -50l-42 -198q-8 -35 -16.5 -58.5t-19 -39.5t-23.5 -25.5t-28 -15.5v-1q17 -9 26.5 -26t9.5 -46q0 -14 -2 -29t-6 -34l-41 -192q-4 -17 -6 -31t-2 -25q0 -28 19 -37.5t69 -9.5h4l-3 -18h-14z" />
    <glyph glyph-name="bar" unicode="|" horiz-adv-x="192" 
d="M106 725v-815h-20v815h20z" />
    <glyph glyph-name="braceright" unicode="}" horiz-adv-x="219" 
d="M-90 -157h9q34 0 54 3.5t32 13.5t18.5 29t12.5 50l42 198q8 34 16.5 58t19 40t23.5 25t28 15v2q-17 9 -26.5 26t-9.5 46q0 23 8 63l41 192q4 17 6 31t2 25q0 28 -19 37.5t-68 9.5h-5l3 18h14q53 0 74 -14.5t21 -51.5q0 -13 -2 -28t-6 -34l-40 -185q-4 -17 -6.5 -34
t-2.5 -31q0 -26 10 -43t36 -19l-3 -20q-21 -2 -36.5 -13.5t-26 -29t-18 -40t-12.5 -45.5l-44 -204q-7 -35 -15.5 -56t-23 -32.5t-37 -15.5t-58.5 -4h-14z" />
    <glyph glyph-name="uni00A0" unicode="&#xa0;" horiz-adv-x="220" 
 />
    <glyph glyph-name="exclamdown" unicode="&#xa1;" horiz-adv-x="221" 
d="M68 16l-40 -191h-22l41 191l76 346h15zM137 444l20 94h21l-21 -94h-20z" />
    <glyph glyph-name="sterling" unicode="&#xa3;" horiz-adv-x="601" 
d="M592 556q0 48 -18 79.5t-47.5 50t-66 26t-73.5 7.5q-40 0 -79.5 -9.5t-71.5 -30t-52 -52t-20 -76.5q0 -42 14.5 -83.5t28.5 -83.5h233l-5 -19h-222q6 -21 10 -42t4 -42q0 -39 -14 -76.5t-38 -70.5t-55 -60.5t-65 -47.5l1 -1q31 10 56 13.5t47 3.5q31 0 56.5 -5.5
t51 -12.5t54 -12.5t66.5 -5.5q21 0 45 4t55 15l5 -20q-25 -8 -54.5 -13t-60.5 -5q-30 0 -57.5 5.5t-55 12t-55 12t-57.5 5.5q-36 0 -76 -8.5t-80 -23.5l-6 15q37 19 75.5 46.5t69 62t50 76.5t19.5 91q0 22 -4 43t-10 41h-118l4 19h108q-14 42 -28 82t-14 85q0 46 20.5 81
t54.5 58.5t78 35.5t92 12q47 0 88.5 -10t72 -32.5t48.5 -57.5t18 -84q0 -21 -3 -43h-23q2 12 3 23t1 22z" />
    <glyph glyph-name="yen" unicode="&#xa5;" horiz-adv-x="546" 
d="M424 101h-193l-21 -101h-20l21 101h-191l4 20h191l21 100h-190l3 19h191l6 26l-165 459h22l156 -436l338 436h26l-357 -459l-6 -26h193l-4 -19h-193l-21 -100h193z" />
    <glyph glyph-name="dieresis" unicode="&#xa8;" horiz-adv-x="295" 
d="M47 725l-21 -93h-20l20 93h21zM280 725l-20 -93h-21l21 93h20z" />
    <glyph glyph-name="copyright" unicode="&#xa9;" horiz-adv-x="820" 
d="M406 -13q-77 0 -145 27t-118.5 76t-79.5 118t-29 152q0 84 29 154t79.5 119.5t118.5 77t145 27.5t145 -27.5t118.5 -77t79.5 -119.5t29 -154q0 -83 -29 -152t-79.5 -118t-118.5 -76t-145 -27zM406 719q-75 0 -139 -26t-111 -73.5t-73.5 -113.5t-26.5 -146
q0 -78 26.5 -143t73.5 -112t111 -73t139 -26t139 26t111 73t73.5 112t26.5 143q0 80 -26.5 146t-73.5 113.5t-111 73.5t-139 26zM246 373q0 -45 13 -79.5t34.5 -58t50 -35.5t59.5 -12q58 0 96 29.5t52 74.5l20 -5q-7 -22 -21 -43t-35 -37.5t-49.5 -27t-62.5 -10.5
q-38 0 -71 14t-57 40.5t-38 64t-14 85.5q0 47 14 84t38.5 63t57 39.5t70.5 13.5q34 0 62 -10.5t48.5 -27t34 -38t20.5 -43.5l-20 -6q-15 46 -51 75t-94 29q-31 0 -59.5 -11t-50 -33.5t-34.5 -56t-13 -78.5z" />
    <glyph glyph-name="guillemotleft" unicode="&#xab;" horiz-adv-x="395" 
d="M185 284l202 224h24l-203 -225l106 -222h-20zM16 284l202 224h24l-203 -225l106 -222h-20z" />
    <glyph glyph-name="uni00AD" unicode="&#xad;" horiz-adv-x="423" 
d="M66 260l3 20h280l-3 -20h-280z" />
    <glyph glyph-name="macron" unicode="&#xaf;" horiz-adv-x="289" 
d="M17 667h249l-3 -19h-249z" />
    <glyph glyph-name="degree" unicode="&#xb0;" horiz-adv-x="311" 
d="M209 463q-30 0 -55 10.5t-43 29t-28 43.5t-10 54t10 54.5t28 44t43 29t55 10.5q29 0 54 -10.5t43 -29t28 -44t10 -54.5t-10 -54t-28 -43.5t-43 -29t-54 -10.5zM209 719q-51 0 -82 -33t-31 -86t31 -85.5t82 -32.5q50 0 81.5 32.5t31.5 85.5t-31.5 86t-81.5 33z" />
    <glyph glyph-name="acute" unicode="&#xb4;" horiz-adv-x="198" 
d="M30 598h-28l157 127h28z" />
    <glyph glyph-name="periodcentered" unicode="&#xb7;" horiz-adv-x="221" 
d="M90 222l20 94h21l-21 -94h-20z" />
    <glyph glyph-name="cedilla" unicode="&#xb8;" horiz-adv-x="312" 
d="M124 0h21l-48 -59q15 3 28 3q26 0 46 -13t20 -45q0 -21 -9 -35t-23 -23t-32 -13t-37 -4q-18 0 -36 3t-32 10l8 19q24 -13 62 -13q14 0 28 3t24.5 9.5t17 17t6.5 26.5q0 20 -14 30.5t-34 10.5q-25 0 -45 -11l-9 13z" />
    <glyph glyph-name="guillemotright" unicode="&#xbb;" horiz-adv-x="395" 
d="M169 61h-24l203 225l-106 222h20l109 -223zM0 61h-24l203 225l-106 222h20l109 -223z" />
    <glyph glyph-name="questiondown" unicode="&#xbf;" horiz-adv-x="472" 
d="M426 34q-10 -107 -78.5 -165t-182.5 -58q-43 0 -80.5 9t-66 27t-45 45t-16.5 64q0 36 15 65t40 53.5t56.5 45.5t63.5 41q28 17 54 35t47 40.5t35.5 52t20.5 71.5h21q-6 -44 -20.5 -75.5t-36.5 -56t-50.5 -44t-61.5 -40.5q-27 -17 -55.5 -36t-52 -41.5t-38.5 -49.5
t-15 -60q0 -32 14 -56t39 -40t59 -23.5t74 -7.5q48 0 89.5 13t73 38.5t51.5 64t25 90.5zM296 444l20 94h21l-21 -94h-20z" />
    <glyph glyph-name="Agrave" unicode="&#xc0;" horiz-adv-x="584" 
d="M378 725h17l132 -725h-21l-38 209h-376l-125 -209h-24zM103 228h362l-84 465zM270 886h28l110 -113h-24z" />
    <glyph glyph-name="Aacute" unicode="&#xc1;" horiz-adv-x="584" 
d="M378 725h17l132 -725h-21l-38 209h-376l-125 -209h-24zM103 228h362l-84 465zM413 773h-28l159 113h29z" />
    <glyph glyph-name="Acircumflex" unicode="&#xc2;" horiz-adv-x="584" 
d="M378 725h17l132 -725h-21l-38 209h-376l-125 -209h-24zM103 228h362l-84 465zM552 773h-24l-106 96l-148 -96h-28l167 113h21z" />
    <glyph glyph-name="Atilde" unicode="&#xc3;" horiz-adv-x="584" 
d="M378 725h17l132 -725h-21l-38 209h-376l-125 -209h-24zM103 228h362l-84 465zM327 874q26 0 45 -11t35.5 -23.5t32.5 -23.5t36 -11q26 0 46 17t28 52h21q-11 -46 -37 -67t-58 -21q-24 0 -42 11t-34.5 23.5t-34 23.5t-39.5 11q-26 0 -46 -17.5t-28 -51.5h-20
q10 44 36.5 66t58.5 22z" />
    <glyph glyph-name="Adieresis" unicode="&#xc4;" horiz-adv-x="584" 
d="M378 725h17l132 -725h-21l-38 209h-376l-125 -209h-24zM103 228h362l-84 465zM313 876l-21 -92h-20l20 92h21zM546 876l-20 -92h-21l21 92h20z" />
    <glyph glyph-name="Aring" unicode="&#xc5;" horiz-adv-x="584" 
d="M378 725h17l132 -725h-21l-38 209h-376l-125 -209h-24zM103 228h362l-84 465zM407 913q-25 0 -44.5 -16.5t-19.5 -46.5q0 -29 19.5 -45.5t44.5 -16.5t44 16.5t19 45.5q0 30 -19 46.5t-44 16.5zM407 930q35 0 59.5 -22.5t24.5 -57.5t-24.5 -57t-59.5 -22t-59.5 22
t-24.5 57t24.5 57.5t59.5 22.5z" />
    <glyph glyph-name="AE" unicode="&#xc6;" horiz-adv-x="926" 
d="M987 725l-5 -19h-424l-68 -320h400l-4 -19h-400l-74 -348h425l-4 -19h-446l44 209h-291l-172 -209h-25l598 725h446zM156 228h279l98 457z" />
    <glyph glyph-name="Ccedilla" unicode="&#xc7;" horiz-adv-x="715" 
d="M677 235q-21 -68 -55.5 -115t-78 -76.5t-94 -43t-102.5 -13.5q-68 0 -121.5 22t-90 61.5t-55.5 95.5t-19 125q0 48 10 100t30.5 102t51.5 94.5t73 78t95 53t118 19.5q55 0 105 -15.5t87.5 -47t60.5 -78t25 -107.5h-22q-3 56 -23.5 99t-55.5 72t-81 43.5t-100 14.5
q-88 0 -153.5 -39.5t-109.5 -101.5t-66 -138.5t-22 -150.5q0 -61 17 -113t50.5 -89.5t83.5 -59t117 -21.5q49 0 95 13t85.5 40.5t71 71t51.5 104.5h22zM317 0h21l-48 -59q15 3 28 3q26 0 46 -13t20 -45q0 -21 -9 -35t-23 -23t-32 -13t-37 -4q-18 0 -36 3t-32 10l8 19
q24 -13 62 -13q14 0 28 3t24.5 9.5t17 17t6.5 26.5q0 20 -14 30.5t-34 10.5q-25 0 -45 -11l-9 13z" />
    <glyph glyph-name="Egrave" unicode="&#xc8;" horiz-adv-x="568" 
d="M183 725h445l-4 -19h-425l-68 -320h400l-4 -19h-400l-74 -348h426l-5 -19h-445zM290 886h28l110 -113h-24z" />
    <glyph glyph-name="Eacute" unicode="&#xc9;" horiz-adv-x="568" 
d="M183 725h445l-4 -19h-425l-68 -320h400l-4 -19h-400l-74 -348h426l-5 -19h-445zM405 773h-28l159 113h29z" />
    <glyph glyph-name="Ecircumflex" unicode="&#xca;" horiz-adv-x="568" 
d="M183 725h445l-4 -19h-425l-68 -320h400l-4 -19h-400l-74 -348h426l-5 -19h-445zM561 773h-24l-106 96l-148 -96h-28l167 113h21z" />
    <glyph glyph-name="Edieresis" unicode="&#xcb;" horiz-adv-x="568" 
d="M183 725h445l-4 -19h-425l-68 -320h400l-4 -19h-400l-74 -348h426l-5 -19h-445zM338 876l-21 -92h-20l20 92h21zM571 876l-20 -92h-21l21 92h20z" />
    <glyph glyph-name="Igrave" unicode="&#xcc;" horiz-adv-x="192" 
d="M49 0h-20l154 725h20zM78 886h28l110 -113h-24z" />
    <glyph glyph-name="Iacute" unicode="&#xcd;" horiz-adv-x="192" 
d="M216 773h-28l159 113h29zM49 0h-20l154 725h20z" />
    <glyph glyph-name="Icircumflex" unicode="&#xce;" horiz-adv-x="192" 
d="M353 773h-24l-106 96l-148 -96h-28l167 113h21zM49 0h-20l154 725h20z" />
    <glyph glyph-name="Idieresis" unicode="&#xcf;" horiz-adv-x="192" 
d="M115 876l-21 -92h-20l20 92h21zM348 876l-20 -92h-21l21 92h20zM49 0h-20l154 725h20z" />
    <glyph glyph-name="Eth" unicode="&#xd0;" horiz-adv-x="705" 
d="M358 725q158 0 241 -80.5t83 -228.5q0 -81 -24 -156t-74 -132.5t-128 -92.5t-186 -35h-232l77 362h-109l4 19h109l73 344h166zM209 706l-69 -325h154l-4 -19h-154l-73 -343h204q103 0 177 32.5t122 88t70.5 127.5t22.5 152q0 64 -17.5 116.5t-54 90.5t-93 59t-133.5 21
h-152z" />
    <glyph glyph-name="Ntilde" unicode="&#xd1;" horiz-adv-x="713" 
d="M550 0l-353 695l-148 -695h-20l154 725h20l354 -694l147 694h20l-154 -725h-20zM395 874q26 0 45 -11t35.5 -23.5t32.5 -23.5t36 -11q26 0 46 17t28 52h21q-11 -46 -37 -67t-58 -21q-24 0 -42 11t-34.5 23.5t-34 23.5t-39.5 11q-26 0 -46 -17.5t-28 -51.5h-20
q10 44 36.5 66t58.5 22z" />
    <glyph glyph-name="Ograve" unicode="&#xd2;" horiz-adv-x="750" 
d="M83 285q0 -59 16 -110t49 -88.5t82.5 -59t116.5 -21.5q82 0 148.5 36.5t113.5 97.5t72.5 139t25.5 161q0 59 -16 110t-49 88.5t-82.5 59t-116.5 21.5q-82 0 -148.5 -36.5t-113.5 -97.5t-72.5 -139t-25.5 -161zM730 436q0 -54 -11.5 -108.5t-34 -104.5t-55.5 -93t-76 -75
t-95.5 -50t-113.5 -18q-68 0 -120.5 22t-89 61.5t-55.5 95t-19 123.5q0 82 26 162t75.5 144t121 103.5t163.5 39.5q67 0 120 -22t89.5 -61.5t55.5 -95.5t19 -123zM345 886h28l110 -113h-24z" />
    <glyph glyph-name="Oacute" unicode="&#xd3;" horiz-adv-x="750" 
d="M83 285q0 -59 16 -110t49 -88.5t82.5 -59t116.5 -21.5q82 0 148.5 36.5t113.5 97.5t72.5 139t25.5 161q0 59 -16 110t-49 88.5t-82.5 59t-116.5 21.5q-82 0 -148.5 -36.5t-113.5 -97.5t-72.5 -139t-25.5 -161zM730 436q0 -54 -11.5 -108.5t-34 -104.5t-55.5 -93t-76 -75
t-95.5 -50t-113.5 -18q-68 0 -120.5 22t-89 61.5t-55.5 95t-19 123.5q0 82 26 162t75.5 144t121 103.5t163.5 39.5q67 0 120 -22t89.5 -61.5t55.5 -95.5t19 -123zM473 773h-28l159 113h29z" />
    <glyph glyph-name="Ocircumflex" unicode="&#xd4;" horiz-adv-x="750" 
d="M83 285q0 -59 16 -110t49 -88.5t82.5 -59t116.5 -21.5q82 0 148.5 36.5t113.5 97.5t72.5 139t25.5 161q0 59 -16 110t-49 88.5t-82.5 59t-116.5 21.5q-82 0 -148.5 -36.5t-113.5 -97.5t-72.5 -139t-25.5 -161zM730 436q0 -54 -11.5 -108.5t-34 -104.5t-55.5 -93t-76 -75
t-95.5 -50t-113.5 -18q-68 0 -120.5 22t-89 61.5t-55.5 95t-19 123.5q0 82 26 162t75.5 144t121 103.5t163.5 39.5q67 0 120 -22t89.5 -61.5t55.5 -95.5t19 -123zM624 773h-24l-106 96l-148 -96h-28l167 113h21z" />
    <glyph glyph-name="Otilde" unicode="&#xd5;" horiz-adv-x="750" 
d="M83 285q0 -59 16 -110t49 -88.5t82.5 -59t116.5 -21.5q82 0 148.5 36.5t113.5 97.5t72.5 139t25.5 161q0 59 -16 110t-49 88.5t-82.5 59t-116.5 21.5q-82 0 -148.5 -36.5t-113.5 -97.5t-72.5 -139t-25.5 -161zM730 436q0 -54 -11.5 -108.5t-34 -104.5t-55.5 -93t-76 -75
t-95.5 -50t-113.5 -18q-68 0 -120.5 22t-89 61.5t-55.5 95t-19 123.5q0 82 26 162t75.5 144t121 103.5t163.5 39.5q67 0 120 -22t89.5 -61.5t55.5 -95.5t19 -123zM411 875q26 0 45 -11t35.5 -23.5t32.5 -23.5t36 -11q26 0 46 17t28 52h21q-11 -46 -37 -67t-58 -21
q-24 0 -42 11t-34.5 23.5t-34 23.5t-39.5 11q-26 0 -46 -17.5t-28 -51.5h-20q10 44 36.5 66t58.5 22z" />
    <glyph glyph-name="Odieresis" unicode="&#xd6;" horiz-adv-x="750" 
d="M83 285q0 -59 16 -110t49 -88.5t82.5 -59t116.5 -21.5q82 0 148.5 36.5t113.5 97.5t72.5 139t25.5 161q0 59 -16 110t-49 88.5t-82.5 59t-116.5 21.5q-82 0 -148.5 -36.5t-113.5 -97.5t-72.5 -139t-25.5 -161zM730 436q0 -54 -11.5 -108.5t-34 -104.5t-55.5 -93t-76 -75
t-95.5 -50t-113.5 -18q-68 0 -120.5 22t-89 61.5t-55.5 95t-19 123.5q0 82 26 162t75.5 144t121 103.5t163.5 39.5q67 0 120 -22t89.5 -61.5t55.5 -95.5t19 -123zM384 876l-21 -92h-20l20 92h21zM617 876l-20 -92h-21l21 92h20z" />
    <glyph glyph-name="multiply" unicode="&#xd7;" horiz-adv-x="678" 
d="M551 42l-213 212l-212 -212l-15 15l212 212l-212 213l15 15l212 -213l213 213l15 -15l-213 -213l213 -212z" />
    <glyph glyph-name="Oslash" unicode="&#xd8;" horiz-adv-x="750" 
d="M730 436q0 -54 -11.5 -108.5t-34 -104.5t-55.5 -93t-76 -75t-95.5 -50t-113.5 -18q-60 0 -107.5 16.5t-82.5 47.5l-54 -64l-15 13l54 65q-38 40 -58.5 97t-20.5 127q0 82 26 162t75.5 144t121 103.5t163.5 39.5q63 0 113 -19t86 -54l53 62l15 -13l-54 -64q35 -40 53 -94
t18 -120zM83 285q0 -62 17.5 -114t52.5 -90l479 568q-33 33 -80 51.5t-109 18.5q-82 0 -148.5 -36.5t-113.5 -97.5t-72.5 -139t-25.5 -161zM707 440q0 57 -15.5 106.5t-46.5 87.5l-478 -567q32 -29 77 -45t103 -16q82 0 148.5 36.5t113.5 97.5t72.5 139t25.5 161z" />
    <glyph glyph-name="Ugrave" unicode="&#xd9;" horiz-adv-x="700" 
d="M88 191q0 -93 52.5 -139t164.5 -46q69 0 119.5 18t86.5 54t60 89.5t39 125.5l92 432h20l-92 -431q-17 -79 -43 -136.5t-64.5 -95.5t-92 -56.5t-125.5 -18.5q-118 0 -177.5 49t-59.5 153q0 46 12 105l92 431h20l-92 -432q-12 -57 -12 -102zM332 886h28l110 -113h-24z" />
    <glyph glyph-name="Uacute" unicode="&#xda;" horiz-adv-x="700" 
d="M88 191q0 -93 52.5 -139t164.5 -46q69 0 119.5 18t86.5 54t60 89.5t39 125.5l92 432h20l-92 -431q-17 -79 -43 -136.5t-64.5 -95.5t-92 -56.5t-125.5 -18.5q-118 0 -177.5 49t-59.5 153q0 46 12 105l92 431h20l-92 -432q-12 -57 -12 -102zM454 773h-28l159 113h29z" />
    <glyph glyph-name="Ucircumflex" unicode="&#xdb;" horiz-adv-x="700" 
d="M88 191q0 -93 52.5 -139t164.5 -46q69 0 119.5 18t86.5 54t60 89.5t39 125.5l92 432h20l-92 -431q-17 -79 -43 -136.5t-64.5 -95.5t-92 -56.5t-125.5 -18.5q-118 0 -177.5 49t-59.5 153q0 46 12 105l92 431h20l-92 -432q-12 -57 -12 -102zM600 773h-24l-106 96l-148 -96
h-28l167 113h21z" />
    <glyph glyph-name="Udieresis" unicode="&#xdc;" horiz-adv-x="700" 
d="M88 191q0 -93 52.5 -139t164.5 -46q69 0 119.5 18t86.5 54t60 89.5t39 125.5l92 432h20l-92 -431q-17 -79 -43 -136.5t-64.5 -95.5t-92 -56.5t-125.5 -18.5q-118 0 -177.5 49t-59.5 153q0 46 12 105l92 431h20l-92 -432q-12 -57 -12 -102zM357 876l-21 -92h-20l20 92h21z
M590 876l-20 -92h-21l21 92h20z" />
    <glyph glyph-name="Yacute" unicode="&#xdd;" horiz-adv-x="519" 
d="M108 725l157 -436l336 436h26l-355 -459l-57 -266h-21l57 266l-165 459h22zM370 773h-28l159 113h29z" />
    <glyph glyph-name="Thorn" unicode="&#xde;" horiz-adv-x="568" 
d="M334 562q57 0 104 -8t80.5 -26t52.5 -48.5t19 -75.5q0 -71 -27 -117.5t-72.5 -74.5t-107 -39.5t-130.5 -11.5h-169l-34 -161h-21l154 725h21l-35 -163h165zM165 542l-77 -361h165q58 0 114 8.5t100.5 32.5t72 67.5t27.5 114.5q0 41 -18 67.5t-49.5 42.5t-74 22t-91.5 6
h-169z" />
    <glyph glyph-name="germandbls" unicode="&#xdf;" horiz-adv-x="630" 
d="M26 0l109 511q13 64 37.5 107.5t57.5 70t74.5 38t89.5 11.5q42 0 77.5 -10t62 -29.5t41.5 -48t15 -66.5q0 -65 -44 -113t-122 -66q29 -6 55.5 -18.5t47 -33.5t33 -51.5t12.5 -73.5q0 -60 -24 -105t-64.5 -75t-94 -45.5t-111.5 -15.5q-31 0 -59 2t-51 7l5 22
q20 -5 49.5 -7t55.5 -2q52 0 101 12.5t86.5 39.5t60.5 68.5t23 98.5q0 42 -14.5 73t-39.5 51.5t-58 31t-70 10.5h-7l5 20h4q39 0 75 13t63.5 35.5t43.5 53.5t16 67q0 35 -13.5 60.5t-37.5 42.5t-55.5 25t-67.5 8q-44 0 -82.5 -10.5t-69 -35t-53 -65t-34.5 -100.5l-108 -508
h-20z" />
    <glyph glyph-name="agrave" unicode="&#xe0;" horiz-adv-x="546" 
d="M454 301q-114 -8 -192.5 -21.5t-126.5 -34t-69 -50t-21 -69.5q0 -28 11.5 -50t31 -37.5t46.5 -24t59 -8.5q36 0 74 11.5t71.5 37.5t60 69.5t40.5 106.5zM415 119q-38 -69 -95 -100.5t-130 -31.5q-35 0 -65.5 9.5t-53.5 27t-36 42.5t-13 56q0 49 25.5 83t79 57t135.5 36.5
t195 21.5l3 13q7 29 7 57q0 38 -14 64.5t-37 43t-52 23.5t-60 7q-45 0 -79.5 -11.5t-59.5 -31.5t-40 -47.5t-20 -59.5h-22q15 81 73.5 125t148.5 44q38 0 71 -9.5t58 -29t39 -49t14 -69.5q0 -25 -6 -53q-3 -13 -6.5 -30.5t-8 -36.5t-9 -38.5t-8.5 -37.5q-12 -54 -19.5 -100
t-15.5 -94h-21zM207 725h26l99 -127h-23z" />
    <glyph glyph-name="aacute" unicode="&#xe1;" horiz-adv-x="546" 
d="M454 301q-114 -8 -192.5 -21.5t-126.5 -34t-69 -50t-21 -69.5q0 -28 11.5 -50t31 -37.5t46.5 -24t59 -8.5q36 0 74 11.5t71.5 37.5t60 69.5t40.5 106.5zM415 119q-38 -69 -95 -100.5t-130 -31.5q-35 0 -65.5 9.5t-53.5 27t-36 42.5t-13 56q0 49 25.5 83t79 57t135.5 36.5
t195 21.5l3 13q7 29 7 57q0 38 -14 64.5t-37 43t-52 23.5t-60 7q-45 0 -79.5 -11.5t-59.5 -31.5t-40 -47.5t-20 -59.5h-22q15 81 73.5 125t148.5 44q38 0 71 -9.5t58 -29t39 -49t14 -69.5q0 -25 -6 -53q-3 -13 -6.5 -30.5t-8 -36.5t-9 -38.5t-8.5 -37.5q-12 -54 -19.5 -100
t-15.5 -94h-21zM329 598h-28l157 127h28z" />
    <glyph glyph-name="acircumflex" unicode="&#xe2;" horiz-adv-x="546" 
d="M454 301q-114 -8 -192.5 -21.5t-126.5 -34t-69 -50t-21 -69.5q0 -28 11.5 -50t31 -37.5t46.5 -24t59 -8.5q36 0 74 11.5t71.5 37.5t60 69.5t40.5 106.5zM415 119q-38 -69 -95 -100.5t-130 -31.5q-35 0 -65.5 9.5t-53.5 27t-36 42.5t-13 56q0 49 25.5 83t79 57t135.5 36.5
t195 21.5l3 13q7 29 7 57q0 38 -14 64.5t-37 43t-52 23.5t-60 7q-45 0 -79.5 -11.5t-59.5 -31.5t-40 -47.5t-20 -59.5h-22q15 81 73.5 125t148.5 44q38 0 71 -9.5t58 -29t39 -49t14 -69.5q0 -25 -6 -53q-3 -13 -6.5 -30.5t-8 -36.5t-9 -38.5t-8.5 -37.5q-12 -54 -19.5 -100
t-15.5 -94h-21zM470 598h-24l-101 110l-154 -110h-27l171 127h22z" />
    <glyph glyph-name="atilde" unicode="&#xe3;" horiz-adv-x="546" 
d="M270 705q26 0 45 -11t35.5 -23.5t32.5 -23.5t36 -11q26 0 46 16.5t28 52.5h21q-11 -47 -37 -67.5t-58 -20.5q-24 0 -42 10.5t-34.5 23.5t-34 23.5t-39.5 10.5q-26 0 -46 -17t-28 -51h-20q10 44 36.5 66t58.5 22zM454 301q-114 -8 -192.5 -21.5t-126.5 -34t-69 -50
t-21 -69.5q0 -28 11.5 -50t31 -37.5t46.5 -24t59 -8.5q36 0 74 11.5t71.5 37.5t60 69.5t40.5 106.5zM415 119q-38 -69 -95 -100.5t-130 -31.5q-35 0 -65.5 9.5t-53.5 27t-36 42.5t-13 56q0 49 25.5 83t79 57t135.5 36.5t195 21.5l3 13q7 29 7 57q0 38 -14 64.5t-37 43
t-52 23.5t-60 7q-45 0 -79.5 -11.5t-59.5 -31.5t-40 -47.5t-20 -59.5h-22q15 81 73.5 125t148.5 44q38 0 71 -9.5t58 -29t39 -49t14 -69.5q0 -25 -6 -53q-3 -13 -6.5 -30.5t-8 -36.5t-9 -38.5t-8.5 -37.5q-12 -54 -19.5 -100t-15.5 -94h-21z" />
    <glyph glyph-name="adieresis" unicode="&#xe4;" horiz-adv-x="546" 
d="M454 301q-114 -8 -192.5 -21.5t-126.5 -34t-69 -50t-21 -69.5q0 -28 11.5 -50t31 -37.5t46.5 -24t59 -8.5q36 0 74 11.5t71.5 37.5t60 69.5t40.5 106.5zM415 119q-38 -69 -95 -100.5t-130 -31.5q-35 0 -65.5 9.5t-53.5 27t-36 42.5t-13 56q0 49 25.5 83t79 57t135.5 36.5
t195 21.5l3 13q7 29 7 57q0 38 -14 64.5t-37 43t-52 23.5t-60 7q-45 0 -79.5 -11.5t-59.5 -31.5t-40 -47.5t-20 -59.5h-22q15 81 73.5 125t148.5 44q38 0 71 -9.5t58 -29t39 -49t14 -69.5q0 -25 -6 -53q-3 -13 -6.5 -30.5t-8 -36.5t-9 -38.5t-8.5 -37.5q-12 -54 -19.5 -100
t-15.5 -94h-21zM249 725l-21 -93h-20l20 93h21zM482 725l-20 -93h-21l21 93h20z" />
    <glyph glyph-name="aring" unicode="&#xe5;" horiz-adv-x="546" 
d="M454 301q-114 -8 -192.5 -21.5t-126.5 -34t-69 -50t-21 -69.5q0 -28 11.5 -50t31 -37.5t46.5 -24t59 -8.5q36 0 74 11.5t71.5 37.5t60 69.5t40.5 106.5zM415 119q-38 -69 -95 -100.5t-130 -31.5q-35 0 -65.5 9.5t-53.5 27t-36 42.5t-13 56q0 49 25.5 83t79 57t135.5 36.5
t195 21.5l3 13q7 29 7 57q0 38 -14 64.5t-37 43t-52 23.5t-60 7q-45 0 -79.5 -11.5t-59.5 -31.5t-40 -47.5t-20 -59.5h-22q15 81 73.5 125t148.5 44q38 0 71 -9.5t58 -29t39 -49t14 -69.5q0 -25 -6 -53q-3 -13 -6.5 -30.5t-8 -36.5t-9 -38.5t-8.5 -37.5q-12 -54 -19.5 -100
t-15.5 -94h-21zM244 680q0 35 24.5 57.5t59.5 22.5t59.5 -22.5t24.5 -57.5t-24.5 -57.5t-59.5 -22.5t-59.5 22.5t-24.5 57.5zM391 680q0 30 -19 46t-44 16t-44.5 -16t-19.5 -46t19.5 -46t44.5 -16t44 16t19 46z" />
    <glyph glyph-name="ae" unicode="&#xe6;" horiz-adv-x="972" 
d="M667 -13q-45 0 -83 13.5t-66.5 40t-46 65.5t-20.5 91q-1 -1 -1 -3q-18 -60 -47 -100t-63.5 -63.5t-73 -33.5t-74.5 -10q-35 0 -65.5 9.5t-53.5 27t-36 42.5t-13 56q0 49 25.5 83t79 57t135.5 36.5t195 21.5l3 13q7 29 7 57q0 38 -14 64.5t-37 42.5t-52 23t-60 7
q-89 0 -139 -42.5t-60 -106.5h-22q15 81 73.5 125t148.5 44q37 0 70 -9t57 -28t38.5 -47.5t15.5 -67.5q32 67 89.5 109.5t141.5 42.5q52 0 91 -18.5t65.5 -50t39.5 -74t13 -91.5q0 -9 -0.5 -18.5t-1.5 -19.5h-455q-3 -27 -3 -55q0 -54 15.5 -94t42.5 -66.5t63 -40t78 -13.5
q41 0 77 11.5t64.5 32t49 48t30.5 60.5h21q-10 -36 -32 -67t-53 -54.5t-71 -36.5t-86 -13zM456 301q-114 -8 -192.5 -21.5t-126.5 -34t-69 -50t-21 -69.5q0 -28 11.5 -50t31 -37.5t46.5 -24t59 -8.5q36 0 74 11.5t71.5 37.5t60 69.5t40.5 106.5zM715 527q-50 0 -90.5 -19
t-71.5 -51t-51 -74.5t-28 -88.5h430q1 7 1 13v12q0 45 -12.5 83t-36.5 66t-59.5 43.5t-81.5 15.5z" />
    <glyph glyph-name="ccedilla" unicode="&#xe7;" horiz-adv-x="547" 
d="M499 366q-6 80 -55 121t-123 41q-63 0 -110.5 -29.5t-80 -76t-49 -103t-16.5 -110.5q0 -101 51.5 -152t132.5 -51q34 0 68 10t63 30t52 50t35 71h21q-14 -46 -38.5 -79.5t-57 -56t-70 -33.5t-76.5 -11q-44 0 -81.5 14t-64.5 41t-42.5 67.5t-15.5 94.5q0 66 19.5 128
t56 110t88.5 76.5t118 28.5q38 0 72 -11t60 -33t43 -56.5t21 -80.5h-21zM225 0h21l-48 -59q15 3 28 3q26 0 46 -13t20 -45q0 -21 -9 -35t-23 -23t-32 -13t-37 -4q-18 0 -36 3t-32 10l8 19q24 -13 62 -13q14 0 28 3t24.5 9.5t17 17t6.5 26.5q0 20 -14 30.5t-34 10.5
q-25 0 -45 -11l-9 13z" />
    <glyph glyph-name="egrave" unicode="&#xe8;" horiz-adv-x="580" 
d="M513 158q-12 -36 -34.5 -67t-55 -54.5t-72.5 -36.5t-86 -13q-45 0 -84.5 14t-68 41t-45 68t-16.5 95q0 66 19.5 127.5t56.5 109t90 76.5t120 29q57 0 98 -22t65.5 -59t33 -86.5t0.5 -104.5h-455q-3 -17 -4 -34t-1 -31q0 -51 14.5 -89.5t40.5 -64t60.5 -38t75.5 -12.5
t77.5 11.5t66 32t51 48t32.5 60.5h21zM333 528q-50 0 -92 -19t-74 -51.5t-54 -75t-31 -88.5h431q5 43 -2 85t-28.5 75t-58.5 53.5t-91 20.5zM218 725h26l99 -127h-23z" />
    <glyph glyph-name="eacute" unicode="&#xe9;" horiz-adv-x="580" 
d="M513 158q-12 -36 -34.5 -67t-55 -54.5t-72.5 -36.5t-86 -13q-45 0 -84.5 14t-68 41t-45 68t-16.5 95q0 66 19.5 127.5t56.5 109t90 76.5t120 29q57 0 98 -22t65.5 -59t33 -86.5t0.5 -104.5h-455q-3 -17 -4 -34t-1 -31q0 -51 14.5 -89.5t40.5 -64t60.5 -38t75.5 -12.5
t77.5 11.5t66 32t51 48t32.5 60.5h21zM333 528q-50 0 -92 -19t-74 -51.5t-54 -75t-31 -88.5h431q5 43 -2 85t-28.5 75t-58.5 53.5t-91 20.5zM344 598h-28l157 127h28z" />
    <glyph glyph-name="ecircumflex" unicode="&#xea;" horiz-adv-x="580" 
d="M513 158q-12 -36 -34.5 -67t-55 -54.5t-72.5 -36.5t-86 -13q-45 0 -84.5 14t-68 41t-45 68t-16.5 95q0 66 19.5 127.5t56.5 109t90 76.5t120 29q57 0 98 -22t65.5 -59t33 -86.5t0.5 -104.5h-455q-3 -17 -4 -34t-1 -31q0 -51 14.5 -89.5t40.5 -64t60.5 -38t75.5 -12.5
t77.5 11.5t66 32t51 48t32.5 60.5h21zM333 528q-50 0 -92 -19t-74 -51.5t-54 -75t-31 -88.5h431q5 43 -2 85t-28.5 75t-58.5 53.5t-91 20.5zM499 598h-24l-101 110l-154 -110h-27l171 127h22z" />
    <glyph glyph-name="edieresis" unicode="&#xeb;" horiz-adv-x="580" 
d="M513 158q-12 -36 -34.5 -67t-55 -54.5t-72.5 -36.5t-86 -13q-45 0 -84.5 14t-68 41t-45 68t-16.5 95q0 66 19.5 127.5t56.5 109t90 76.5t120 29q57 0 98 -22t65.5 -59t33 -86.5t0.5 -104.5h-455q-3 -17 -4 -34t-1 -31q0 -51 14.5 -89.5t40.5 -64t60.5 -38t75.5 -12.5
t77.5 11.5t66 32t51 48t32.5 60.5h21zM333 528q-50 0 -92 -19t-74 -51.5t-54 -75t-31 -88.5h431q5 43 -2 85t-28.5 75t-58.5 53.5t-91 20.5zM264 725l-21 -93h-20l20 93h21zM497 725l-20 -93h-21l21 93h20z" />
    <glyph glyph-name="igrave" unicode="&#xec;" 
d="M51 725h26l99 -127h-23zM160 538l-114 -538h-20l114 538h20z" />
    <glyph glyph-name="iacute" unicode="&#xed;" 
d="M176 598h-28l157 127h28zM160 538l-114 -538h-20l114 538h20z" />
    <glyph glyph-name="icircumflex" unicode="&#xee;" 
d="M318 598h-24l-101 110l-154 -110h-27l171 127h22zM160 538l-114 -538h-20l114 538h20z" />
    <glyph glyph-name="idieresis" unicode="&#xef;" 
d="M78 725l-21 -93h-20l20 93h21zM311 725l-20 -93h-21l21 93h20zM160 538l-114 -538h-20l114 538h20z" />
    <glyph glyph-name="eth" unicode="&#xf0;" horiz-adv-x="546" 
d="M475 727l23 -9l-115 -58q62 -58 95.5 -132.5t33.5 -167.5q0 -63 -14 -129t-45.5 -120.5t-82 -89t-123.5 -34.5q-53 0 -91.5 19.5t-63 51.5t-36.5 74.5t-12 88.5q0 64 18 121.5t51 100.5t80 68t106 25q39 0 70.5 -11t55 -30.5t39.5 -45.5t25 -56h2q-4 83 -41 147t-88 110
l-108 -54l-24 9l117 58q-23 20 -46.5 35.5t-46.5 27.5l14 16q57 -31 100 -68zM300 516q-54 0 -97.5 -24t-73.5 -64.5t-46 -93.5t-16 -112q0 -49 12 -89t35.5 -68t57 -43.5t75.5 -15.5q61 0 105.5 28.5t73.5 72.5t43 97.5t14 103.5q0 52 -14.5 91.5t-39.5 65t-58.5 38.5
t-70.5 13z" />
    <glyph glyph-name="ntilde" unicode="&#xf1;" horiz-adv-x="558" 
d="M284 705q26 0 45 -11t35.5 -23.5t32.5 -23.5t36 -11q26 0 46 16.5t28 52.5h21q-11 -47 -37 -67.5t-58 -20.5q-24 0 -42 10.5t-34.5 23.5t-34 23.5t-39.5 10.5q-26 0 -46 -17t-28 -51h-20q10 44 36.5 66t58.5 22zM160 538l-29 -137q13 27 32.5 53t47 46.5t63.5 33.5t81 13
q151 0 151 -137q0 -15 -2 -31.5t-6 -35.5l-73 -343h-20l71 334q9 40 9 73q0 66 -35 93.5t-98 27.5q-49 0 -89 -18t-71.5 -51.5t-53.5 -80.5t-34 -105l-58 -273h-20l114 538h20z" />
    <glyph glyph-name="ograve" unicode="&#xf2;" horiz-adv-x="587" 
d="M337 547q43 0 80 -13.5t64 -40t42 -65.5t15 -91q0 -60 -18.5 -122.5t-55 -113t-90.5 -82.5t-124 -32q-44 0 -80.5 13.5t-63.5 40t-42 65.5t-15 91q0 60 18.5 122.5t55 113t90 82.5t124.5 32zM334 528q-61 0 -109.5 -29.5t-82 -76t-51.5 -104t-18 -114.5q0 -99 50 -148.5
t130 -49.5q61 0 109 29.5t82 76t52 104t18 114.5q0 99 -50 148.5t-130 49.5zM216 725h26l99 -127h-23z" />
    <glyph glyph-name="oacute" unicode="&#xf3;" horiz-adv-x="587" 
d="M337 547q43 0 80 -13.5t64 -40t42 -65.5t15 -91q0 -60 -18.5 -122.5t-55 -113t-90.5 -82.5t-124 -32q-44 0 -80.5 13.5t-63.5 40t-42 65.5t-15 91q0 60 18.5 122.5t55 113t90 82.5t124.5 32zM334 528q-61 0 -109.5 -29.5t-82 -76t-51.5 -104t-18 -114.5q0 -99 50 -148.5
t130 -49.5q61 0 109 29.5t82 76t52 104t18 114.5q0 99 -50 148.5t-130 49.5zM339 598h-28l157 127h28z" />
    <glyph glyph-name="ocircumflex" unicode="&#xf4;" horiz-adv-x="587" 
d="M337 547q43 0 80 -13.5t64 -40t42 -65.5t15 -91q0 -60 -18.5 -122.5t-55 -113t-90.5 -82.5t-124 -32q-44 0 -80.5 13.5t-63.5 40t-42 65.5t-15 91q0 60 18.5 122.5t55 113t90 82.5t124.5 32zM334 528q-61 0 -109.5 -29.5t-82 -76t-51.5 -104t-18 -114.5q0 -99 50 -148.5
t130 -49.5q61 0 109 29.5t82 76t52 104t18 114.5q0 99 -50 148.5t-130 49.5zM513 598h-24l-101 110l-154 -110h-27l171 127h22z" />
    <glyph glyph-name="otilde" unicode="&#xf5;" horiz-adv-x="587" 
d="M337 547q43 0 80 -13.5t64 -40t42 -65.5t15 -91q0 -60 -18.5 -122.5t-55 -113t-90.5 -82.5t-124 -32q-44 0 -80.5 13.5t-63.5 40t-42 65.5t-15 91q0 60 18.5 122.5t55 113t90 82.5t124.5 32zM334 528q-61 0 -109.5 -29.5t-82 -76t-51.5 -104t-18 -114.5q0 -99 50 -148.5
t130 -49.5q61 0 109 29.5t82 76t52 104t18 114.5q0 99 -50 148.5t-130 49.5zM300 705q26 0 45 -11t35.5 -23.5t32.5 -23.5t36 -11q26 0 46 16.5t28 52.5h21q-11 -47 -37 -67.5t-58 -20.5q-24 0 -42 10.5t-34.5 23.5t-34 23.5t-39.5 10.5q-26 0 -46 -17t-28 -51h-20
q10 44 36.5 66t58.5 22z" />
    <glyph glyph-name="odieresis" unicode="&#xf6;" horiz-adv-x="587" 
d="M337 547q43 0 80 -13.5t64 -40t42 -65.5t15 -91q0 -60 -18.5 -122.5t-55 -113t-90.5 -82.5t-124 -32q-44 0 -80.5 13.5t-63.5 40t-42 65.5t-15 91q0 60 18.5 122.5t55 113t90 82.5t124.5 32zM334 528q-61 0 -109.5 -29.5t-82 -76t-51.5 -104t-18 -114.5q0 -99 50 -148.5
t130 -49.5q61 0 109 29.5t82 76t52 104t18 114.5q0 99 -50 148.5t-130 49.5zM279 725l-21 -93h-20l20 93h21zM512 725l-20 -93h-21l21 93h20z" />
    <glyph glyph-name="divide" unicode="&#xf7;" horiz-adv-x="678" 
d="M329 147h21v-93h-21v93zM329 473h21v-93h-21v93zM71 260v20h537v-20h-537z" />
    <glyph glyph-name="oslash" unicode="&#xf8;" horiz-adv-x="587" 
d="M337 547q37 0 69.5 -9.5t58.5 -29.5l22 28l16 -11l-24 -30q28 -27 43.5 -66t15.5 -92q0 -60 -18.5 -122.5t-55 -113t-90.5 -82.5t-124 -32q-40 0 -74.5 10.5t-60.5 33.5l-34 -44l-15 12l35 45q-25 26 -38.5 64.5t-13.5 88.5q0 60 18.5 122.5t55 113t90 82.5t124.5 32z
M514 330q0 49 -13 85.5t-36 61.5l-336 -428q23 -22 54.5 -32.5t69.5 -10.5q61 0 109 29.5t82 76t52 104t18 114.5zM334 528q-61 0 -109.5 -29.5t-82 -76t-51.5 -104t-18 -114.5q0 -90 43 -141l335 427q-47 38 -117 38z" />
    <glyph glyph-name="ugrave" unicode="&#xf9;" horiz-adv-x="550" 
d="M415 132q-13 -27 -31.5 -53t-44.5 -46.5t-60.5 -33t-80.5 -12.5q-147 0 -147 134q0 29 8 69l74 348h20l-71 -338q-9 -44 -9 -76q0 -64 33 -91t96 -27q49 0 87.5 18t68.5 51t50.5 80t33.5 105l59 278h20l-114 -538h-20zM213 725h26l99 -127h-23z" />
    <glyph glyph-name="uacute" unicode="&#xfa;" horiz-adv-x="550" 
d="M415 132q-13 -27 -31.5 -53t-44.5 -46.5t-60.5 -33t-80.5 -12.5q-147 0 -147 134q0 29 8 69l74 348h20l-71 -338q-9 -44 -9 -76q0 -64 33 -91t96 -27q49 0 87.5 18t68.5 51t50.5 80t33.5 105l59 278h20l-114 -538h-20zM334 598h-28l157 127h28z" />
    <glyph glyph-name="ucircumflex" unicode="&#xfb;" horiz-adv-x="550" 
d="M415 132q-13 -27 -31.5 -53t-44.5 -46.5t-60.5 -33t-80.5 -12.5q-147 0 -147 134q0 29 8 69l74 348h20l-71 -338q-9 -44 -9 -76q0 -64 33 -91t96 -27q49 0 87.5 18t68.5 51t50.5 80t33.5 105l59 278h20l-114 -538h-20zM473 598h-24l-101 110l-154 -110h-27l171 127h22z
" />
    <glyph glyph-name="udieresis" unicode="&#xfc;" horiz-adv-x="550" 
d="M415 132q-13 -27 -31.5 -53t-44.5 -46.5t-60.5 -33t-80.5 -12.5q-147 0 -147 134q0 29 8 69l74 348h20l-71 -338q-9 -44 -9 -76q0 -64 33 -91t96 -27q49 0 87.5 18t68.5 51t50.5 80t33.5 105l59 278h20l-114 -538h-20zM231 725l-21 -93h-20l20 93h21zM464 725l-20 -93
h-21l21 93h20z" />
    <glyph glyph-name="yacute" unicode="&#xfd;" horiz-adv-x="456" 
d="M489 538h24l-361 -591q-23 -37 -40 -60.5t-34.5 -37t-38.5 -19t-52 -5.5h-17l2 18h21q22 0 37.5 2.5t30 13t30.5 31.5t39 57l34 55l-107 536h23l99 -511zM320 598h-28l157 127h28z" />
    <glyph glyph-name="thorn" unicode="&#xfe;" horiz-adv-x="598" 
d="M137 419q35 60 88.5 94t122.5 34q51 0 88.5 -19t61.5 -50.5t35.5 -73t11.5 -86.5q0 -65 -17.5 -124.5t-51.5 -105.5t-82.5 -73.5t-110.5 -27.5q-47 0 -82 15.5t-58.5 42t-37.5 61.5t-19 74l-75 -355h-20l191 900h20zM103 221q0 -52 14 -92t38 -67.5t56.5 -41.5t70.5 -14
q59 0 104 27.5t75.5 72t46 99.5t15.5 111q0 47 -12 86t-34.5 66.5t-55.5 43t-75 15.5q-61 0 -106.5 -29t-76 -73.5t-45.5 -98.5t-15 -105z" />
    <glyph glyph-name="ydieresis" unicode="&#xff;" horiz-adv-x="456" 
d="M489 538h24l-361 -591q-23 -37 -40 -60.5t-34.5 -37t-38.5 -19t-52 -5.5h-17l2 18h21q22 0 37.5 2.5t30 13t30.5 31.5t39 57l34 55l-107 536h23l99 -511zM218 725l-21 -93h-20l20 93h21zM451 725l-20 -93h-21l21 93h20z" />
    <glyph glyph-name="Abreve" unicode="&#x102;" horiz-adv-x="584" 
d="M378 725h17l132 -725h-21l-38 209h-376l-125 -209h-24zM103 228h362l-84 465zM552 886q-7 -35 -23 -57.5t-37.5 -35.5t-46 -18.5t-48.5 -5.5q-53 0 -85.5 26t-32.5 88v3h18v-2q0 -32 9 -50.5t23.5 -29t32.5 -13.5t35 -3q18 0 38.5 3t40 13.5t35.5 30t23 51.5h18z" />
    <glyph glyph-name="Amacron" unicode="&#x100;" horiz-adv-x="584" 
d="M378 725h17l132 -725h-21l-38 209h-376l-125 -209h-24zM103 228h362l-84 465zM279 821l3 20h249l-3 -20h-249z" />
    <glyph glyph-name="Aogonek" unicode="&#x104;" horiz-adv-x="584" 
d="M378 725h17l132 -725q-21 -13 -41 -26.5t-35.5 -28.5t-25 -32t-9.5 -36q0 -27 17 -37.5t34 -10.5h11q6 0 12 1l-4 -17q-5 -1 -10 -1.5t-12 -0.5q-27 0 -48 15t-21 47q0 45 30.5 75t80.5 52l-38 209h-376l-125 -209h-24zM103 228h362l-84 465z" />
    <glyph glyph-name="Cacute" unicode="&#x106;" horiz-adv-x="715" 
d="M677 235q-21 -68 -55.5 -115t-78 -76.5t-94 -43t-102.5 -13.5q-68 0 -121.5 22t-90 61.5t-55.5 95.5t-19 125q0 48 10 100t30.5 102t51.5 94.5t73 78t95 53t118 19.5q55 0 105 -15.5t87.5 -47t60.5 -78t25 -107.5h-22q-3 56 -23.5 99t-55.5 72t-81 43.5t-100 14.5
q-88 0 -153.5 -39.5t-109.5 -101.5t-66 -138.5t-22 -150.5q0 -61 17 -113t50.5 -89.5t83.5 -59t117 -21.5q49 0 95 13t85.5 40.5t71 71t51.5 104.5h22zM473 773h-28l159 113h29z" />
    <glyph glyph-name="Ccaron" unicode="&#x10c;" horiz-adv-x="715" 
d="M677 235q-21 -68 -55.5 -115t-78 -76.5t-94 -43t-102.5 -13.5q-68 0 -121.5 22t-90 61.5t-55.5 95.5t-19 125q0 48 10 100t30.5 102t51.5 94.5t73 78t95 53t118 19.5q55 0 105 -15.5t87.5 -47t60.5 -78t25 -107.5h-22q-3 56 -23.5 99t-55.5 72t-81 43.5t-100 14.5
q-88 0 -153.5 -39.5t-109.5 -101.5t-66 -138.5t-22 -150.5q0 -61 17 -113t50.5 -89.5t83.5 -59t117 -21.5q49 0 95 13t85.5 40.5t71 71t51.5 104.5h22zM344 886h24l105 -96l149 96h28l-167 -113h-22z" />
    <glyph glyph-name="Ccircumflex" unicode="&#x108;" horiz-adv-x="715" 
d="M677 235q-21 -68 -55.5 -115t-78 -76.5t-94 -43t-102.5 -13.5q-68 0 -121.5 22t-90 61.5t-55.5 95.5t-19 125q0 48 10 100t30.5 102t51.5 94.5t73 78t95 53t118 19.5q55 0 105 -15.5t87.5 -47t60.5 -78t25 -107.5h-22q-3 56 -23.5 99t-55.5 72t-81 43.5t-100 14.5
q-88 0 -153.5 -39.5t-109.5 -101.5t-66 -138.5t-22 -150.5q0 -61 17 -113t50.5 -89.5t83.5 -59t117 -21.5q49 0 95 13t85.5 40.5t71 71t51.5 104.5h22zM612 773h-24l-106 96l-148 -96h-28l167 113h21z" />
    <glyph glyph-name="Cdotaccent" unicode="&#x10a;" horiz-adv-x="715" 
d="M677 235q-21 -68 -55.5 -115t-78 -76.5t-94 -43t-102.5 -13.5q-68 0 -121.5 22t-90 61.5t-55.5 95.5t-19 125q0 48 10 100t30.5 102t51.5 94.5t73 78t95 53t118 19.5q55 0 105 -15.5t87.5 -47t60.5 -78t25 -107.5h-22q-3 56 -23.5 99t-55.5 72t-81 43.5t-100 14.5
q-88 0 -153.5 -39.5t-109.5 -101.5t-66 -138.5t-22 -150.5q0 -61 17 -113t50.5 -89.5t83.5 -59t117 -21.5q49 0 95 13t85.5 40.5t71 71t51.5 104.5h22zM491 876l-21 -92h-20l20 92h21z" />
    <glyph glyph-name="Dcaron" unicode="&#x10e;" horiz-adv-x="696" 
d="M650 419q0 64 -17.5 116.5t-54.5 90.5t-93 59t-133 21h-153l-146 -687h205q103 0 177 32.5t122 88t70.5 127.5t22.5 152zM349 725q157 0 240 -80.5t83 -228.5q0 -81 -23.5 -156t-74 -132.5t-128.5 -92.5t-186 -35h-231l154 725h166zM268 886h24l105 -96l149 96h28
l-167 -113h-22z" />
    <glyph glyph-name="Dcroat" unicode="&#x110;" horiz-adv-x="705" 
d="M358 725q158 0 241 -80.5t83 -228.5q0 -81 -24 -156t-74 -132.5t-128 -92.5t-186 -35h-232l77 362h-109l4 19h109l73 344h166zM209 706l-69 -325h154l-4 -19h-154l-73 -343h204q103 0 177 32.5t122 88t70.5 127.5t22.5 152q0 64 -17.5 116.5t-54 90.5t-93 59t-133.5 21
h-152z" />
    <glyph glyph-name="Ebreve" unicode="&#x114;" horiz-adv-x="568" 
d="M183 725h445l-4 -19h-425l-68 -320h400l-4 -19h-400l-74 -348h426l-5 -19h-445zM562 886q-7 -35 -23 -57.5t-37.5 -35.5t-46 -18.5t-48.5 -5.5q-53 0 -85.5 26t-32.5 88v3h18v-2q0 -32 9 -50.5t23.5 -29t32.5 -13.5t35 -3q18 0 38.5 3t40 13.5t35.5 30t23 51.5h18z" />
    <glyph glyph-name="Ecaron" unicode="&#x11a;" horiz-adv-x="568" 
d="M183 725h445l-4 -19h-425l-68 -320h400l-4 -19h-400l-74 -348h426l-5 -19h-445zM285 886h24l105 -96l149 96h28l-167 -113h-22z" />
    <glyph glyph-name="Emacron" unicode="&#x112;" horiz-adv-x="568" 
d="M183 725h445l-4 -19h-425l-68 -320h400l-4 -19h-400l-74 -348h426l-5 -19h-445zM295 821l3 20h249l-3 -20h-249z" />
    <glyph glyph-name="Eogonek" unicode="&#x118;" horiz-adv-x="568" 
d="M183 725h445l-4 -19h-425l-68 -320h400l-4 -19h-400l-74 -348h426l-5 -19h-445zM476 0q-21 -13 -40.5 -26.5t-35 -28.5t-24.5 -32t-9 -36q0 -27 17 -37.5t34 -10.5h11q6 0 12 1l-4 -17q-5 -1 -10 -1.5t-12 -0.5q-27 0 -48 15t-21 47q0 45 30 75t80 52h20z" />
    <glyph glyph-name="Edotaccent" unicode="&#x116;" horiz-adv-x="568" 
d="M183 725h445l-4 -19h-425l-68 -320h400l-4 -19h-400l-74 -348h426l-5 -19h-445zM443 876l-21 -92h-20l20 92h21z" />
    <glyph glyph-name="Gbreve" unicode="&#x11e;" horiz-adv-x="761" 
d="M439 738q55 0 104.5 -15.5t87.5 -45.5t63 -75.5t32 -105.5h-22q-7 54 -29.5 96t-58 70t-81.5 42.5t-100 14.5q-88 0 -153.5 -39.5t-109.5 -101.5t-66 -138.5t-22 -150.5q0 -61 17 -113t50.5 -89.5t83.5 -59t117 -21.5q58 0 109 15t92 48t70.5 85.5t45.5 127.5l8 36h-213
l5 22h233l-72 -340h-21l32 152q-15 -30 -39 -59.5t-59 -53t-83.5 -38t-112.5 -14.5q-68 0 -121.5 22t-90 61.5t-55.5 95.5t-19 125q0 48 10 100t30.5 102t51.5 94.5t73 78t95 53t118 19.5zM620 886q-7 -35 -23 -57.5t-37.5 -35.5t-46 -18.5t-48.5 -5.5q-53 0 -85.5 26
t-32.5 88v3h18v-2q0 -32 9 -50.5t23.5 -29t32.5 -13.5t35 -3q18 0 38.5 3t40 13.5t35.5 30t23 51.5h18z" />
    <glyph glyph-name="Gcircumflex" unicode="&#x11c;" horiz-adv-x="761" 
d="M439 738q55 0 104.5 -15.5t87.5 -45.5t63 -75.5t32 -105.5h-22q-7 54 -29.5 96t-58 70t-81.5 42.5t-100 14.5q-88 0 -153.5 -39.5t-109.5 -101.5t-66 -138.5t-22 -150.5q0 -61 17 -113t50.5 -89.5t83.5 -59t117 -21.5q58 0 109 15t92 48t70.5 85.5t45.5 127.5l8 36h-213
l5 22h233l-72 -340h-21l32 152q-15 -30 -39 -59.5t-59 -53t-83.5 -38t-112.5 -14.5q-68 0 -121.5 22t-90 61.5t-55.5 95.5t-19 125q0 48 10 100t30.5 102t51.5 94.5t73 78t95 53t118 19.5zM600 773h-24l-106 96l-148 -96h-28l167 113h21z" />
    <glyph glyph-name="uni0122" unicode="&#x122;" horiz-adv-x="761" 
d="M439 738q55 0 104.5 -15.5t87.5 -45.5t63 -75.5t32 -105.5h-22q-7 54 -29.5 96t-58 70t-81.5 42.5t-100 14.5q-88 0 -153.5 -39.5t-109.5 -101.5t-66 -138.5t-22 -150.5q0 -61 17 -113t50.5 -89.5t83.5 -59t117 -21.5q58 0 109 15t92 48t70.5 85.5t45.5 127.5l8 36h-213
l5 22h233l-72 -340h-21l32 152q-15 -30 -39 -59.5t-59 -53t-83.5 -38t-112.5 -14.5q-68 0 -121.5 22t-90 61.5t-55.5 95.5t-19 125q0 48 10 100t30.5 102t51.5 94.5t73 78t95 53t118 19.5zM345 -46l-11 -52q-5 -25 -10 -44.5t-12.5 -35t-19.5 -26.5t-31 -18l4 22
q22 11 31 35.5t18 66.5l10 52h21z" />
    <glyph glyph-name="Gdotaccent" unicode="&#x120;" horiz-adv-x="761" 
d="M439 738q55 0 104.5 -15.5t87.5 -45.5t63 -75.5t32 -105.5h-22q-7 54 -29.5 96t-58 70t-81.5 42.5t-100 14.5q-88 0 -153.5 -39.5t-109.5 -101.5t-66 -138.5t-22 -150.5q0 -61 17 -113t50.5 -89.5t83.5 -59t117 -21.5q58 0 109 15t92 48t70.5 85.5t45.5 127.5l8 36h-213
l5 22h233l-72 -340h-21l32 152q-15 -30 -39 -59.5t-59 -53t-83.5 -38t-112.5 -14.5q-68 0 -121.5 22t-90 61.5t-55.5 95.5t-19 125q0 48 10 100t30.5 102t51.5 94.5t73 78t95 53t118 19.5zM494 876l-21 -92h-20l20 92h21z" />
    <glyph glyph-name="Hbar" unicode="&#x126;" horiz-adv-x="692" 
d="M703 725l-37 -172h57l-4 -19h-57l-113 -534h-20l78 367h-480l-78 -367h-20l113 534h-56l4 19h56l37 172h20l-37 -172h480l37 172h20zM611 386l31 148h-480l-31 -148h480z" />
    <glyph glyph-name="Hcircumflex" unicode="&#x124;" horiz-adv-x="692" 
d="M703 725l-154 -725h-20l78 367h-480l-78 -367h-20l154 725h20l-72 -339h480l72 339h20zM592 773h-24l-106 96l-148 -96h-28l167 113h21z" />
    <glyph glyph-name="Ibreve" unicode="&#x12c;" horiz-adv-x="192" 
d="M361 886q-7 -35 -23 -57.5t-37.5 -35.5t-46 -18.5t-48.5 -5.5q-53 0 -85.5 26t-32.5 88v3h18v-2q0 -32 9 -50.5t23.5 -29t32.5 -13.5t35 -3q18 0 38.5 3t40 13.5t35.5 30t23 51.5h18zM49 0h-20l154 725h20z" />
    <glyph glyph-name="Idotaccent" unicode="&#x130;" horiz-adv-x="192" 
d="M233 876l-21 -92h-20l20 92h21zM49 0h-20l154 725h20z" />
    <glyph glyph-name="Imacron" unicode="&#x12a;" horiz-adv-x="192" 
d="M87 821l3 20h249l-3 -20h-249zM49 0h-20l154 725h20z" />
    <glyph glyph-name="Iogonek" unicode="&#x12e;" horiz-adv-x="192" 
d="M49 0h-20l154 725h20zM53 0q-21 -13 -40.5 -26.5t-35 -28.5t-24.5 -32t-9 -36q0 -27 17 -37.5t34 -10.5h11q6 0 12 1l-4 -17q-5 -1 -10 -1.5t-12 -0.5q-27 0 -48 15t-21 47q0 45 30 75t80 52h20z" />
    <glyph glyph-name="Itilde" unicode="&#x128;" horiz-adv-x="192" 
d="M132 874q26 0 45 -11t35.5 -23.5t32.5 -23.5t36 -11q26 0 46 17t28 52h21q-11 -46 -37 -67t-58 -21q-24 0 -42 11t-34.5 23.5t-34 23.5t-39.5 11q-26 0 -46 -17.5t-28 -51.5h-20q10 44 36.5 66t58.5 22zM49 0h-20l154 725h20z" />
    <glyph glyph-name="uni1ECA" unicode="&#x1eca;" horiz-adv-x="192" 
d="M17 -82l-20 -93h-20l20 93h20zM49 0h-20l154 725h20z" />
    <glyph glyph-name="Jcircumflex" unicode="&#x134;" horiz-adv-x="483" 
d="M648 773h-24l-106 96l-148 -96h-28l167 113h21zM-7 156q0 -41 12 -69.5t33 -46.5t49.5 -26t60.5 -8q38 0 72 11t61.5 36.5t48.5 67t34 101.5l107 503h20l-107 -503q-14 -66 -37 -111t-54 -72.5t-68 -39.5t-80 -12q-36 0 -67.5 8.5t-54.5 27t-36.5 49.5t-13.5 76
q0 31 8 74h19q-7 -34 -7 -66z" />
    <glyph glyph-name="uni0136" unicode="&#x136;" horiz-adv-x="549" 
d="M112 297l492 428h28l-367 -319l232 -406h-24l-223 393l-145 -126l-56 -267h-20l154 725h20zM255 -46l-11 -52q-5 -25 -10 -44.5t-12.5 -35t-19.5 -26.5t-31 -18l4 22q22 11 31 35.5t18 66.5l10 52h21z" />
    <glyph glyph-name="Lacute" unicode="&#x139;" horiz-adv-x="522" 
d="M53 19h415l-4 -19h-435l154 725h20zM218 773h-28l159 113h29z" />
    <glyph glyph-name="Lcaron" unicode="&#x13d;" horiz-adv-x="521" 
d="M53 19h415l-4 -19h-435l154 725h20zM292 555h-17l64 170h21z" />
    <glyph glyph-name="uni013B" unicode="&#x13b;" horiz-adv-x="521" 
d="M53 19h415l-4 -19h-435l154 725h20zM249 -46l-11 -52q-5 -25 -10 -44.5t-12.5 -35t-19.5 -26.5t-31 -18l4 22q22 11 31 35.5t18 66.5l10 52h21z" />
    <glyph glyph-name="Ldot" unicode="&#x13f;" horiz-adv-x="521" 
d="M53 19h415l-4 -19h-435l154 725h20zM403 432l-21 -92h-20l20 92h21z" />
    <glyph glyph-name="Lslash" unicode="&#x141;" horiz-adv-x="528" 
d="M134 370l215 147l-6 -23l-214 -146l-69 -329h415l-4 -19h-435l70 332l-140 -96l6 23l139 95l79 371h20z" />
    <glyph glyph-name="Nacute" unicode="&#x143;" horiz-adv-x="713" 
d="M550 0l-353 695l-148 -695h-20l154 725h20l354 -694l147 694h20l-154 -725h-20zM472 773h-28l159 113h29z" />
    <glyph glyph-name="Ncaron" unicode="&#x147;" horiz-adv-x="713" 
d="M550 0l-353 695l-148 -695h-20l154 725h20l354 -694l147 694h20l-154 -725h-20zM335 886h24l105 -96l149 96h28l-167 -113h-22z" />
    <glyph glyph-name="uni0145" unicode="&#x145;" horiz-adv-x="713" 
d="M550 0l-353 695l-148 -695h-20l154 725h20l354 -694l147 694h20l-154 -725h-20zM300 -46l-11 -52q-5 -25 -10 -44.5t-12.5 -35t-19.5 -26.5t-31 -18l4 22q22 11 31 35.5t18 66.5l10 52h21z" />
    <glyph glyph-name="OE" unicode="&#x152;" horiz-adv-x="1164" 
d="M64 309q0 81 23 158t68 137t112.5 97t156.5 37q67 0 120 -20.5t90.5 -59t59 -92.5t24.5 -121l59 280h446l-4 -19h-424l-68 -320h400l-4 -19h-399l-74 -348h425l-4 -19h-446l35 166q-43 -79 -116.5 -129t-178.5 -50q-70 0 -126 23t-95 65t-59.5 101.5t-20.5 132.5z
M704 419q0 64 -17.5 118.5t-52.5 95t-88 63.5t-124 23q-83 0 -145.5 -34.5t-104.5 -92t-63.5 -132t-21.5 -153.5q0 -64 17 -119t52 -95.5t87.5 -63.5t123.5 -23q83 0 146 34.5t105.5 92.5t64 132t21.5 154z" />
    <glyph glyph-name="Obreve" unicode="&#x14e;" horiz-adv-x="750" 
d="M83 285q0 -59 16 -110t49 -88.5t82.5 -59t116.5 -21.5q82 0 148.5 36.5t113.5 97.5t72.5 139t25.5 161q0 59 -16 110t-49 88.5t-82.5 59t-116.5 21.5q-82 0 -148.5 -36.5t-113.5 -97.5t-72.5 -139t-25.5 -161zM730 436q0 -54 -11.5 -108.5t-34 -104.5t-55.5 -93t-76 -75
t-95.5 -50t-113.5 -18q-68 0 -120.5 22t-89 61.5t-55.5 95t-19 123.5q0 82 26 162t75.5 144t121 103.5t163.5 39.5q67 0 120 -22t89.5 -61.5t55.5 -95.5t19 -123zM630 886q-7 -35 -23 -57.5t-37.5 -35.5t-46 -18.5t-48.5 -5.5q-53 0 -85.5 26t-32.5 88v3h18v-2
q0 -32 9 -50.5t23.5 -29t32.5 -13.5t35 -3q18 0 38.5 3t40 13.5t35.5 30t23 51.5h18z" />
    <glyph glyph-name="Ohungarumlaut" unicode="&#x150;" horiz-adv-x="750" 
d="M83 285q0 -59 16 -110t49 -88.5t82.5 -59t116.5 -21.5q82 0 148.5 36.5t113.5 97.5t72.5 139t25.5 161q0 59 -16 110t-49 88.5t-82.5 59t-116.5 21.5q-82 0 -148.5 -36.5t-113.5 -97.5t-72.5 -139t-25.5 -161zM730 436q0 -54 -11.5 -108.5t-34 -104.5t-55.5 -93t-76 -75
t-95.5 -50t-113.5 -18q-68 0 -120.5 22t-89 61.5t-55.5 95t-19 123.5q0 82 26 162t75.5 144t121 103.5t163.5 39.5q67 0 120 -22t89.5 -61.5t55.5 -95.5t19 -123zM386 773h-28l159 113h29zM569 773h-28l159 113h29z" />
    <glyph glyph-name="Omacron" unicode="&#x14c;" horiz-adv-x="750" 
d="M83 285q0 -59 16 -110t49 -88.5t82.5 -59t116.5 -21.5q82 0 148.5 36.5t113.5 97.5t72.5 139t25.5 161q0 59 -16 110t-49 88.5t-82.5 59t-116.5 21.5q-82 0 -148.5 -36.5t-113.5 -97.5t-72.5 -139t-25.5 -161zM730 436q0 -54 -11.5 -108.5t-34 -104.5t-55.5 -93t-76 -75
t-95.5 -50t-113.5 -18q-68 0 -120.5 22t-89 61.5t-55.5 95t-19 123.5q0 82 26 162t75.5 144t121 103.5t163.5 39.5q67 0 120 -22t89.5 -61.5t55.5 -95.5t19 -123zM365 821l3 20h249l-3 -20h-249z" />
    <glyph glyph-name="uni1ECC" unicode="&#x1ecc;" horiz-adv-x="750" 
d="M83 285q0 -59 16 -110t49 -88.5t82.5 -59t116.5 -21.5q82 0 148.5 36.5t113.5 97.5t72.5 139t25.5 161q0 59 -16 110t-49 88.5t-82.5 59t-116.5 21.5q-82 0 -148.5 -36.5t-113.5 -97.5t-72.5 -139t-25.5 -161zM730 436q0 -54 -11.5 -108.5t-34 -104.5t-55.5 -93t-76 -75
t-95.5 -50t-113.5 -18q-68 0 -120.5 22t-89 61.5t-55.5 95t-19 123.5q0 82 26 162t75.5 144t121 103.5t163.5 39.5q67 0 120 -22t89.5 -61.5t55.5 -95.5t19 -123zM322 -82l-20 -93h-20l20 93h20z" />
    <glyph glyph-name="Racute" unicode="&#x154;" horiz-adv-x="616" 
d="M397 347q-48 -6 -102 -6h-174l-72 -341h-20l154 725h181q60 0 109.5 -6t85 -23.5t55 -48t19.5 -79.5q0 -50 -16.5 -87.5t-45.5 -63.5t-69 -42.5t-86 -24.5l107 -350h-23zM199 706l-73 -346h161q61 0 119 8.5t103.5 31t73 63t27.5 105.5q0 46 -19.5 73.5t-53 42t-78 18.5
t-94.5 4h-166zM385 773h-28l159 113h29z" />
    <glyph glyph-name="Rcaron" unicode="&#x158;" horiz-adv-x="616" 
d="M397 347q-48 -6 -102 -6h-174l-72 -341h-20l154 725h181q60 0 109.5 -6t85 -23.5t55 -48t19.5 -79.5q0 -50 -16.5 -87.5t-45.5 -63.5t-69 -42.5t-86 -24.5l107 -350h-23zM199 706l-73 -346h161q61 0 119 8.5t103.5 31t73 63t27.5 105.5q0 46 -19.5 73.5t-53 42t-78 18.5
t-94.5 4h-166zM256 886h24l105 -96l149 96h28l-167 -113h-22z" />
    <glyph glyph-name="uni0156" unicode="&#x156;" horiz-adv-x="616" 
d="M397 347q-48 -6 -102 -6h-174l-72 -341h-20l154 725h181q60 0 109.5 -6t85 -23.5t55 -48t19.5 -79.5q0 -50 -16.5 -87.5t-45.5 -63.5t-69 -42.5t-86 -24.5l107 -350h-23zM199 706l-73 -346h161q61 0 119 8.5t103.5 31t73 63t27.5 105.5q0 46 -19.5 73.5t-53 42t-78 18.5
t-94.5 4h-166zM272 -46l-11 -52q-5 -25 -10 -44.5t-12.5 -35t-19.5 -26.5t-31 -18l4 22q22 11 31 35.5t18 66.5l10 52h21z" />
    <glyph glyph-name="Sacute" unicode="&#x15a;" horiz-adv-x="637" 
d="M582 536q-9 49 -30.5 84t-53 57t-71.5 32t-85 10q-38 0 -76.5 -8t-69 -26t-50 -47.5t-19.5 -71.5q0 -64 40 -101t109 -58l88 -28q35 -11 71.5 -25.5t66 -36.5t48.5 -54t19 -78q0 -49 -22.5 -86t-59 -62t-84 -37.5t-98.5 -12.5q-55 0 -102.5 13t-84.5 40t-61 69t-31 100
l20 1q7 -52 29 -90.5t55.5 -63.5t76.5 -37.5t93 -12.5q42 0 86 9.5t80 31t58.5 55.5t22.5 83q0 38 -15 65t-40.5 47.5t-60 35t-74.5 26.5l-88 28q-33 10 -63 25t-52.5 36t-35.5 50t-13 68q0 44 20 76.5t53.5 53.5t76.5 31.5t88 10.5q46 0 90 -11.5t79.5 -35.5t60 -62
t32.5 -92zM370 773h-28l159 113h29z" />
    <glyph glyph-name="Scaron" unicode="&#x160;" horiz-adv-x="637" 
d="M582 536q-9 49 -30.5 84t-53 57t-71.5 32t-85 10q-38 0 -76.5 -8t-69 -26t-50 -47.5t-19.5 -71.5q0 -64 40 -101t109 -58l88 -28q35 -11 71.5 -25.5t66 -36.5t48.5 -54t19 -78q0 -49 -22.5 -86t-59 -62t-84 -37.5t-98.5 -12.5q-55 0 -102.5 13t-84.5 40t-61 69t-31 100
l20 1q7 -52 29 -90.5t55.5 -63.5t76.5 -37.5t93 -12.5q42 0 86 9.5t80 31t58.5 55.5t22.5 83q0 38 -15 65t-40.5 47.5t-60 35t-74.5 26.5l-88 28q-33 10 -63 25t-52.5 36t-35.5 50t-13 68q0 44 20 76.5t53.5 53.5t76.5 31.5t88 10.5q46 0 90 -11.5t79.5 -35.5t60 -62
t32.5 -92zM232 886h24l105 -96l149 96h28l-167 -113h-22z" />
    <glyph glyph-name="Scedilla" unicode="&#x15e;" horiz-adv-x="637" 
d="M582 536q-9 49 -30.5 84t-53 57t-71.5 32t-85 10q-38 0 -76.5 -8t-69 -26t-50 -47.5t-19.5 -71.5q0 -64 40 -101t109 -58l88 -28q35 -11 71.5 -25.5t66 -36.5t48.5 -54t19 -78q0 -49 -22.5 -86t-59 -62t-84 -37.5t-98.5 -12.5q-55 0 -102.5 13t-84.5 40t-61 69t-31 100
l20 1q7 -52 29 -90.5t55.5 -63.5t76.5 -37.5t93 -12.5q42 0 86 9.5t80 31t58.5 55.5t22.5 83q0 38 -15 65t-40.5 47.5t-60 35t-74.5 26.5l-88 28q-33 10 -63 25t-52.5 36t-35.5 50t-13 68q0 44 20 76.5t53.5 53.5t76.5 31.5t88 10.5q46 0 90 -11.5t79.5 -35.5t60 -62
t32.5 -92zM307 0h21l-48 -59q15 3 28 3q26 0 46 -13t20 -45q0 -21 -9 -35t-23 -23t-32 -13t-37 -4q-18 0 -36 3t-32 10l8 19q24 -13 62 -13q14 0 28 3t24.5 9.5t17 17t6.5 26.5q0 20 -14 30.5t-34 10.5q-25 0 -45 -11l-9 13z" />
    <glyph glyph-name="Scircumflex" unicode="&#x15c;" horiz-adv-x="637" 
d="M582 536q-9 49 -30.5 84t-53 57t-71.5 32t-85 10q-38 0 -76.5 -8t-69 -26t-50 -47.5t-19.5 -71.5q0 -64 40 -101t109 -58l88 -28q35 -11 71.5 -25.5t66 -36.5t48.5 -54t19 -78q0 -49 -22.5 -86t-59 -62t-84 -37.5t-98.5 -12.5q-55 0 -102.5 13t-84.5 40t-61 69t-31 100
l20 1q7 -52 29 -90.5t55.5 -63.5t76.5 -37.5t93 -12.5q42 0 86 9.5t80 31t58.5 55.5t22.5 83q0 38 -15 65t-40.5 47.5t-60 35t-74.5 26.5l-88 28q-33 10 -63 25t-52.5 36t-35.5 50t-13 68q0 44 20 76.5t53.5 53.5t76.5 31.5t88 10.5q46 0 90 -11.5t79.5 -35.5t60 -62
t32.5 -92zM525 773h-24l-106 96l-148 -96h-28l167 113h21z" />
    <glyph glyph-name="uni0218" unicode="&#x218;" horiz-adv-x="637" 
d="M582 536q-9 49 -30.5 84t-53 57t-71.5 32t-85 10q-38 0 -76.5 -8t-69 -26t-50 -47.5t-19.5 -71.5q0 -64 40 -101t109 -58l88 -28q35 -11 71.5 -25.5t66 -36.5t48.5 -54t19 -78q0 -49 -22.5 -86t-59 -62t-84 -37.5t-98.5 -12.5q-55 0 -102.5 13t-84.5 40t-61 69t-31 100
l20 1q7 -52 29 -90.5t55.5 -63.5t76.5 -37.5t93 -12.5q42 0 86 9.5t80 31t58.5 55.5t22.5 83q0 38 -15 65t-40.5 47.5t-60 35t-74.5 26.5l-88 28q-33 10 -63 25t-52.5 36t-35.5 50t-13 68q0 44 20 76.5t53.5 53.5t76.5 31.5t88 10.5q46 0 90 -11.5t79.5 -35.5t60 -62
t32.5 -92zM310 -46l-11 -52q-5 -25 -10 -44.5t-12.5 -35t-19.5 -26.5t-31 -18l4 22q22 11 31 35.5t18 66.5l10 52h21z" />
    <glyph glyph-name="Tcaron" unicode="&#x164;" horiz-adv-x="541" 
d="M353 706h-260l4 19h541l-5 -19h-260l-150 -706h-20zM251 886h24l105 -96l149 96h28l-167 -113h-22z" />
    <glyph glyph-name="uni0162" unicode="&#x162;" horiz-adv-x="541" 
d="M353 706h-260l4 19h541l-5 -19h-260l-150 -706h-20zM214 -46l-11 -52q-5 -25 -10 -44.5t-12.5 -35t-19.5 -26.5t-31 -18l4 22q22 11 31 35.5t18 66.5l10 52h21z" />
    <glyph glyph-name="uni021A" unicode="&#x21a;" horiz-adv-x="541" 
d="M353 706h-260l4 19h541l-5 -19h-260l-150 -706h-20zM214 -46l-11 -52q-5 -25 -10 -44.5t-12.5 -35t-19.5 -26.5t-31 -18l4 22q22 11 31 35.5t18 66.5l10 52h21z" />
    <glyph glyph-name="Ubreve" unicode="&#x16c;" horiz-adv-x="700" 
d="M88 191q0 -93 52.5 -139t164.5 -46q69 0 119.5 18t86.5 54t60 89.5t39 125.5l92 432h20l-92 -431q-17 -79 -43 -136.5t-64.5 -95.5t-92 -56.5t-125.5 -18.5q-118 0 -177.5 49t-59.5 153q0 46 12 105l92 431h20l-92 -432q-12 -57 -12 -102zM601 886q-7 -35 -23 -57.5
t-37.5 -35.5t-46 -18.5t-48.5 -5.5q-53 0 -85.5 26t-32.5 88v3h18v-2q0 -32 9 -50.5t23.5 -29t32.5 -13.5t35 -3q18 0 38.5 3t40 13.5t35.5 30t23 51.5h18z" />
    <glyph glyph-name="Uhungarumlaut" unicode="&#x170;" horiz-adv-x="700" 
d="M88 191q0 -93 52.5 -139t164.5 -46q69 0 119.5 18t86.5 54t60 89.5t39 125.5l92 432h20l-92 -431q-17 -79 -43 -136.5t-64.5 -95.5t-92 -56.5t-125.5 -18.5q-118 0 -177.5 49t-59.5 153q0 46 12 105l92 431h20l-92 -432q-12 -57 -12 -102zM350 773h-28l159 113h29z
M533 773h-28l159 113h29z" />
    <glyph glyph-name="Umacron" unicode="&#x16a;" horiz-adv-x="700" 
d="M88 191q0 -93 52.5 -139t164.5 -46q69 0 119.5 18t86.5 54t60 89.5t39 125.5l92 432h20l-92 -431q-17 -79 -43 -136.5t-64.5 -95.5t-92 -56.5t-125.5 -18.5q-118 0 -177.5 49t-59.5 153q0 46 12 105l92 431h20l-92 -432q-12 -57 -12 -102zM335 821l3 20h249l-3 -20h-249z
" />
    <glyph glyph-name="Uogonek" unicode="&#x172;" horiz-adv-x="700" 
d="M88 191q0 -93 52.5 -139t164.5 -46q69 0 119.5 18t86.5 54t60 89.5t39 125.5l92 432h20l-92 -431q-17 -79 -43 -136.5t-64.5 -95.5t-92 -56.5t-125.5 -18.5q-118 0 -177.5 49t-59.5 153q0 46 12 105l92 431h20l-92 -432q-12 -57 -12 -102zM343 0q-21 -13 -40.5 -26.5
t-35 -28.5t-24.5 -32t-9 -36q0 -27 17 -37.5t34 -10.5h11q6 0 12 1l-4 -17q-5 -1 -10 -1.5t-12 -0.5q-27 0 -48 15t-21 47q0 45 30 75t80 52h20z" />
    <glyph glyph-name="Uring" unicode="&#x16e;" horiz-adv-x="700" 
d="M88 191q0 -93 52.5 -139t164.5 -46q69 0 119.5 18t86.5 54t60 89.5t39 125.5l92 432h20l-92 -431q-17 -79 -43 -136.5t-64.5 -95.5t-92 -56.5t-125.5 -18.5q-118 0 -177.5 49t-59.5 153q0 46 12 105l92 431h20l-92 -432q-12 -57 -12 -102zM459 913q-25 0 -44.5 -16.5
t-19.5 -46.5q0 -29 19.5 -45.5t44.5 -16.5t44 16.5t19 45.5q0 30 -19 46.5t-44 16.5zM459 930q35 0 59.5 -22.5t24.5 -57.5t-24.5 -57t-59.5 -22t-59.5 22t-24.5 57t24.5 57.5t59.5 22.5z" />
    <glyph glyph-name="Utilde" unicode="&#x168;" horiz-adv-x="700" 
d="M88 191q0 -93 52.5 -139t164.5 -46q69 0 119.5 18t86.5 54t60 89.5t39 125.5l92 432h20l-92 -431q-17 -79 -43 -136.5t-64.5 -95.5t-92 -56.5t-125.5 -18.5q-118 0 -177.5 49t-59.5 153q0 46 12 105l92 431h20l-92 -432q-12 -57 -12 -102zM385 874q26 0 45 -11
t35.5 -23.5t32.5 -23.5t36 -11q26 0 46 17t28 52h21q-11 -46 -37 -67t-58 -21q-24 0 -42 11t-34.5 23.5t-34 23.5t-39.5 11q-26 0 -46 -17.5t-28 -51.5h-20q10 44 36.5 66t58.5 22z" />
    <glyph glyph-name="uni1EE4" unicode="&#x1ee4;" horiz-adv-x="700" 
d="M88 191q0 -93 52.5 -139t164.5 -46q69 0 119.5 18t86.5 54t60 89.5t39 125.5l92 432h20l-92 -431q-17 -79 -43 -136.5t-64.5 -95.5t-92 -56.5t-125.5 -18.5q-118 0 -177.5 49t-59.5 153q0 46 12 105l92 431h20l-92 -432q-12 -57 -12 -102zM276 -82l-20 -93h-20l20 93h20z
" />
    <glyph glyph-name="Wacute" unicode="&#x1e82;" horiz-adv-x="890" 
d="M613 37l350 688h24l-371 -725h-18l-61 698l-355 -698h-17l-68 725h22l61 -688l350 688h23zM549 773h-28l159 113h29z" />
    <glyph glyph-name="Wcircumflex" unicode="&#x174;" horiz-adv-x="890" 
d="M613 37l350 688h24l-371 -725h-18l-61 698l-355 -698h-17l-68 725h22l61 -688l350 688h23zM690 773h-24l-106 96l-148 -96h-28l167 113h21z" />
    <glyph glyph-name="Wdieresis" unicode="&#x1e84;" horiz-adv-x="890" 
d="M613 37l350 688h24l-371 -725h-18l-61 698l-355 -698h-17l-68 725h22l61 -688l350 688h23zM452 876l-21 -92h-20l20 92h21zM685 876l-20 -92h-21l21 92h20z" />
    <glyph glyph-name="Wgrave" unicode="&#x1e80;" horiz-adv-x="890" 
d="M613 37l350 688h24l-371 -725h-18l-61 698l-355 -698h-17l-68 725h22l61 -688l350 688h23zM412 886h28l110 -113h-24z" />
    <glyph glyph-name="Ycircumflex" unicode="&#x176;" horiz-adv-x="519" 
d="M108 725l157 -436l336 436h26l-355 -459l-57 -266h-21l57 266l-165 459h22zM512 773h-24l-106 96l-148 -96h-28l167 113h21z" />
    <glyph glyph-name="Ydieresis" unicode="&#x178;" horiz-adv-x="519" 
d="M108 725l157 -436l336 436h26l-355 -459l-57 -266h-21l57 266l-165 459h22zM264 876l-21 -92h-20l20 92h21zM497 876l-20 -92h-21l21 92h20z" />
    <glyph glyph-name="Ygrave" unicode="&#x1ef2;" horiz-adv-x="519" 
d="M108 725l157 -436l336 436h26l-355 -459l-57 -266h-21l57 266l-165 459h22zM234 886h28l110 -113h-24z" />
    <glyph glyph-name="uni0232" unicode="&#x232;" horiz-adv-x="519" 
d="M108 725l157 -436l336 436h26l-355 -459l-57 -266h-21l57 266l-165 459h22zM242 821l3 20h249l-3 -20h-249z" />
    <glyph glyph-name="Zacute" unicode="&#x179;" horiz-adv-x="609" 
d="M655 706l-643 -687h515l-5 -19h-541l4 19l643 687h-461l4 19h488zM419 773h-28l159 113h29z" />
    <glyph glyph-name="Zcaron" unicode="&#x17d;" horiz-adv-x="609" 
d="M655 706l-643 -687h515l-5 -19h-541l4 19l643 687h-461l4 19h488zM290 886h24l105 -96l149 96h28l-167 -113h-22z" />
    <glyph glyph-name="Zdotaccent" unicode="&#x17b;" horiz-adv-x="609" 
d="M655 706l-643 -687h515l-5 -19h-541l4 19l643 687h-461l4 19h488zM449 876l-21 -92h-20l20 92h21z" />
    <glyph glyph-name="abreve" unicode="&#x103;" horiz-adv-x="546" 
d="M454 301q-114 -8 -192.5 -21.5t-126.5 -34t-69 -50t-21 -69.5q0 -28 11.5 -50t31 -37.5t46.5 -24t59 -8.5q36 0 74 11.5t71.5 37.5t60 69.5t40.5 106.5zM415 119q-38 -69 -95 -100.5t-130 -31.5q-35 0 -65.5 9.5t-53.5 27t-36 42.5t-13 56q0 49 25.5 83t79 57t135.5 36.5
t195 21.5l3 13q7 29 7 57q0 38 -14 64.5t-37 43t-52 23.5t-60 7q-45 0 -79.5 -11.5t-59.5 -31.5t-40 -47.5t-20 -59.5h-22q15 81 73.5 125t148.5 44q38 0 71 -9.5t58 -29t39 -49t14 -69.5q0 -25 -6 -53q-3 -13 -6.5 -30.5t-8 -36.5t-9 -38.5t-8.5 -37.5q-12 -54 -19.5 -100
t-15.5 -94h-21zM498 725q-14 -60 -53.5 -94t-101.5 -34q-63 0 -90.5 33t-27.5 84v11h18v-3q0 -55 25 -80t75 -25q51 0 87 25.5t50 82.5h18z" />
    <glyph glyph-name="amacron" unicode="&#x101;" horiz-adv-x="546" 
d="M454 301q-114 -8 -192.5 -21.5t-126.5 -34t-69 -50t-21 -69.5q0 -28 11.5 -50t31 -37.5t46.5 -24t59 -8.5q36 0 74 11.5t71.5 37.5t60 69.5t40.5 106.5zM415 119q-38 -69 -95 -100.5t-130 -31.5q-35 0 -65.5 9.5t-53.5 27t-36 42.5t-13 56q0 49 25.5 83t79 57t135.5 36.5
t195 21.5l3 13q7 29 7 57q0 38 -14 64.5t-37 43t-52 23.5t-60 7q-45 0 -79.5 -11.5t-59.5 -31.5t-40 -47.5t-20 -59.5h-22q15 81 73.5 125t148.5 44q38 0 71 -9.5t58 -29t39 -49t14 -69.5q0 -25 -6 -53q-3 -13 -6.5 -30.5t-8 -36.5t-9 -38.5t-8.5 -37.5q-12 -54 -19.5 -100
t-15.5 -94h-21zM230 667h249l-3 -19h-249z" />
    <glyph glyph-name="aogonek" unicode="&#x105;" horiz-adv-x="548" 
d="M415 119q-38 -69 -95 -100.5t-130 -31.5q-35 0 -65.5 9.5t-53.5 27t-36 42.5t-13 56q0 49 25.5 83t79 57t135.5 36.5t195 21.5l3 13q7 29 7 57q0 38 -14 64.5t-37 43t-52 23.5t-60 7q-45 0 -79.5 -11.5t-59.5 -31.5t-40 -47.5t-20 -59.5h-22q15 81 73.5 125t148.5 44
q38 0 71 -9.5t58 -29t39 -49t14 -69.5q0 -25 -6 -53q-3 -13 -6.5 -30.5t-8 -36.5t-9 -38.5t-8.5 -37.5q-12 -54 -19.5 -100t-15.5 -94h1q-18 -11 -35.5 -22.5t-32 -24t-25 -27t-14.5 -32.5q-1 -5 -1.5 -9t-0.5 -8q0 -27 17 -37.5t34 -10.5h11q6 0 12 1l-4 -17
q-5 -1 -10 -1.5t-12 -0.5q-28 0 -48.5 15t-20.5 47v10q0 5 2 11q6 32 36 60t72 46h-2zM454 301q-114 -8 -192.5 -21.5t-126.5 -34t-69 -50t-21 -69.5q0 -28 11.5 -50t31 -37.5t46.5 -24t59 -8.5q36 0 74 11.5t71.5 37.5t60 69.5t40.5 106.5z" />
    <glyph glyph-name="cacute" unicode="&#x107;" horiz-adv-x="547" 
d="M499 366q-6 80 -55 121t-123 41q-63 0 -110.5 -29.5t-80 -76t-49 -103t-16.5 -110.5q0 -101 51.5 -152t132.5 -51q34 0 68 10t63 30t52 50t35 71h21q-14 -46 -38.5 -79.5t-57 -56t-70 -33.5t-76.5 -11q-44 0 -81.5 14t-64.5 41t-42.5 67.5t-15.5 94.5q0 66 19.5 128
t56 110t88.5 76.5t118 28.5q38 0 72 -11t60 -33t43 -56.5t21 -80.5h-21zM350 598h-28l157 127h28z" />
    <glyph glyph-name="ccaron" unicode="&#x10d;" horiz-adv-x="547" 
d="M499 366q-6 80 -55 121t-123 41q-63 0 -110.5 -29.5t-80 -76t-49 -103t-16.5 -110.5q0 -101 51.5 -152t132.5 -51q34 0 68 10t63 30t52 50t35 71h21q-14 -46 -38.5 -79.5t-57 -56t-70 -33.5t-76.5 -11q-44 0 -81.5 14t-64.5 41t-42.5 67.5t-15.5 94.5q0 66 19.5 128
t56 110t88.5 76.5t118 28.5q38 0 72 -11t60 -33t43 -56.5t21 -80.5h-21zM221 725h24l101 -110l154 110h27l-171 -127h-22z" />
    <glyph glyph-name="ccircumflex" unicode="&#x109;" horiz-adv-x="547" 
d="M499 366q-6 80 -55 121t-123 41q-63 0 -110.5 -29.5t-80 -76t-49 -103t-16.5 -110.5q0 -101 51.5 -152t132.5 -51q34 0 68 10t63 30t52 50t35 71h21q-14 -46 -38.5 -79.5t-57 -56t-70 -33.5t-76.5 -11q-44 0 -81.5 14t-64.5 41t-42.5 67.5t-15.5 94.5q0 66 19.5 128
t56 110t88.5 76.5t118 28.5q38 0 72 -11t60 -33t43 -56.5t21 -80.5h-21zM500 598h-24l-101 110l-154 -110h-27l171 127h22z" />
    <glyph glyph-name="cdotaccent" unicode="&#x10b;" horiz-adv-x="547" 
d="M499 366q-6 80 -55 121t-123 41q-63 0 -110.5 -29.5t-80 -76t-49 -103t-16.5 -110.5q0 -101 51.5 -152t132.5 -51q34 0 68 10t63 30t52 50t35 71h21q-14 -46 -38.5 -79.5t-57 -56t-70 -33.5t-76.5 -11q-44 0 -81.5 14t-64.5 41t-42.5 67.5t-15.5 94.5q0 66 19.5 128
t56 110t88.5 76.5t118 28.5q38 0 72 -11t60 -33t43 -56.5t21 -80.5h-21zM377 725l-21 -93h-20l20 93h21z" />
    <glyph glyph-name="dcaron" unicode="&#x10f;" horiz-adv-x="605" 
d="M460 115q-35 -61 -88 -94.5t-122 -33.5q-51 0 -88.5 19t-61.5 50.5t-35.5 72.5t-11.5 86q0 64 17.5 124t51.5 106.5t83 74t111 27.5q47 0 81.5 -16t58 -42.5t37 -61.5t18.5 -73l79 371h20l-154 -725h-20zM495 313q0 52 -14 92t-38 67.5t-56.5 41.5t-69.5 14
q-60 0 -105 -27.5t-75 -72t-45.5 -100t-15.5 -111.5q0 -47 11.5 -86t34 -67t55.5 -43t75 -15q61 0 106.5 29t76 74t45.5 99t15 105zM645 555h-17l64 170h21z" />
    <glyph glyph-name="dcroat" unicode="&#x111;" horiz-adv-x="598" 
d="M589 629h108l-3 -20h-109l-129 -609h-20l24 115q-35 -61 -88 -94.5t-122 -33.5q-51 0 -88.5 19t-61.5 50.5t-35.5 72.5t-11.5 86q0 64 17.5 124t51.5 106.5t83 74t111 27.5q47 0 81.5 -16t58 -42.5t37 -61.5t18.5 -73l54 255h-143l3 20h144l21 96h20zM495 313
q0 52 -14 92t-38 67.5t-56.5 41.5t-69.5 14q-60 0 -105 -27.5t-75 -72t-45.5 -100t-15.5 -111.5q0 -47 11.5 -86t34 -67t55.5 -43t75 -15q61 0 106.5 29t76 74t45.5 99t15 105z" />
    <glyph glyph-name="ebreve" unicode="&#x115;" horiz-adv-x="580" 
d="M513 158q-12 -36 -34.5 -67t-55 -54.5t-72.5 -36.5t-86 -13q-45 0 -84.5 14t-68 41t-45 68t-16.5 95q0 66 19.5 127.5t56.5 109t90 76.5t120 29q57 0 98 -22t65.5 -59t33 -86.5t0.5 -104.5h-455q-3 -17 -4 -34t-1 -31q0 -51 14.5 -89.5t40.5 -64t60.5 -38t75.5 -12.5
t77.5 11.5t66 32t51 48t32.5 60.5h21zM333 528q-50 0 -92 -19t-74 -51.5t-54 -75t-31 -88.5h431q5 43 -2 85t-28.5 75t-58.5 53.5t-91 20.5zM506 725q-14 -60 -53.5 -94t-101.5 -34q-63 0 -90.5 33t-27.5 84v11h18v-3q0 -55 25 -80t75 -25q51 0 87 25.5t50 82.5h18z" />
    <glyph glyph-name="ecaron" unicode="&#x11b;" horiz-adv-x="580" 
d="M513 158q-12 -36 -34.5 -67t-55 -54.5t-72.5 -36.5t-86 -13q-45 0 -84.5 14t-68 41t-45 68t-16.5 95q0 66 19.5 127.5t56.5 109t90 76.5t120 29q57 0 98 -22t65.5 -59t33 -86.5t0.5 -104.5h-455q-3 -17 -4 -34t-1 -31q0 -51 14.5 -89.5t40.5 -64t60.5 -38t75.5 -12.5
t77.5 11.5t66 32t51 48t32.5 60.5h21zM333 528q-50 0 -92 -19t-74 -51.5t-54 -75t-31 -88.5h431q5 43 -2 85t-28.5 75t-58.5 53.5t-91 20.5zM227 725h24l101 -110l154 110h27l-171 -127h-22z" />
    <glyph glyph-name="emacron" unicode="&#x113;" horiz-adv-x="580" 
d="M513 158q-12 -36 -34.5 -67t-55 -54.5t-72.5 -36.5t-86 -13q-45 0 -84.5 14t-68 41t-45 68t-16.5 95q0 66 19.5 127.5t56.5 109t90 76.5t120 29q57 0 98 -22t65.5 -59t33 -86.5t0.5 -104.5h-455q-3 -17 -4 -34t-1 -31q0 -51 14.5 -89.5t40.5 -64t60.5 -38t75.5 -12.5
t77.5 11.5t66 32t51 48t32.5 60.5h21zM333 528q-50 0 -92 -19t-74 -51.5t-54 -75t-31 -88.5h431q5 43 -2 85t-28.5 75t-58.5 53.5t-91 20.5zM237 667h249l-3 -19h-249z" />
    <glyph glyph-name="eogonek" unicode="&#x119;" horiz-adv-x="580" 
d="M513 158q-12 -36 -34.5 -67t-55 -54.5t-72.5 -36.5t-86 -13q-45 0 -84.5 14t-68 41t-45 68t-16.5 95q0 66 19.5 127.5t56.5 109t90 76.5t120 29q57 0 98 -22t65.5 -59t33 -86.5t0.5 -104.5h-455q-3 -17 -4 -34t-1 -31q0 -51 14.5 -89.5t40.5 -64t60.5 -38t75.5 -12.5
t77.5 11.5t66 32t51 48t32.5 60.5h21zM333 528q-50 0 -92 -19t-74 -51.5t-54 -75t-31 -88.5h431q5 43 -2 85t-28.5 75t-58.5 53.5t-91 20.5zM350 0q-18 -11 -35.5 -22.5t-32 -24t-25 -27t-14.5 -32.5q-1 -5 -1.5 -9t-0.5 -8q0 -27 17 -37.5t34 -10.5h11q6 0 12 1l-4 -17
q-5 -1 -10 -1.5t-12 -0.5q-28 0 -48.5 15t-20.5 47v10q0 5 2 11q6 32 36 60t72 46h20z" />
    <glyph glyph-name="edotaccent" unicode="&#x117;" horiz-adv-x="580" 
d="M513 158q-12 -36 -34.5 -67t-55 -54.5t-72.5 -36.5t-86 -13q-45 0 -84.5 14t-68 41t-45 68t-16.5 95q0 66 19.5 127.5t56.5 109t90 76.5t120 29q57 0 98 -22t65.5 -59t33 -86.5t0.5 -104.5h-455q-3 -17 -4 -34t-1 -31q0 -51 14.5 -89.5t40.5 -64t60.5 -38t75.5 -12.5
t77.5 11.5t66 32t51 48t32.5 60.5h21zM333 528q-50 0 -92 -19t-74 -51.5t-54 -75t-31 -88.5h431q5 43 -2 85t-28.5 75t-58.5 53.5t-91 20.5zM382 725l-21 -93h-20l20 93h21z" />
    <glyph glyph-name="gbreve" unicode="&#x11f;" horiz-adv-x="592" 
d="M459 141q-35 -57 -90.5 -89.5t-122.5 -32.5q-52 0 -89.5 16.5t-61.5 45.5t-35.5 68t-11.5 83q0 61 17.5 117.5t51 100.5t83 70.5t113.5 26.5q47 0 81 -15.5t57 -41t36 -60t18 -71.5l38 179h20l-115 -542q-11 -51 -31.5 -86t-49.5 -56.5t-66 -31.5t-80 -10
q-89 0 -138.5 41t-49.5 116h23q0 -63 38.5 -100t127.5 -37q34 0 66 6.5t59.5 25t48.5 50.5t32 83zM313 528q-61 0 -106.5 -26t-75.5 -68t-45 -94.5t-15 -104.5q0 -94 45.5 -145t129.5 -51q60 0 105.5 25t76 64.5t46 89.5t15.5 100q0 52 -13.5 91.5t-37.5 66t-56 39.5t-69 13
zM493 725q-14 -60 -53.5 -94t-101.5 -34q-63 0 -90.5 33t-27.5 84v11h18v-3q0 -55 25 -80t75 -25q51 0 87 25.5t50 82.5h18z" />
    <glyph glyph-name="gcircumflex" unicode="&#x11d;" horiz-adv-x="592" 
d="M459 141q-35 -57 -90.5 -89.5t-122.5 -32.5q-52 0 -89.5 16.5t-61.5 45.5t-35.5 68t-11.5 83q0 61 17.5 117.5t51 100.5t83 70.5t113.5 26.5q47 0 81 -15.5t57 -41t36 -60t18 -71.5l38 179h20l-115 -542q-11 -51 -31.5 -86t-49.5 -56.5t-66 -31.5t-80 -10
q-89 0 -138.5 41t-49.5 116h23q0 -63 38.5 -100t127.5 -37q34 0 66 6.5t59.5 25t48.5 50.5t32 83zM313 528q-61 0 -106.5 -26t-75.5 -68t-45 -94.5t-15 -104.5q0 -94 45.5 -145t129.5 -51q60 0 105.5 25t76 64.5t46 89.5t15.5 100q0 52 -13.5 91.5t-37.5 66t-56 39.5t-69 13
zM479 598h-24l-101 110l-154 -110h-27l171 127h22z" />
    <glyph glyph-name="uni0123" unicode="&#x123;" horiz-adv-x="592" 
d="M320 597l13 62q5 25 10 45t13 35t19.5 26t30.5 18l-4 -22q-22 -11 -31 -35.5t-17 -66.5l-13 -62h-21zM459 141q-35 -57 -90.5 -89.5t-122.5 -32.5q-52 0 -89.5 16.5t-61.5 45.5t-35.5 68t-11.5 83q0 61 17.5 117.5t51 100.5t83 70.5t113.5 26.5q47 0 81 -15.5t57 -41
t36 -60t18 -71.5l38 179h20l-115 -542q-11 -51 -31.5 -86t-49.5 -56.5t-66 -31.5t-80 -10q-89 0 -138.5 41t-49.5 116h23q0 -63 38.5 -100t127.5 -37q34 0 66 6.5t59.5 25t48.5 50.5t32 83zM313 528q-61 0 -106.5 -26t-75.5 -68t-45 -94.5t-15 -104.5q0 -94 45.5 -145
t129.5 -51q60 0 105.5 25t76 64.5t46 89.5t15.5 100q0 52 -13.5 91.5t-37.5 66t-56 39.5t-69 13z" />
    <glyph glyph-name="gdotaccent" unicode="&#x121;" horiz-adv-x="592" 
d="M459 141q-35 -57 -90.5 -89.5t-122.5 -32.5q-52 0 -89.5 16.5t-61.5 45.5t-35.5 68t-11.5 83q0 61 17.5 117.5t51 100.5t83 70.5t113.5 26.5q47 0 81 -15.5t57 -41t36 -60t18 -71.5l38 179h20l-115 -542q-11 -51 -31.5 -86t-49.5 -56.5t-66 -31.5t-80 -10
q-89 0 -138.5 41t-49.5 116h23q0 -63 38.5 -100t127.5 -37q34 0 66 6.5t59.5 25t48.5 50.5t32 83zM313 528q-61 0 -106.5 -26t-75.5 -68t-45 -94.5t-15 -104.5q0 -94 45.5 -145t129.5 -51q60 0 105.5 25t76 64.5t46 89.5t15.5 100q0 52 -13.5 91.5t-37.5 66t-56 39.5t-69 13
zM364 725l-21 -93h-20l20 93h21z" />
    <glyph glyph-name="hbar" unicode="&#x127;" horiz-adv-x="561" 
d="M182 629h145l-3 -20h-146l-44 -208q13 27 32.5 53t47 46.5t63.5 33.5t81 13q151 0 151 -137q0 -15 -2 -31.5t-6 -35.5l-73 -343h-20l71 334q9 40 9 73q0 66 -35 93.5t-98 27.5q-49 0 -89 -18t-71.5 -51.5t-53.5 -80.5t-34 -105l-58 -273h-20l129 609h-128l4 20h128l21 96
h20z" />
    <glyph glyph-name="hcircumflex" unicode="&#x125;" horiz-adv-x="561" 
d="M134 401q13 27 32.5 53t47 46.5t63.5 33.5t81 13q151 0 151 -137q0 -15 -2 -31.5t-6 -35.5l-73 -343h-20l71 334q9 40 9 73q0 66 -35 93.5t-98 27.5q-49 0 -89 -18t-71.5 -51.5t-53.5 -80.5t-34 -105l-58 -273h-20l154 725h20zM350 773h-24l-106 96l-148 -96h-28l167 113
h21z" />
    <glyph glyph-name="dotlessi" unicode="&#x131;" 
d="M160 538l-114 -538h-20l114 538h20z" />
    <glyph glyph-name="ibreve" unicode="&#x12d;" 
d="M321 725q-14 -60 -53.5 -94t-101.5 -34q-63 0 -90.5 33t-27.5 84v11h18v-3q0 -55 25 -80t75 -25q51 0 87 25.5t50 82.5h18zM160 538l-114 -538h-20l114 538h20z" />
    <glyph glyph-name="imacron" unicode="&#x12b;" 
d="M39 667h249l-3 -19h-249zM160 538l-114 -538h-20l114 538h20z" />
    <glyph glyph-name="iogonek" unicode="&#x12f;" 
d="M140 538h20l-114 -538q-18 -11 -35.5 -22.5t-32 -24t-25 -27t-14.5 -32.5q-1 -5 -1.5 -9t-0.5 -8q0 -27 17 -37.5t34 -10.5h12q5 0 11 1l-4 -17q-5 -1 -10 -1.5t-12 -0.5q-28 0 -48.5 15t-20.5 47v10q0 5 2 11q6 32 36 60t72 46zM200 725l-19 -92h-20l19 92h20z" />
    <glyph glyph-name="itilde" unicode="&#x129;" 
d="M98 705q26 0 45 -11t35.5 -23.5t32.5 -23.5t36 -11q26 0 46 16.5t28 52.5h21q-11 -47 -37 -67.5t-58 -20.5q-24 0 -42 10.5t-34.5 23.5t-34 23.5t-39.5 10.5q-26 0 -46 -17t-28 -51h-20q10 44 36.5 66t58.5 22zM160 538l-114 -538h-20l114 538h20z" />
    <glyph glyph-name="uni1ECB" unicode="&#x1ecb;" 
d="M200 725l-19 -92h-20l19 92h20zM160 538l-114 -538h-20l114 538h20zM29 -82l-20 -93h-20l20 93h20z" />
    <glyph glyph-name="uni0237" unicode="&#x237;" 
d="M140 538h20l-127 -598q-7 -32 -15.5 -54t-23.5 -35.5t-37.5 -19.5t-57.5 -6h-14l3 18h7q33 0 53.5 4.5t32.5 15.5t19 31t14 51z" />
    <glyph glyph-name="jcircumflex" unicode="&#x135;" 
d="M319 598h-24l-101 110l-154 -110h-27l171 127h22zM140 538h20l-127 -598q-7 -32 -15.5 -54t-23.5 -35.5t-37.5 -19.5t-57.5 -6h-14l3 18h7q33 0 53.5 4.5t32.5 15.5t19 31t14 51z" />
    <glyph glyph-name="uni0137" unicode="&#x137;" horiz-adv-x="465" 
d="M200 725l-105 -495l340 308h27l-239 -216l170 -322h-22l-163 308l-120 -108l-42 -200h-20l154 725h20zM206 -46l-11 -52q-5 -25 -10 -44.5t-12.5 -35t-19.5 -26.5t-31 -18l4 22q22 11 31 35.5t18 66.5l10 52h21z" />
    <glyph glyph-name="lacute" unicode="&#x13a;" 
d="M215 773h-28l159 113h29zM46 0h-20l154 725h20z" />
    <glyph glyph-name="lcaron" unicode="&#x13e;" horiz-adv-x="198" 
d="M238 555h-17l64 170h21zM46 0h-20l154 725h20z" />
    <glyph glyph-name="uni013C" unicode="&#x13c;" 
d="M38 -46l-11 -52q-5 -25 -10 -44.5t-12.5 -35t-19.5 -26.5t-31 -18l4 22q22 11 31 35.5t18 66.5l10 52h21zM46 0h-20l154 725h20z" />
    <glyph glyph-name="ldot" unicode="&#x140;" horiz-adv-x="259" 
d="M267 426l-21 -93h-20l20 93h21zM46 0h-20l154 725h20z" />
    <glyph glyph-name="lslash" unicode="&#x142;" 
d="M133 411l87 67l-5 -27l-88 -68l-81 -383h-20l77 365l-81 -63l5 28l82 63l71 332h20z" />
    <glyph glyph-name="nacute" unicode="&#x144;" horiz-adv-x="558" 
d="M366 598h-28l157 127h28zM160 538l-29 -137q13 27 32.5 53t47 46.5t63.5 33.5t81 13q151 0 151 -137q0 -15 -2 -31.5t-6 -35.5l-73 -343h-20l71 334q9 40 9 73q0 66 -35 93.5t-98 27.5q-49 0 -89 -18t-71.5 -51.5t-53.5 -80.5t-34 -105l-58 -273h-20l114 538h20z" />
    <glyph glyph-name="ncaron" unicode="&#x148;" horiz-adv-x="558" 
d="M246 725h24l101 -110l154 110h27l-171 -127h-22zM160 538l-29 -137q13 27 32.5 53t47 46.5t63.5 33.5t81 13q151 0 151 -137q0 -15 -2 -31.5t-6 -35.5l-73 -343h-20l71 334q9 40 9 73q0 66 -35 93.5t-98 27.5q-49 0 -89 -18t-71.5 -51.5t-53.5 -80.5t-34 -105l-58 -273
h-20l114 538h20z" />
    <glyph glyph-name="uni0146" unicode="&#x146;" horiz-adv-x="558" 
d="M235 -46l-11 -52q-5 -25 -10 -44.5t-12.5 -35t-19.5 -26.5t-31 -18l4 22q22 11 31 35.5t18 66.5l10 52h21zM160 538l-29 -137q13 27 32.5 53t47 46.5t63.5 33.5t81 13q151 0 151 -137q0 -15 -2 -31.5t-6 -35.5l-73 -343h-20l71 334q9 40 9 73q0 66 -35 93.5t-98 27.5
q-49 0 -89 -18t-71.5 -51.5t-53.5 -80.5t-34 -105l-58 -273h-20l114 538h20z" />
    <glyph glyph-name="oe" unicode="&#x153;" horiz-adv-x="1031" 
d="M968 158q-10 -36 -32 -67t-53 -54.5t-71 -36.5t-86 -13q-42 0 -79.5 12t-66 36t-47.5 60t-25 83q-14 -39 -35.5 -74t-52 -61t-69 -41t-86.5 -15q-46 0 -84.5 14.5t-67 44t-44.5 72.5t-16 100q0 63 18 122.5t52 105t84 73.5t115 28q84 0 140 -48t67 -143q14 41 37 76
t54 60.5t70.5 40t87.5 14.5q52 0 91 -18.5t65.5 -50t39.5 -74t13 -91.5q0 -9 -0.5 -18.5t-1.5 -19.5h-455q-3 -27 -3 -55q0 -54 15.5 -94t42.5 -66.5t63 -40t78 -13.5q41 0 77 11.5t64.5 32t49 48t30.5 60.5h21zM268 6q57 0 102 26t76.5 69.5t48 98.5t16.5 114
q0 103 -52 158t-140 55q-58 0 -103.5 -26.5t-76.5 -70t-47 -98.5t-16 -112q0 -54 14.5 -94t40 -66.5t60.5 -40t77 -13.5zM774 527q-50 0 -90.5 -19t-71.5 -51t-51 -74.5t-28 -88.5h430q1 7 1 13v12q0 45 -12.5 83t-36.5 66t-59.5 43.5t-81.5 15.5z" />
    <glyph glyph-name="obreve" unicode="&#x14f;" horiz-adv-x="587" 
d="M337 547q43 0 80 -13.5t64 -40t42 -65.5t15 -91q0 -60 -18.5 -122.5t-55 -113t-90.5 -82.5t-124 -32q-44 0 -80.5 13.5t-63.5 40t-42 65.5t-15 91q0 60 18.5 122.5t55 113t90 82.5t124.5 32zM334 528q-61 0 -109.5 -29.5t-82 -76t-51.5 -104t-18 -114.5q0 -99 50 -148.5
t130 -49.5q61 0 109 29.5t82 76t52 104t18 114.5q0 99 -50 148.5t-130 49.5zM527 725q-14 -60 -53.5 -94t-101.5 -34q-63 0 -90.5 33t-27.5 84v11h18v-3q0 -55 25 -80t75 -25q51 0 87 25.5t50 82.5h18z" />
    <glyph glyph-name="ohungarumlaut" unicode="&#x151;" horiz-adv-x="587" 
d="M276 598h-27l157 127h28zM446 598h-27l157 127h28zM337 547q43 0 80 -13.5t64 -40t42 -65.5t15 -91q0 -60 -18.5 -122.5t-55 -113t-90.5 -82.5t-124 -32q-44 0 -80.5 13.5t-63.5 40t-42 65.5t-15 91q0 60 18.5 122.5t55 113t90 82.5t124.5 32zM334 528
q-61 0 -109.5 -29.5t-82 -76t-51.5 -104t-18 -114.5q0 -99 50 -148.5t130 -49.5q61 0 109 29.5t82 76t52 104t18 114.5q0 99 -50 148.5t-130 49.5z" />
    <glyph glyph-name="omacron" unicode="&#x14d;" horiz-adv-x="587" 
d="M337 547q43 0 80 -13.5t64 -40t42 -65.5t15 -91q0 -60 -18.5 -122.5t-55 -113t-90.5 -82.5t-124 -32q-44 0 -80.5 13.5t-63.5 40t-42 65.5t-15 91q0 60 18.5 122.5t55 113t90 82.5t124.5 32zM334 528q-61 0 -109.5 -29.5t-82 -76t-51.5 -104t-18 -114.5q0 -99 50 -148.5
t130 -49.5q61 0 109 29.5t82 76t52 104t18 114.5q0 99 -50 148.5t-130 49.5zM261 667h249l-3 -19h-249z" />
    <glyph glyph-name="uni1ECD" unicode="&#x1ecd;" horiz-adv-x="587" 
d="M337 547q43 0 80 -13.5t64 -40t42 -65.5t15 -91q0 -60 -18.5 -122.5t-55 -113t-90.5 -82.5t-124 -32q-44 0 -80.5 13.5t-63.5 40t-42 65.5t-15 91q0 60 18.5 122.5t55 113t90 82.5t124.5 32zM334 528q-61 0 -109.5 -29.5t-82 -76t-51.5 -104t-18 -114.5q0 -99 50 -148.5
t130 -49.5q61 0 109 29.5t82 76t52 104t18 114.5q0 99 -50 148.5t-130 49.5zM218 -82l-20 -93h-20l20 93h20z" />
    <glyph glyph-name="racute" unicode="&#x155;" horiz-adv-x="322" 
d="M336 520h-9q-44 0 -80 -18t-63.5 -50.5t-47.5 -78t-32 -101.5l-58 -272h-20l114 538h18l-32 -151q34 80 89.5 117t124.5 37zM255 598h-28l157 127h28z" />
    <glyph glyph-name="rcaron" unicode="&#x159;" horiz-adv-x="322" 
d="M110 725h24l101 -110l154 110h27l-171 -127h-22zM336 520h-9q-44 0 -80 -18t-63.5 -50.5t-47.5 -78t-32 -101.5l-58 -272h-20l114 538h18l-32 -151q34 80 89.5 117t124.5 37z" />
    <glyph glyph-name="uni0157" unicode="&#x157;" horiz-adv-x="322" 
d="M44 -46l-11 -52q-5 -25 -10 -44.5t-12.5 -35t-19.5 -26.5t-31 -18l4 22q22 11 31 35.5t18 66.5l10 52h21zM336 520h-9q-44 0 -80 -18t-63.5 -50.5t-47.5 -78t-32 -101.5l-58 -272h-20l114 538h18l-32 -151q34 80 89.5 117t124.5 37z" />
    <glyph glyph-name="sacute" unicode="&#x15b;" horiz-adv-x="498" 
d="M437 387q-7 74 -56.5 107.5t-126.5 33.5q-26 0 -54.5 -6t-52 -19.5t-39 -35t-15.5 -53.5q0 -45 26 -69.5t76 -38.5l79 -23q34 -9 62 -21.5t48.5 -29t32 -38.5t11.5 -52q0 -39 -16 -68.5t-43 -48.5t-63 -28.5t-76 -9.5q-43 0 -81 10.5t-67.5 33t-47.5 58t-21 84.5h23
q5 -87 58 -127t137 -40q31 0 62.5 7t56.5 23t40.5 41.5t15.5 62.5q0 27 -10 46t-28 33.5t-43 24.5t-55 19l-79 22q-62 18 -91.5 47.5t-29.5 79.5q0 34 16 59t42 42t59 25.5t68 8.5q40 0 76 -9t63.5 -28.5t44.5 -50t19 -72.5h-21zM277 598h-28l157 127h28z" />
    <glyph glyph-name="scaron" unicode="&#x161;" horiz-adv-x="498" 
d="M437 387q-7 74 -56.5 107.5t-126.5 33.5q-26 0 -54.5 -6t-52 -19.5t-39 -35t-15.5 -53.5q0 -45 26 -69.5t76 -38.5l79 -23q34 -9 62 -21.5t48.5 -29t32 -38.5t11.5 -52q0 -39 -16 -68.5t-43 -48.5t-63 -28.5t-76 -9.5q-43 0 -81 10.5t-67.5 33t-47.5 58t-21 84.5h23
q5 -87 58 -127t137 -40q31 0 62.5 7t56.5 23t40.5 41.5t15.5 62.5q0 27 -10 46t-28 33.5t-43 24.5t-55 19l-79 22q-62 18 -91.5 47.5t-29.5 79.5q0 34 16 59t42 42t59 25.5t68 8.5q40 0 76 -9t63.5 -28.5t44.5 -50t19 -72.5h-21zM149 725h24l101 -110l154 110h27l-171 -127
h-22z" />
    <glyph glyph-name="scedilla" unicode="&#x15f;" horiz-adv-x="498" 
d="M437 387q-7 74 -56.5 107.5t-126.5 33.5q-26 0 -54.5 -6t-52 -19.5t-39 -35t-15.5 -53.5q0 -45 26 -69.5t76 -38.5l79 -23q34 -9 62 -21.5t48.5 -29t32 -38.5t11.5 -52q0 -39 -16 -68.5t-43 -48.5t-63 -28.5t-76 -9.5q-43 0 -81 10.5t-67.5 33t-47.5 58t-21 84.5h23
q5 -87 58 -127t137 -40q31 0 62.5 7t56.5 23t40.5 41.5t15.5 62.5q0 27 -10 46t-28 33.5t-43 24.5t-55 19l-79 22q-62 18 -91.5 47.5t-29.5 79.5q0 34 16 59t42 42t59 25.5t68 8.5q40 0 76 -9t63.5 -28.5t44.5 -50t19 -72.5h-21zM228 0h21l-48 -59q15 3 28 3q26 0 46 -13
t20 -45q0 -21 -9 -35t-23 -23t-32 -13t-37 -4q-18 0 -36 3t-32 10l8 19q24 -13 62 -13q14 0 28 3t24.5 9.5t17 17t6.5 26.5q0 20 -14 30.5t-34 10.5q-25 0 -45 -11l-9 13z" />
    <glyph glyph-name="scircumflex" unicode="&#x15d;" horiz-adv-x="498" 
d="M437 387q-7 74 -56.5 107.5t-126.5 33.5q-26 0 -54.5 -6t-52 -19.5t-39 -35t-15.5 -53.5q0 -45 26 -69.5t76 -38.5l79 -23q34 -9 62 -21.5t48.5 -29t32 -38.5t11.5 -52q0 -39 -16 -68.5t-43 -48.5t-63 -28.5t-76 -9.5q-43 0 -81 10.5t-67.5 33t-47.5 58t-21 84.5h23
q5 -87 58 -127t137 -40q31 0 62.5 7t56.5 23t40.5 41.5t15.5 62.5q0 27 -10 46t-28 33.5t-43 24.5t-55 19l-79 22q-62 18 -91.5 47.5t-29.5 79.5q0 34 16 59t42 42t59 25.5t68 8.5q40 0 76 -9t63.5 -28.5t44.5 -50t19 -72.5h-21zM418 598h-24l-101 110l-154 -110h-27
l171 127h22z" />
    <glyph glyph-name="uni0219" unicode="&#x219;" horiz-adv-x="498" 
d="M437 387q-7 74 -56.5 107.5t-126.5 33.5q-26 0 -54.5 -6t-52 -19.5t-39 -35t-15.5 -53.5q0 -45 26 -69.5t76 -38.5l79 -23q34 -9 62 -21.5t48.5 -29t32 -38.5t11.5 -52q0 -39 -16 -68.5t-43 -48.5t-63 -28.5t-76 -9.5q-43 0 -81 10.5t-67.5 33t-47.5 58t-21 84.5h23
q5 -87 58 -127t137 -40q31 0 62.5 7t56.5 23t40.5 41.5t15.5 62.5q0 27 -10 46t-28 33.5t-43 24.5t-55 19l-79 22q-62 18 -91.5 47.5t-29.5 79.5q0 34 16 59t42 42t59 25.5t68 8.5q40 0 76 -9t63.5 -28.5t44.5 -50t19 -72.5h-21zM239 -46l-11 -52q-5 -25 -10 -44.5
t-12.5 -35t-19.5 -26.5t-31 -18l4 22q22 11 31 35.5t18 66.5l10 52h21z" />
    <glyph glyph-name="tcaron" unicode="&#x165;" horiz-adv-x="299" 
d="M334 575h-17l65 150h20zM211 670h21l-28 -132h116l-4 -18h-116l-83 -388q-5 -23 -8 -40t-3 -30q0 -26 17.5 -35t65.5 -9h20l-4 -18h-28q-51 0 -72 11t-21 45q0 11 2.5 26t6.5 34l86 404h-98l4 18h98z" />
    <glyph glyph-name="uni0163" unicode="&#x163;" horiz-adv-x="299" 
d="M79 -46l-11 -52q-5 -25 -10 -44.5t-12.5 -35t-19.5 -26.5t-31 -18l4 22q22 11 31 35.5t18 66.5l10 52h21zM211 670h21l-28 -132h116l-4 -18h-116l-83 -388q-5 -23 -8 -40t-3 -30q0 -26 17.5 -35t65.5 -9h20l-4 -18h-28q-51 0 -72 11t-21 45q0 11 2.5 26t6.5 34l86 404
h-98l4 18h98z" />
    <glyph glyph-name="uni021B" unicode="&#x21b;" horiz-adv-x="299" 
d="M79 -46l-11 -52q-5 -25 -10 -44.5t-12.5 -35t-19.5 -26.5t-31 -18l4 22q22 11 31 35.5t18 66.5l10 52h21zM211 670h21l-28 -132h116l-4 -18h-116l-83 -388q-5 -23 -8 -40t-3 -30q0 -26 17.5 -35t65.5 -9h20l-4 -18h-28q-51 0 -72 11t-21 45q0 11 2.5 26t6.5 34l86 404
h-98l4 18h98z" />
    <glyph glyph-name="ubreve" unicode="&#x16d;" horiz-adv-x="550" 
d="M415 132q-13 -27 -31.5 -53t-44.5 -46.5t-60.5 -33t-80.5 -12.5q-147 0 -147 134q0 29 8 69l74 348h20l-71 -338q-9 -44 -9 -76q0 -64 33 -91t96 -27q49 0 87.5 18t68.5 51t50.5 80t33.5 105l59 278h20l-114 -538h-20zM487 725q-14 -60 -53.5 -94t-101.5 -34
q-63 0 -90.5 33t-27.5 84v11h18v-3q0 -55 25 -80t75 -25q51 0 87 25.5t50 82.5h18z" />
    <glyph glyph-name="uhungarumlaut" unicode="&#x171;" horiz-adv-x="535" 
d="M234 598h-27l157 127h28zM404 598h-27l157 127h28zM415 132q-13 -27 -31.5 -53t-44.5 -46.5t-60.5 -33t-80.5 -12.5q-147 0 -147 134q0 29 8 69l74 348h20l-71 -338q-9 -44 -9 -76q0 -64 33 -91t96 -27q49 0 87.5 18t68.5 51t50.5 80t33.5 105l59 278h20l-114 -538h-20z
" />
    <glyph glyph-name="umacron" unicode="&#x16b;" horiz-adv-x="550" 
d="M415 132q-13 -27 -31.5 -53t-44.5 -46.5t-60.5 -33t-80.5 -12.5q-147 0 -147 134q0 29 8 69l74 348h20l-71 -338q-9 -44 -9 -76q0 -64 33 -91t96 -27q49 0 87.5 18t68.5 51t50.5 80t33.5 105l59 278h20l-114 -538h-20zM210 667h249l-3 -19h-249z" />
    <glyph glyph-name="uogonek" unicode="&#x173;" horiz-adv-x="550" 
d="M415 132q-13 -27 -31.5 -53t-44.5 -46.5t-60.5 -33t-80.5 -12.5q-147 0 -147 134q0 29 8 69l74 348h20l-71 -338q-9 -44 -9 -76q0 -64 33 -91t96 -27q49 0 87.5 18t68.5 51t50.5 80t33.5 105l59 278h20l-114 -538h-20zM392 0q-18 -11 -35.5 -22.5t-32 -24t-25 -27
t-14.5 -32.5q-1 -5 -1.5 -9t-0.5 -8q0 -27 17 -37.5t34 -10.5h11q6 0 12 1l-4 -17q-5 -1 -10 -1.5t-12 -0.5q-28 0 -48.5 15t-20.5 47v10q0 5 2 11q6 32 36 60t72 46h20z" />
    <glyph glyph-name="uring" unicode="&#x16f;" horiz-adv-x="550" 
d="M415 132q-13 -27 -31.5 -53t-44.5 -46.5t-60.5 -33t-80.5 -12.5q-147 0 -147 134q0 29 8 69l74 348h20l-71 -338q-9 -44 -9 -76q0 -64 33 -91t96 -27q49 0 87.5 18t68.5 51t50.5 80t33.5 105l59 278h20l-114 -538h-20zM251 680q0 35 24.5 57.5t59.5 22.5t59.5 -22.5
t24.5 -57.5t-24.5 -57.5t-59.5 -22.5t-59.5 22.5t-24.5 57.5zM398 680q0 30 -19 46t-44 16t-44.5 -16t-19.5 -46t19.5 -46t44.5 -16t44 16t19 46z" />
    <glyph glyph-name="utilde" unicode="&#x169;" horiz-adv-x="550" 
d="M415 132q-13 -27 -31.5 -53t-44.5 -46.5t-60.5 -33t-80.5 -12.5q-147 0 -147 134q0 29 8 69l74 348h20l-71 -338q-9 -44 -9 -76q0 -64 33 -91t96 -27q49 0 87.5 18t68.5 51t50.5 80t33.5 105l59 278h20l-114 -538h-20zM264 705q26 0 45 -11t35.5 -23.5t32.5 -23.5t36 -11
q26 0 46 16.5t28 52.5h21q-11 -47 -37 -67.5t-58 -20.5q-24 0 -42 10.5t-34.5 23.5t-34 23.5t-39.5 10.5q-26 0 -46 -17t-28 -51h-20q10 44 36.5 66t58.5 22z" />
    <glyph glyph-name="uni1EE5" unicode="&#x1ee5;" horiz-adv-x="550" 
d="M415 132q-13 -27 -31.5 -53t-44.5 -46.5t-60.5 -33t-80.5 -12.5q-147 0 -147 134q0 29 8 69l74 348h20l-71 -338q-9 -44 -9 -76q0 -64 33 -91t96 -27q49 0 87.5 18t68.5 51t50.5 80t33.5 105l59 278h20l-114 -538h-20zM167 -82l-20 -93h-20l20 93h20z" />
    <glyph glyph-name="wacute" unicode="&#x1e83;" horiz-adv-x="717" 
d="M402 538h24l55 -510l268 510h25l-288 -538h-21l-56 509l-269 -509h-22l-61 538h22l54 -510zM428 598h-28l157 127h28z" />
    <glyph glyph-name="wcircumflex" unicode="&#x175;" horiz-adv-x="717" 
d="M402 538h24l55 -510l268 510h25l-288 -538h-21l-56 509l-269 -509h-22l-61 538h22l54 -510zM565 598h-24l-101 110l-154 -110h-27l171 127h22z" />
    <glyph glyph-name="wdieresis" unicode="&#x1e85;" horiz-adv-x="717" 
d="M402 538h24l55 -510l268 510h25l-288 -538h-21l-56 509l-269 -509h-22l-61 538h22l54 -510zM328 725l-21 -93h-20l20 93h21zM561 725l-20 -93h-21l21 93h20z" />
    <glyph glyph-name="wgrave" unicode="&#x1e81;" horiz-adv-x="717" 
d="M402 538h24l55 -510l268 510h25l-288 -538h-21l-56 509l-269 -509h-22l-61 538h22l54 -510zM301 725h26l99 -127h-23z" />
    <glyph glyph-name="ycircumflex" unicode="&#x177;" horiz-adv-x="456" 
d="M489 538h24l-361 -591q-23 -37 -40 -60.5t-34.5 -37t-38.5 -19t-52 -5.5h-17l2 18h21q22 0 37.5 2.5t30 13t30.5 31.5t39 57l34 55l-107 536h23l99 -511zM456 598h-24l-101 110l-154 -110h-27l171 127h22z" />
    <glyph glyph-name="ygrave" unicode="&#x1ef3;" horiz-adv-x="456" 
d="M489 538h24l-361 -591q-23 -37 -40 -60.5t-34.5 -37t-38.5 -19t-52 -5.5h-17l2 18h21q22 0 37.5 2.5t30 13t30.5 31.5t39 57l34 55l-107 536h23l99 -511zM210 725h26l99 -127h-23z" />
    <glyph glyph-name="uni0233" unicode="&#x233;" horiz-adv-x="456" 
d="M489 538h24l-361 -591q-23 -37 -40 -60.5t-34.5 -37t-38.5 -19t-52 -5.5h-17l2 18h21q22 0 37.5 2.5t30 13t30.5 31.5t39 57l34 55l-107 536h23l99 -511zM188 667h249l-3 -19h-249z" />
    <glyph glyph-name="zacute" unicode="&#x17a;" horiz-adv-x="463" 
d="M-21 17l468 502h-342l4 19h372l-5 -17l-468 -502h369l-4 -19h-398zM342 598h-28l157 127h28z" />
    <glyph glyph-name="zcaron" unicode="&#x17e;" horiz-adv-x="463" 
d="M-21 17l468 502h-342l4 19h372l-5 -17l-468 -502h369l-4 -19h-398zM201 725h24l101 -110l154 110h27l-171 -127h-22z" />
    <glyph glyph-name="zdotaccent" unicode="&#x17c;" horiz-adv-x="463" 
d="M-21 17l468 502h-342l4 19h372l-5 -17l-468 -502h369l-4 -19h-398zM365 725l-21 -93h-20l20 93h21z" />
    <glyph glyph-name="ellipsis" unicode="&#x2026;" horiz-adv-x="663" 
d="M43 0l20 94h21l-21 -94h-20zM485 0l20 94h21l-21 -94h-20zM264 0l20 94h21l-21 -94h-20z" />
    <glyph glyph-name="endash" unicode="&#x2013;" horiz-adv-x="526" 
d="M46 260l3 20h423l-3 -20h-423z" />
    <glyph glyph-name="emdash" unicode="&#x2014;" horiz-adv-x="762" 
d="M46 260l3 20h659l-3 -20h-659z" />
    <glyph glyph-name="guilsinglleft" unicode="&#x2039;" horiz-adv-x="226" 
d="M16 284l202 224h24l-203 -225l106 -222h-20z" />
    <glyph glyph-name="guilsinglright" unicode="&#x203a;" horiz-adv-x="226" 
d="M0 61h-24l203 225l-106 222h20l109 -223z" />
    <glyph glyph-name="quoteleft" unicode="&#x2018;" horiz-adv-x="221" 
d="M148 496l20 95q8 36 14 60t13.5 39.5t18.5 23.5t29 11l-5 -21q-9 -3 -15.5 -9t-11.5 -19t-10 -33.5t-12 -51.5l-21 -95h-20z" />
    <glyph glyph-name="quoteright" unicode="&#x2019;" horiz-adv-x="221" 
d="M218 725l-21 -95q-8 -36 -13.5 -60.5t-13 -40t-18.5 -23.5t-29 -11l4 22q10 3 16.5 9t11.5 18.5t10 33t12 52.5l20 95h21z" />
    <glyph glyph-name="quotedblleft" unicode="&#x201c;" horiz-adv-x="339" 
d="M148 496l20 95q8 36 14 60t13.5 39.5t18.5 23.5t29 11l-5 -21q-9 -3 -15.5 -9t-11.5 -19t-10 -33.5t-12 -51.5l-21 -95h-20zM266 496l20 95q8 36 14 60t13.5 39.5t18.5 23.5t29 11l-5 -21q-9 -3 -15.5 -9t-11.5 -19t-10 -33.5t-12 -51.5l-21 -95h-20z" />
    <glyph glyph-name="quotedblright" unicode="&#x201d;" horiz-adv-x="339" 
d="M336 725l-21 -95q-8 -36 -13.5 -60.5t-13 -40t-18.5 -23.5t-29 -11l4 22q10 3 16.5 9t11.5 18.5t10 33t12 52.5l20 95h21zM218 725l-21 -95q-8 -36 -13.5 -60.5t-13 -40t-18.5 -23.5t-29 -11l4 22q10 3 16.5 9t11.5 18.5t10 33t12 52.5l20 95h21z" />
    <glyph glyph-name="quotesinglbase" unicode="&#x201a;" horiz-adv-x="221" 
d="M84 94l-21 -95q-8 -36 -13.5 -60.5t-13 -40t-18.5 -23.5t-29 -11l4 22q10 3 16.5 9t11.5 18.5t10 33t12 52.5l20 95h21z" />
    <glyph glyph-name="quotedblbase" unicode="&#x201e;" horiz-adv-x="339" 
d="M202 94l-21 -95q-8 -36 -13.5 -60.5t-13 -40t-18.5 -23.5t-29 -11l4 22q10 3 16.5 9t11.5 18.5t10 33t12 52.5l20 95h21zM84 94l-21 -95q-8 -36 -13.5 -60.5t-13 -40t-18.5 -23.5t-29 -11l4 22q10 3 16.5 9t11.5 18.5t10 33t12 52.5l20 95h21z" />
    <glyph glyph-name="bullet" unicode="&#x2022;" horiz-adv-x="440" 
d="M212 96q-36 0 -68 14t-56 38.5t-38 58t-14 72.5q0 37 14 69t38 56t56 38t68 14q39 0 73 -14t58.5 -38t38.5 -56t14 -69q0 -39 -14 -72.5t-38.5 -58t-58.5 -38.5t-73 -14z" />
    <glyph glyph-name="minus" unicode="&#x2212;" horiz-adv-x="678" 
d="M71 260v20h537v-20h-537z" />
    <glyph glyph-name="Euro" unicode="&#x20ac;" horiz-adv-x="753" 
d="M31 452h126q14 56 39 108t62.5 91.5t89 63t118.5 23.5q54 0 100.5 -14.5t82.5 -44.5t59 -75.5t28 -107.5h-23q-4 52 -23 93.5t-51 70t-76 44t-98 15.5q-60 0 -107 -21.5t-82 -58t-59 -85t-37 -102.5h324l-19 -19h-310q-14 -70 -14 -137v-4h215l-19 -20h-196
q3 -60 19 -109t47 -84t77.5 -54t108.5 -19q97 0 162.5 49.5t97.5 137.5h21q-32 -99 -106 -152.5t-175 -53.5q-125 0 -196.5 73t-77.5 212h-126l18 20h108v4q0 33 3 67.5t11 69.5h-140z" />
    <glyph glyph-name="uniFB01" unicode="&#xfb01;" horiz-adv-x="461" 
d="M471 725l-19 -92h-20l19 92h20zM171 610q7 32 16 54t24.5 35.5t38.5 19.5t58 6h25l-4 -18h-10q-36 0 -57.5 -4t-35 -15t-21 -31t-14.5 -52l-15 -67h116l-4 -18h-116l-111 -520h-20l111 520h-81l3 18h81zM431 538l-114 -538h-20l114 538h20z" />
    <glyph glyph-name="uniFB02" unicode="&#xfb02;" horiz-adv-x="461" 
d="M171 610q7 32 16 54t24.5 35.5t38.5 19.5t58 6h25l-4 -18h-10q-36 0 -57.5 -4t-35 -15t-21 -31t-14.5 -52l-15 -67h116l-4 -18h-116l-111 -520h-20l111 520h-81l3 18h81zM317 0h-20l154 725h20z" />
    <glyph glyph-name="breve" unicode="&#x2d8;" horiz-adv-x="333" 
d="M312 725q-14 -60 -53.5 -94t-101.5 -34q-63 0 -90.5 33t-27.5 84v11h18v-3q0 -55 25 -80t75 -25q51 0 87 25.5t50 82.5h18z" />
    <glyph glyph-name="caron" unicode="&#x2c7;" horiz-adv-x="366" 
d="M39 725h24l101 -110l154 110h27l-171 -127h-22z" />
    <glyph glyph-name="circumflex" unicode="&#x2c6;" horiz-adv-x="366" 
d="M318 598h-24l-101 110l-154 -110h-27l171 127h22z" />
    <glyph glyph-name="dotaccent" unicode="&#x2d9;" horiz-adv-x="62" 
d="M47 725l-21 -93h-20l20 93h21z" />
    <glyph glyph-name="glyph332" 
d="M200 725l-19 -92h-20l19 92h20z" />
    <glyph glyph-name="glyph333" horiz-adv-x="65" 
d="M21 -82l-20 -93h-20l20 93h20z" />
    <glyph glyph-name="hungarumlaut" unicode="&#x2dd;" horiz-adv-x="368" 
d="M29 598h-27l157 127h28zM199 598h-27l157 127h28z" />
    <glyph glyph-name="glyph335" horiz-adv-x="109" 
d="M92 -46l-11 -52q-5 -25 -10 -44.5t-12.5 -35t-19.5 -26.5t-31 -18l4 22q22 11 31 35.5t18 66.5l10 52h21z" />
    <glyph glyph-name="ogonek" unicode="&#x2db;" horiz-adv-x="150" 
d="M124 0q-18 -11 -35.5 -22.5t-32 -24t-25 -27t-14.5 -32.5q-1 -5 -1.5 -9t-0.5 -8q0 -27 17 -37.5t34 -10.5h11q6 0 12 1l-4 -17q-5 -1 -10 -1.5t-12 -0.5q-28 0 -48.5 15t-20.5 47v10q0 5 2 11q6 32 36 60t72 46h20z" />
    <glyph glyph-name="ring" unicode="&#x2da;" horiz-adv-x="279" 
d="M42 680q0 35 24.5 57.5t59.5 22.5t59.5 -22.5t24.5 -57.5t-24.5 -57.5t-59.5 -22.5t-59.5 22.5t-24.5 57.5zM189 680q0 30 -19 46t-44 16t-44.5 -16t-19.5 -46t19.5 -46t44.5 -16t44 16t19 46z" />
    <glyph glyph-name="tilde" unicode="&#x2dc;" horiz-adv-x="362" 
d="M102 705q26 0 45 -11t35.5 -23.5t32.5 -23.5t36 -11q26 0 46 16.5t28 52.5h21q-11 -47 -37 -67.5t-58 -20.5q-24 0 -42 10.5t-34.5 23.5t-34 23.5t-39.5 10.5q-26 0 -46 -17t-28 -51h-20q10 44 36.5 66t58.5 22z" />
    <glyph glyph-name="glyph339" horiz-adv-x="98" 
d="M19 555h-17l64 170h21z" />
    <glyph glyph-name="glyph340" horiz-adv-x="205" 
d="M32 773h-28l159 113h29z" />
    <glyph glyph-name="glyph341" horiz-adv-x="333" 
d="M312 886q-7 -35 -23 -57.5t-37.5 -35.5t-46 -18.5t-48.5 -5.5q-53 0 -85.5 26t-32.5 88v3h18v-2q0 -32 9 -50.5t23.5 -29t32.5 -13.5t35 -3q18 0 38.5 3t40 13.5t35.5 30t23 51.5h18z" />
    <glyph glyph-name="glyph342" horiz-adv-x="346" 
d="M27 886h24l105 -96l149 96h28l-167 -113h-22z" />
    <glyph glyph-name="glyph343" horiz-adv-x="197" 
d="M104 0h21l-48 -59q15 3 28 3q26 0 46 -13t20 -45q0 -21 -9 -35t-23 -23t-32 -13t-37 -4q-18 0 -36 3t-32 10l8 19q24 -13 62 -13q14 0 28 3t24.5 9.5t17 17t6.5 26.5q0 20 -14 30.5t-34 10.5q-25 0 -45 -11l-9 13z" />
    <glyph glyph-name="glyph344" horiz-adv-x="346" 
d="M310 773h-24l-106 96l-148 -96h-28l167 113h21z" />
    <glyph glyph-name="glyph345" horiz-adv-x="295" 
d="M47 876l-21 -92h-20l20 92h21zM280 876l-20 -92h-21l21 92h20z" />
    <glyph glyph-name="glyph346" horiz-adv-x="62" 
d="M47 876l-21 -92h-20l20 92h21z" />
    <glyph glyph-name="glyph347" horiz-adv-x="202" 
d="M28 886h28l110 -113h-24z" />
    <glyph glyph-name="glyph348" horiz-adv-x="388" 
d="M32 773h-28l159 113h29zM215 773h-28l159 113h29z" />
    <glyph glyph-name="glyph349" horiz-adv-x="289" 
d="M14 821l3 20h249l-3 -20h-249z" />
    <glyph glyph-name="glyph350" horiz-adv-x="140" 
d="M124 0q-21 -13 -40.5 -26.5t-35 -28.5t-24.5 -32t-9 -36q0 -27 17 -37.5t34 -10.5h11q6 0 12 1l-4 -17q-5 -1 -10 -1.5t-12 -0.5q-27 0 -48 15t-21 47q0 45 30 75t80 52h20z" />
    <glyph glyph-name="glyph351" horiz-adv-x="208" 
d="M102 913q-25 0 -44.5 -16.5t-19.5 -46.5q0 -29 19.5 -45.5t44.5 -16.5t44 16.5t19 45.5q0 30 -19 46.5t-44 16.5zM102 930q35 0 59.5 -22.5t24.5 -57.5t-24.5 -57t-59.5 -22t-59.5 22t-24.5 57t24.5 57.5t59.5 22.5z" />
    <glyph glyph-name="glyph352" horiz-adv-x="362" 
d="M102 874q26 0 45 -11t35.5 -23.5t32.5 -23.5t36 -11q26 0 46 17t28 52h21q-11 -46 -37 -67t-58 -21q-24 0 -42 11t-34.5 23.5t-34 23.5t-39.5 11q-26 0 -46 -17.5t-28 -51.5h-20q10 44 36.5 66t58.5 22z" />
    </font>
</defs>
</svg>
