<svg version="1.0" xmlns="http://www.w3.org/2000/svg"
 width="700.000000pt" height="700.000000pt" viewBox="0 0 700.000000 700.000000"
 preserveAspectRatio="xMidYMid meet">
    <style type="text/css">
        .st0 { fill: #EEEEE1; }
    </style>
<g transform="translate(0.000000,700.000000) scale(0.100000,-0.100000)" class="st0">
<path d="M6294 6752 c-482 -244 -1038 -503 -1448 -673 -67 -28 -134 -57 -151
-64 -416 -177 -1010 -403 -1545 -586 -225 -78 -322 -110 -335 -113 -5 -1 -68
-21 -140 -45 -357 -116 -466 -148 -965 -286 -151 -41 -284 -77 -295 -80 -11
-2 -108 -26 -216 -54 -164 -41 -531 -127 -669 -157 -19 -4 -38 -9 -42 -10 -5
-1 -17 -2 -28 -3 -20 -1 -20 -8 -20 -2341 l0 -2340 3055 0 3055 0 0 775 0 775
-2992 0 c-1645 0 -2989 2 -2987 4 7 7 54 14 144 21 44 3 91 8 105 10 14 2 57
7 95 10 70 6 100 9 208 20 33 4 80 8 105 11 26 2 63 6 82 9 19 3 60 8 90 10
30 3 71 7 90 9 19 3 58 8 85 11 141 15 234 25 270 30 47 6 195 24 245 30 19 2
71 9 115 15 44 5 103 12 130 15 28 3 75 9 105 15 30 5 84 12 120 15 36 4 67 8
70 10 3 2 32 6 65 9 33 4 87 11 120 16 33 5 76 11 95 14 19 3 85 12 145 21 61
9 126 19 145 21 19 3 46 7 60 9 14 3 43 7 65 10 22 3 65 10 95 15 30 5 73 12
95 15 22 3 51 8 65 10 39 7 211 34 255 40 22 4 47 8 55 10 8 2 35 7 60 10 25
3 68 10 95 15 66 12 97 18 175 30 78 13 107 18 140 25 14 2 39 7 55 10 17 3
93 16 170 30 77 14 154 28 170 30 17 3 41 8 55 10 14 3 36 7 50 10 14 3 50 10
80 16 30 6 69 13 85 16 17 2 109 20 205 40 96 19 186 37 200 39 14 3 102 21
195 40 94 20 181 37 195 40 14 2 36 7 50 10 14 3 36 8 50 11 14 2 45 9 70 14
76 18 84 19 132 29 26 5 107 23 180 39 138 32 174 39 221 48 l27 5 0 795 c0
437 -4 792 -8 789 -5 -3 -24 -8 -43 -11 -19 -3 -70 -15 -114 -25 -152 -37
-327 -76 -380 -86 -16 -3 -75 -16 -130 -29 -55 -13 -113 -25 -130 -28 -16 -3
-95 -19 -175 -37 -129 -28 -187 -40 -270 -56 -14 -3 -113 -23 -220 -44 -107
-22 -211 -42 -230 -45 -19 -3 -53 -10 -75 -15 -22 -5 -56 -12 -75 -15 -19 -4
-71 -13 -115 -21 -44 -8 -118 -22 -165 -30 -99 -18 -96 -17 -270 -49 -74 -13
-151 -27 -170 -30 -19 -3 -46 -7 -60 -10 -14 -3 -38 -7 -55 -10 -16 -3 -43 -7
-60 -10 -42 -8 -133 -23 -175 -29 -19 -3 -44 -7 -55 -10 -19 -4 -139 -22 -215
-32 -19 -3 -42 -7 -50 -9 -8 -3 -78 -14 -155 -25 -77 -12 -151 -23 -165 -25
-20 -4 -110 -17 -275 -40 -11 -2 -42 -6 -70 -10 -61 -8 -102 -14 -135 -20 -14
-2 -47 -7 -75 -10 -27 -3 -63 -8 -80 -10 -16 -3 -46 -7 -65 -9 -31 -4 -156
-20 -235 -31 -89 -12 -243 -30 -335 -41 -25 -2 -58 -7 -75 -9 -16 -2 -55 -7
-85 -10 -68 -7 -127 -14 -160 -20 -14 -2 -59 -7 -100 -11 -41 -3 -82 -7 -90
-9 -8 -2 -50 -6 -93 -10 -43 -3 -86 -8 -95 -10 -9 -1 -53 -6 -97 -9 -44 -4
-91 -9 -105 -11 -14 -2 -56 -6 -95 -10 -38 -3 -90 -8 -115 -11 -73 -9 -35 12
55 31 44 9 89 18 100 21 44 9 215 47 290 64 44 11 91 21 105 23 152 27 1064
268 1465 387 132 40 260 78 285 85 25 7 95 29 155 48 61 19 148 47 195 62 47
15 164 54 260 87 96 33 180 61 185 62 6 2 17 6 25 9 8 3 80 29 160 57 167 59
515 187 545 200 11 5 97 38 190 74 465 177 1000 404 1540 651 33 15 116 54
185 87 69 32 142 67 162 76 l37 17 1 863 c0 474 -1 862 -2 862 -2 -1 -116 -58
-254 -128z"/>
</g>
</svg>
