<svg version="1.1" xmlns="http://www.w3.org/2000/svg" viewBox="0 0 527.7 102.2">
    <style type="text/css">
        .st0 { fill: #EEEEE1; }
    </style>
    <path class="st0" d="M490.2,35.7c-10.4-0.1-16.8,6.3-15.2,22.1c9.1-3.6,18.4-7.9,27.7-13.1C500,36.6,493,35.7,490.2,35.7z
          M494.2,102.2c-26.3-0.2-42.6-17-42.6-44c0-26.7,15.2-43.3,39.7-43.3c20.6,0,33.5,12.9,37.4,37.3c-14.2,9.4-30,17.7-46.6,24.1
          c0,0,4.3,3.1,13.2,3h32.4v22.9H494.2z M242.4,102.2V52.8c0-11.1-3-14.3-13.3-14.3h-11v63.7H195V15.9h36.7
          c22.7,0,33.7,10.4,33.7,31.9v54.4H242.4z M312.7,102.2c-26.4,0-42.8-16.3-42.8-42.9c0-26.8,16.3-43.3,42.6-43.3h10v23.6h-8.4
          c-13,0.2-20.4,7.4-20.4,19.8c0,12,7.4,19,20.4,19.1h8.8v23.7H312.7z M406.8,102.2V47.8c0-21.5,11-31.9,33.7-31.9h10.7v22.6h-8
          c-10.3,0-13.3,3.2-13.3,14.3v49.4H406.8z M152.4,35.7c-10.4-0.1-16.8,6.3-15.2,22.1c9.1-3.6,18.4-7.9,27.7-13.1
          C162.2,36.6,155.2,35.7,152.4,35.7z M156.4,102.2c-26.3-0.2-42.6-17-42.6-44c0-26.7,15.2-43.3,39.7-43.3
          c20.6,0,33.5,12.9,37.4,37.3c-14.2,9.4-30,17.7-46.6,24.1c0,0,4.3,3.1,13.2,3h32.4v22.9H156.4z M90.9,79.2v23H0V32.8
          c14.4-3.1,28.7-7.1,42.6-12C59.2,15,75.3,8.1,90.9,0v25.6C77.7,32,64,37.6,50.1,42.5C34.4,48,18.3,52.4,2,55.8V56
          c30.1-2.8,59.7-7.7,88.9-14.5V65C61.7,71.6,32,76.3,2,79v0.2H90.9z M324.7,59c0,27.7,14.6,44.9,38.8,44.9s38.8-17.2,38.8-44.9
          c0.1-14.7-3.8-26.1-11.5-33.8c-6.7-6.8-16.4-10.5-27.3-10.5s-20.6,3.7-27.3,10.5C328.5,33,324.6,44.4,324.7,59z M346.9,59.4
          c0-13.1,6.7-22,16.6-22s16.6,8.8,16.6,22c0,13.1-6.6,21.6-16.6,21.6C353.5,81,346.9,72.5,346.9,59.4z"/>
</svg>
